G04 EasyPC Gerber Version 20.0.2 Build 4112 *
G04 #@! TF.Part,Single*
G04 #@! TF.FileFunction,Legend,Top *
%FSLAX35Y35*%
%MOIN*%
%ADD106C,0.00100*%
%ADD105C,0.00500*%
%ADD115C,0.00787*%
%ADD114C,0.00800*%
%ADD11C,0.01000*%
X0Y0D02*
D02*
D11*
X11348Y82529D02*
Y73868D01*
X13750Y258700D02*
Y271600D01*
X13850*
X19419Y65797D02*
X28081D01*
X19419Y90600D02*
X28081D01*
X21750Y250600D02*
X25350D01*
X21750Y280100D02*
X25350D01*
X33450Y258700D02*
Y271600D01*
X33550*
X36152Y82529D02*
Y73868D01*
X506348Y285029D02*
Y276368D01*
X514419Y268297D02*
X523081D01*
X514419Y293100D02*
X523081D01*
X531152Y285029D02*
Y276368D01*
D02*
D105*
X9375Y110600D02*
X10000Y110913D01*
X10313Y111537*
Y112787*
X10000Y113413*
X9375Y113725*
X8750Y113413*
X8437Y112787*
Y111537*
X8125Y110913*
X7500Y110600*
X6875Y110913*
X6563Y111537*
Y112787*
X6875Y113413*
X7500Y113725*
X10313Y115600D02*
X6563D01*
X8437D02*
Y116537D01*
X6563Y118725*
X8437Y116537D02*
X10313Y118725D01*
X10000Y120913D02*
X10313Y121537D01*
Y122163*
X10000Y122787*
X9375Y123100*
X8750Y122787*
X8437Y122163*
Y121537*
Y122163D02*
X8125Y122787D01*
X7500Y123100*
X6875Y122787*
X6563Y122163*
Y121537*
X6875Y120913*
X29375Y296537D02*
X30625D01*
X30000D02*
Y300287D01*
X29375Y299663*
X33750Y297475D02*
X34063Y298100D01*
X34687Y298413*
X35313*
X35937Y298100*
X36250Y297475*
X35937Y296850*
X35313Y296537*
X34687*
X34063Y296850*
X33750Y297475*
Y298413*
X34063Y299350*
X34687Y299975*
X35313Y300287*
X39063Y296850D02*
X39687Y296537D01*
X40313*
X40937Y296850*
X41250Y297475*
Y299350*
X40937Y299975*
X40313Y300287*
X39687*
X39063Y299975*
X38750Y299350*
Y297475*
X39063Y296850*
X40937Y299975*
X43750Y296537D02*
Y300287D01*
X45313Y298413*
X46875Y300287*
Y296537*
X40750Y224600D02*
X56750D01*
Y231600*
X40750*
Y224600*
X47250Y11100D02*
Y8600D01*
X49750*
X47250Y11100*
G36*
Y8600*
X49750*
X47250Y11100*
G37*
Y37600D02*
X105250D01*
Y8600*
X47250*
Y37600*
Y316100D02*
Y313600D01*
X49750*
X47250Y316100*
G36*
Y313600*
X49750*
X47250Y316100*
G37*
Y342600D02*
X105250D01*
Y313600*
X47250*
Y342600*
X48750Y234037D02*
Y237787D01*
X50937*
X51563Y237475*
X51875Y236850*
X51563Y236225*
X50937Y235913*
X48750*
X50937D02*
X51875Y234037D01*
X54687Y235913D02*
X55313D01*
X55937Y236225*
X56250Y236850*
X55937Y237475*
X55313Y237787*
X54687*
X54063Y237475*
X53750Y236850*
X54063Y236225*
X54687Y235913*
X54063Y235600*
X53750Y234975*
X54063Y234350*
X54687Y234037*
X55313*
X55937Y234350*
X56250Y234975*
X55937Y235600*
X55313Y235913*
Y273100D02*
X51563D01*
Y275287*
X51875Y275913*
X52500Y276225*
X53125Y275913*
X53437Y275287*
Y273100*
Y275287D02*
X55313Y276225D01*
Y278725D02*
Y279975D01*
Y279350D02*
X51563D01*
X52187Y278725*
X57250Y282600D02*
Y298600D01*
X50250*
Y282600*
X57250*
X66187Y61225D02*
X66500Y60913D01*
X66813Y60287*
Y59350*
X66500Y58725*
X66187Y58413*
X65563Y58100*
X64313*
X63687Y58413*
X63375Y58725*
X63063Y59350*
Y60287*
X63375Y60913*
X63687Y61225*
X66813Y63725D02*
Y64975D01*
Y64350D02*
X63063D01*
X63687Y63725*
X66187Y128725D02*
X66500Y128413D01*
X66813Y127787*
Y126850*
X66500Y126225*
X66187Y125913*
X65563Y125600*
X64313*
X63687Y125913*
X63375Y126225*
X63063Y126850*
Y127787*
X63375Y128413*
X63687Y128725*
X66813Y133100D02*
Y130600D01*
X64625Y132787*
X64000Y133100*
X63375Y132787*
X63063Y132163*
Y131225*
X63375Y130600*
X66187Y196225D02*
X66500Y195913D01*
X66813Y195287*
Y194350*
X66500Y193725*
X66187Y193413*
X65563Y193100*
X64313*
X63687Y193413*
X63375Y193725*
X63063Y194350*
Y195287*
X63375Y195913*
X63687Y196225*
X66500Y198413D02*
X66813Y199037D01*
Y199663*
X66500Y200287*
X65875Y200600*
X65250Y200287*
X64937Y199663*
Y199037*
Y199663D02*
X64625Y200287D01*
X64000Y200600*
X63375Y200287*
X63063Y199663*
Y199037*
X63375Y198413*
X66187Y263725D02*
X66500Y263413D01*
X66813Y262787*
Y261850*
X66500Y261225*
X66187Y260913*
X65563Y260600*
X64313*
X63687Y260913*
X63375Y261225*
X63063Y261850*
Y262787*
X63375Y263413*
X63687Y263725*
X66813Y267163D02*
X63063D01*
X65563Y265600*
Y268100*
X104687Y298413D02*
X105313D01*
X105937Y298725*
X106250Y299350*
X105937Y299975*
X105313Y300287*
X104687*
X104063Y299975*
X103750Y299350*
X104063Y298725*
X104687Y298413*
X104063Y298100*
X103750Y297475*
X104063Y296850*
X104687Y296537*
X105313*
X105937Y296850*
X106250Y297475*
X105937Y298100*
X105313Y298413*
X109063Y296850D02*
X109687Y296537D01*
X110313*
X110937Y296850*
X111250Y297475*
Y299350*
X110937Y299975*
X110313Y300287*
X109687*
X109063Y299975*
X108750Y299350*
Y297475*
X109063Y296850*
X110937Y299975*
X113750Y296537D02*
Y300287D01*
X115313Y298413*
X116875Y300287*
Y296537*
X101563Y55600D02*
X105313D01*
Y58725*
Y61225D02*
Y62475D01*
Y61850D02*
X101563D01*
X102187Y61225*
X101563Y143100D02*
X105313D01*
Y146225*
Y150600D02*
Y148100D01*
X103125Y150287*
X102500Y150600*
X101875Y150287*
X101563Y149663*
Y148725*
X101875Y148100*
X104063Y225600D02*
X107813D01*
Y228725*
X107500Y230913D02*
X107813Y231537D01*
Y232163*
X107500Y232787*
X106875Y233100*
X106250Y232787*
X105937Y232163*
Y231537*
Y232163D02*
X105625Y232787D01*
X105000Y233100*
X104375Y232787*
X104063Y232163*
Y231537*
X104375Y230913*
X112250Y11100D02*
Y8600D01*
X114750*
X112250Y11100*
G36*
Y8600*
X114750*
X112250Y11100*
G37*
Y37600D02*
X170250D01*
Y8600*
X112250*
Y37600*
Y316100D02*
Y313600D01*
X114750*
X112250Y316100*
G36*
Y313600*
X114750*
X112250Y316100*
G37*
Y342600D02*
X170250D01*
Y313600*
X112250*
Y342600*
X125313Y273100D02*
X121563D01*
Y275287*
X121875Y275913*
X122500Y276225*
X123125Y275913*
X123437Y275287*
Y273100*
Y275287D02*
X125313Y276225D01*
Y280600D02*
Y278100D01*
X123125Y280287*
X122500Y280600*
X121875Y280287*
X121563Y279663*
Y278725*
X121875Y278100*
X127250Y282600D02*
Y298600D01*
X120250*
Y282600*
X127250*
X136187Y61225D02*
X136500Y60913D01*
X136813Y60287*
Y59350*
X136500Y58725*
X136187Y58413*
X135563Y58100*
X134313*
X133687Y58413*
X133375Y58725*
X133063Y59350*
Y60287*
X133375Y60913*
X133687Y61225*
X136500Y63100D02*
X136813Y63725D01*
Y64663*
X136500Y65287*
X135875Y65600*
X135563*
X134937Y65287*
X134625Y64663*
Y63100*
X133063*
Y65600*
X136187Y128725D02*
X136500Y128413D01*
X136813Y127787*
Y126850*
X136500Y126225*
X136187Y125913*
X135563Y125600*
X134313*
X133687Y125913*
X133375Y126225*
X133063Y126850*
Y127787*
X133375Y128413*
X133687Y128725*
X135875Y130600D02*
X135250Y130913D01*
X134937Y131537*
Y132163*
X135250Y132787*
X135875Y133100*
X136500Y132787*
X136813Y132163*
Y131537*
X136500Y130913*
X135875Y130600*
X134937*
X134000Y130913*
X133375Y131537*
X133063Y132163*
X136187Y196225D02*
X136500Y195913D01*
X136813Y195287*
Y194350*
X136500Y193725*
X136187Y193413*
X135563Y193100*
X134313*
X133687Y193413*
X133375Y193725*
X133063Y194350*
Y195287*
X133375Y195913*
X133687Y196225*
X136813Y198100D02*
X133063Y200600D01*
Y198100*
X136187Y263725D02*
X136500Y263413D01*
X136813Y262787*
Y261850*
X136500Y261225*
X136187Y260913*
X135563Y260600*
X134313*
X133687Y260913*
X133375Y261225*
X133063Y261850*
Y262787*
X133375Y263413*
X133687Y263725*
X134937Y266537D02*
Y267163D01*
X134625Y267787*
X134000Y268100*
X133375Y267787*
X133063Y267163*
Y266537*
X133375Y265913*
X134000Y265600*
X134625Y265913*
X134937Y266537*
X135250Y265913*
X135875Y265600*
X136500Y265913*
X136813Y266537*
Y267163*
X136500Y267787*
X135875Y268100*
X135250Y267787*
X134937Y267163*
X171563Y55600D02*
X175313D01*
Y58725*
Y62163D02*
X171563D01*
X174063Y60600*
Y63100*
X171563Y143100D02*
X175313D01*
Y146225*
X175000Y148100D02*
X175313Y148725D01*
Y149663*
X175000Y150287*
X174375Y150600*
X174063*
X173437Y150287*
X173125Y149663*
Y148100*
X171563*
Y150600*
Y228100D02*
X175313D01*
Y231225*
X174375Y233100D02*
X173750Y233413D01*
X173437Y234037*
Y234663*
X173750Y235287*
X174375Y235600*
X175000Y235287*
X175313Y234663*
Y234037*
X175000Y233413*
X174375Y233100*
X173437*
X172500Y233413*
X171875Y234037*
X171563Y234663*
X177813Y296537D02*
Y300287D01*
X176250Y297787*
X178750*
X181563Y296850D02*
X182187Y296537D01*
X182813*
X183437Y296850*
X183750Y297475*
Y299350*
X183437Y299975*
X182813Y300287*
X182187*
X181563Y299975*
X181250Y299350*
Y297475*
X181563Y296850*
X183437Y299975*
X186250Y296537D02*
Y300287D01*
X187813Y298413*
X189375Y300287*
Y296537*
X177250Y11100D02*
Y8600D01*
X179750*
X177250Y11100*
G36*
Y8600*
X179750*
X177250Y11100*
G37*
Y37600D02*
X235250D01*
Y8600*
X177250*
Y37600*
Y316100D02*
Y313600D01*
X179750*
X177250Y316100*
G36*
Y313600*
X179750*
X177250Y316100*
G37*
Y342600D02*
X235250D01*
Y313600*
X177250*
Y342600*
X197813Y275600D02*
X194063D01*
Y277787*
X194375Y278413*
X195000Y278725*
X195625Y278413*
X195937Y277787*
Y275600*
Y277787D02*
X197813Y278725D01*
X197500Y280913D02*
X197813Y281537D01*
Y282163*
X197500Y282787*
X196875Y283100*
X196250Y282787*
X195937Y282163*
Y281537*
Y282163D02*
X195625Y282787D01*
X195000Y283100*
X194375Y282787*
X194063Y282163*
Y281537*
X194375Y280913*
X199750Y285100D02*
Y301100D01*
X192750*
Y285100*
X199750*
X206187Y131225D02*
X206500Y130913D01*
X206813Y130287*
Y129350*
X206500Y128725*
X206187Y128413*
X205563Y128100*
X204313*
X203687Y128413*
X203375Y128725*
X203063Y129350*
Y130287*
X203375Y130913*
X203687Y131225*
X206813Y133725D02*
Y134975D01*
Y134350D02*
X203063D01*
X203687Y133725*
X206500Y138413D02*
X206813Y139037D01*
Y139663*
X206500Y140287*
X205875Y140600*
X204000*
X203375Y140287*
X203063Y139663*
Y139037*
X203375Y138413*
X204000Y138100*
X205875*
X206500Y138413*
X203375Y140287*
X206187Y198725D02*
X206500Y198413D01*
X206813Y197787*
Y196850*
X206500Y196225*
X206187Y195913*
X205563Y195600*
X204313*
X203687Y195913*
X203375Y196225*
X203063Y196850*
Y197787*
X203375Y198413*
X203687Y198725*
X206813Y201225D02*
Y202475D01*
Y201850D02*
X203063D01*
X203687Y201225*
X206813Y206225D02*
Y207475D01*
Y206850D02*
X203063D01*
X203687Y206225*
X213125Y53100D02*
X215000D01*
Y52475*
X214375Y51225*
X213750Y50600*
X212500Y49975*
X211250*
X210000Y50600*
X209375Y51225*
X208750Y52475*
Y54975*
X209375Y56225*
X210000Y56850*
X211250Y57475*
X212500*
X213750Y56850*
X214375Y56225*
X215000Y54975*
X220625Y53725D02*
X221875D01*
X223125Y54350*
X223750Y55600*
X223125Y56850*
X221875Y57475*
X220625*
X219375Y56850*
X218750Y55600*
X219375Y54350*
X220625Y53725*
X219375Y53100*
X218750Y51850*
X219375Y50600*
X220625Y49975*
X221875*
X223125Y50600*
X223750Y51850*
X223125Y53100*
X221875Y53725*
X228750Y49975D02*
Y57475D01*
X235000Y49975*
Y57475*
X238750Y51225D02*
X239375Y50600D01*
X240625Y49975*
X241875Y50600*
X242500Y51225*
Y57475*
X243750*
X242500D02*
X240000D01*
X248750Y51225D02*
X249375Y50600D01*
X250625Y49975*
X251875Y50600*
X252500Y51225*
Y57475*
X253750*
X252500D02*
X250000D01*
X268750D02*
Y49975D01*
X275000*
X278750Y51850D02*
X279375Y50600D01*
X280625Y49975*
X281875*
X283125Y50600*
X283750Y51850*
Y53100*
X283125Y54350*
X281875Y54975*
X280625*
X279375Y54350*
X278750Y53100*
Y51850*
X288750Y54975D02*
Y50600D01*
X289375Y49975*
X290625*
X291250Y50600*
Y52475*
Y50600D02*
X291875Y49975D01*
X293125*
X293750Y50600*
Y54975*
X298750D02*
Y48100D01*
Y51850D02*
X299375Y50600D01*
X300625Y49975*
X301875*
X303125Y50600*
X303750Y51850*
Y53100*
X303125Y54350*
X301875Y54975*
X300625*
X299375Y54350*
X298750Y53100*
Y51850*
X308750Y54350D02*
X310000Y54975D01*
X311875*
X313125Y54350*
X313750Y53100*
Y51225*
X313125Y50600*
X311875Y49975*
X310625*
X309375Y50600*
X308750Y51225*
Y51850*
X309375Y52475*
X310625Y53100*
X311875*
X313125Y52475*
X313750Y51850*
Y51225D02*
Y49975D01*
X318750Y50600D02*
X320000Y49975D01*
X322500*
X323750Y50600*
Y51850*
X322500Y52475*
X320000*
X318750Y53100*
Y54350*
X320000Y54975*
X322500*
X323750Y54350*
X328750Y50600D02*
X330000Y49975D01*
X332500*
X333750Y50600*
Y51850*
X332500Y52475*
X330000*
X328750Y53100*
Y54350*
X330000Y54975*
X332500*
X333750Y54350*
X348750Y49975D02*
Y57475D01*
X355000*
X353750Y53725D02*
X348750D01*
X361250Y49975D02*
Y54975D01*
Y56850D02*
X371875Y49975*
X371250D01*
Y57475*
X380000Y54975D02*
X382500D01*
X381250Y56225D02*
Y50600D01*
X381875Y49975*
X382500*
X383125Y50600*
X393750D02*
X393125Y49975D01*
X391875*
X390625*
X389375Y50600*
X388750Y51850*
Y53725*
X389375Y54350*
X390625Y54975*
X391875*
X393125Y54350*
X393750Y53725*
Y53100*
X393125Y52475*
X391875Y51850*
X390625*
X389375Y52475*
X388750Y53100*
X398750Y49975D02*
Y54975D01*
Y53100D02*
X399375Y54350D01*
X400625Y54975*
X401875*
X403125Y54350*
X423125Y53725D02*
X424375Y53100D01*
X425000Y51850*
X424375Y50600*
X423125Y49975*
X418750*
Y57475*
X423125*
X424375Y56850*
X425000Y55600*
X424375Y54350*
X423125Y53725*
X418750*
X428750Y51850D02*
X429375Y50600D01*
X430625Y49975*
X431875*
X433125Y50600*
X433750Y51850*
Y53100*
X433125Y54350*
X431875Y54975*
X430625*
X429375Y54350*
X428750Y53100*
Y51850*
X438750Y54350D02*
X440000Y54975D01*
X441875*
X443125Y54350*
X443750Y53100*
Y51225*
X443125Y50600*
X441875Y49975*
X440625*
X439375Y50600*
X438750Y51225*
Y51850*
X439375Y52475*
X440625Y53100*
X441875*
X443125Y52475*
X443750Y51850*
Y51225D02*
Y49975D01*
X448750D02*
Y54975D01*
Y53100D02*
X449375Y54350D01*
X450625Y54975*
X451875*
X453125Y54350*
X463750Y53100D02*
X463125Y54350D01*
X461875Y54975*
X460625*
X459375Y54350*
X458750Y53100*
Y51850*
X459375Y50600*
X460625Y49975*
X461875*
X463125Y50600*
X463750Y51850*
Y49975D02*
Y57475D01*
X207187Y264725D02*
X207500Y264413D01*
X207813Y263787*
Y262850*
X207500Y262225*
X207187Y261913*
X206563Y261600*
X205313*
X204687Y261913*
X204375Y262225*
X204063Y262850*
Y263787*
X204375Y264413*
X204687Y264725*
X207813Y267225D02*
Y268475D01*
Y267850D02*
X204063D01*
X204687Y267225*
X207813Y274100D02*
Y271600D01*
X205625Y273787*
X205000Y274100*
X204375Y273787*
X204063Y273163*
Y272225*
X204375Y271600*
X209687Y72225D02*
X210000Y71913D01*
X210313Y71287*
Y70350*
X210000Y69725*
X209687Y69413*
X209063Y69100*
X207813*
X207187Y69413*
X206875Y69725*
X206563Y70350*
Y71287*
X206875Y71913*
X207187Y72225*
X210313Y75037D02*
X210000Y75663D01*
X209375Y76287*
X208437Y76600*
X207500*
X206875Y76287*
X206563Y75663*
Y75037*
X206875Y74413*
X207500Y74100*
X208125Y74413*
X208437Y75037*
Y75663*
X208125Y76287*
X207500Y76600*
X241250Y296537D02*
X238750D01*
X240937Y298725*
X241250Y299350*
X240937Y299975*
X240313Y300287*
X239375*
X238750Y299975*
X244063Y296850D02*
X244687Y296537D01*
X245313*
X245937Y296850*
X246250Y297475*
Y299350*
X245937Y299975*
X245313Y300287*
X244687*
X244063Y299975*
X243750Y299350*
Y297475*
X244063Y296850*
X245937Y299975*
X248750Y296537D02*
Y300287D01*
X250313Y298413*
X251875Y300287*
Y296537*
X242250Y11100D02*
Y8600D01*
X244750*
X242250Y11100*
G36*
Y8600*
X244750*
X242250Y11100*
G37*
Y37600D02*
X300250D01*
Y8600*
X242250*
Y37600*
Y316100D02*
Y313600D01*
X244750*
X242250Y316100*
G36*
Y313600*
X244750*
X242250Y316100*
G37*
Y342600D02*
X300250D01*
Y313600*
X242250*
Y342600*
X241563Y155600D02*
X245313D01*
Y158725*
X243437Y161537D02*
Y162163D01*
X243125Y162787*
X242500Y163100*
X241875Y162787*
X241563Y162163*
Y161537*
X241875Y160913*
X242500Y160600*
X243125Y160913*
X243437Y161537*
X243750Y160913*
X244375Y160600*
X245000Y160913*
X245313Y161537*
Y162163*
X245000Y162787*
X244375Y163100*
X243750Y162787*
X243437Y162163*
X241563Y233100D02*
X245313D01*
Y236225*
Y239037D02*
X245000Y239663D01*
X244375Y240287*
X243437Y240600*
X242500*
X241875Y240287*
X241563Y239663*
Y239037*
X241875Y238413*
X242500Y238100*
X243125Y238413*
X243437Y239037*
Y239663*
X243125Y240287*
X242500Y240600*
X244063Y68100D02*
X247813D01*
Y71225*
Y73100D02*
X244063Y75600D01*
Y73100*
X252813Y283100D02*
X249063D01*
Y285287*
X249375Y285913*
X250000Y286225*
X250625Y285913*
X250937Y285287*
Y283100*
Y285287D02*
X252813Y286225D01*
Y289663D02*
X249063D01*
X251563Y288100*
Y290600*
X262250Y282600D02*
Y298600D01*
X255250*
Y282600*
X262250*
X272187Y72225D02*
X272500Y71913D01*
X272813Y71287*
Y70350*
X272500Y69725*
X272187Y69413*
X271563Y69100*
X270313*
X269687Y69413*
X269375Y69725*
X269063Y70350*
Y71287*
X269375Y71913*
X269687Y72225*
X272813Y74725D02*
Y75975D01*
Y75350D02*
X269063D01*
X269687Y74725*
X272500Y79413D02*
X272813Y80037D01*
Y80663*
X272500Y81287*
X271875Y81600*
X271250Y81287*
X270937Y80663*
Y80037*
Y80663D02*
X270625Y81287D01*
X270000Y81600*
X269375Y81287*
X269063Y80663*
Y80037*
X269375Y79413*
X272187Y137225D02*
X272500Y136913D01*
X272813Y136287*
Y135350*
X272500Y134725*
X272187Y134413*
X271563Y134100*
X270313*
X269687Y134413*
X269375Y134725*
X269063Y135350*
Y136287*
X269375Y136913*
X269687Y137225*
X272813Y139725D02*
Y140975D01*
Y140350D02*
X269063D01*
X269687Y139725*
X272813Y145663D02*
X269063D01*
X271563Y144100*
Y146600*
X272187Y199725D02*
X272500Y199413D01*
X272813Y198787*
Y197850*
X272500Y197225*
X272187Y196913*
X271563Y196600*
X270313*
X269687Y196913*
X269375Y197225*
X269063Y197850*
Y198787*
X269375Y199413*
X269687Y199725*
X272813Y202225D02*
Y203475D01*
Y202850D02*
X269063D01*
X269687Y202225*
X272500Y206600D02*
X272813Y207225D01*
Y208163*
X272500Y208787*
X271875Y209100*
X271563*
X270937Y208787*
X270625Y208163*
Y206600*
X269063*
Y209100*
X272187Y262225D02*
X272500Y261913D01*
X272813Y261287*
Y260350*
X272500Y259725*
X272187Y259413*
X271563Y259100*
X270313*
X269687Y259413*
X269375Y259725*
X269063Y260350*
Y261287*
X269375Y261913*
X269687Y262225*
X272813Y264725D02*
Y265975D01*
Y265350D02*
X269063D01*
X269687Y264725*
X271875Y269100D02*
X271250Y269413D01*
X270937Y270037*
Y270663*
X271250Y271287*
X271875Y271600*
X272500Y271287*
X272813Y270663*
Y270037*
X272500Y269413*
X271875Y269100*
X270937*
X270000Y269413*
X269375Y270037*
X269063Y270663*
X306875Y296537D02*
X308125D01*
X307500D02*
Y300287D01*
X306875Y299663*
X311250Y296850D02*
X311875Y296537D01*
X312813*
X313437Y296850*
X313750Y297475*
Y297787*
X313437Y298413*
X312813Y298725*
X311250*
Y300287*
X313750*
X316250Y296537D02*
Y300287D01*
X317813Y298413*
X319375Y300287*
Y296537*
X307250Y11100D02*
Y8600D01*
X309750*
X307250Y11100*
G36*
Y8600*
X309750*
X307250Y11100*
G37*
Y37600D02*
X365250D01*
Y8600*
X307250*
Y37600*
Y316100D02*
Y313600D01*
X309750*
X307250Y316100*
G36*
Y313600*
X309750*
X307250Y316100*
G37*
Y342600D02*
X365250D01*
Y313600*
X307250*
Y342600*
X304063Y70600D02*
X307813D01*
Y73725*
Y76225D02*
Y77475D01*
Y76850D02*
X304063D01*
X304687Y76225*
X307500Y80913D02*
X307813Y81537D01*
Y82163*
X307500Y82787*
X306875Y83100*
X305000*
X304375Y82787*
X304063Y82163*
Y81537*
X304375Y80913*
X305000Y80600*
X306875*
X307500Y80913*
X304375Y82787*
X304063Y153100D02*
X307813D01*
Y156225*
Y158725D02*
Y159975D01*
Y159350D02*
X304063D01*
X304687Y158725*
X307813Y163725D02*
Y164975D01*
Y164350D02*
X304063D01*
X304687Y163725*
X306563Y238100D02*
X310313D01*
Y241225*
Y243725D02*
Y244975D01*
Y244350D02*
X306563D01*
X307187Y243725*
X310313Y250600D02*
Y248100D01*
X308125Y250287*
X307500Y250600*
X306875Y250287*
X306563Y249663*
Y248725*
X306875Y248100*
X327813Y275600D02*
X324063D01*
Y277787*
X324375Y278413*
X325000Y278725*
X325625Y278413*
X325937Y277787*
Y275600*
Y277787D02*
X327813Y278725D01*
X327500Y280600D02*
X327813Y281225D01*
Y282163*
X327500Y282787*
X326875Y283100*
X326563*
X325937Y282787*
X325625Y282163*
Y280600*
X324063*
Y283100*
X329750Y285100D02*
Y301100D01*
X322750*
Y285100*
X329750*
X339687Y68725D02*
X340000Y68413D01*
X340313Y67787*
Y66850*
X340000Y66225*
X339687Y65913*
X339063Y65600*
X337813*
X337187Y65913*
X336875Y66225*
X336563Y66850*
Y67787*
X336875Y68413*
X337187Y68725*
X340313Y71225D02*
Y72475D01*
Y71850D02*
X336563D01*
X337187Y71225*
X340313Y75600D02*
X336563Y78100D01*
Y75600*
X339687Y137225D02*
X340000Y136913D01*
X340313Y136287*
Y135350*
X340000Y134725*
X339687Y134413*
X339063Y134100*
X337813*
X337187Y134413*
X336875Y134725*
X336563Y135350*
Y136287*
X336875Y136913*
X337187Y137225*
X340313Y139725D02*
Y140975D01*
Y140350D02*
X336563D01*
X337187Y139725*
X338437Y145037D02*
Y145663D01*
X338125Y146287*
X337500Y146600*
X336875Y146287*
X336563Y145663*
Y145037*
X336875Y144413*
X337500Y144100*
X338125Y144413*
X338437Y145037*
X338750Y144413*
X339375Y144100*
X340000Y144413*
X340313Y145037*
Y145663*
X340000Y146287*
X339375Y146600*
X338750Y146287*
X338437Y145663*
X339687Y202225D02*
X340000Y201913D01*
X340313Y201287*
Y200350*
X340000Y199725*
X339687Y199413*
X339063Y199100*
X337813*
X337187Y199413*
X336875Y199725*
X336563Y200350*
Y201287*
X336875Y201913*
X337187Y202225*
X340313Y204725D02*
Y205975D01*
Y205350D02*
X336563D01*
X337187Y204725*
X340313Y210037D02*
X340000Y210663D01*
X339375Y211287*
X338437Y211600*
X337500*
X336875Y211287*
X336563Y210663*
Y210037*
X336875Y209413*
X337500Y209100*
X338125Y209413*
X338437Y210037*
Y210663*
X338125Y211287*
X337500Y211600*
X339687Y262225D02*
X340000Y261913D01*
X340313Y261287*
Y260350*
X340000Y259725*
X339687Y259413*
X339063Y259100*
X337813*
X337187Y259413*
X336875Y259725*
X336563Y260350*
Y261287*
X336875Y261913*
X337187Y262225*
X340313Y266600D02*
Y264100D01*
X338125Y266287*
X337500Y266600*
X336875Y266287*
X336563Y265663*
Y264725*
X336875Y264100*
X340000Y269413D02*
X340313Y270037D01*
Y270663*
X340000Y271287*
X339375Y271600*
X337500*
X336875Y271287*
X336563Y270663*
Y270037*
X336875Y269413*
X337500Y269100*
X339375*
X340000Y269413*
X336875Y271287*
X371875Y296537D02*
X373125D01*
X372500D02*
Y300287D01*
X371875Y299663*
X376563Y296850D02*
X377187Y296537D01*
X377813*
X378437Y296850*
X378750Y297475*
Y299350*
X378437Y299975*
X377813Y300287*
X377187*
X376563Y299975*
X376250Y299350*
Y297475*
X376563Y296850*
X378437Y299975*
X381250Y296537D02*
Y300287D01*
X382813Y298413*
X384375Y300287*
Y296537*
X372250Y11100D02*
Y8600D01*
X374750*
X372250Y11100*
G36*
Y8600*
X374750*
X372250Y11100*
G37*
Y37600D02*
X430250D01*
Y8600*
X372250*
Y37600*
Y316100D02*
Y313600D01*
X374750*
X372250Y316100*
G36*
Y313600*
X374750*
X372250Y316100*
G37*
Y342600D02*
X430250D01*
Y313600*
X372250*
Y342600*
X371563Y70600D02*
X375313D01*
Y73725*
Y76225D02*
Y77475D01*
Y76850D02*
X371563D01*
X372187Y76225*
X375000Y80913D02*
X375313Y81537D01*
Y82163*
X375000Y82787*
X374375Y83100*
X373750Y82787*
X373437Y82163*
Y81537*
Y82163D02*
X373125Y82787D01*
X372500Y83100*
X371875Y82787*
X371563Y82163*
Y81537*
X371875Y80913*
X371563Y153100D02*
X375313D01*
Y156225*
Y158725D02*
Y159975D01*
Y159350D02*
X371563D01*
X372187Y158725*
X375313Y164663D02*
X371563D01*
X374063Y163100*
Y165600*
Y238100D02*
X377813D01*
Y241225*
Y243725D02*
Y244975D01*
Y244350D02*
X374063D01*
X374687Y243725*
X377500Y248100D02*
X377813Y248725D01*
Y249663*
X377500Y250287*
X376875Y250600*
X376563*
X375937Y250287*
X375625Y249663*
Y248100*
X374063*
Y250600*
X397250Y287600D02*
Y303600D01*
X390250*
Y287600*
X397250*
X400313Y278100D02*
X396563D01*
Y280287*
X396875Y280913*
X397500Y281225*
X398125Y280913*
X398437Y280287*
Y278100*
Y280287D02*
X400313Y281225D01*
X399375Y283100D02*
X398750Y283413D01*
X398437Y284037*
Y284663*
X398750Y285287*
X399375Y285600*
X400000Y285287*
X400313Y284663*
Y284037*
X400000Y283413*
X399375Y283100*
X398437*
X397500Y283413*
X396875Y284037*
X396563Y284663*
X404687Y69725D02*
X405000Y69413D01*
X405313Y68787*
Y67850*
X405000Y67225*
X404687Y66913*
X404063Y66600*
X402813*
X402187Y66913*
X401875Y67225*
X401563Y67850*
Y68787*
X401875Y69413*
X402187Y69725*
X405313Y74100D02*
Y71600D01*
X403125Y73787*
X402500Y74100*
X401875Y73787*
X401563Y73163*
Y72225*
X401875Y71600*
X405313Y77225D02*
Y78475D01*
Y77850D02*
X401563D01*
X402187Y77225*
X404687Y134725D02*
X405000Y134413D01*
X405313Y133787*
Y132850*
X405000Y132225*
X404687Y131913*
X404063Y131600*
X402813*
X402187Y131913*
X401875Y132225*
X401563Y132850*
Y133787*
X401875Y134413*
X402187Y134725*
X405313Y139100D02*
Y136600D01*
X403125Y138787*
X402500Y139100*
X401875Y138787*
X401563Y138163*
Y137225*
X401875Y136600*
X405313Y144100D02*
Y141600D01*
X403125Y143787*
X402500Y144100*
X401875Y143787*
X401563Y143163*
Y142225*
X401875Y141600*
X404687Y199725D02*
X405000Y199413D01*
X405313Y198787*
Y197850*
X405000Y197225*
X404687Y196913*
X404063Y196600*
X402813*
X402187Y196913*
X401875Y197225*
X401563Y197850*
Y198787*
X401875Y199413*
X402187Y199725*
X405313Y204100D02*
Y201600D01*
X403125Y203787*
X402500Y204100*
X401875Y203787*
X401563Y203163*
Y202225*
X401875Y201600*
X405000Y206913D02*
X405313Y207537D01*
Y208163*
X405000Y208787*
X404375Y209100*
X403750Y208787*
X403437Y208163*
Y207537*
Y208163D02*
X403125Y208787D01*
X402500Y209100*
X401875Y208787*
X401563Y208163*
Y207537*
X401875Y206913*
X404687Y262225D02*
X405000Y261913D01*
X405313Y261287*
Y260350*
X405000Y259725*
X404687Y259413*
X404063Y259100*
X402813*
X402187Y259413*
X401875Y259725*
X401563Y260350*
Y261287*
X401875Y261913*
X402187Y262225*
X405313Y266600D02*
Y264100D01*
X403125Y266287*
X402500Y266600*
X401875Y266287*
X401563Y265663*
Y264725*
X401875Y264100*
X405313Y270663D02*
X401563D01*
X404063Y269100*
Y271600*
X437250Y11100D02*
Y8600D01*
X439750*
X437250Y11100*
G36*
Y8600*
X439750*
X437250Y11100*
G37*
Y37600D02*
X495250D01*
Y8600*
X437250*
Y37600*
Y316100D02*
Y313600D01*
X439750*
X437250Y316100*
G36*
Y313600*
X439750*
X437250Y316100*
G37*
Y342600D02*
X495250D01*
Y313600*
X437250*
Y342600*
X436563Y83100D02*
X440313D01*
Y86225*
Y88725D02*
Y89975D01*
Y89350D02*
X436563D01*
X437187Y88725*
X439375Y93100D02*
X438750Y93413D01*
X438437Y94037*
Y94663*
X438750Y95287*
X439375Y95600*
X440000Y95287*
X440313Y94663*
Y94037*
X440000Y93413*
X439375Y93100*
X438437*
X437500Y93413*
X436875Y94037*
X436563Y94663*
Y238100D02*
X440313D01*
Y241225*
Y243725D02*
Y244975D01*
Y244350D02*
X436563D01*
X437187Y243725*
X438437Y249037D02*
Y249663D01*
X438125Y250287*
X437500Y250600*
X436875Y250287*
X436563Y249663*
Y249037*
X436875Y248413*
X437500Y248100*
X438125Y248413*
X438437Y249037*
X438750Y248413*
X439375Y248100*
X440000Y248413*
X440313Y249037*
Y249663*
X440000Y250287*
X439375Y250600*
X438750Y250287*
X438437Y249663*
X441250Y297475D02*
X441563Y298100D01*
X442187Y298413*
X442813*
X443437Y298100*
X443750Y297475*
X443437Y296850*
X442813Y296537*
X442187*
X441563Y296850*
X441250Y297475*
Y298413*
X441563Y299350*
X442187Y299975*
X442813Y300287*
X446250Y296537D02*
Y300287D01*
X447813Y298413*
X449375Y300287*
Y296537*
X439063Y153100D02*
X442813D01*
Y156225*
Y158725D02*
Y159975D01*
Y159350D02*
X439063D01*
X439687Y158725*
X442813Y163100D02*
X439063Y165600D01*
Y163100*
X462250Y290100D02*
Y306100D01*
X455250*
Y290100*
X462250*
X462813Y280600D02*
X459063D01*
Y282787*
X459375Y283413*
X460000Y283725*
X460625Y283413*
X460937Y282787*
Y280600*
Y282787D02*
X462813Y283725D01*
Y285600D02*
X459063Y288100D01*
Y285600*
X474687Y228725D02*
X475000Y228413D01*
X475313Y227787*
Y226850*
X475000Y226225*
X474687Y225913*
X474063Y225600*
X472813*
X472187Y225913*
X471875Y226225*
X471563Y226850*
Y227787*
X471875Y228413*
X472187Y228725*
X475313Y233100D02*
Y230600D01*
X473125Y232787*
X472500Y233100*
X471875Y232787*
X471563Y232163*
Y231225*
X471875Y230600*
X473437Y236537D02*
Y237163D01*
X473125Y237787*
X472500Y238100*
X471875Y237787*
X471563Y237163*
Y236537*
X471875Y235913*
X472500Y235600*
X473125Y235913*
X473437Y236537*
X473750Y235913*
X474375Y235600*
X475000Y235913*
X475313Y236537*
Y237163*
X475000Y237787*
X474375Y238100*
X473750Y237787*
X473437Y237163*
X477187Y56225D02*
X477500Y55913D01*
X477813Y55287*
Y54350*
X477500Y53725*
X477187Y53413*
X476563Y53100*
X475313*
X474687Y53413*
X474375Y53725*
X474063Y54350*
Y55287*
X474375Y55913*
X474687Y56225*
X477813Y60600D02*
Y58100D01*
X475625Y60287*
X475000Y60600*
X474375Y60287*
X474063Y59663*
Y58725*
X474375Y58100*
X477500Y63100D02*
X477813Y63725D01*
Y64663*
X477500Y65287*
X476875Y65600*
X476563*
X475937Y65287*
X475625Y64663*
Y63100*
X474063*
Y65600*
X502187Y121225D02*
X502500Y120913D01*
X502813Y120287*
Y119350*
X502500Y118725*
X502187Y118413*
X501563Y118100*
X500313*
X499687Y118413*
X499375Y118725*
X499063Y119350*
Y120287*
X499375Y120913*
X499687Y121225*
X502813Y125600D02*
Y123100D01*
X500625Y125287*
X500000Y125600*
X499375Y125287*
X499063Y124663*
Y123725*
X499375Y123100*
X501875Y128100D02*
X501250Y128413D01*
X500937Y129037*
Y129663*
X501250Y130287*
X501875Y130600*
X502500Y130287*
X502813Y129663*
Y129037*
X502500Y128413*
X501875Y128100*
X500937*
X500000Y128413*
X499375Y129037*
X499063Y129663*
Y150600D02*
X502813D01*
Y153725*
Y158100D02*
Y155600D01*
X500625Y157787*
X500000Y158100*
X499375Y157787*
X499063Y157163*
Y156225*
X499375Y155600*
X502500Y160913D02*
X502813Y161537D01*
Y162163*
X502500Y162787*
X501875Y163100*
X500000*
X499375Y162787*
X499063Y162163*
Y161537*
X499375Y160913*
X500000Y160600*
X501875*
X502500Y160913*
X499375Y162787*
X507187Y188725D02*
X507500Y188413D01*
X507813Y187787*
Y186850*
X507500Y186225*
X507187Y185913*
X506563Y185600*
X505313*
X504687Y185913*
X504375Y186225*
X504063Y186850*
Y187787*
X504375Y188413*
X504687Y188725*
X507813Y193100D02*
Y190600D01*
X505625Y192787*
X505000Y193100*
X504375Y192787*
X504063Y192163*
Y191225*
X504375Y190600*
X507813Y195600D02*
X504063Y198100D01*
Y195600*
X509063Y73100D02*
X512813D01*
Y76225*
Y78725D02*
Y79975D01*
Y79350D02*
X509063D01*
X509687Y78725*
X512813Y84037D02*
X512500Y84663D01*
X511875Y85287*
X510937Y85600*
X510000*
X509375Y85287*
X509063Y84663*
Y84037*
X509375Y83413*
X510000Y83100*
X510625Y83413*
X510937Y84037*
Y84663*
X510625Y85287*
X510000Y85600*
X511563Y218100D02*
X515313D01*
Y221225*
Y225600D02*
Y223100D01*
X513125Y225287*
X512500Y225600*
X511875Y225287*
X511563Y224663*
Y223725*
X511875Y223100*
X515313Y228725D02*
Y229975D01*
Y229350D02*
X511563D01*
X512187Y228725*
X526250Y170600D02*
Y145600D01*
X481250*
Y170600*
X526250*
X528750Y65600D02*
X503750D01*
Y100600*
X528750*
Y65600*
X531250Y210600D02*
X506250D01*
Y245600*
X531250*
Y210600*
D02*
D106*
X13750Y296537D02*
X13906Y296225D01*
X14219Y296069*
X14844*
X15156Y296225*
X15313Y296537*
X15156Y296850*
X14844Y297006*
X14219*
X13906Y297163*
X13750Y297475*
X13906Y297787*
X14219Y297944*
X14844*
X15156Y297787*
X15313Y297475*
X16250Y296069D02*
Y297944D01*
Y297006D02*
X16719D01*
X17813Y297944*
X16719Y297006D02*
X17813Y296069D01*
X19531D02*
Y297944D01*
X18750Y296694*
X20000*
X21986Y104900D02*
X22143Y104587D01*
X22455Y104431*
X23080*
X23393Y104587*
X23549Y104900*
X23393Y105212*
X23080Y105369*
X22455*
X22143Y105525*
X21986Y105837*
X22143Y106150*
X22455Y106306*
X23080*
X23393Y106150*
X23549Y105837*
X24486Y104431D02*
Y106306D01*
Y105369D02*
X24955D01*
X26049Y106306*
X24955Y105369D02*
X26049Y104431D01*
X27299D02*
X27924D01*
X27611D02*
Y106306D01*
X27299Y105993*
X36250Y312944D02*
Y311069D01*
X37813*
X38750D02*
Y312944D01*
X40313*
X40000Y312006D02*
X38750D01*
Y311069D02*
X40313D01*
X41250D02*
Y312944D01*
X42187*
X42500Y312787*
X42656Y312631*
X42813Y312319*
Y311694*
X42656Y311381*
X42500Y311225*
X42187Y311069*
X41250*
X44063D02*
X44687D01*
X44375D02*
Y312944D01*
X44063Y312631*
X46250Y205444D02*
Y203569D01*
X47813*
X48750D02*
Y205444D01*
X50313*
X50000Y204506D02*
X48750D01*
Y203569D02*
X50313D01*
X51250D02*
Y205444D01*
X52187*
X52500Y205287*
X52656Y205131*
X52813Y204819*
Y204194*
X52656Y203881*
X52500Y203725*
X52187Y203569*
X51250*
X54219Y204506D02*
X54531D01*
X54844Y204663*
X55000Y204975*
X54844Y205287*
X54531Y205444*
X54219*
X53906Y205287*
X53750Y204975*
X53906Y204663*
X54219Y204506*
X53906Y204350*
X53750Y204037*
X53906Y203725*
X54219Y203569*
X54531*
X54844Y203725*
X55000Y204037*
X54844Y204350*
X54531Y204506*
X74801Y23967D02*
Y25841D01*
X75895*
X76207Y25685*
X76364Y25373*
X76207Y25060*
X75895Y24904*
X74801*
X75895D02*
X76364Y23967D01*
X77301Y25841D02*
Y23967D01*
X78864*
X80114D02*
X80739D01*
X80426D02*
Y25841D01*
X80114Y25529*
X74801Y328967D02*
Y330841D01*
X75895*
X76207Y330685*
X76364Y330373*
X76207Y330060*
X75895Y329904*
X74801*
X75895D02*
X76364Y328967D01*
X77301Y330841D02*
Y328967D01*
X78864*
X81051D02*
X79801D01*
X80895Y330060*
X81051Y330373*
X80895Y330685*
X80582Y330841*
X80114*
X79801Y330685*
X101250Y312944D02*
Y311069D01*
X102813*
X103750D02*
Y312944D01*
X105313*
X105000Y312006D02*
X103750D01*
Y311069D02*
X105313D01*
X106250D02*
Y312944D01*
X107187*
X107500Y312787*
X107656Y312631*
X107813Y312319*
Y311694*
X107656Y311381*
X107500Y311225*
X107187Y311069*
X106250*
X110000D02*
X108750D01*
X109844Y312163*
X110000Y312475*
X109844Y312787*
X109531Y312944*
X109063*
X108750Y312787*
X139801Y23967D02*
Y25841D01*
X140895*
X141207Y25685*
X141364Y25373*
X141207Y25060*
X140895Y24904*
X139801*
X140895D02*
X141364Y23967D01*
X142301Y25841D02*
Y23967D01*
X143864*
X144957Y24123D02*
X145270Y23967D01*
X145582*
X145895Y24123*
X146051Y24435*
X145895Y24748*
X145582Y24904*
X145270*
X145582D02*
X145895Y25060D01*
X146051Y25373*
X145895Y25685*
X145582Y25841*
X145270*
X144957Y25685*
X139801Y328967D02*
Y330841D01*
X140895*
X141207Y330685*
X141364Y330373*
X141207Y330060*
X140895Y329904*
X139801*
X140895D02*
X141364Y328967D01*
X142301Y330841D02*
Y328967D01*
X143864*
X145582D02*
Y330841D01*
X144801Y329591*
X146051*
X166250Y310444D02*
Y308569D01*
X167813*
X168750D02*
Y310444D01*
X170313*
X170000Y309506D02*
X168750D01*
Y308569D02*
X170313D01*
X171250D02*
Y310444D01*
X172187*
X172500Y310287*
X172656Y310131*
X172813Y309819*
Y309194*
X172656Y308881*
X172500Y308725*
X172187Y308569*
X171250*
X173906Y308725D02*
X174219Y308569D01*
X174531*
X174844Y308725*
X175000Y309037*
X174844Y309350*
X174531Y309506*
X174219*
X174531D02*
X174844Y309663D01*
X175000Y309975*
X174844Y310287*
X174531Y310444*
X174219*
X173906Y310287*
X204801Y23967D02*
Y25841D01*
X205895*
X206207Y25685*
X206364Y25373*
X206207Y25060*
X205895Y24904*
X204801*
X205895D02*
X206364Y23967D01*
X207301Y25841D02*
Y23967D01*
X208864*
X209801Y24123D02*
X210114Y23967D01*
X210582*
X210895Y24123*
X211051Y24435*
Y24591*
X210895Y24904*
X210582Y25060*
X209801*
Y25841*
X211051*
X204801Y328967D02*
Y330841D01*
X205895*
X206207Y330685*
X206364Y330373*
X206207Y330060*
X205895Y329904*
X204801*
X205895D02*
X206364Y328967D01*
X207301Y330841D02*
Y328967D01*
X208864*
X209801Y329435D02*
X209957Y329748D01*
X210270Y329904*
X210582*
X210895Y329748*
X211051Y329435*
X210895Y329123*
X210582Y328967*
X210270*
X209957Y329123*
X209801Y329435*
Y329904*
X209957Y330373*
X210270Y330685*
X210582Y330841*
X231250Y310444D02*
Y308569D01*
X232813*
X233750D02*
Y310444D01*
X235313*
X235000Y309506D02*
X233750D01*
Y308569D02*
X235313D01*
X236250D02*
Y310444D01*
X237187*
X237500Y310287*
X237656Y310131*
X237813Y309819*
Y309194*
X237656Y308881*
X237500Y308725*
X237187Y308569*
X236250*
X239531D02*
Y310444D01*
X238750Y309194*
X240000*
X269801Y23967D02*
Y25841D01*
X270895*
X271207Y25685*
X271364Y25373*
X271207Y25060*
X270895Y24904*
X269801*
X270895D02*
X271364Y23967D01*
X272301Y25841D02*
Y23967D01*
X273864*
X274801D02*
X276051Y25841D01*
X274801*
X269801Y328967D02*
Y330841D01*
X270895*
X271207Y330685*
X271364Y330373*
X271207Y330060*
X270895Y329904*
X269801*
X270895D02*
X271364Y328967D01*
X272301Y330841D02*
Y328967D01*
X273864*
X275270Y329904D02*
X275582D01*
X275895Y330060*
X276051Y330373*
X275895Y330685*
X275582Y330841*
X275270*
X274957Y330685*
X274801Y330373*
X274957Y330060*
X275270Y329904*
X274957Y329748*
X274801Y329435*
X274957Y329123*
X275270Y328967*
X275582*
X275895Y329123*
X276051Y329435*
X275895Y329748*
X275582Y329904*
X296250Y310444D02*
Y308569D01*
X297813*
X298750D02*
Y310444D01*
X300313*
X300000Y309506D02*
X298750D01*
Y308569D02*
X300313D01*
X301250D02*
Y310444D01*
X302187*
X302500Y310287*
X302656Y310131*
X302813Y309819*
Y309194*
X302656Y308881*
X302500Y308725*
X302187Y308569*
X301250*
X303750Y308725D02*
X304063Y308569D01*
X304531*
X304844Y308725*
X305000Y309037*
Y309194*
X304844Y309506*
X304531Y309663*
X303750*
Y310444*
X305000*
X334801Y23967D02*
Y25841D01*
X335895*
X336207Y25685*
X336364Y25373*
X336207Y25060*
X335895Y24904*
X334801*
X335895D02*
X336364Y23967D01*
X337301Y25841D02*
Y23967D01*
X338864*
X340270D02*
X340582Y24123D01*
X340895Y24435*
X341051Y24904*
Y25373*
X340895Y25685*
X340582Y25841*
X340270*
X339957Y25685*
X339801Y25373*
X339957Y25060*
X340270Y24904*
X340582*
X340895Y25060*
X341051Y25373*
X334801Y328967D02*
Y330841D01*
X335895*
X336207Y330685*
X336364Y330373*
X336207Y330060*
X335895Y329904*
X334801*
X335895D02*
X336364Y328967D01*
X337301Y330841D02*
Y328967D01*
X338864*
X340114D02*
X340739D01*
X340426D02*
Y330841D01*
X340114Y330529*
X342457Y329123D02*
X342770Y328967D01*
X343082*
X343395Y329123*
X343551Y329435*
Y330373*
X343395Y330685*
X343082Y330841*
X342770*
X342457Y330685*
X342301Y330373*
Y329435*
X342457Y329123*
X343395Y330685*
X361250Y310444D02*
Y308569D01*
X362813*
X363750D02*
Y310444D01*
X365313*
X365000Y309506D02*
X363750D01*
Y308569D02*
X365313D01*
X366250D02*
Y310444D01*
X367187*
X367500Y310287*
X367656Y310131*
X367813Y309819*
Y309194*
X367656Y308881*
X367500Y308725*
X367187Y308569*
X366250*
X368750Y309037D02*
X368906Y309350D01*
X369219Y309506*
X369531*
X369844Y309350*
X370000Y309037*
X369844Y308725*
X369531Y308569*
X369219*
X368906Y308725*
X368750Y309037*
Y309506*
X368906Y309975*
X369219Y310287*
X369531Y310444*
X399801Y23967D02*
Y25841D01*
X400895*
X401207Y25685*
X401364Y25373*
X401207Y25060*
X400895Y24904*
X399801*
X400895D02*
X401364Y23967D01*
X402301Y25841D02*
Y23967D01*
X403864*
X405114D02*
X405739D01*
X405426D02*
Y25841D01*
X405114Y25529*
X407614Y23967D02*
X408239D01*
X407926D02*
Y25841D01*
X407614Y25529*
X399801Y328967D02*
Y330841D01*
X400895*
X401207Y330685*
X401364Y330373*
X401207Y330060*
X400895Y329904*
X399801*
X400895D02*
X401364Y328967D01*
X402301Y330841D02*
Y328967D01*
X403864*
X405114D02*
X405739D01*
X405426D02*
Y330841D01*
X405114Y330529*
X408551Y328967D02*
X407301D01*
X408395Y330060*
X408551Y330373*
X408395Y330685*
X408082Y330841*
X407614*
X407301Y330685*
X428750Y310444D02*
Y308569D01*
X430313*
X431250D02*
Y310444D01*
X432813*
X432500Y309506D02*
X431250D01*
Y308569D02*
X432813D01*
X433750D02*
Y310444D01*
X434687*
X435000Y310287*
X435156Y310131*
X435313Y309819*
Y309194*
X435156Y308881*
X435000Y308725*
X434687Y308569*
X433750*
X436250D02*
X437500Y310444D01*
X436250*
X464801Y23967D02*
Y25841D01*
X465895*
X466207Y25685*
X466364Y25373*
X466207Y25060*
X465895Y24904*
X464801*
X465895D02*
X466364Y23967D01*
X467301Y25841D02*
Y23967D01*
X468864*
X470114D02*
X470739D01*
X470426D02*
Y25841D01*
X470114Y25529*
X472457Y24123D02*
X472770Y23967D01*
X473082*
X473395Y24123*
X473551Y24435*
X473395Y24748*
X473082Y24904*
X472770*
X473082D02*
X473395Y25060D01*
X473551Y25373*
X473395Y25685*
X473082Y25841*
X472770*
X472457Y25685*
X464801Y328967D02*
Y330841D01*
X465895*
X466207Y330685*
X466364Y330373*
X466207Y330060*
X465895Y329904*
X464801*
X465895D02*
X466364Y328967D01*
X467301Y330841D02*
Y328967D01*
X468864*
X470114D02*
X470739D01*
X470426D02*
Y330841D01*
X470114Y330529*
X473082Y328967D02*
Y330841D01*
X472301Y329591*
X473551*
X523750Y304037D02*
X523906Y303725D01*
X524219Y303569*
X524844*
X525156Y303725*
X525313Y304037*
X525156Y304350*
X524844Y304506*
X524219*
X523906Y304663*
X523750Y304975*
X523906Y305287*
X524219Y305444*
X524844*
X525156Y305287*
X525313Y304975*
X526250Y303569D02*
Y305444D01*
Y304506D02*
X526719D01*
X527813Y305444*
X526719Y304506D02*
X527813Y303569D01*
X530000D02*
X528750D01*
X529844Y304663*
X530000Y304975*
X529844Y305287*
X529531Y305444*
X529063*
X528750Y305287*
D02*
D114*
X31750Y132850D02*
Y218350D01*
X5750*
Y132850*
X31750*
X88750Y43600D02*
Y108600D01*
X58750*
Y43600*
X88750*
Y111100D02*
Y176100D01*
X58750*
Y111100*
X88750*
Y178600D02*
Y243600D01*
X58750*
Y178600*
X88750*
Y246100D02*
Y311100D01*
X58750*
Y246100*
X88750*
X118750Y53100D02*
Y122100D01*
X98750*
Y53100*
X118750*
Y138100D02*
Y207100D01*
X98750*
Y138100*
X118750*
Y223100D02*
Y292100D01*
X98750*
Y223100*
X118750*
X158750Y43600D02*
Y108600D01*
X128750*
Y43600*
X158750*
Y111100D02*
Y176100D01*
X128750*
Y111100*
X158750*
Y178600D02*
Y243600D01*
X128750*
Y178600*
X158750*
Y246100D02*
Y311100D01*
X128750*
Y246100*
X158750*
X188750Y53100D02*
Y122100D01*
X168750*
Y53100*
X188750*
Y140600D02*
Y209600D01*
X168750*
Y140600*
X188750*
Y225600D02*
Y294600D01*
X168750*
Y225600*
X188750*
X226750Y253600D02*
Y303600D01*
X200750*
Y253600*
X226750*
X228750Y113600D02*
Y178600D01*
X198750*
Y113600*
X228750*
Y181100D02*
Y246100D01*
X198750*
Y181100*
X228750*
X229250Y61100D02*
Y111100D01*
X203250*
Y61100*
X229250*
X258750Y65600D02*
Y115600D01*
X238750*
Y65600*
X258750*
Y153100D02*
Y203100D01*
X238750*
Y153100*
X258750*
Y230600D02*
Y280600D01*
X238750*
Y230600*
X258750*
X291750Y61100D02*
Y111100D01*
X265750*
Y61100*
X291750*
Y126100D02*
Y176100D01*
X265750*
Y126100*
X291750*
Y188600D02*
Y238600D01*
X265750*
Y188600*
X291750*
Y251100D02*
Y301100D01*
X265750*
Y251100*
X291750*
X321250Y68100D02*
Y118100D01*
X301250*
Y68100*
X321250*
Y150600D02*
Y200600D01*
X301250*
Y150600*
X321250*
Y233100D02*
Y283100D01*
X301250*
Y233100*
X321250*
X359250Y61100D02*
Y111100D01*
X333250*
Y61100*
X359250*
Y126100D02*
Y176100D01*
X333250*
Y126100*
X359250*
Y191100D02*
Y241100D01*
X333250*
Y191100*
X359250*
Y251100D02*
Y301100D01*
X333250*
Y251100*
X359250*
X388750Y65600D02*
Y115600D01*
X368750*
Y65600*
X388750*
Y150600D02*
Y200600D01*
X368750*
Y150600*
X388750*
Y235600D02*
Y285600D01*
X368750*
Y235600*
X388750*
X424250Y58600D02*
Y108600D01*
X398250*
Y58600*
X424250*
Y123600D02*
Y173600D01*
X398250*
Y123600*
X424250*
Y188600D02*
Y238600D01*
X398250*
Y188600*
X424250*
Y251100D02*
Y301100D01*
X398250*
Y251100*
X424250*
X453750Y78100D02*
Y128100D01*
X433750*
Y78100*
X453750*
Y235600D02*
Y285600D01*
X433750*
Y235600*
X453750*
X456250Y150600D02*
Y200600D01*
X436250*
Y150600*
X456250*
X468250Y270100D02*
Y220100D01*
X494250*
Y270100*
X468250*
X479250Y177600D02*
X529250D01*
Y203600*
X479250*
Y177600*
X496750Y51100D02*
Y101100D01*
X470750*
Y51100*
X496750*
X528250Y138600D02*
X478250D01*
Y112600*
X528250*
Y138600*
D02*
D115*
X45010Y206466D02*
X55640D01*
Y214734*
X45010*
Y301466D02*
X55640D01*
Y309734*
X45010*
X115010Y301466D02*
X125640D01*
Y309734*
X115010*
X180010Y301466D02*
X190640D01*
Y309734*
X180010*
X245010Y301466D02*
X255640D01*
Y309734*
X245010*
X310010Y301466D02*
X320640D01*
Y309734*
X310010*
X375010Y301466D02*
X385640D01*
Y309734*
X375010*
X442510Y301466D02*
X453140D01*
Y309734*
X442510*
X0Y0D02*
M02*
