G04 EasyPC Gerber Version 20.0.2 Build 4112 *
G04 #@! TF.Part,Single*
%FSLAX35Y35*%
%MOIN*%
%ADD105C,0.00500*%
G04 #@! TA.AperFunction,WasherPad*
%ADD104C,0.10000*%
X0Y0D02*
D02*
D104*
X13750Y68198D03*
Y88198D03*
Y140600D03*
Y150600D03*
Y160600D03*
Y170600D03*
Y180600D03*
Y190600D03*
Y200600D03*
Y210600D03*
Y250600D03*
Y280100D03*
X21250Y20600D03*
Y330600D03*
X23750Y78198D03*
Y140600D03*
Y150600D03*
Y160600D03*
Y170600D03*
Y180600D03*
Y190600D03*
Y200600D03*
Y210600D03*
X33450Y250600D03*
Y280100D03*
X33750Y68198D03*
Y88198D03*
X41250Y140600D03*
Y150600D03*
Y160600D03*
Y170600D03*
Y183100D03*
Y190600D03*
X51250Y13100D03*
Y33100D03*
Y140600D03*
Y150600D03*
Y160600D03*
Y170600D03*
Y183100D03*
Y190600D03*
Y318100D03*
Y338100D03*
X71250Y13100D03*
Y33100D03*
Y318100D03*
Y338100D03*
X73750Y58600D03*
Y93600D03*
Y126100D03*
Y161100D03*
Y193600D03*
Y228600D03*
Y261100D03*
Y296100D03*
X81250Y13100D03*
Y33100D03*
Y318100D03*
Y338100D03*
X91250Y5600D03*
Y13100D03*
Y33100D03*
Y318100D03*
Y338100D03*
X95750Y103100D03*
Y188100D03*
Y273100D03*
X116250Y13100D03*
Y33100D03*
Y318100D03*
Y338100D03*
X121250Y80600D03*
Y88100D03*
X121750Y72100D03*
Y157100D03*
Y242100D03*
X123750Y170600D03*
Y178100D03*
Y185600D03*
X133750Y80600D03*
Y88100D03*
Y170600D03*
Y178100D03*
Y185600D03*
X136250Y13100D03*
Y33100D03*
Y318100D03*
Y338100D03*
X143750Y58600D03*
Y93600D03*
Y126100D03*
Y161100D03*
Y193600D03*
Y228600D03*
Y261100D03*
Y296100D03*
X146250Y13100D03*
Y33100D03*
Y318100D03*
Y338100D03*
X156250Y13100D03*
Y33100D03*
Y318100D03*
Y338100D03*
X165750Y103100D03*
Y190600D03*
Y275600D03*
X181250Y13100D03*
Y33100D03*
Y318100D03*
Y338100D03*
X191750Y72100D03*
Y159600D03*
Y244600D03*
X198750Y80600D03*
Y88100D03*
Y170600D03*
Y178100D03*
X201250Y13100D03*
Y33100D03*
Y318100D03*
Y338100D03*
X208750Y80600D03*
Y88100D03*
Y170600D03*
Y180600D03*
X211250Y13100D03*
Y33100D03*
Y318100D03*
Y338100D03*
X213750Y128600D03*
Y163600D03*
Y196100D03*
Y231100D03*
Y265600D03*
Y291600D03*
X216250Y73100D03*
Y99100D03*
X221250Y13100D03*
Y33100D03*
Y318100D03*
Y338100D03*
X235750Y100600D03*
Y188100D03*
Y265600D03*
X246250Y13100D03*
Y33100D03*
Y318100D03*
Y338100D03*
X253750Y175600D03*
X258750Y88100D03*
Y93100D03*
X261750Y80600D03*
Y168100D03*
Y245600D03*
X266250Y13100D03*
Y33100D03*
Y318100D03*
Y338100D03*
X273750Y93100D03*
Y175600D03*
X276250Y13100D03*
Y33100D03*
Y88100D03*
Y318100D03*
Y338100D03*
X278750Y73100D03*
Y99100D03*
Y138100D03*
Y164100D03*
Y200600D03*
Y226600D03*
Y263100D03*
Y289100D03*
X286250Y13100D03*
Y33100D03*
Y318100D03*
Y338100D03*
X298250Y103100D03*
Y185600D03*
Y268100D03*
X311250Y13100D03*
Y33100D03*
Y318100D03*
Y338100D03*
X324250Y83100D03*
Y165600D03*
Y248100D03*
X326250Y90600D03*
Y98100D03*
X331250Y13100D03*
Y33100D03*
Y318100D03*
Y338100D03*
X338750Y85600D03*
Y93100D03*
X341250Y13100D03*
Y33100D03*
Y318100D03*
Y338100D03*
X346250Y73100D03*
Y99100D03*
Y138100D03*
Y164100D03*
Y203100D03*
Y229100D03*
Y263100D03*
Y289100D03*
X351250Y13100D03*
Y33100D03*
Y318100D03*
Y338100D03*
X365750Y100600D03*
Y185600D03*
Y270600D03*
X376250Y13100D03*
Y33100D03*
Y318100D03*
Y338100D03*
X391750Y80600D03*
Y165600D03*
Y250600D03*
X393750Y88100D03*
X396250Y13100D03*
Y33100D03*
Y318100D03*
Y338100D03*
X403750Y88100D03*
X406250Y13100D03*
Y33100D03*
Y318100D03*
Y338100D03*
X411250Y70600D03*
Y96600D03*
Y135600D03*
Y161600D03*
Y200600D03*
Y226600D03*
Y263100D03*
Y289100D03*
X416250Y13100D03*
Y33100D03*
Y318100D03*
Y338100D03*
X430750Y113100D03*
Y270600D03*
X433250Y185600D03*
X441250Y13100D03*
Y33100D03*
Y318100D03*
Y338100D03*
X456750Y93100D03*
Y250600D03*
X459250Y165600D03*
X461250Y13100D03*
Y33100D03*
Y318100D03*
Y338100D03*
X471250Y13100D03*
Y33100D03*
Y318100D03*
Y338100D03*
X481250Y13100D03*
Y33100D03*
Y158100D03*
Y232100D03*
Y258100D03*
Y318100D03*
Y338100D03*
X483750Y63100D03*
Y89100D03*
X490250Y125600D03*
X491250Y190600D03*
X508750Y270698D03*
Y290698D03*
X516250Y65600D03*
Y100600D03*
Y125600D03*
X517250Y190600D03*
X518750Y210600D03*
Y245600D03*
Y280698D03*
X521250Y20600D03*
Y330600D03*
X526250Y158100D03*
X528750Y270698D03*
Y290698D03*
D02*
D105*
X23750Y74136D02*
Y77886D01*
X26875*
X26250Y76011D02*
X23750D01*
Y94136D02*
Y97886D01*
X26875*
X26250Y96011D02*
X23750D01*
X25937Y148100D02*
X26875D01*
Y147787*
X26563Y147163*
X26250Y146850*
X25625Y146537*
X25000*
X24375Y146850*
X24063Y147163*
X23750Y147787*
Y149037*
X24063Y149663*
X24375Y149975*
X25000Y150287*
X25625*
X26250Y149975*
X26563Y149663*
X26875Y149037*
X25937Y158100D02*
X26875D01*
Y157787*
X26563Y157163*
X26250Y156850*
X25625Y156537*
X25000*
X24375Y156850*
X24063Y157163*
X23750Y157787*
Y159037*
X24063Y159663*
X24375Y159975*
X25000Y160287*
X25625*
X26250Y159975*
X26563Y159663*
X26875Y159037*
X25937Y168100D02*
X26875D01*
Y167787*
X26563Y167163*
X26250Y166850*
X25625Y166537*
X25000*
X24375Y166850*
X24063Y167163*
X23750Y167787*
Y169037*
X24063Y169663*
X24375Y169975*
X25000Y170287*
X25625*
X26250Y169975*
X26563Y169663*
X26875Y169037*
X25937Y178100D02*
X26875D01*
Y177787*
X26563Y177163*
X26250Y176850*
X25625Y176537*
X25000*
X24375Y176850*
X24063Y177163*
X23750Y177787*
Y179037*
X24063Y179663*
X24375Y179975*
X25000Y180287*
X25625*
X26250Y179975*
X26563Y179663*
X26875Y179037*
X25937Y188100D02*
X26875D01*
Y187787*
X26563Y187163*
X26250Y186850*
X25625Y186537*
X25000*
X24375Y186850*
X24063Y187163*
X23750Y187787*
Y189037*
X24063Y189663*
X24375Y189975*
X25000Y190287*
X25625*
X26250Y189975*
X26563Y189663*
X26875Y189037*
X25937Y198100D02*
X26875D01*
Y197787*
X26563Y197163*
X26250Y196850*
X25625Y196537*
X25000*
X24375Y196850*
X24063Y197163*
X23750Y197787*
Y199037*
X24063Y199663*
X24375Y199975*
X25000Y200287*
X25625*
X26250Y199975*
X26563Y199663*
X26875Y199037*
X25937Y208100D02*
X26875D01*
Y207787*
X26563Y207163*
X26250Y206850*
X25625Y206537*
X25000*
X24375Y206850*
X24063Y207163*
X23750Y207787*
Y209037*
X24063Y209663*
X24375Y209975*
X25000Y210287*
X25625*
X26250Y209975*
X26563Y209663*
X26875Y209037*
X25937Y218100D02*
X26875D01*
Y217787*
X26563Y217163*
X26250Y216850*
X25625Y216537*
X25000*
X24375Y216850*
X24063Y217163*
X23750Y217787*
Y219037*
X24063Y219663*
X24375Y219975*
X25000Y220287*
X25625*
X26250Y219975*
X26563Y219663*
X26875Y219037*
X23750Y260287D02*
Y256537D01*
X26875*
X23750Y289787D02*
Y286037D01*
X26875*
X31250Y26537D02*
X32813Y30287D01*
X34375Y26537*
X31875Y28100D02*
X33750D01*
X31250Y336537D02*
X32813Y340287D01*
X34375Y336537*
X31875Y338100D02*
X33750D01*
Y84136D02*
Y87886D01*
X36875*
X36250Y86011D02*
X33750D01*
Y84136D02*
X36875D01*
X35937Y148100D02*
X36875D01*
Y147787*
X36563Y147163*
X36250Y146850*
X35625Y146537*
X35000*
X34375Y146850*
X34063Y147163*
X33750Y147787*
Y149037*
X34063Y149663*
X34375Y149975*
X35000Y150287*
X35625*
X36250Y149975*
X36563Y149663*
X36875Y149037*
X35937Y158100D02*
X36875D01*
Y157787*
X36563Y157163*
X36250Y156850*
X35625Y156537*
X35000*
X34375Y156850*
X34063Y157163*
X33750Y157787*
Y159037*
X34063Y159663*
X34375Y159975*
X35000Y160287*
X35625*
X36250Y159975*
X36563Y159663*
X36875Y159037*
X35937Y168100D02*
X36875D01*
Y167787*
X36563Y167163*
X36250Y166850*
X35625Y166537*
X35000*
X34375Y166850*
X34063Y167163*
X33750Y167787*
Y169037*
X34063Y169663*
X34375Y169975*
X35000Y170287*
X35625*
X36250Y169975*
X36563Y169663*
X36875Y169037*
X35937Y178100D02*
X36875D01*
Y177787*
X36563Y177163*
X36250Y176850*
X35625Y176537*
X35000*
X34375Y176850*
X34063Y177163*
X33750Y177787*
Y179037*
X34063Y179663*
X34375Y179975*
X35000Y180287*
X35625*
X36250Y179975*
X36563Y179663*
X36875Y179037*
X35937Y188100D02*
X36875D01*
Y187787*
X36563Y187163*
X36250Y186850*
X35625Y186537*
X35000*
X34375Y186850*
X34063Y187163*
X33750Y187787*
Y189037*
X34063Y189663*
X34375Y189975*
X35000Y190287*
X35625*
X36250Y189975*
X36563Y189663*
X36875Y189037*
X35937Y198100D02*
X36875D01*
Y197787*
X36563Y197163*
X36250Y196850*
X35625Y196537*
X35000*
X34375Y196850*
X34063Y197163*
X33750Y197787*
Y199037*
X34063Y199663*
X34375Y199975*
X35000Y200287*
X35625*
X36250Y199975*
X36563Y199663*
X36875Y199037*
X35937Y208100D02*
X36875D01*
Y207787*
X36563Y207163*
X36250Y206850*
X35625Y206537*
X35000*
X34375Y206850*
X34063Y207163*
X33750Y207787*
Y209037*
X34063Y209663*
X34375Y209975*
X35000Y210287*
X35625*
X36250Y209975*
X36563Y209663*
X36875Y209037*
X35937Y218100D02*
X36875D01*
Y217787*
X36563Y217163*
X36250Y216850*
X35625Y216537*
X35000*
X34375Y216850*
X34063Y217163*
X33750Y217787*
Y219037*
X34063Y219663*
X34375Y219975*
X35000Y220287*
X35625*
X36250Y219975*
X36563Y219663*
X36875Y219037*
X43450Y260287D02*
Y256537D01*
X46575*
X43450Y289787D02*
Y286037D01*
X46575*
X43750Y74136D02*
Y77886D01*
X46875*
X46250Y76011D02*
X43750D01*
Y94136D02*
Y97886D01*
X46875*
X46250Y96011D02*
X43750D01*
X52187Y146537D02*
X53437D01*
X52813D02*
Y150287D01*
X52187D02*
X53437D01*
X52187Y156537D02*
X53437D01*
X52813D02*
Y160287D01*
X52187D02*
X53437D01*
X52187Y166537D02*
X53437D01*
X52813D02*
Y170287D01*
X52187D02*
X53437D01*
X52187Y176537D02*
X53437D01*
X52813D02*
Y180287D01*
X52187D02*
X53437D01*
X52187Y189037D02*
X53437D01*
X52813D02*
Y192787D01*
X52187D02*
X53437D01*
X52187Y196537D02*
X53437D01*
X52813D02*
Y200287D01*
X52187D02*
X53437D01*
X61250Y19663D02*
X61563Y19350D01*
X62187Y19037*
X62813Y19350*
X63125Y19663*
Y22787*
X63750*
X63125D02*
X61875D01*
X61250Y39663D02*
X61563Y39350D01*
X62187Y39037*
X62813Y39350*
X63125Y39663*
Y42787*
X63750*
X63125D02*
X61875D01*
X62187Y146537D02*
X63437D01*
X62813D02*
Y150287D01*
X62187D02*
X63437D01*
X62187Y156537D02*
X63437D01*
X62813D02*
Y160287D01*
X62187D02*
X63437D01*
X62187Y166537D02*
X63437D01*
X62813D02*
Y170287D01*
X62187D02*
X63437D01*
X62187Y176537D02*
X63437D01*
X62813D02*
Y180287D01*
X62187D02*
X63437D01*
X62187Y189037D02*
X63437D01*
X62813D02*
Y192787D01*
X62187D02*
X63437D01*
X62187Y196537D02*
X63437D01*
X62813D02*
Y200287D01*
X62187D02*
X63437D01*
X61250Y324663D02*
X61563Y324350D01*
X62187Y324037*
X62813Y324350*
X63125Y324663*
Y327787*
X63750*
X63125D02*
X61875D01*
X61250Y344663D02*
X61563Y344350D01*
X62187Y344037*
X62813Y344350*
X63125Y344663*
Y347787*
X63750*
X63125D02*
X61875D01*
X81250Y19663D02*
X81563Y19350D01*
X82187Y19037*
X82813Y19350*
X83125Y19663*
Y22787*
X83750*
X83125D02*
X81875D01*
X81250Y39663D02*
X81563Y39350D01*
X82187Y39037*
X82813Y39350*
X83125Y39663*
Y42787*
X83750*
X83125D02*
X81875D01*
X81250Y324663D02*
X81563Y324350D01*
X82187Y324037*
X82813Y324350*
X83125Y324663*
Y327787*
X83750*
X83125D02*
X81875D01*
X81250Y344663D02*
X81563Y344350D01*
X82187Y344037*
X82813Y344350*
X83125Y344663*
Y347787*
X83750*
X83125D02*
X81875D01*
X85937Y66100D02*
X86875D01*
Y65787*
X86563Y65163*
X86250Y64850*
X85625Y64537*
X85000*
X84375Y64850*
X84063Y65163*
X83750Y65787*
Y67037*
X84063Y67663*
X84375Y67975*
X85000Y68287*
X85625*
X86250Y67975*
X86563Y67663*
X86875Y67037*
X85937Y101100D02*
X86875D01*
Y100787*
X86563Y100163*
X86250Y99850*
X85625Y99537*
X85000*
X84375Y99850*
X84063Y100163*
X83750Y100787*
Y102037*
X84063Y102663*
X84375Y102975*
X85000Y103287*
X85625*
X86250Y102975*
X86563Y102663*
X86875Y102037*
X85937Y133600D02*
X86875D01*
Y133287*
X86563Y132663*
X86250Y132350*
X85625Y132037*
X85000*
X84375Y132350*
X84063Y132663*
X83750Y133287*
Y134537*
X84063Y135163*
X84375Y135475*
X85000Y135787*
X85625*
X86250Y135475*
X86563Y135163*
X86875Y134537*
X85937Y168600D02*
X86875D01*
Y168287*
X86563Y167663*
X86250Y167350*
X85625Y167037*
X85000*
X84375Y167350*
X84063Y167663*
X83750Y168287*
Y169537*
X84063Y170163*
X84375Y170475*
X85000Y170787*
X85625*
X86250Y170475*
X86563Y170163*
X86875Y169537*
X85937Y201100D02*
X86875D01*
Y200787*
X86563Y200163*
X86250Y199850*
X85625Y199537*
X85000*
X84375Y199850*
X84063Y200163*
X83750Y200787*
Y202037*
X84063Y202663*
X84375Y202975*
X85000Y203287*
X85625*
X86250Y202975*
X86563Y202663*
X86875Y202037*
X85937Y236100D02*
X86875D01*
Y235787*
X86563Y235163*
X86250Y234850*
X85625Y234537*
X85000*
X84375Y234850*
X84063Y235163*
X83750Y235787*
Y237037*
X84063Y237663*
X84375Y237975*
X85000Y238287*
X85625*
X86250Y237975*
X86563Y237663*
X86875Y237037*
X85937Y268600D02*
X86875D01*
Y268287*
X86563Y267663*
X86250Y267350*
X85625Y267037*
X85000*
X84375Y267350*
X84063Y267663*
X83750Y268287*
Y269537*
X84063Y270163*
X84375Y270475*
X85000Y270787*
X85625*
X86250Y270475*
X86563Y270163*
X86875Y269537*
X85937Y303600D02*
X86875D01*
Y303287*
X86563Y302663*
X86250Y302350*
X85625Y302037*
X85000*
X84375Y302350*
X84063Y302663*
X83750Y303287*
Y304537*
X84063Y305163*
X84375Y305475*
X85000Y305787*
X85625*
X86250Y305475*
X86563Y305163*
X86875Y304537*
X91250Y19663D02*
X91563Y19350D01*
X92187Y19037*
X92813Y19350*
X93125Y19663*
Y22787*
X93750*
X93125D02*
X91875D01*
X91250Y39663D02*
X91563Y39350D01*
X92187Y39037*
X92813Y39350*
X93125Y39663*
Y42787*
X93750*
X93125D02*
X91875D01*
X91250Y324663D02*
X91563Y324350D01*
X92187Y324037*
X92813Y324350*
X93125Y324663*
Y327787*
X93750*
X93125D02*
X91875D01*
X91250Y344663D02*
X91563Y344350D01*
X92187Y344037*
X92813Y344350*
X93125Y344663*
Y347787*
X93750*
X93125D02*
X91875D01*
X102187Y11537D02*
X103437D01*
X102813D02*
Y15287D01*
X102187D02*
X103437D01*
X101250Y19663D02*
X101563Y19350D01*
X102187Y19037*
X102813Y19350*
X103125Y19663*
Y22787*
X103750*
X103125D02*
X101875D01*
X101250Y39663D02*
X101563Y39350D01*
X102187Y39037*
X102813Y39350*
X103125Y39663*
Y42787*
X103750*
X103125D02*
X101875D01*
X101250Y324663D02*
X101563Y324350D01*
X102187Y324037*
X102813Y324350*
X103125Y324663*
Y327787*
X103750*
X103125D02*
X101875D01*
X101250Y344663D02*
X101563Y344350D01*
X102187Y344037*
X102813Y344350*
X103125Y344663*
Y347787*
X103750*
X103125D02*
X101875D01*
X105750Y109037D02*
Y112787D01*
Y110913D02*
X108875D01*
Y109037D02*
Y112787D01*
X105750Y194037D02*
Y197787D01*
Y195913D02*
X108875D01*
Y194037D02*
Y197787D01*
X105750Y279037D02*
Y282787D01*
Y280913D02*
X108875D01*
Y279037D02*
Y282787D01*
X126250Y19663D02*
X126563Y19350D01*
X127187Y19037*
X127813Y19350*
X128125Y19663*
Y22787*
X128750*
X128125D02*
X126875D01*
X126250Y39663D02*
X126563Y39350D01*
X127187Y39037*
X127813Y39350*
X128125Y39663*
Y42787*
X128750*
X128125D02*
X126875D01*
X126250Y324663D02*
X126563Y324350D01*
X127187Y324037*
X127813Y324350*
X128125Y324663*
Y327787*
X128750*
X128125D02*
X126875D01*
X126250Y344663D02*
X126563Y344350D01*
X127187Y344037*
X127813Y344350*
X128125Y344663*
Y347787*
X128750*
X128125D02*
X126875D01*
X132187Y86537D02*
X133437D01*
X132813D02*
Y90287D01*
X132187D02*
X133437D01*
X132187Y94037D02*
X133437D01*
X132813D02*
Y97787D01*
X132187D02*
X133437D01*
X131750Y78037D02*
Y81787D01*
Y79913D02*
X134875D01*
Y78037D02*
Y81787D01*
X131750Y163037D02*
Y166787D01*
Y164913D02*
X134875D01*
Y163037D02*
Y166787D01*
X131750Y248037D02*
Y251787D01*
Y249913D02*
X134875D01*
Y248037D02*
Y251787D01*
X134687Y176537D02*
X135937D01*
X135313D02*
Y180287D01*
X134687D02*
X135937D01*
X134687Y184037D02*
X135937D01*
X135313D02*
Y187787D01*
X134687D02*
X135937D01*
X134687Y191537D02*
X135937D01*
X135313D02*
Y195287D01*
X134687D02*
X135937D01*
X144687Y86537D02*
X145937D01*
X145313D02*
Y90287D01*
X144687D02*
X145937D01*
X144687Y94037D02*
X145937D01*
X145313D02*
Y97787D01*
X144687D02*
X145937D01*
X144687Y176537D02*
X145937D01*
X145313D02*
Y180287D01*
X144687D02*
X145937D01*
X144687Y184037D02*
X145937D01*
X145313D02*
Y187787D01*
X144687D02*
X145937D01*
X144687Y191537D02*
X145937D01*
X145313D02*
Y195287D01*
X144687D02*
X145937D01*
X146250Y19663D02*
X146563Y19350D01*
X147187Y19037*
X147813Y19350*
X148125Y19663*
Y22787*
X148750*
X148125D02*
X146875D01*
X146250Y39663D02*
X146563Y39350D01*
X147187Y39037*
X147813Y39350*
X148125Y39663*
Y42787*
X148750*
X148125D02*
X146875D01*
X146250Y324663D02*
X146563Y324350D01*
X147187Y324037*
X147813Y324350*
X148125Y324663*
Y327787*
X148750*
X148125D02*
X146875D01*
X146250Y344663D02*
X146563Y344350D01*
X147187Y344037*
X147813Y344350*
X148125Y344663*
Y347787*
X148750*
X148125D02*
X146875D01*
X155937Y66100D02*
X156875D01*
Y65787*
X156563Y65163*
X156250Y64850*
X155625Y64537*
X155000*
X154375Y64850*
X154063Y65163*
X153750Y65787*
Y67037*
X154063Y67663*
X154375Y67975*
X155000Y68287*
X155625*
X156250Y67975*
X156563Y67663*
X156875Y67037*
X155937Y101100D02*
X156875D01*
Y100787*
X156563Y100163*
X156250Y99850*
X155625Y99537*
X155000*
X154375Y99850*
X154063Y100163*
X153750Y100787*
Y102037*
X154063Y102663*
X154375Y102975*
X155000Y103287*
X155625*
X156250Y102975*
X156563Y102663*
X156875Y102037*
X155937Y133600D02*
X156875D01*
Y133287*
X156563Y132663*
X156250Y132350*
X155625Y132037*
X155000*
X154375Y132350*
X154063Y132663*
X153750Y133287*
Y134537*
X154063Y135163*
X154375Y135475*
X155000Y135787*
X155625*
X156250Y135475*
X156563Y135163*
X156875Y134537*
X155937Y168600D02*
X156875D01*
Y168287*
X156563Y167663*
X156250Y167350*
X155625Y167037*
X155000*
X154375Y167350*
X154063Y167663*
X153750Y168287*
Y169537*
X154063Y170163*
X154375Y170475*
X155000Y170787*
X155625*
X156250Y170475*
X156563Y170163*
X156875Y169537*
X155937Y201100D02*
X156875D01*
Y200787*
X156563Y200163*
X156250Y199850*
X155625Y199537*
X155000*
X154375Y199850*
X154063Y200163*
X153750Y200787*
Y202037*
X154063Y202663*
X154375Y202975*
X155000Y203287*
X155625*
X156250Y202975*
X156563Y202663*
X156875Y202037*
X155937Y236100D02*
X156875D01*
Y235787*
X156563Y235163*
X156250Y234850*
X155625Y234537*
X155000*
X154375Y234850*
X154063Y235163*
X153750Y235787*
Y237037*
X154063Y237663*
X154375Y237975*
X155000Y238287*
X155625*
X156250Y237975*
X156563Y237663*
X156875Y237037*
X155937Y268600D02*
X156875D01*
Y268287*
X156563Y267663*
X156250Y267350*
X155625Y267037*
X155000*
X154375Y267350*
X154063Y267663*
X153750Y268287*
Y269537*
X154063Y270163*
X154375Y270475*
X155000Y270787*
X155625*
X156250Y270475*
X156563Y270163*
X156875Y269537*
X155937Y303600D02*
X156875D01*
Y303287*
X156563Y302663*
X156250Y302350*
X155625Y302037*
X155000*
X154375Y302350*
X154063Y302663*
X153750Y303287*
Y304537*
X154063Y305163*
X154375Y305475*
X155000Y305787*
X155625*
X156250Y305475*
X156563Y305163*
X156875Y304537*
X156250Y19663D02*
X156563Y19350D01*
X157187Y19037*
X157813Y19350*
X158125Y19663*
Y22787*
X158750*
X158125D02*
X156875D01*
X156250Y39663D02*
X156563Y39350D01*
X157187Y39037*
X157813Y39350*
X158125Y39663*
Y42787*
X158750*
X158125D02*
X156875D01*
X156250Y324663D02*
X156563Y324350D01*
X157187Y324037*
X157813Y324350*
X158125Y324663*
Y327787*
X158750*
X158125D02*
X156875D01*
X156250Y344663D02*
X156563Y344350D01*
X157187Y344037*
X157813Y344350*
X158125Y344663*
Y347787*
X158750*
X158125D02*
X156875D01*
X166250Y19663D02*
X166563Y19350D01*
X167187Y19037*
X167813Y19350*
X168125Y19663*
Y22787*
X168750*
X168125D02*
X166875D01*
X166250Y39663D02*
X166563Y39350D01*
X167187Y39037*
X167813Y39350*
X168125Y39663*
Y42787*
X168750*
X168125D02*
X166875D01*
X166250Y324663D02*
X166563Y324350D01*
X167187Y324037*
X167813Y324350*
X168125Y324663*
Y327787*
X168750*
X168125D02*
X166875D01*
X166250Y344663D02*
X166563Y344350D01*
X167187Y344037*
X167813Y344350*
X168125Y344663*
Y347787*
X168750*
X168125D02*
X166875D01*
X175750Y109037D02*
Y112787D01*
Y110913D02*
X178875D01*
Y109037D02*
Y112787D01*
X175750Y196537D02*
Y200287D01*
Y198413D02*
X178875D01*
Y196537D02*
Y200287D01*
X175750Y281537D02*
Y285287D01*
Y283413D02*
X178875D01*
Y281537D02*
Y285287D01*
X191250Y19663D02*
X191563Y19350D01*
X192187Y19037*
X192813Y19350*
X193125Y19663*
Y22787*
X193750*
X193125D02*
X191875D01*
X191250Y39663D02*
X191563Y39350D01*
X192187Y39037*
X192813Y39350*
X193125Y39663*
Y42787*
X193750*
X193125D02*
X191875D01*
X191250Y324663D02*
X191563Y324350D01*
X192187Y324037*
X192813Y324350*
X193125Y324663*
Y327787*
X193750*
X193125D02*
X191875D01*
X191250Y344663D02*
X191563Y344350D01*
X192187Y344037*
X192813Y344350*
X193125Y344663*
Y347787*
X193750*
X193125D02*
X191875D01*
X201750Y78037D02*
Y81787D01*
Y79913D02*
X204875D01*
Y78037D02*
Y81787D01*
X201750Y165537D02*
Y169287D01*
Y167413D02*
X204875D01*
Y165537D02*
Y169287D01*
X201750Y250537D02*
Y254287D01*
Y252413D02*
X204875D01*
Y250537D02*
Y254287D01*
X209687Y86537D02*
X210937D01*
X210313D02*
Y90287D01*
X209687D02*
X210937D01*
X209687Y94037D02*
X210937D01*
X210313D02*
Y97787D01*
X209687D02*
X210937D01*
X209687Y176537D02*
X210937D01*
X210313D02*
Y180287D01*
X209687D02*
X210937D01*
X209687Y184037D02*
X210937D01*
X210313D02*
Y187787D01*
X209687D02*
X210937D01*
X211250Y19663D02*
X211563Y19350D01*
X212187Y19037*
X212813Y19350*
X213125Y19663*
Y22787*
X213750*
X213125D02*
X211875D01*
X211250Y39663D02*
X211563Y39350D01*
X212187Y39037*
X212813Y39350*
X213125Y39663*
Y42787*
X213750*
X213125D02*
X211875D01*
X211250Y324663D02*
X211563Y324350D01*
X212187Y324037*
X212813Y324350*
X213125Y324663*
Y327787*
X213750*
X213125D02*
X211875D01*
X211250Y344663D02*
X211563Y344350D01*
X212187Y344037*
X212813Y344350*
X213125Y344663*
Y347787*
X213750*
X213125D02*
X211875D01*
X219687Y86537D02*
X220937D01*
X220313D02*
Y90287D01*
X219687D02*
X220937D01*
X219687Y94037D02*
X220937D01*
X220313D02*
Y97787D01*
X219687D02*
X220937D01*
X219687Y176537D02*
X220937D01*
X220313D02*
Y180287D01*
X219687D02*
X220937D01*
X219687Y186537D02*
X220937D01*
X220313D02*
Y190287D01*
X219687D02*
X220937D01*
X221250Y19663D02*
X221563Y19350D01*
X222187Y19037*
X222813Y19350*
X223125Y19663*
Y22787*
X223750*
X223125D02*
X221875D01*
X221250Y39663D02*
X221563Y39350D01*
X222187Y39037*
X222813Y39350*
X223125Y39663*
Y42787*
X223750*
X223125D02*
X221875D01*
X221250Y324663D02*
X221563Y324350D01*
X222187Y324037*
X222813Y324350*
X223125Y324663*
Y327787*
X223750*
X223125D02*
X221875D01*
X221250Y344663D02*
X221563Y344350D01*
X222187Y344037*
X222813Y344350*
X223125Y344663*
Y347787*
X223750*
X223125D02*
X221875D01*
X225937Y136100D02*
X226875D01*
Y135787*
X226563Y135163*
X226250Y134850*
X225625Y134537*
X225000*
X224375Y134850*
X224063Y135163*
X223750Y135787*
Y137037*
X224063Y137663*
X224375Y137975*
X225000Y138287*
X225625*
X226250Y137975*
X226563Y137663*
X226875Y137037*
X225937Y171100D02*
X226875D01*
Y170787*
X226563Y170163*
X226250Y169850*
X225625Y169537*
X225000*
X224375Y169850*
X224063Y170163*
X223750Y170787*
Y172037*
X224063Y172663*
X224375Y172975*
X225000Y173287*
X225625*
X226250Y172975*
X226563Y172663*
X226875Y172037*
X225937Y203600D02*
X226875D01*
Y203287*
X226563Y202663*
X226250Y202350*
X225625Y202037*
X225000*
X224375Y202350*
X224063Y202663*
X223750Y203287*
Y204537*
X224063Y205163*
X224375Y205475*
X225000Y205787*
X225625*
X226250Y205475*
X226563Y205163*
X226875Y204537*
X225937Y238600D02*
X226875D01*
Y238287*
X226563Y237663*
X226250Y237350*
X225625Y237037*
X225000*
X224375Y237350*
X224063Y237663*
X223750Y238287*
Y239537*
X224063Y240163*
X224375Y240475*
X225000Y240787*
X225625*
X226250Y240475*
X226563Y240163*
X226875Y239537*
X223750Y272163D02*
X224063Y271850D01*
X224687Y271537*
X225313Y271850*
X225625Y272163*
Y275287*
X226250*
X225625D02*
X224375D01*
X223750Y298163D02*
X224063Y297850D01*
X224687Y297537*
X225313Y297850*
X225625Y298163*
Y301287*
X226250*
X225625D02*
X224375D01*
X226250Y79663D02*
X226563Y79350D01*
X227187Y79037*
X227813Y79350*
X228125Y79663*
Y82787*
X228750*
X228125D02*
X226875D01*
X226250Y105663D02*
X226563Y105350D01*
X227187Y105037*
X227813Y105350*
X228125Y105663*
Y108787*
X228750*
X228125D02*
X226875D01*
X231250Y19663D02*
X231563Y19350D01*
X232187Y19037*
X232813Y19350*
X233125Y19663*
Y22787*
X233750*
X233125D02*
X231875D01*
X231250Y39663D02*
X231563Y39350D01*
X232187Y39037*
X232813Y39350*
X233125Y39663*
Y42787*
X233750*
X233125D02*
X231875D01*
X231250Y324663D02*
X231563Y324350D01*
X232187Y324037*
X232813Y324350*
X233125Y324663*
Y327787*
X233750*
X233125D02*
X231875D01*
X231250Y344663D02*
X231563Y344350D01*
X232187Y344037*
X232813Y344350*
X233125Y344663*
Y347787*
X233750*
X233125D02*
X231875D01*
X245750Y106537D02*
Y110287D01*
Y108413D02*
X246687D01*
X248875Y110287*
X246687Y108413D02*
X248875Y106537D01*
X245750Y194037D02*
Y197787D01*
Y195913D02*
X246687D01*
X248875Y197787*
X246687Y195913D02*
X248875Y194037D01*
X245750Y271537D02*
Y275287D01*
Y273413D02*
X246687D01*
X248875Y275287*
X246687Y273413D02*
X248875Y271537D01*
X256250Y19663D02*
X256563Y19350D01*
X257187Y19037*
X257813Y19350*
X258125Y19663*
Y22787*
X258750*
X258125D02*
X256875D01*
X256250Y39663D02*
X256563Y39350D01*
X257187Y39037*
X257813Y39350*
X258125Y39663*
Y42787*
X258750*
X258125D02*
X256875D01*
X256250Y324663D02*
X256563Y324350D01*
X257187Y324037*
X257813Y324350*
X258125Y324663*
Y327787*
X258750*
X258125D02*
X256875D01*
X256250Y344663D02*
X256563Y344350D01*
X257187Y344037*
X257813Y344350*
X258125Y344663*
Y347787*
X258750*
X258125D02*
X256875D01*
X264687Y181537D02*
X265937D01*
X265313D02*
Y185287D01*
X264687D02*
X265937D01*
X269687Y94037D02*
X270937D01*
X270313D02*
Y97787D01*
X269687D02*
X270937D01*
X269687Y99037D02*
X270937D01*
X270313D02*
Y102787D01*
X269687D02*
X270937D01*
X271750Y86537D02*
Y90287D01*
Y88413D02*
X272687D01*
X274875Y90287*
X272687Y88413D02*
X274875Y86537D01*
X271750Y174037D02*
Y177787D01*
Y175913D02*
X272687D01*
X274875Y177787*
X272687Y175913D02*
X274875Y174037D01*
X271750Y251537D02*
Y255287D01*
Y253413D02*
X272687D01*
X274875Y255287*
X272687Y253413D02*
X274875Y251537D01*
X276250Y19663D02*
X276563Y19350D01*
X277187Y19037*
X277813Y19350*
X278125Y19663*
Y22787*
X278750*
X278125D02*
X276875D01*
X276250Y39663D02*
X276563Y39350D01*
X277187Y39037*
X277813Y39350*
X278125Y39663*
Y42787*
X278750*
X278125D02*
X276875D01*
X276250Y324663D02*
X276563Y324350D01*
X277187Y324037*
X277813Y324350*
X278125Y324663*
Y327787*
X278750*
X278125D02*
X276875D01*
X276250Y344663D02*
X276563Y344350D01*
X277187Y344037*
X277813Y344350*
X278125Y344663*
Y347787*
X278750*
X278125D02*
X276875D01*
X284687Y99037D02*
X285937D01*
X285313D02*
Y102787D01*
X284687D02*
X285937D01*
X284687Y181537D02*
X285937D01*
X285313D02*
Y185287D01*
X284687D02*
X285937D01*
X286250Y19663D02*
X286563Y19350D01*
X287187Y19037*
X287813Y19350*
X288125Y19663*
Y22787*
X288750*
X288125D02*
X286875D01*
X286250Y39663D02*
X286563Y39350D01*
X287187Y39037*
X287813Y39350*
X288125Y39663*
Y42787*
X288750*
X288125D02*
X286875D01*
X287187Y94037D02*
X288437D01*
X287813D02*
Y97787D01*
X287187D02*
X288437D01*
X286250Y324663D02*
X286563Y324350D01*
X287187Y324037*
X287813Y324350*
X288125Y324663*
Y327787*
X288750*
X288125D02*
X286875D01*
X286250Y344663D02*
X286563Y344350D01*
X287187Y344037*
X287813Y344350*
X288125Y344663*
Y347787*
X288750*
X288125D02*
X286875D01*
X288750Y79663D02*
X289063Y79350D01*
X289687Y79037*
X290313Y79350*
X290625Y79663*
Y82787*
X291250*
X290625D02*
X289375D01*
X288750Y105663D02*
X289063Y105350D01*
X289687Y105037*
X290313Y105350*
X290625Y105663*
Y108787*
X291250*
X290625D02*
X289375D01*
X288750Y144663D02*
X289063Y144350D01*
X289687Y144037*
X290313Y144350*
X290625Y144663*
Y147787*
X291250*
X290625D02*
X289375D01*
X288750Y170663D02*
X289063Y170350D01*
X289687Y170037*
X290313Y170350*
X290625Y170663*
Y173787*
X291250*
X290625D02*
X289375D01*
X288750Y207163D02*
X289063Y206850D01*
X289687Y206537*
X290313Y206850*
X290625Y207163*
Y210287*
X291250*
X290625D02*
X289375D01*
X288750Y233163D02*
X289063Y232850D01*
X289687Y232537*
X290313Y232850*
X290625Y233163*
Y236287*
X291250*
X290625D02*
X289375D01*
X288750Y269663D02*
X289063Y269350D01*
X289687Y269037*
X290313Y269350*
X290625Y269663*
Y272787*
X291250*
X290625D02*
X289375D01*
X288750Y295663D02*
X289063Y295350D01*
X289687Y295037*
X290313Y295350*
X290625Y295663*
Y298787*
X291250*
X290625D02*
X289375D01*
X296250Y19663D02*
X296563Y19350D01*
X297187Y19037*
X297813Y19350*
X298125Y19663*
Y22787*
X298750*
X298125D02*
X296875D01*
X296250Y39663D02*
X296563Y39350D01*
X297187Y39037*
X297813Y39350*
X298125Y39663*
Y42787*
X298750*
X298125D02*
X296875D01*
X296250Y324663D02*
X296563Y324350D01*
X297187Y324037*
X297813Y324350*
X298125Y324663*
Y327787*
X298750*
X298125D02*
X296875D01*
X296250Y344663D02*
X296563Y344350D01*
X297187Y344037*
X297813Y344350*
X298125Y344663*
Y347787*
X298750*
X298125D02*
X296875D01*
X308250Y109037D02*
Y112787D01*
Y110913D02*
X309187D01*
X311375Y112787*
X309187Y110913D02*
X311375Y109037D01*
X308250Y191537D02*
Y195287D01*
Y193413D02*
X309187D01*
X311375Y195287*
X309187Y193413D02*
X311375Y191537D01*
X308250Y274037D02*
Y277787D01*
Y275913D02*
X309187D01*
X311375Y277787*
X309187Y275913D02*
X311375Y274037D01*
X321250Y19663D02*
X321563Y19350D01*
X322187Y19037*
X322813Y19350*
X323125Y19663*
Y22787*
X323750*
X323125D02*
X321875D01*
X321250Y39663D02*
X321563Y39350D01*
X322187Y39037*
X322813Y39350*
X323125Y39663*
Y42787*
X323750*
X323125D02*
X321875D01*
X321250Y324663D02*
X321563Y324350D01*
X322187Y324037*
X322813Y324350*
X323125Y324663*
Y327787*
X323750*
X323125D02*
X321875D01*
X321250Y344663D02*
X321563Y344350D01*
X322187Y344037*
X322813Y344350*
X323125Y344663*
Y347787*
X323750*
X323125D02*
X321875D01*
X334250Y89037D02*
Y92787D01*
Y90913D02*
X335187D01*
X337375Y92787*
X335187Y90913D02*
X337375Y89037D01*
X334250Y171537D02*
Y175287D01*
Y173413D02*
X335187D01*
X337375Y175287*
X335187Y173413D02*
X337375Y171537D01*
X334250Y254037D02*
Y257787D01*
Y255913D02*
X335187D01*
X337375Y257787*
X335187Y255913D02*
X337375Y254037D01*
X337187Y96537D02*
X338437D01*
X337813D02*
Y100287D01*
X337187D02*
X338437D01*
X337187Y104037D02*
X338437D01*
X337813D02*
Y107787D01*
X337187D02*
X338437D01*
X341250Y19663D02*
X341563Y19350D01*
X342187Y19037*
X342813Y19350*
X343125Y19663*
Y22787*
X343750*
X343125D02*
X341875D01*
X341250Y39663D02*
X341563Y39350D01*
X342187Y39037*
X342813Y39350*
X343125Y39663*
Y42787*
X343750*
X343125D02*
X341875D01*
X341250Y324663D02*
X341563Y324350D01*
X342187Y324037*
X342813Y324350*
X343125Y324663*
Y327787*
X343750*
X343125D02*
X341875D01*
X341250Y344663D02*
X341563Y344350D01*
X342187Y344037*
X342813Y344350*
X343125Y344663*
Y347787*
X343750*
X343125D02*
X341875D01*
X349687Y91537D02*
X350937D01*
X350313D02*
Y95287D01*
X349687D02*
X350937D01*
X349687Y99037D02*
X350937D01*
X350313D02*
Y102787D01*
X349687D02*
X350937D01*
X351250Y19663D02*
X351563Y19350D01*
X352187Y19037*
X352813Y19350*
X353125Y19663*
Y22787*
X353750*
X353125D02*
X351875D01*
X351250Y39663D02*
X351563Y39350D01*
X352187Y39037*
X352813Y39350*
X353125Y39663*
Y42787*
X353750*
X353125D02*
X351875D01*
X351250Y324663D02*
X351563Y324350D01*
X352187Y324037*
X352813Y324350*
X353125Y324663*
Y327787*
X353750*
X353125D02*
X351875D01*
X351250Y344663D02*
X351563Y344350D01*
X352187Y344037*
X352813Y344350*
X353125Y344663*
Y347787*
X353750*
X353125D02*
X351875D01*
X356250Y79663D02*
X356563Y79350D01*
X357187Y79037*
X357813Y79350*
X358125Y79663*
Y82787*
X358750*
X358125D02*
X356875D01*
X356250Y105663D02*
X356563Y105350D01*
X357187Y105037*
X357813Y105350*
X358125Y105663*
Y108787*
X358750*
X358125D02*
X356875D01*
X356250Y144663D02*
X356563Y144350D01*
X357187Y144037*
X357813Y144350*
X358125Y144663*
Y147787*
X358750*
X358125D02*
X356875D01*
X356250Y170663D02*
X356563Y170350D01*
X357187Y170037*
X357813Y170350*
X358125Y170663*
Y173787*
X358750*
X358125D02*
X356875D01*
X356250Y209663D02*
X356563Y209350D01*
X357187Y209037*
X357813Y209350*
X358125Y209663*
Y212787*
X358750*
X358125D02*
X356875D01*
X356250Y235663D02*
X356563Y235350D01*
X357187Y235037*
X357813Y235350*
X358125Y235663*
Y238787*
X358750*
X358125D02*
X356875D01*
X356250Y269663D02*
X356563Y269350D01*
X357187Y269037*
X357813Y269350*
X358125Y269663*
Y272787*
X358750*
X358125D02*
X356875D01*
X356250Y295663D02*
X356563Y295350D01*
X357187Y295037*
X357813Y295350*
X358125Y295663*
Y298787*
X358750*
X358125D02*
X356875D01*
X361250Y19663D02*
X361563Y19350D01*
X362187Y19037*
X362813Y19350*
X363125Y19663*
Y22787*
X363750*
X363125D02*
X361875D01*
X361250Y39663D02*
X361563Y39350D01*
X362187Y39037*
X362813Y39350*
X363125Y39663*
Y42787*
X363750*
X363125D02*
X361875D01*
X361250Y324663D02*
X361563Y324350D01*
X362187Y324037*
X362813Y324350*
X363125Y324663*
Y327787*
X363750*
X363125D02*
X361875D01*
X361250Y344663D02*
X361563Y344350D01*
X362187Y344037*
X362813Y344350*
X363125Y344663*
Y347787*
X363750*
X363125D02*
X361875D01*
X375750Y106537D02*
Y110287D01*
Y108413D02*
X376687D01*
X378875Y110287*
X376687Y108413D02*
X378875Y106537D01*
X375750Y191537D02*
Y195287D01*
Y193413D02*
X376687D01*
X378875Y195287*
X376687Y193413D02*
X378875Y191537D01*
X375750Y276537D02*
Y280287D01*
Y278413D02*
X376687D01*
X378875Y280287*
X376687Y278413D02*
X378875Y276537D01*
X386250Y19663D02*
X386563Y19350D01*
X387187Y19037*
X387813Y19350*
X388125Y19663*
Y22787*
X388750*
X388125D02*
X386875D01*
X386250Y39663D02*
X386563Y39350D01*
X387187Y39037*
X387813Y39350*
X388125Y39663*
Y42787*
X388750*
X388125D02*
X386875D01*
X386250Y324663D02*
X386563Y324350D01*
X387187Y324037*
X387813Y324350*
X388125Y324663*
Y327787*
X388750*
X388125D02*
X386875D01*
X386250Y344663D02*
X386563Y344350D01*
X387187Y344037*
X387813Y344350*
X388125Y344663*
Y347787*
X388750*
X388125D02*
X386875D01*
X401750Y86537D02*
Y90287D01*
Y88413D02*
X402687D01*
X404875Y90287*
X402687Y88413D02*
X404875Y86537D01*
X401750Y171537D02*
Y175287D01*
Y173413D02*
X402687D01*
X404875Y175287*
X402687Y173413D02*
X404875Y171537D01*
X401750Y256537D02*
Y260287D01*
Y258413D02*
X402687D01*
X404875Y260287*
X402687Y258413D02*
X404875Y256537D01*
X404687Y94037D02*
X405937D01*
X405313D02*
Y97787D01*
X404687D02*
X405937D01*
X406250Y19663D02*
X406563Y19350D01*
X407187Y19037*
X407813Y19350*
X408125Y19663*
Y22787*
X408750*
X408125D02*
X406875D01*
X406250Y39663D02*
X406563Y39350D01*
X407187Y39037*
X407813Y39350*
X408125Y39663*
Y42787*
X408750*
X408125D02*
X406875D01*
X406250Y324663D02*
X406563Y324350D01*
X407187Y324037*
X407813Y324350*
X408125Y324663*
Y327787*
X408750*
X408125D02*
X406875D01*
X406250Y344663D02*
X406563Y344350D01*
X407187Y344037*
X407813Y344350*
X408125Y344663*
Y347787*
X408750*
X408125D02*
X406875D01*
X414687Y94037D02*
X415937D01*
X415313D02*
Y97787D01*
X414687D02*
X415937D01*
X416250Y19663D02*
X416563Y19350D01*
X417187Y19037*
X417813Y19350*
X418125Y19663*
Y22787*
X418750*
X418125D02*
X416875D01*
X416250Y39663D02*
X416563Y39350D01*
X417187Y39037*
X417813Y39350*
X418125Y39663*
Y42787*
X418750*
X418125D02*
X416875D01*
X416250Y324663D02*
X416563Y324350D01*
X417187Y324037*
X417813Y324350*
X418125Y324663*
Y327787*
X418750*
X418125D02*
X416875D01*
X416250Y344663D02*
X416563Y344350D01*
X417187Y344037*
X417813Y344350*
X418125Y344663*
Y347787*
X418750*
X418125D02*
X416875D01*
X421250Y77163D02*
X421563Y76850D01*
X422187Y76537*
X422813Y76850*
X423125Y77163*
Y80287*
X423750*
X423125D02*
X421875D01*
X421250Y103163D02*
X421563Y102850D01*
X422187Y102537*
X422813Y102850*
X423125Y103163*
Y106287*
X423750*
X423125D02*
X421875D01*
X421250Y142163D02*
X421563Y141850D01*
X422187Y141537*
X422813Y141850*
X423125Y142163*
Y145287*
X423750*
X423125D02*
X421875D01*
X421250Y168163D02*
X421563Y167850D01*
X422187Y167537*
X422813Y167850*
X423125Y168163*
Y171287*
X423750*
X423125D02*
X421875D01*
X421250Y207163D02*
X421563Y206850D01*
X422187Y206537*
X422813Y206850*
X423125Y207163*
Y210287*
X423750*
X423125D02*
X421875D01*
X421250Y233163D02*
X421563Y232850D01*
X422187Y232537*
X422813Y232850*
X423125Y233163*
Y236287*
X423750*
X423125D02*
X421875D01*
X421250Y269663D02*
X421563Y269350D01*
X422187Y269037*
X422813Y269350*
X423125Y269663*
Y272787*
X423750*
X423125D02*
X421875D01*
X421250Y295663D02*
X421563Y295350D01*
X422187Y295037*
X422813Y295350*
X423125Y295663*
Y298787*
X423750*
X423125D02*
X421875D01*
X426250Y19663D02*
X426563Y19350D01*
X427187Y19037*
X427813Y19350*
X428125Y19663*
Y22787*
X428750*
X428125D02*
X426875D01*
X426250Y39663D02*
X426563Y39350D01*
X427187Y39037*
X427813Y39350*
X428125Y39663*
Y42787*
X428750*
X428125D02*
X426875D01*
X426250Y324663D02*
X426563Y324350D01*
X427187Y324037*
X427813Y324350*
X428125Y324663*
Y327787*
X428750*
X428125D02*
X426875D01*
X426250Y344663D02*
X426563Y344350D01*
X427187Y344037*
X427813Y344350*
X428125Y344663*
Y347787*
X428750*
X428125D02*
X426875D01*
X440750Y119037D02*
Y122787D01*
Y120913D02*
X441687D01*
X443875Y122787*
X441687Y120913D02*
X443875Y119037D01*
X440750Y276537D02*
Y280287D01*
Y278413D02*
X441687D01*
X443875Y280287*
X441687Y278413D02*
X443875Y276537D01*
X443250Y191537D02*
Y195287D01*
Y193413D02*
X444187D01*
X446375Y195287*
X444187Y193413D02*
X446375Y191537D01*
X451250Y19663D02*
X451563Y19350D01*
X452187Y19037*
X452813Y19350*
X453125Y19663*
Y22787*
X453750*
X453125D02*
X451875D01*
X451250Y39663D02*
X451563Y39350D01*
X452187Y39037*
X452813Y39350*
X453125Y39663*
Y42787*
X453750*
X453125D02*
X451875D01*
X451250Y324663D02*
X451563Y324350D01*
X452187Y324037*
X452813Y324350*
X453125Y324663*
Y327787*
X453750*
X453125D02*
X451875D01*
X451250Y344663D02*
X451563Y344350D01*
X452187Y344037*
X452813Y344350*
X453125Y344663*
Y347787*
X453750*
X453125D02*
X451875D01*
X466750Y99037D02*
Y102787D01*
Y100913D02*
X467687D01*
X469875Y102787*
X467687Y100913D02*
X469875Y99037D01*
X466750Y256537D02*
Y260287D01*
Y258413D02*
X467687D01*
X469875Y260287*
X467687Y258413D02*
X469875Y256537D01*
X469250Y171537D02*
Y175287D01*
Y173413D02*
X470187D01*
X472375Y175287*
X470187Y173413D02*
X472375Y171537D01*
X471250Y19663D02*
X471563Y19350D01*
X472187Y19037*
X472813Y19350*
X473125Y19663*
Y22787*
X473750*
X473125D02*
X471875D01*
X471250Y39663D02*
X471563Y39350D01*
X472187Y39037*
X472813Y39350*
X473125Y39663*
Y42787*
X473750*
X473125D02*
X471875D01*
X471250Y324663D02*
X471563Y324350D01*
X472187Y324037*
X472813Y324350*
X473125Y324663*
Y327787*
X473750*
X473125D02*
X471875D01*
X471250Y344663D02*
X471563Y344350D01*
X472187Y344037*
X472813Y344350*
X473125Y344663*
Y347787*
X473750*
X473125D02*
X471875D01*
X481250Y19663D02*
X481563Y19350D01*
X482187Y19037*
X482813Y19350*
X483125Y19663*
Y22787*
X483750*
X483125D02*
X481875D01*
X481250Y39663D02*
X481563Y39350D01*
X482187Y39037*
X482813Y39350*
X483125Y39663*
Y42787*
X483750*
X483125D02*
X481875D01*
X481250Y324663D02*
X481563Y324350D01*
X482187Y324037*
X482813Y324350*
X483125Y324663*
Y327787*
X483750*
X483125D02*
X481875D01*
X481250Y344663D02*
X481563Y344350D01*
X482187Y344037*
X482813Y344350*
X483125Y344663*
Y347787*
X483750*
X483125D02*
X481875D01*
X491250Y19663D02*
X491563Y19350D01*
X492187Y19037*
X492813Y19350*
X493125Y19663*
Y22787*
X493750*
X493125D02*
X491875D01*
X491250Y39663D02*
X491563Y39350D01*
X492187Y39037*
X492813Y39350*
X493125Y39663*
Y42787*
X493750*
X493125D02*
X491875D01*
X493437Y165600D02*
X494375D01*
Y165287*
X494063Y164663*
X493750Y164350*
X493125Y164037*
X492500*
X491875Y164350*
X491563Y164663*
X491250Y165287*
Y166537*
X491563Y167163*
X491875Y167475*
X492500Y167787*
X493125*
X493750Y167475*
X494063Y167163*
X494375Y166537*
X491250Y238663D02*
X491563Y238350D01*
X492187Y238037*
X492813Y238350*
X493125Y238663*
Y241787*
X493750*
X493125D02*
X491875D01*
X491250Y264663D02*
X491563Y264350D01*
X492187Y264037*
X492813Y264350*
X493125Y264663*
Y267787*
X493750*
X493125D02*
X491875D01*
X491250Y324663D02*
X491563Y324350D01*
X492187Y324037*
X492813Y324350*
X493125Y324663*
Y327787*
X493750*
X493125D02*
X491875D01*
X491250Y344663D02*
X491563Y344350D01*
X492187Y344037*
X492813Y344350*
X493125Y344663*
Y347787*
X493750*
X493125D02*
X491875D01*
X493750Y69663D02*
X494063Y69350D01*
X494687Y69037*
X495313Y69350*
X495625Y69663*
Y72787*
X496250*
X495625D02*
X494375D01*
X493750Y95663D02*
X494063Y95350D01*
X494687Y95037*
X495313Y95350*
X495625Y95663*
Y98787*
X496250*
X495625D02*
X494375D01*
X500250Y132163D02*
X500563Y131850D01*
X501187Y131537*
X501813Y131850*
X502125Y132163*
Y135287*
X502750*
X502125D02*
X500875D01*
X501250Y197163D02*
X501563Y196850D01*
X502187Y196537*
X502813Y196850*
X503125Y197163*
Y200287*
X503750*
X503125D02*
X501875D01*
X518750Y276636D02*
Y280386D01*
X521875*
X521250Y278511D02*
X518750D01*
Y296636D02*
Y300386D01*
X521875*
X521250Y298511D02*
X518750D01*
X528437Y73100D02*
X529375D01*
Y72787*
X529063Y72163*
X528750Y71850*
X528125Y71537*
X527500*
X526875Y71850*
X526563Y72163*
X526250Y72787*
Y74037*
X526563Y74663*
X526875Y74975*
X527500Y75287*
X528125*
X528750Y74975*
X529063Y74663*
X529375Y74037*
X528437Y108100D02*
X529375D01*
Y107787*
X529063Y107163*
X528750Y106850*
X528125Y106537*
X527500*
X526875Y106850*
X526563Y107163*
X526250Y107787*
Y109037*
X526563Y109663*
X526875Y109975*
X527500Y110287*
X528125*
X528750Y109975*
X529063Y109663*
X529375Y109037*
X526250Y132163D02*
X526563Y131850D01*
X527187Y131537*
X527813Y131850*
X528125Y132163*
Y135287*
X528750*
X528125D02*
X526875D01*
X527250Y197163D02*
X527563Y196850D01*
X528187Y196537*
X528813Y196850*
X529125Y197163*
Y200287*
X529750*
X529125D02*
X527875D01*
X530937Y218100D02*
X531875D01*
Y217787*
X531563Y217163*
X531250Y216850*
X530625Y216537*
X530000*
X529375Y216850*
X529063Y217163*
X528750Y217787*
Y219037*
X529063Y219663*
X529375Y219975*
X530000Y220287*
X530625*
X531250Y219975*
X531563Y219663*
X531875Y219037*
X530937Y253100D02*
X531875D01*
Y252787*
X531563Y252163*
X531250Y251850*
X530625Y251537*
X530000*
X529375Y251850*
X529063Y252163*
X528750Y252787*
Y254037*
X529063Y254663*
X529375Y254975*
X530000Y255287*
X530625*
X531250Y254975*
X531563Y254663*
X531875Y254037*
X528750Y286636D02*
Y290386D01*
X531875*
X531250Y288511D02*
X528750D01*
Y286636D02*
X531875D01*
X531250Y26537D02*
X532813Y30287D01*
X534375Y26537*
X531875Y28100D02*
X533750D01*
X531250Y336537D02*
X532813Y340287D01*
X534375Y336537*
X531875Y338100D02*
X533750D01*
X538437Y165600D02*
X539375D01*
Y165287*
X539063Y164663*
X538750Y164350*
X538125Y164037*
X537500*
X536875Y164350*
X536563Y164663*
X536250Y165287*
Y166537*
X536563Y167163*
X536875Y167475*
X537500Y167787*
X538125*
X538750Y167475*
X539063Y167163*
X539375Y166537*
X538750Y276636D02*
Y280386D01*
X541875*
X541250Y278511D02*
X538750D01*
Y296636D02*
Y300386D01*
X541875*
X541250Y298511D02*
X538750D01*
X0Y0D02*
M02*
