G04 EasyPC Gerber Version 20.0.2 Build 4112 *
G04 #@! TF.Part,Single*
G04 #@! TF.FileFunction,Soldermask,Bot *
%FSLAX35Y35*%
%MOIN*%
G04 #@! TA.AperFunction,WasherPad*
%ADD91C,0.04600*%
G04 #@! TA.AperFunction,ComponentPad*
%ADD100C,0.06100*%
G04 #@! TA.AperFunction,WasherPad*
%ADD92C,0.06600*%
G04 #@! TA.AperFunction,ComponentPad*
%ADD95C,0.06899*%
%ADD111C,0.07600*%
%ADD110C,0.08100*%
%ADD96C,0.10049*%
%ADD97C,0.10639*%
%ADD113C,0.15600*%
G04 #@! TA.AperFunction,SMDPad*
%ADD116R,0.04537X0.02411*%
%ADD98R,0.06600X0.06100*%
G04 #@! TA.AperFunction,WasherPad*
%ADD90C,0.17600*%
X0Y0D02*
D02*
D90*
X21250Y20600D03*
Y330600D03*
X521250Y20600D03*
Y330600D03*
D02*
D91*
X41250Y140600D03*
Y150600D03*
Y160600D03*
Y170600D03*
Y183100D03*
Y190600D03*
X51250Y140600D03*
Y150600D03*
Y160600D03*
Y170600D03*
Y183100D03*
Y190600D03*
X91250Y5600D03*
X121250Y80600D03*
Y88100D03*
X123750Y170600D03*
Y178100D03*
Y185600D03*
X133750Y80600D03*
Y88100D03*
Y170600D03*
Y178100D03*
Y185600D03*
X198750Y80600D03*
Y88100D03*
Y170600D03*
Y178100D03*
X208750Y80600D03*
Y88100D03*
Y170600D03*
Y180600D03*
X253750Y175600D03*
X258750Y88100D03*
Y93100D03*
X273750D03*
Y175600D03*
X276250Y88100D03*
X326250Y90600D03*
Y98100D03*
X338750Y85600D03*
Y93100D03*
X393750Y88100D03*
X403750D03*
D02*
D92*
X51250Y13100D03*
Y33100D03*
Y318100D03*
Y338100D03*
X71250Y13100D03*
Y33100D03*
Y318100D03*
Y338100D03*
X81250Y13100D03*
Y33100D03*
Y318100D03*
Y338100D03*
X91250Y13100D03*
Y33100D03*
Y318100D03*
Y338100D03*
X116250Y13100D03*
Y33100D03*
Y318100D03*
Y338100D03*
X136250Y13100D03*
Y33100D03*
Y318100D03*
Y338100D03*
X146250Y13100D03*
Y33100D03*
Y318100D03*
Y338100D03*
X156250Y13100D03*
Y33100D03*
Y318100D03*
Y338100D03*
X181250Y13100D03*
Y33100D03*
Y318100D03*
Y338100D03*
X201250Y13100D03*
Y33100D03*
Y318100D03*
Y338100D03*
X211250Y13100D03*
Y33100D03*
Y318100D03*
Y338100D03*
X221250Y13100D03*
Y33100D03*
Y318100D03*
Y338100D03*
X246250Y13100D03*
Y33100D03*
Y318100D03*
Y338100D03*
X266250Y13100D03*
Y33100D03*
Y318100D03*
Y338100D03*
X276250Y13100D03*
Y33100D03*
Y318100D03*
Y338100D03*
X286250Y13100D03*
Y33100D03*
Y318100D03*
Y338100D03*
X311250Y13100D03*
Y33100D03*
Y318100D03*
Y338100D03*
X331250Y13100D03*
Y33100D03*
Y318100D03*
Y338100D03*
X341250Y13100D03*
Y33100D03*
Y318100D03*
Y338100D03*
X351250Y13100D03*
Y33100D03*
Y318100D03*
Y338100D03*
X376250Y13100D03*
Y33100D03*
Y318100D03*
Y338100D03*
X396250Y13100D03*
Y33100D03*
Y318100D03*
Y338100D03*
X406250Y13100D03*
Y33100D03*
Y318100D03*
Y338100D03*
X416250Y13100D03*
Y33100D03*
Y318100D03*
Y338100D03*
X441250Y13100D03*
Y33100D03*
Y318100D03*
Y338100D03*
X461250Y13100D03*
Y33100D03*
Y318100D03*
Y338100D03*
X471250Y13100D03*
Y33100D03*
Y318100D03*
Y338100D03*
X481250Y13100D03*
Y33100D03*
Y318100D03*
Y338100D03*
D02*
D95*
X213750Y265600D03*
Y291600D03*
X216250Y73100D03*
Y99100D03*
X278750Y73100D03*
Y99100D03*
Y138100D03*
Y164100D03*
Y200600D03*
Y226600D03*
Y263100D03*
Y289100D03*
X346250Y73100D03*
Y99100D03*
Y138100D03*
Y164100D03*
Y203100D03*
Y229100D03*
Y263100D03*
Y289100D03*
X411250Y70600D03*
Y96600D03*
Y135600D03*
Y161600D03*
Y200600D03*
Y226600D03*
Y263100D03*
Y289100D03*
X481250Y232100D03*
Y258100D03*
X483750Y63100D03*
Y89100D03*
X490250Y125600D03*
X491250Y190600D03*
X516250Y125600D03*
X517250Y190600D03*
D02*
D96*
X23750Y78198D03*
X518750Y280698D03*
D02*
D97*
X13750Y68198D03*
Y88198D03*
X33750Y68198D03*
Y88198D03*
X508750Y270698D03*
Y290698D03*
X528750Y270698D03*
Y290698D03*
D02*
D98*
X41750Y45600D03*
X50750D03*
X109250Y43100D03*
X118250D03*
X174250D03*
X183250D03*
X239250D03*
X248250D03*
X304250D03*
X313250D03*
X369250D03*
X378250D03*
X434250D03*
X443250D03*
D02*
D100*
X13750Y140600D03*
Y150600D03*
Y160600D03*
Y170600D03*
Y180600D03*
Y190600D03*
Y200600D03*
Y210600D03*
X23750Y140600D03*
Y150600D03*
Y160600D03*
Y170600D03*
Y180600D03*
Y190600D03*
Y200600D03*
Y210600D03*
D02*
D110*
X95750Y103100D03*
Y188100D03*
Y273100D03*
X121750Y72100D03*
Y157100D03*
Y242100D03*
X165750Y103100D03*
Y190600D03*
Y275600D03*
X191750Y72100D03*
Y159600D03*
Y244600D03*
D02*
D111*
X73750Y58600D03*
Y93600D03*
Y126100D03*
Y161100D03*
Y193600D03*
Y228600D03*
Y261100D03*
Y296100D03*
X143750Y58600D03*
Y93600D03*
Y126100D03*
Y161100D03*
Y193600D03*
Y228600D03*
Y261100D03*
Y296100D03*
X213750Y128600D03*
Y163600D03*
Y196100D03*
Y231100D03*
X235750Y100600D03*
Y188100D03*
Y265600D03*
X261750Y80600D03*
Y168100D03*
Y245600D03*
X298250Y103100D03*
Y185600D03*
Y268100D03*
X324250Y83100D03*
Y165600D03*
Y248100D03*
X365750Y100600D03*
Y185600D03*
Y270600D03*
X391750Y80600D03*
Y165600D03*
Y250600D03*
X430750Y113100D03*
Y270600D03*
X433250Y185600D03*
X456750Y93100D03*
Y250600D03*
X459250Y165600D03*
X481250Y158100D03*
X516250Y65600D03*
Y100600D03*
X518750Y210600D03*
Y245600D03*
X526250Y158100D03*
D02*
D113*
X13750Y250600D03*
Y280100D03*
X33450Y250600D03*
Y280100D03*
D02*
D116*
X44616Y23100D03*
X52884D03*
X109616D03*
X117884D03*
X174616D03*
X182884D03*
X239616D03*
X247884D03*
X304616D03*
X312884D03*
X369616D03*
X377884D03*
X434616D03*
X442884D03*
X0Y0D02*
M02*
