G04 EasyPC Gerber Version 20.0.2 Build 4112 *
G04 #@! TF.Part,Single*
G04 #@! TF.FileFunction,Copper,L2,Bot *
%FSLAX35Y35*%
%MOIN*%
%ADD11C,0.01000*%
%ADD10C,0.01200*%
G04 #@! TA.AperFunction,WasherPad*
%ADD13C,0.04000*%
G04 #@! TD.AperFunction*
%ADD84C,0.05000*%
G04 #@! TA.AperFunction,ComponentPad*
%ADD73C,0.05500*%
G04 #@! TA.AperFunction,WasherPad*
%ADD14C,0.06000*%
G04 #@! TA.AperFunction,ComponentPad*
%ADD71C,0.06299*%
%ADD108C,0.07000*%
%ADD107C,0.07500*%
%ADD21C,0.09449*%
%ADD22C,0.10039*%
%ADD109C,0.15000*%
G04 #@! TA.AperFunction,WasherPad*
%ADD12C,0.17000*%
G04 #@! TA.AperFunction,SMDPad*
%ADD27R,0.03937X0.01811*%
%ADD25R,0.06000X0.05500*%
X0Y0D02*
D02*
D10*
X1250Y600D02*
X541250D01*
Y350600*
X1250*
Y600*
D02*
D11*
X23750Y140600D02*
X41250D01*
X23750Y150600D02*
X41250D01*
X23750Y160600D02*
X41250D01*
X23750Y170600D02*
X41250D01*
X23750Y180600D02*
X31250D01*
Y183100*
X41250*
X23750Y190600D02*
X41250D01*
X23750Y200600D02*
X46250D01*
X41750Y45600D02*
Y56100D01*
X46250Y60600*
Y200600*
X44616Y23100D02*
Y35600D01*
X42116Y38100*
X41750*
Y45600*
X46250Y200600D02*
Y318100D01*
X51250*
X50750Y45600D02*
Y33100D01*
X51250*
Y13100D02*
X44616Y19734D01*
Y23100*
X51250Y33100D02*
Y23100D01*
X52884*
X51250Y140600D02*
Y93100D01*
X63750Y80600*
X121250*
X51250Y150600D02*
X56250D01*
Y95600*
X66250Y85600*
X96250*
X98750Y88100*
X121250*
X51250Y190600D02*
Y253100D01*
X128750*
X109250Y43100D02*
Y50600D01*
X128750*
Y208100*
X109616Y23100D02*
X109250D01*
Y43100*
X116250Y13100D02*
X109616Y19734D01*
Y23100*
X116250Y33100D02*
Y43100D01*
X118250*
X116250Y33100D02*
Y23100D01*
X117884*
X123750Y170600D02*
X58750D01*
Y160600*
X51250*
X123750Y178100D02*
X113750D01*
Y175600*
X51250*
Y170600*
X123750Y185600D02*
X113750D01*
X108750Y180600*
X68750*
X66250Y183100*
X51250*
X128750Y208100D02*
Y253100D01*
Y318100*
X116250*
X133750Y80600D02*
X198750D01*
X133750Y88100D02*
X136250Y85600D01*
X171250*
X173750Y88100*
X198750*
X133750Y170600D02*
X198750D01*
X133750Y178100D02*
X198750D01*
X133750Y185600D02*
X136250Y183100D01*
X203750*
X174250Y43100D02*
Y53100D01*
X203750*
Y183100*
X174616Y23100D02*
Y43100D01*
X174250*
X181250Y13100D02*
X179616D01*
X174616Y18100*
Y23100*
X181250Y33100D02*
X182884D01*
Y23100*
X181250Y33100D02*
X183250D01*
Y43100*
X203750Y183100D02*
Y185600D01*
Y305600*
X196250Y313100*
X186250*
X181250Y318100*
X208750Y80600D02*
X236250D01*
X243750Y88100*
X258750*
X208750D02*
X231250D01*
X236250Y93100*
X258750*
X208750Y170600D02*
X213750D01*
X218750Y175600*
X253750*
X208750Y180600D02*
X268750D01*
X239250Y43100D02*
Y46100D01*
X248750Y55600*
X256250*
X268750Y68100*
Y180600*
X239616Y23100D02*
X239250D01*
Y43100*
X246250Y13100D02*
X239616Y19734D01*
Y23100*
X246250Y33100D02*
X247884D01*
Y23100*
X246250Y33100D02*
Y43100D01*
X248250*
X268750Y180600D02*
Y305600D01*
X261250Y313100*
X251250*
X246250Y318100*
X273750Y175600D02*
X331250D01*
X304250Y43100D02*
Y46100D01*
X311250Y53100*
X316250*
X331250Y68100*
Y175600*
X304616Y23100D02*
X304250D01*
Y43100*
X311250Y13100D02*
X309616D01*
X304616Y18100*
Y23100*
X311250Y33100D02*
Y23100D01*
X312884*
X311250Y33100D02*
X313250D01*
Y43100*
X326250Y90600D02*
X313750D01*
X311250Y88100*
X276250*
X326250Y98100D02*
X311250D01*
X306250Y93100*
X273750*
X331250Y175600D02*
Y303100D01*
X323750Y310600*
X316250*
X311250Y315600*
Y318100*
X338750Y85600D02*
X341250Y88100D01*
X393750*
X338750Y93100D02*
X398750D01*
X369250Y43100D02*
Y46100D01*
X378750Y55600*
X386250*
X398750Y68100*
Y88100*
Y93100*
X369616Y23100D02*
X369250D01*
Y43100*
X376250Y13100D02*
X369616Y19734D01*
Y23100*
X376250Y33100D02*
Y23100D01*
X377884*
X376250Y33100D02*
Y43100D01*
X378250*
X398750Y93100D02*
Y300600D01*
X388750Y310600*
X381250*
X376250Y315600*
Y318100*
X403750Y88100D02*
X418750D01*
X433750Y103100*
X466250*
X434250Y43100D02*
Y48600D01*
X466250Y80600*
Y103100*
X434616Y23100D02*
Y43100D01*
X434250*
X441250Y13100D02*
X439616D01*
X434616Y18100*
Y23100*
X441250Y33100D02*
X442884D01*
Y23100*
X441250Y33100D02*
X443250D01*
Y43100*
X466250Y103100D02*
Y308100D01*
X463750Y310600*
X443750*
X441250Y313100*
Y318100*
D02*
D12*
X21250Y20600D03*
Y330600D03*
X521250Y20600D03*
Y330600D03*
D02*
D13*
X41250Y140600D03*
Y150600D03*
Y160600D03*
Y170600D03*
Y183100D03*
Y190600D03*
X51250Y140600D03*
Y150600D03*
Y160600D03*
Y170600D03*
Y183100D03*
Y190600D03*
X91250Y5600D03*
X121250Y80600D03*
Y88100D03*
X123750Y170600D03*
Y178100D03*
Y185600D03*
X133750Y80600D03*
Y88100D03*
Y170600D03*
Y178100D03*
Y185600D03*
X198750Y80600D03*
Y88100D03*
Y170600D03*
Y178100D03*
X208750Y80600D03*
Y88100D03*
Y170600D03*
Y180600D03*
X253750Y175600D03*
X258750Y88100D03*
Y93100D03*
X273750D03*
Y175600D03*
X276250Y88100D03*
X326250Y90600D03*
Y98100D03*
X338750Y85600D03*
Y93100D03*
X393750Y88100D03*
X403750D03*
D02*
D14*
X51250Y13100D03*
Y33100D03*
Y318100D03*
Y338100D03*
X71250Y13100D03*
Y33100D03*
Y318100D03*
Y338100D03*
X81250Y13100D03*
Y33100D03*
Y318100D03*
Y338100D03*
X91250Y13100D03*
Y33100D03*
Y318100D03*
Y338100D03*
X116250Y13100D03*
Y33100D03*
Y318100D03*
Y338100D03*
X136250Y13100D03*
Y33100D03*
Y318100D03*
Y338100D03*
X146250Y13100D03*
Y33100D03*
Y318100D03*
Y338100D03*
X156250Y13100D03*
Y33100D03*
Y318100D03*
Y338100D03*
X181250Y13100D03*
Y33100D03*
Y318100D03*
Y338100D03*
X201250Y13100D03*
Y33100D03*
Y318100D03*
Y338100D03*
X211250Y13100D03*
Y33100D03*
Y318100D03*
Y338100D03*
X221250Y13100D03*
Y33100D03*
Y318100D03*
Y338100D03*
X246250Y13100D03*
Y33100D03*
Y318100D03*
Y338100D03*
X266250Y13100D03*
Y33100D03*
Y318100D03*
Y338100D03*
X276250Y13100D03*
Y33100D03*
Y318100D03*
Y338100D03*
X286250Y13100D03*
Y33100D03*
Y318100D03*
Y338100D03*
X311250Y13100D03*
Y33100D03*
Y318100D03*
Y338100D03*
X331250Y13100D03*
Y33100D03*
Y318100D03*
Y338100D03*
X341250Y13100D03*
Y33100D03*
Y318100D03*
Y338100D03*
X351250Y13100D03*
Y33100D03*
Y318100D03*
Y338100D03*
X376250Y13100D03*
Y33100D03*
Y318100D03*
Y338100D03*
X396250Y13100D03*
Y33100D03*
Y318100D03*
Y338100D03*
X406250Y13100D03*
Y33100D03*
Y318100D03*
Y338100D03*
X416250Y13100D03*
Y33100D03*
Y318100D03*
Y338100D03*
X441250Y13100D03*
Y33100D03*
Y318100D03*
Y338100D03*
X461250Y13100D03*
Y33100D03*
Y318100D03*
Y338100D03*
X471250Y13100D03*
Y33100D03*
Y318100D03*
Y338100D03*
X481250Y13100D03*
Y33100D03*
Y318100D03*
Y338100D03*
D02*
D71*
X213750Y265600D03*
Y291600D03*
X216250Y73100D03*
Y99100D03*
X278750Y73100D03*
Y99100D03*
Y138100D03*
Y164100D03*
Y200600D03*
Y226600D03*
Y263100D03*
Y289100D03*
X346250Y73100D03*
Y99100D03*
Y138100D03*
Y164100D03*
Y203100D03*
Y229100D03*
Y263100D03*
Y289100D03*
X411250Y70600D03*
Y96600D03*
Y135600D03*
Y161600D03*
Y200600D03*
Y226600D03*
Y263100D03*
Y289100D03*
X481250Y232100D03*
Y258100D03*
X483750Y63100D03*
Y89100D03*
X490250Y125600D03*
X491250Y190600D03*
X516250Y125600D03*
X517250Y190600D03*
D02*
D21*
X23750Y78198D03*
X518750Y280698D03*
D02*
D22*
X13750Y68198D03*
Y88198D03*
X33750Y68198D03*
Y88198D03*
X508750Y270698D03*
Y290698D03*
X528750Y270698D03*
Y290698D03*
D02*
D25*
X41750Y45600D03*
X50750D03*
X109250Y43100D03*
X118250D03*
X174250D03*
X183250D03*
X239250D03*
X248250D03*
X304250D03*
X313250D03*
X369250D03*
X378250D03*
X434250D03*
X443250D03*
D02*
D27*
X44616Y23100D03*
X52884D03*
X109616D03*
X117884D03*
X174616D03*
X182884D03*
X239616D03*
X247884D03*
X304616D03*
X312884D03*
X369616D03*
X377884D03*
X434616D03*
X442884D03*
D02*
D73*
X13750Y140600D03*
Y150600D03*
Y160600D03*
Y170600D03*
Y180600D03*
Y190600D03*
Y200600D03*
Y210600D03*
X23750Y140600D03*
Y150600D03*
Y160600D03*
Y170600D03*
Y180600D03*
Y190600D03*
Y200600D03*
Y210600D03*
D02*
D84*
X73750Y126100D02*
X96250D01*
X121750Y151600*
Y157100*
X73750Y126100D02*
X95750D01*
Y103100*
X73750Y193600D02*
Y193100D01*
X78750Y188100*
X95750*
X73750Y261100D02*
Y263100D01*
X83750Y273100*
X95750*
X81250Y13100D02*
Y33100D01*
Y58600*
X73750*
X81250Y318100D02*
Y303100D01*
X86250Y298100*
Y273100*
X95750*
X81250Y338100D02*
Y318100D01*
X91250Y5600D02*
X156250D01*
X91250Y13100D02*
Y5600D01*
Y33100D02*
Y13100D01*
Y318100D02*
Y338100D01*
Y345600*
X156250*
X121750Y72100D02*
X93750D01*
X81250Y59600*
Y58600*
X121750Y242100D02*
Y225600D01*
X96750Y200600*
X95750*
Y188100*
X143750Y58600D02*
Y55600D01*
X145750*
X146250Y55100*
Y33100*
X143750Y193600D02*
Y190600D01*
X165750*
X146250Y13100D02*
Y33100D01*
Y318100D02*
Y315600D01*
X165750Y296100*
Y275600*
X146250Y338100D02*
Y318100D01*
X156250Y5600D02*
Y13100D01*
Y33100*
Y318100D02*
Y338100D01*
Y345600*
X221250*
X165750Y103100D02*
Y126100D01*
X143750*
X165750Y190600D02*
X191750D01*
Y244600*
X165750Y275600D02*
X151250Y261100D01*
X143750*
X191750Y72100D02*
X156250D01*
X143750Y59600*
Y58600*
X191750Y159600D02*
Y151100D01*
X166250Y125600*
X165750*
Y126100*
X211250Y13100D02*
Y33100D01*
Y58100*
X216250Y63100*
Y73100*
X211250Y338100D02*
Y318100D01*
X213750Y128600D02*
X236250D01*
X261750Y154100*
Y168100*
X213750Y196100D02*
Y195600D01*
X221250Y188100*
X235750*
X213750Y265600D02*
X223750D01*
Y298100*
X211250Y310600*
Y318100*
X213750Y265600D02*
X235750D01*
X216250Y73100D02*
X254250D01*
X261750Y80600*
X221250Y5600D02*
X156250D01*
X221250Y13100D02*
Y5600D01*
Y33100D02*
Y13100D01*
Y318100D02*
Y338100D01*
Y345600*
X286250*
X235750Y100600D02*
Y128600D01*
X213750*
X261750Y245600D02*
Y213600D01*
X236250Y188100*
X235750*
X276250Y13100D02*
Y33100D01*
Y48100*
X278750Y50600*
Y73100*
X276250Y318100D02*
Y305600D01*
X298250Y283600*
Y268100*
X276250Y338100D02*
Y318100D01*
X278750Y73100D02*
X314250D01*
X324250Y83100*
X278750Y200600D02*
X298250D01*
Y185600*
X278750Y263100D02*
X293750D01*
X298250Y267600*
Y268100*
X286250Y5600D02*
X221250D01*
X286250Y13100D02*
Y5600D01*
Y33100D02*
Y13100D01*
Y318100D02*
Y338100D01*
Y345600*
X351250*
X298250Y103100D02*
X298750D01*
Y138100*
X278750*
X324250Y165600D02*
Y163600D01*
X298750Y138100*
X324250Y248100D02*
Y225600D01*
X299250Y200600*
X278750*
X341250Y13100D02*
Y33100D01*
Y58100*
X346250Y63100*
Y73100*
X341250Y318100D02*
Y310600D01*
X365750Y286100*
Y270600*
X341250Y338100D02*
Y318100D01*
X346250Y73100D02*
X353750Y80600D01*
X391750*
X346250Y138100D02*
X371250D01*
X391750Y158600*
Y165600*
X346250Y138100D02*
X365750D01*
Y100600*
X346250Y203100D02*
X365750D01*
Y185600*
X351250Y5600D02*
X286250D01*
X351250Y13100D02*
Y5600D01*
Y33100D02*
Y13100D01*
Y318100D02*
Y338100D01*
Y345600*
X416250*
X365750Y270600D02*
X353750D01*
X346250Y263100*
X391750Y250600D02*
Y228600D01*
X366250Y203100*
X346250*
X406250Y13100D02*
Y33100D01*
Y50600*
X411250Y55600*
Y70600*
X406250Y338100D02*
Y318100D01*
X411250Y70600D02*
X428750D01*
X451250Y93100*
X456750*
X411250Y135600D02*
X429250D01*
X459250Y165600*
X411250Y200600D02*
X433750D01*
X456750Y223600*
Y250600*
X411250Y200600D02*
X433250D01*
Y185600*
X411250Y263100D02*
X418750Y270600D01*
X430750*
X416250Y5600D02*
X351250D01*
X416250Y13100D02*
Y5600D01*
Y33100D02*
Y13100D01*
Y338100D02*
Y318100D01*
Y345600D02*
Y338100D01*
X430750Y113100D02*
Y135600D01*
X411250*
X430750Y270600D02*
X421250D01*
Y298100*
X406250Y313100*
Y318100*
X471250Y13100D02*
Y33100D01*
Y50600*
X483750Y63100*
X471250Y318100D02*
Y315600D01*
X473750Y313100*
Y283100*
X481250Y275600*
Y258100*
X471250Y338100D02*
Y318100D01*
X481250Y13100D02*
Y5600D01*
X416250*
X481250Y33100D02*
Y13100D01*
Y158100D02*
Y180600D01*
X491250Y190600*
X481250Y318100D02*
Y338100D01*
Y345600*
X416250*
X483750Y63100D02*
Y65600D01*
X516250*
Y100600D02*
Y125600D01*
Y148100*
X526250Y158100*
X518750Y210600D02*
X511250D01*
X491250Y190600*
X518750Y245600D02*
X506250Y258100D01*
X481250*
X518750Y280698D02*
Y305600D01*
X498750*
X486250Y318100*
X481250*
D02*
D107*
X95750Y103100D03*
Y188100D03*
Y273100D03*
X121750Y72100D03*
Y157100D03*
Y242100D03*
X165750Y103100D03*
Y190600D03*
Y275600D03*
X191750Y72100D03*
Y159600D03*
Y244600D03*
D02*
D108*
X73750Y58600D03*
Y93600D03*
Y126100D03*
Y161100D03*
Y193600D03*
Y228600D03*
Y261100D03*
Y296100D03*
X143750Y58600D03*
Y93600D03*
Y126100D03*
Y161100D03*
Y193600D03*
Y228600D03*
Y261100D03*
Y296100D03*
X213750Y128600D03*
Y163600D03*
Y196100D03*
Y231100D03*
X235750Y100600D03*
Y188100D03*
Y265600D03*
X261750Y80600D03*
Y168100D03*
Y245600D03*
X298250Y103100D03*
Y185600D03*
Y268100D03*
X324250Y83100D03*
Y165600D03*
Y248100D03*
X365750Y100600D03*
Y185600D03*
Y270600D03*
X391750Y80600D03*
Y165600D03*
Y250600D03*
X430750Y113100D03*
Y270600D03*
X433250Y185600D03*
X456750Y93100D03*
Y250600D03*
X459250Y165600D03*
X481250Y158100D03*
X516250Y65600D03*
Y100600D03*
X518750Y210600D03*
Y245600D03*
X526250Y158100D03*
D02*
D109*
X13750Y250600D03*
Y280100D03*
X33450Y250600D03*
Y280100D03*
X0Y0D02*
M02*
