G04 EasyPC Gerber Version 20.0.2 Build 4112 *
G04 #@! TF.Part,Single*
G04 #@! TF.FileFunction,Legend,Bot *
%FSLAX35Y35*%
%MOIN*%
%ADD106C,0.00100*%
%ADD105C,0.00500*%
%ADD115C,0.00787*%
X0Y0D02*
D02*
D105*
X30313Y43725D02*
X30000Y43413D01*
X29687Y42787*
Y41850*
X30000Y41225*
X30313Y40913*
X30937Y40600*
X32187*
X32813Y40913*
X33125Y41225*
X33437Y41850*
Y42787*
X33125Y43413*
X32813Y43725*
X30000Y45913D02*
X29687Y46537D01*
Y47163*
X30000Y47787*
X30625Y48100*
X31250Y47787*
X31563Y47163*
Y46537*
Y47163D02*
X31875Y47787D01*
X32500Y48100*
X33125Y47787*
X33437Y47163*
Y46537*
X33125Y45913*
X30000Y50600D02*
X29687Y51225D01*
Y52163*
X30000Y52787*
X30625Y53100*
X30937*
X31563Y52787*
X31875Y52163*
Y50600*
X33437*
Y53100*
X54250Y42100D02*
X38250D01*
Y49100*
X54250*
Y42100*
X100813Y41225D02*
X100500Y40913D01*
X100187Y40287*
Y39350*
X100500Y38725*
X100813Y38413*
X101437Y38100*
X102687*
X103313Y38413*
X103625Y38725*
X103937Y39350*
Y40287*
X103625Y40913*
X103313Y41225*
X100500Y43413D02*
X100187Y44037D01*
Y44663*
X100500Y45287*
X101125Y45600*
X101750Y45287*
X102063Y44663*
Y44037*
Y44663D02*
X102375Y45287D01*
X103000Y45600*
X103625Y45287*
X103937Y44663*
Y44037*
X103625Y43413*
X100187Y49663D02*
X103937D01*
X101437Y48100*
Y50600*
X121750Y39600D02*
X105750D01*
Y46600*
X121750*
Y39600*
X165813Y41225D02*
X165500Y40913D01*
X165187Y40287*
Y39350*
X165500Y38725*
X165813Y38413*
X166437Y38100*
X167687*
X168313Y38413*
X168625Y38725*
X168937Y39350*
Y40287*
X168625Y40913*
X168313Y41225*
X165500Y43413D02*
X165187Y44037D01*
Y44663*
X165500Y45287*
X166125Y45600*
X166750Y45287*
X167063Y44663*
Y44037*
Y44663D02*
X167375Y45287D01*
X168000Y45600*
X168625Y45287*
X168937Y44663*
Y44037*
X168625Y43413*
X165500Y48413D02*
X165187Y49037D01*
Y49663*
X165500Y50287*
X166125Y50600*
X166750Y50287*
X167063Y49663*
Y49037*
Y49663D02*
X167375Y50287D01*
X168000Y50600*
X168625Y50287*
X168937Y49663*
Y49037*
X168625Y48413*
X186750Y39600D02*
X170750D01*
Y46600*
X186750*
Y39600*
X230813Y41225D02*
X230500Y40913D01*
X230187Y40287*
Y39350*
X230500Y38725*
X230813Y38413*
X231437Y38100*
X232687*
X233313Y38413*
X233625Y38725*
X233937Y39350*
Y40287*
X233625Y40913*
X233313Y41225*
X230500Y43413D02*
X230187Y44037D01*
Y44663*
X230500Y45287*
X231125Y45600*
X231750Y45287*
X232063Y44663*
Y44037*
Y44663D02*
X232375Y45287D01*
X233000Y45600*
X233625Y45287*
X233937Y44663*
Y44037*
X233625Y43413*
X230187Y50600D02*
Y48100D01*
X232375Y50287*
X233000Y50600*
X233625Y50287*
X233937Y49663*
Y48725*
X233625Y48100*
X251750Y39600D02*
X235750D01*
Y46600*
X251750*
Y39600*
X295813Y41225D02*
X295500Y40913D01*
X295187Y40287*
Y39350*
X295500Y38725*
X295813Y38413*
X296437Y38100*
X297687*
X298313Y38413*
X298625Y38725*
X298937Y39350*
Y40287*
X298625Y40913*
X298313Y41225*
X295500Y43413D02*
X295187Y44037D01*
Y44663*
X295500Y45287*
X296125Y45600*
X296750Y45287*
X297063Y44663*
Y44037*
Y44663D02*
X297375Y45287D01*
X298000Y45600*
X298625Y45287*
X298937Y44663*
Y44037*
X298625Y43413*
X295187Y48725D02*
Y49975D01*
Y49350D02*
X298937D01*
X298313Y48725*
X316750Y39600D02*
X300750D01*
Y46600*
X316750*
Y39600*
X360813Y41225D02*
X360500Y40913D01*
X360187Y40287*
Y39350*
X360500Y38725*
X360813Y38413*
X361437Y38100*
X362687*
X363313Y38413*
X363625Y38725*
X363937Y39350*
Y40287*
X363625Y40913*
X363313Y41225*
X360500Y43413D02*
X360187Y44037D01*
Y44663*
X360500Y45287*
X361125Y45600*
X361750Y45287*
X362063Y44663*
Y44037*
Y44663D02*
X362375Y45287D01*
X363000Y45600*
X363625Y45287*
X363937Y44663*
Y44037*
X363625Y43413*
X360500Y48413D02*
X360187Y49037D01*
Y49663*
X360500Y50287*
X361125Y50600*
X363000*
X363625Y50287*
X363937Y49663*
Y49037*
X363625Y48413*
X363000Y48100*
X361125*
X360500Y48413*
X363625Y50287*
X381750Y39600D02*
X365750D01*
Y46600*
X381750*
Y39600*
X425813Y41225D02*
X425500Y40913D01*
X425187Y40287*
Y39350*
X425500Y38725*
X425813Y38413*
X426437Y38100*
X427687*
X428313Y38413*
X428625Y38725*
X428937Y39350*
Y40287*
X428625Y40913*
X428313Y41225*
X425187Y45600D02*
Y43100D01*
X427375Y45287*
X428000Y45600*
X428625Y45287*
X428937Y44663*
Y43725*
X428625Y43100*
X425187Y49037D02*
X425500Y49663D01*
X426125Y50287*
X427063Y50600*
X428000*
X428625Y50287*
X428937Y49663*
Y49037*
X428625Y48413*
X428000Y48100*
X427375Y48413*
X427063Y49037*
Y49663*
X427375Y50287*
X428000Y50600*
X446750Y39600D02*
X430750D01*
Y46600*
X446750*
Y39600*
D02*
D106*
X38750Y30131D02*
Y28256D01*
X39687*
X40000Y28413*
X40156Y28569*
X40313Y28881*
Y29506*
X40156Y29819*
X40000Y29975*
X39687Y30131*
X38750*
X41563D02*
X42187D01*
X41875D02*
Y28256D01*
X41563Y28569*
X101250Y30131D02*
Y28256D01*
X102187*
X102500Y28413*
X102656Y28569*
X102813Y28881*
Y29506*
X102656Y29819*
X102500Y29975*
X102187Y30131*
X101250*
X105000D02*
X103750D01*
X104844Y29037*
X105000Y28725*
X104844Y28413*
X104531Y28256*
X104063*
X103750Y28413*
X171250Y30131D02*
Y28256D01*
X172187*
X172500Y28413*
X172656Y28569*
X172813Y28881*
Y29506*
X172656Y29819*
X172500Y29975*
X172187Y30131*
X171250*
X173906Y29975D02*
X174219Y30131D01*
X174531*
X174844Y29975*
X175000Y29663*
X174844Y29350*
X174531Y29194*
X174219*
X174531D02*
X174844Y29037D01*
X175000Y28725*
X174844Y28413*
X174531Y28256*
X174219*
X173906Y28413*
X236250Y30131D02*
Y28256D01*
X237187*
X237500Y28413*
X237656Y28569*
X237813Y28881*
Y29506*
X237656Y29819*
X237500Y29975*
X237187Y30131*
X236250*
X239531D02*
Y28256D01*
X238750Y29506*
X240000*
X301250Y30131D02*
Y28256D01*
X302187*
X302500Y28413*
X302656Y28569*
X302813Y28881*
Y29506*
X302656Y29819*
X302500Y29975*
X302187Y30131*
X301250*
X303750Y29975D02*
X304063Y30131D01*
X304531*
X304844Y29975*
X305000Y29663*
Y29506*
X304844Y29194*
X304531Y29037*
X303750*
Y28256*
X305000*
X366250Y30131D02*
Y28256D01*
X367187*
X367500Y28413*
X367656Y28569*
X367813Y28881*
Y29506*
X367656Y29819*
X367500Y29975*
X367187Y30131*
X366250*
X368750Y29663D02*
X368906Y29350D01*
X369219Y29194*
X369531*
X369844Y29350*
X370000Y29663*
X369844Y29975*
X369531Y30131*
X369219*
X368906Y29975*
X368750Y29663*
Y29194*
X368906Y28725*
X369219Y28413*
X369531Y28256*
X431250Y30131D02*
Y28256D01*
X432187*
X432500Y28413*
X432656Y28569*
X432813Y28881*
Y29506*
X432656Y29819*
X432500Y29975*
X432187Y30131*
X431250*
X433750D02*
X435000Y28256D01*
X433750*
D02*
D115*
X42648Y20639D02*
X52096D01*
X45404Y25561D02*
X52096D01*
X107648Y20639D02*
X117096D01*
X110404Y25561D02*
X117096D01*
X172648Y20639D02*
X182096D01*
X175404Y25561D02*
X182096D01*
X237648Y20639D02*
X247096D01*
X240404Y25561D02*
X247096D01*
X302648Y20639D02*
X312096D01*
X305404Y25561D02*
X312096D01*
X367648Y20639D02*
X377096D01*
X370404Y25561D02*
X377096D01*
X432648Y20639D02*
X442096D01*
X435404Y25561D02*
X442096D01*
X0Y0D02*
M02*
