G04 EasyPC Gerber Version 20.0.2 Build 4112 *
G04 #@! TF.Part,Single*
G04 #@! TF.FileFunction,Copper,L1,Top *
%FSLAX35Y35*%
%MOIN*%
G04 #@! TA.AperFunction,SMDPad*
%ADD26R,0.03543X0.05512*%
%ADD70R,0.05500X0.06000*%
G04 #@! TD.AperFunction*
%ADD11C,0.01000*%
%ADD10C,0.01200*%
G04 #@! TA.AperFunction,WasherPad*
%ADD13C,0.04000*%
G04 #@! TD.AperFunction*
%ADD84C,0.05000*%
G04 #@! TA.AperFunction,ComponentPad*
%ADD73C,0.05500*%
G04 #@! TA.AperFunction,WasherPad*
%ADD14C,0.06000*%
G04 #@! TA.AperFunction,ComponentPad*
%ADD71C,0.06299*%
%ADD108C,0.07000*%
%ADD107C,0.07500*%
%ADD21C,0.09449*%
%ADD22C,0.10039*%
%ADD109C,0.15000*%
G04 #@! TA.AperFunction,WasherPad*
%ADD12C,0.17000*%
G04 #@! TA.AperFunction,SMDPad*
%ADD25R,0.06000X0.05500*%
X0Y0D02*
D02*
D10*
X1250Y600D02*
X541250D01*
Y350600*
X1250*
Y600*
X539050Y310600D02*
X496250D01*
Y348400*
X36250*
Y315600*
X3450*
Y38100*
X36250*
Y2800*
X58255*
G75*
G02X57150Y5600I2995J2800*
G01*
Y36402*
X44552Y49000*
X31250*
G75*
G02X28351Y50201I0J4100*
G01*
X20851Y57701*
G75*
G02X19650Y60600I2899J2900*
G01*
Y65197*
G75*
G02X7130Y68198I-5900J3002*
G01*
G75*
G02X19650Y71200I6620*
G01*
Y73383*
G75*
G02X23750Y84523I4100J4815*
G01*
G75*
G02X27850Y73383J-6324*
G01*
Y71200*
G75*
G02X40370Y68198I5900J-3002*
G01*
G75*
G02X27850Y65197I-6620*
G01*
Y62298*
X32948Y57200*
X46250*
G75*
G02X49149Y55999I0J-4100*
G01*
X64149Y40999*
G75*
G02X65350Y38100I-2899J-2900*
G01*
Y9700*
X68152*
G75*
G02X66650Y13100I3098J3400*
G01*
G75*
G02X75850I4600*
G01*
G75*
G02X74348Y9700I-4600*
G01*
X78152*
G75*
G02X76650Y13100I3098J3400*
G01*
G75*
G02X85850I4600*
G01*
G75*
G02X84348Y9700I-4600*
G01*
X88152*
G75*
G02X86650Y13100I3098J3400*
G01*
G75*
G02X95850I4600*
G01*
G75*
G02X93450Y9060I-4600*
G01*
G75*
G02X94245Y2800I-2200J-3460*
G01*
X498750*
Y40600*
X539050*
Y310600*
X502130Y270698D02*
G75*
G02X515370I6620D01*
G01*
G75*
G02X502130I-6620*
G01*
X511150Y65600D02*
G75*
G02X521350I5100D01*
G01*
G75*
G02X511150I-5100*
G01*
Y100600D02*
G75*
G02X521350I5100D01*
G01*
G75*
G02X511150I-5100*
G01*
X511500Y125600D02*
G75*
G02X521000I4750D01*
G01*
G75*
G02X511500I-4750*
G01*
X512500Y190600D02*
G75*
G02X522000I4750D01*
G01*
G75*
G02X512500I-4750*
G01*
X521150Y158100D02*
G75*
G02X531350I5100D01*
G01*
G75*
G02X521150I-5100*
G01*
X513650Y210600D02*
G75*
G02X523850I5100D01*
G01*
G75*
G02X513650I-5100*
G01*
Y245600D02*
G75*
G02X523850I5100D01*
G01*
G75*
G02X513650I-5100*
G01*
X502130Y290698D02*
G75*
G02X515370I6620D01*
G01*
G75*
G02X502130I-6620*
G01*
X512426Y280698D02*
G75*
G02X525074I6324D01*
G01*
G75*
G02X512426I-6324*
G01*
X522130Y270698D02*
G75*
G02X535370I6620D01*
G01*
G75*
G02X522130I-6620*
G01*
Y290698D02*
G75*
G02X535370I6620D01*
G01*
G75*
G02X522130I-6620*
G01*
X46650Y318100D02*
G75*
G02X55850I4600D01*
G01*
G75*
G02X49841Y313721I-4600*
G01*
X47110Y310990*
Y309954*
X48380*
Y301246*
X41640*
Y309954*
X42910*
Y311860*
G75*
G02X43525Y313345I2100*
G01*
X46871Y316691*
G75*
G02X46650Y318100I4379J1409*
G01*
X55850Y299698D02*
X58100D01*
Y281502*
X49400*
Y299698*
X51650*
Y301246*
X49120*
Y309954*
X55860*
Y301246*
X55850*
Y299698*
X46650Y338100D02*
G75*
G02X55850I4600D01*
G01*
G75*
G02X46650I-4600*
G01*
X66650Y33100D02*
G75*
G02X75850I4600D01*
G01*
G75*
G02X66650I-4600*
G01*
Y318100D02*
G75*
G02X75850I4600D01*
G01*
G75*
G02X66650I-4600*
G01*
X68650Y58600D02*
G75*
G02X78850I5100D01*
G01*
G75*
G02X68650I-5100*
G01*
X76650Y33100D02*
G75*
G02X85850I4600D01*
G01*
G75*
G02X76650I-4600*
G01*
X68650Y93600D02*
G75*
G02X78850I5100D01*
G01*
G75*
G02X68650I-5100*
G01*
Y126100D02*
G75*
G02X78850I5100D01*
G01*
G75*
G02X68650I-5100*
G01*
Y161100D02*
G75*
G02X78850I5100D01*
G01*
G75*
G02X68650I-5100*
G01*
Y193600D02*
G75*
G02X78850I5100D01*
G01*
G75*
G02X68650I-5100*
G01*
Y228600D02*
G75*
G02X78850I5100D01*
G01*
G75*
G02X68650I-5100*
G01*
Y261100D02*
G75*
G02X78850I5100D01*
G01*
G75*
G02X68650I-5100*
G01*
Y296100D02*
G75*
G02X78850I5100D01*
G01*
G75*
G02X68650I-5100*
G01*
X66650Y338100D02*
G75*
G02X75850I4600D01*
G01*
G75*
G02X66650I-4600*
G01*
X76650Y318100D02*
G75*
G02X85850I4600D01*
G01*
G75*
G02X76650I-4600*
G01*
Y338100D02*
G75*
G02X85850I4600D01*
G01*
G75*
G02X76650I-4600*
G01*
X86650Y33100D02*
G75*
G02X95850I4600D01*
G01*
G75*
G02X86650I-4600*
G01*
Y318100D02*
G75*
G02X95850I4600D01*
G01*
G75*
G02X86650I-4600*
G01*
X90400Y103100D02*
G75*
G02X101100I5350D01*
G01*
G75*
G02X90400I-5350*
G01*
Y188100D02*
G75*
G02X101100I5350D01*
G01*
G75*
G02X90400I-5350*
G01*
Y273100D02*
G75*
G02X101100I5350D01*
G01*
G75*
G02X90400I-5350*
G01*
X86650Y338100D02*
G75*
G02X95850I4600D01*
G01*
G75*
G02X86650I-4600*
G01*
X111650Y318100D02*
G75*
G02X120850I4600D01*
G01*
G75*
G02X117110Y313581I-4600*
G01*
Y309954*
X118380*
Y301246*
X111640*
Y309954*
X112910*
Y314937*
G75*
G02X111650Y318100I3341J3163*
G01*
X125850Y299698D02*
X128100D01*
Y281502*
X119400*
Y299698*
X121650*
Y301246*
X119120*
Y309954*
X125860*
Y301246*
X125850*
Y299698*
X111650Y13100D02*
G75*
G02X120850I4600D01*
G01*
G75*
G02X111650I-4600*
G01*
Y33100D02*
G75*
G02X120850I4600D01*
G01*
G75*
G02X111650I-4600*
G01*
X130826Y82700D02*
G75*
G02X137350Y80600I2924J-2100D01*
G01*
G75*
G02X130826Y78500I-3600*
G01*
X124174*
G75*
G02X122793Y77347I-2924J2100*
G01*
G75*
G02X121750Y66750I-1043J-5247*
G01*
G75*
G02X120099Y77189J5350*
G01*
G75*
G02X117650Y80600I1151J3411*
G01*
G75*
G02X124174Y82700I3600*
G01*
X130826*
X131650Y13100D02*
G75*
G02X140850I4600D01*
G01*
G75*
G02X131650I-4600*
G01*
Y33100D02*
G75*
G02X140850I4600D01*
G01*
G75*
G02X131650I-4600*
G01*
X116400Y157100D02*
G75*
G02X127100I5350D01*
G01*
G75*
G02X116400I-5350*
G01*
X130826Y90200D02*
G75*
G02X137350Y88100I2924J-2100D01*
G01*
G75*
G02X130826Y86000I-3600*
G01*
X124174*
G75*
G02X117650Y88100I-2924J2100*
G01*
G75*
G02X124174Y90200I3600*
G01*
X130826*
X116400Y242100D02*
G75*
G02X127100I5350D01*
G01*
G75*
G02X116400I-5350*
G01*
X130826Y172700D02*
G75*
G02X137350Y170600I2924J-2100D01*
G01*
G75*
G02X130826Y168500I-3600*
G01*
X126674*
G75*
G02X120150Y170600I-2924J2100*
G01*
G75*
G02X126674Y172700I3600*
G01*
X130826*
Y180200D02*
G75*
G02X137350Y178100I2924J-2100D01*
G01*
G75*
G02X130826Y176000I-3600*
G01*
X126674*
G75*
G02X120150Y178100I-2924J2100*
G01*
G75*
G02X126674Y180200I3600*
G01*
X130826*
Y187700D02*
G75*
G02X137350Y185600I2924J-2100D01*
G01*
G75*
G02X130826Y183500I-3600*
G01*
X126674*
G75*
G02X120150Y185600I-2924J2100*
G01*
G75*
G02X126674Y187700I3600*
G01*
X130826*
X111650Y338100D02*
G75*
G02X120850I4600D01*
G01*
G75*
G02X111650I-4600*
G01*
X131650Y318100D02*
G75*
G02X140850I4600D01*
G01*
G75*
G02X131650I-4600*
G01*
X138650Y58600D02*
G75*
G02X148850I5100D01*
G01*
G75*
G02X138650I-5100*
G01*
X141650Y13100D02*
G75*
G02X150850I4600D01*
G01*
G75*
G02X141650I-4600*
G01*
Y33100D02*
G75*
G02X150850I4600D01*
G01*
G75*
G02X141650I-4600*
G01*
X138650Y93600D02*
G75*
G02X148850I5100D01*
G01*
G75*
G02X138650I-5100*
G01*
Y126100D02*
G75*
G02X148850I5100D01*
G01*
G75*
G02X138650I-5100*
G01*
Y161100D02*
G75*
G02X148850I5100D01*
G01*
G75*
G02X138650I-5100*
G01*
Y193600D02*
G75*
G02X148850I5100D01*
G01*
G75*
G02X138650I-5100*
G01*
Y228600D02*
G75*
G02X148850I5100D01*
G01*
G75*
G02X138650I-5100*
G01*
Y261100D02*
G75*
G02X148850I5100D01*
G01*
G75*
G02X138650I-5100*
G01*
Y296100D02*
G75*
G02X148850I5100D01*
G01*
G75*
G02X138650I-5100*
G01*
X131650Y338100D02*
G75*
G02X140850I4600D01*
G01*
G75*
G02X131650I-4600*
G01*
X141650Y318100D02*
G75*
G02X150850I4600D01*
G01*
G75*
G02X141650I-4600*
G01*
Y338100D02*
G75*
G02X150850I4600D01*
G01*
G75*
G02X141650I-4600*
G01*
X151650Y13100D02*
G75*
G02X160850I4600D01*
G01*
G75*
G02X151650I-4600*
G01*
Y33100D02*
G75*
G02X160850I4600D01*
G01*
G75*
G02X151650I-4600*
G01*
Y318100D02*
G75*
G02X160850I4600D01*
G01*
G75*
G02X151650I-4600*
G01*
X160400Y103100D02*
G75*
G02X171100I5350D01*
G01*
G75*
G02X160400I-5350*
G01*
Y190600D02*
G75*
G02X171100I5350D01*
G01*
G75*
G02X160400I-5350*
G01*
Y275600D02*
G75*
G02X171100I5350D01*
G01*
G75*
G02X160400I-5350*
G01*
X151650Y338100D02*
G75*
G02X160850I4600D01*
G01*
G75*
G02X151650I-4600*
G01*
X176650Y318100D02*
G75*
G02X185850I4600D01*
G01*
G75*
G02X182110Y313581I-4600*
G01*
Y309954*
X183380*
Y301246*
X176640*
Y309954*
X177910*
Y314937*
G75*
G02X176650Y318100I3341J3163*
G01*
X191900Y302198D02*
X200600D01*
Y284002*
X191900*
Y295500*
X187490*
G75*
G02X185390Y297600J2100*
G01*
Y301246*
X184120*
Y309954*
X190860*
Y301246*
X189590*
Y299700*
X191900*
Y302198*
X186400Y72100D02*
G75*
G02X197100I5350D01*
G01*
G75*
G02X186400I-5350*
G01*
X196650Y13100D02*
G75*
G02X205850I4600D01*
G01*
G75*
G02X196650I-4600*
G01*
Y33100D02*
G75*
G02X205850I4600D01*
G01*
G75*
G02X196650I-4600*
G01*
X186400Y159600D02*
G75*
G02X197100I5350D01*
G01*
G75*
G02X186400I-5350*
G01*
X205826Y82700D02*
G75*
G02X212350Y80600I2924J-2100D01*
G01*
G75*
G02X205826Y78500I-3600*
G01*
X201674*
G75*
G02X195150Y80600I-2924J2100*
G01*
G75*
G02X201674Y82700I3600*
G01*
X205826*
X206650Y13100D02*
G75*
G02X215850I4600D01*
G01*
G75*
G02X206650I-4600*
G01*
Y33100D02*
G75*
G02X215850I4600D01*
G01*
G75*
G02X206650I-4600*
G01*
X216250Y77850D02*
G75*
G02X221000Y73100J-4750D01*
G01*
G75*
G02X216250Y68350I-4750*
G01*
G75*
G02X211500Y73100J4750*
G01*
G75*
G02X216250Y77850I4750*
G01*
X216650Y13100D02*
G75*
G02X225850I4600D01*
G01*
G75*
G02X216650I-4600*
G01*
Y33100D02*
G75*
G02X225850I4600D01*
G01*
G75*
G02X216650I-4600*
G01*
X205826Y90200D02*
G75*
G02X212350Y88100I2924J-2100D01*
G01*
G75*
G02X205826Y86000I-3600*
G01*
X201674*
G75*
G02X195150Y88100I-2924J2100*
G01*
G75*
G02X201674Y90200I3600*
G01*
X205826*
X186400Y244600D02*
G75*
G02X197100I5350D01*
G01*
G75*
G02X186400I-5350*
G01*
X211330Y168089D02*
G75*
G02X218850Y163600I2420J-4489D01*
G01*
G75*
G02X208650I-5100*
G01*
G75*
G02X210288Y167345I5100*
G01*
G75*
G02X205826Y168500I-1538J3255*
G01*
X201674*
G75*
G02X195150Y170600I-2924J2100*
G01*
G75*
G02X201674Y172700I3600*
G01*
X205826*
G75*
G02X212350Y170600I2924J-2100*
G01*
G75*
G02X211330Y168089I-3600*
G01*
X208650Y128600D02*
G75*
G02X218850I5100D01*
G01*
G75*
G02X208650I-5100*
G01*
X216250Y103850D02*
G75*
G02X221000Y99100J-4750D01*
G01*
G75*
G02X216250Y94350I-4750*
G01*
G75*
G02X211500Y99100J4750*
G01*
G75*
G02X216250Y103850I4750*
G01*
X205150Y180600D02*
G75*
G02X212350I3600D01*
G01*
G75*
G02X208167Y177048I-3600*
G01*
X207735Y176615*
G75*
G02X206248Y176000I-1485J1485*
G01*
X201674*
G75*
G02X195150Y178100I-2924J2100*
G01*
G75*
G02X201674Y180200I3600*
G01*
X205172*
G75*
G02X205150Y180600I3578J401*
G01*
X176650Y13100D02*
G75*
G02X185850I4600D01*
G01*
G75*
G02X176650I-4600*
G01*
Y33100D02*
G75*
G02X185850I4600D01*
G01*
G75*
G02X176650I-4600*
G01*
Y338100D02*
G75*
G02X185850I4600D01*
G01*
G75*
G02X176650I-4600*
G01*
X196650Y318100D02*
G75*
G02X205850I4600D01*
G01*
G75*
G02X196650I-4600*
G01*
Y338100D02*
G75*
G02X205850I4600D01*
G01*
G75*
G02X196650I-4600*
G01*
X206650Y318100D02*
G75*
G02X215850I4600D01*
G01*
G75*
G02X206650I-4600*
G01*
X208650Y196100D02*
G75*
G02X218850I5100D01*
G01*
G75*
G02X208650I-5100*
G01*
Y231100D02*
G75*
G02X218850I5100D01*
G01*
G75*
G02X208650I-5100*
G01*
X213750Y270350D02*
G75*
G02X218500Y265600J-4750D01*
G01*
G75*
G02X213750Y260850I-4750*
G01*
G75*
G02X209000Y265600J4750*
G01*
G75*
G02X213750Y270350I4750*
G01*
Y296350D02*
G75*
G02X218500Y291600J-4750D01*
G01*
G75*
G02X213750Y286850I-4750*
G01*
G75*
G02X209000Y291600J4750*
G01*
G75*
G02X213750Y296350I4750*
G01*
X206650Y338100D02*
G75*
G02X215850I4600D01*
G01*
G75*
G02X206650I-4600*
G01*
X216650Y318100D02*
G75*
G02X225850I4600D01*
G01*
G75*
G02X216650I-4600*
G01*
Y338100D02*
G75*
G02X225850I4600D01*
G01*
G75*
G02X216650I-4600*
G01*
X230650Y100600D02*
G75*
G02X240850I5100D01*
G01*
G75*
G02X230650I-5100*
G01*
Y188100D02*
G75*
G02X240850I5100D01*
G01*
G75*
G02X230650I-5100*
G01*
Y265600D02*
G75*
G02X240850I5100D01*
G01*
G75*
G02X230650I-5100*
G01*
X241650Y318100D02*
G75*
G02X250850I4600D01*
G01*
G75*
G02X248350Y314007I-4600*
G01*
Y309954*
X248380*
Y301246*
X241640*
Y309954*
X244150*
Y314007*
G75*
G02X241650Y318100I2100J4093*
G01*
X260850Y299698D02*
X263100D01*
Y281502*
X254400*
Y299698*
X256650*
Y303500*
X255860*
Y301246*
X249120*
Y309954*
X255860*
Y307700*
X258750*
G75*
G02X260850Y305600J-2100*
G01*
Y299698*
X256650Y245600D02*
G75*
G02X266850I5100D01*
G01*
G75*
G02X256650I-5100*
G01*
X270826Y177700D02*
G75*
G02X277350Y175600I2924J-2100D01*
G01*
G75*
G02X270826Y173500I-3600*
G01*
X256674*
G75*
G02X250150Y175600I-2924J2100*
G01*
G75*
G02X256674Y177700I3600*
G01*
X270826*
X278750Y103850D02*
G75*
G02X283500Y99100J-4750D01*
G01*
G75*
G02X276978Y94693I-4750*
G01*
G75*
G02X277029Y91615I-3229J-1593*
G01*
G75*
G02X279850Y88100I-779J-3515*
G01*
G75*
G02X273326Y86000I-3600*
G01*
X261674*
G75*
G02X261424Y85689I-2926J2099*
G01*
G75*
G02X261750Y85700I329J-5089*
G01*
G75*
G02Y75500J-5100*
G01*
G75*
G02X258476Y84511J5100*
G01*
G75*
G02X256159Y90600I274J3590*
G01*
G75*
G02X255150Y93100I2591J2500*
G01*
G75*
G02X261674Y95200I3600*
G01*
X270826*
G75*
G02X274735Y96563I2924J-2100*
G01*
G75*
G02X278750Y103850I4015J2537*
G01*
Y77850D02*
G75*
G02X283500Y73100J-4750D01*
G01*
G75*
G02X278750Y68350I-4750*
G01*
G75*
G02X274000Y73100J4750*
G01*
G75*
G02X278750Y77850I4750*
G01*
X281650Y13100D02*
G75*
G02X290850I4600D01*
G01*
G75*
G02X281650I-4600*
G01*
Y33100D02*
G75*
G02X290850I4600D01*
G01*
G75*
G02X281650I-4600*
G01*
X271650Y13100D02*
G75*
G02X280850I4600D01*
G01*
G75*
G02X271650I-4600*
G01*
Y33100D02*
G75*
G02X280850I4600D01*
G01*
G75*
G02X271650I-4600*
G01*
X261650Y13100D02*
G75*
G02X270850I4600D01*
G01*
G75*
G02X261650I-4600*
G01*
Y33100D02*
G75*
G02X270850I4600D01*
G01*
G75*
G02X261650I-4600*
G01*
X278750Y142850D02*
G75*
G02X283500Y138100J-4750D01*
G01*
G75*
G02X278750Y133350I-4750*
G01*
G75*
G02X274000Y138100J4750*
G01*
G75*
G02X278750Y142850I4750*
G01*
Y168850D02*
G75*
G02X283500Y164100J-4750D01*
G01*
G75*
G02X278750Y159350I-4750*
G01*
G75*
G02X274000Y164100J4750*
G01*
G75*
G02X278750Y168850I4750*
G01*
X256650Y168100D02*
G75*
G02X266850I5100D01*
G01*
G75*
G02X256650I-5100*
G01*
X241650Y13100D02*
G75*
G02X250850I4600D01*
G01*
G75*
G02X241650I-4600*
G01*
Y33100D02*
G75*
G02X250850I4600D01*
G01*
G75*
G02X241650I-4600*
G01*
Y338100D02*
G75*
G02X250850I4600D01*
G01*
G75*
G02X241650I-4600*
G01*
X261650Y318100D02*
G75*
G02X270850I4600D01*
G01*
G75*
G02X261650I-4600*
G01*
Y338100D02*
G75*
G02X270850I4600D01*
G01*
G75*
G02X261650I-4600*
G01*
X271650Y318100D02*
G75*
G02X280850I4600D01*
G01*
G75*
G02X271650I-4600*
G01*
X278750Y205350D02*
G75*
G02X283500Y200600J-4750D01*
G01*
G75*
G02X278750Y195850I-4750*
G01*
G75*
G02X274000Y200600J4750*
G01*
G75*
G02X278750Y205350I4750*
G01*
Y231350D02*
G75*
G02X283500Y226600J-4750D01*
G01*
G75*
G02X278750Y221850I-4750*
G01*
G75*
G02X274000Y226600J4750*
G01*
G75*
G02X278750Y231350I4750*
G01*
Y267850D02*
G75*
G02X283500Y263100J-4750D01*
G01*
G75*
G02X278750Y258350I-4750*
G01*
G75*
G02X274000Y263100J4750*
G01*
G75*
G02X278750Y267850I4750*
G01*
Y293850D02*
G75*
G02X283500Y289100J-4750D01*
G01*
G75*
G02X278750Y284350I-4750*
G01*
G75*
G02X274000Y289100J4750*
G01*
G75*
G02X278750Y293850I4750*
G01*
X271650Y338100D02*
G75*
G02X280850I4600D01*
G01*
G75*
G02X271650I-4600*
G01*
X281650Y318100D02*
G75*
G02X290850I4600D01*
G01*
G75*
G02X281650I-4600*
G01*
Y338100D02*
G75*
G02X290850I4600D01*
G01*
G75*
G02X281650I-4600*
G01*
X293150Y103100D02*
G75*
G02X303350I5100D01*
G01*
G75*
G02X293150I-5100*
G01*
Y185600D02*
G75*
G02X303350I5100D01*
G01*
G75*
G02X293150I-5100*
G01*
Y268100D02*
G75*
G02X303350I5100D01*
G01*
G75*
G02X293150I-5100*
G01*
X306650Y318100D02*
G75*
G02X315850I4600D01*
G01*
G75*
G02X312110Y313581I-4600*
G01*
Y309954*
X313380*
Y301246*
X306640*
Y309954*
X307910*
Y314937*
G75*
G02X306650Y318100I3341J3163*
G01*
X325850Y302198D02*
X330600D01*
Y284002*
X321900*
Y296607*
G75*
G02X321650Y297600I1850J993*
G01*
Y303500*
X320860*
Y301246*
X314120*
Y309954*
X320860*
Y307700*
X323750*
G75*
G02X325850Y305600J-2100*
G01*
Y302198*
X336450Y88370D02*
G75*
G02X342350Y85600I2300J-2770D01*
G01*
G75*
G02X335790Y83551I-3600*
G01*
G75*
G02X334765Y84115I459J2049*
G01*
X330380Y88500*
X329174*
G75*
G02X327329Y87166I-2924J2100*
G01*
G75*
G02X324250Y78000I-3079J-4066*
G01*
G75*
G02X323604Y88159J5100*
G01*
G75*
G02X322650Y90600I2646J2441*
G01*
G75*
G02X329174Y92700I3600*
G01*
X331248*
G75*
G02X332735Y92085I3J-2100*
G01*
X336450Y88370*
X336650Y13100D02*
G75*
G02X345850I4600D01*
G01*
G75*
G02X336650I-4600*
G01*
Y33100D02*
G75*
G02X345850I4600D01*
G01*
G75*
G02X336650I-4600*
G01*
X346250Y77850D02*
G75*
G02X351000Y73100J-4750D01*
G01*
G75*
G02X346250Y68350I-4750*
G01*
G75*
G02X341500Y73100J4750*
G01*
G75*
G02X346250Y77850I4750*
G01*
X346650Y13100D02*
G75*
G02X355850I4600D01*
G01*
G75*
G02X346650I-4600*
G01*
Y33100D02*
G75*
G02X355850I4600D01*
G01*
G75*
G02X346650I-4600*
G01*
X326650Y13100D02*
G75*
G02X335850I4600D01*
G01*
G75*
G02X326650I-4600*
G01*
Y33100D02*
G75*
G02X335850I4600D01*
G01*
G75*
G02X326650I-4600*
G01*
X319150Y165600D02*
G75*
G02X329350I5100D01*
G01*
G75*
G02X319150I-5100*
G01*
X338167Y96652D02*
G75*
G02X342350Y93100I583J-3552D01*
G01*
G75*
G02X335150I-3600*
G01*
G75*
G02X335198Y93683I3600J-1*
G01*
X332880Y96000*
X329174*
G75*
G02X322650Y98100I-2924J2100*
G01*
G75*
G02X329174Y100200I3600*
G01*
X333748*
G75*
G02X335235Y99585I3J-2100*
G01*
X338167Y96652*
X319150Y248100D02*
G75*
G02X329350I5100D01*
G01*
G75*
G02X319150I-5100*
G01*
X306650Y13100D02*
G75*
G02X315850I4600D01*
G01*
G75*
G02X306650I-4600*
G01*
Y33100D02*
G75*
G02X315850I4600D01*
G01*
G75*
G02X306650I-4600*
G01*
Y338100D02*
G75*
G02X315850I4600D01*
G01*
G75*
G02X306650I-4600*
G01*
X326650Y318100D02*
G75*
G02X335850I4600D01*
G01*
G75*
G02X326650I-4600*
G01*
Y338100D02*
G75*
G02X335850I4600D01*
G01*
G75*
G02X326650I-4600*
G01*
X336650Y318100D02*
G75*
G02X345850I4600D01*
G01*
G75*
G02X336650I-4600*
G01*
X346250Y103850D02*
G75*
G02X351000Y99100J-4750D01*
G01*
G75*
G02X346250Y94350I-4750*
G01*
G75*
G02X341500Y99100J4750*
G01*
G75*
G02X346250Y103850I4750*
G01*
Y142850D02*
G75*
G02X351000Y138100J-4750D01*
G01*
G75*
G02X346250Y133350I-4750*
G01*
G75*
G02X341500Y138100J4750*
G01*
G75*
G02X346250Y142850I4750*
G01*
Y168850D02*
G75*
G02X351000Y164100J-4750D01*
G01*
G75*
G02X346250Y159350I-4750*
G01*
G75*
G02X341500Y164100J4750*
G01*
G75*
G02X346250Y168850I4750*
G01*
Y207850D02*
G75*
G02X351000Y203100J-4750D01*
G01*
G75*
G02X346250Y198350I-4750*
G01*
G75*
G02X341500Y203100J4750*
G01*
G75*
G02X346250Y207850I4750*
G01*
Y233850D02*
G75*
G02X351000Y229100J-4750D01*
G01*
G75*
G02X346250Y224350I-4750*
G01*
G75*
G02X341500Y229100J4750*
G01*
G75*
G02X346250Y233850I4750*
G01*
Y267850D02*
G75*
G02X351000Y263100J-4750D01*
G01*
G75*
G02X346250Y258350I-4750*
G01*
G75*
G02X341500Y263100J4750*
G01*
G75*
G02X346250Y267850I4750*
G01*
Y293850D02*
G75*
G02X351000Y289100J-4750D01*
G01*
G75*
G02X346250Y284350I-4750*
G01*
G75*
G02X341500Y289100J4750*
G01*
G75*
G02X346250Y293850I4750*
G01*
X336650Y338100D02*
G75*
G02X345850I4600D01*
G01*
G75*
G02X336650I-4600*
G01*
X346650Y318100D02*
G75*
G02X355850I4600D01*
G01*
G75*
G02X346650I-4600*
G01*
Y338100D02*
G75*
G02X355850I4600D01*
G01*
G75*
G02X346650I-4600*
G01*
X360650Y100600D02*
G75*
G02X370850I5100D01*
G01*
G75*
G02X360650I-5100*
G01*
Y185600D02*
G75*
G02X370850I5100D01*
G01*
G75*
G02X360650I-5100*
G01*
Y270600D02*
G75*
G02X370850I5100D01*
G01*
G75*
G02X360650I-5100*
G01*
X371650Y318100D02*
G75*
G02X380850I4600D01*
G01*
G75*
G02X378350Y314007I-4600*
G01*
Y309954*
X378380*
Y301246*
X371640*
Y309954*
X374150*
Y314007*
G75*
G02X371650Y318100I2100J4093*
G01*
X395850Y304698D02*
X398100D01*
Y286502*
X389400*
Y303500*
X385860*
Y301246*
X379120*
Y309954*
X385860*
Y307700*
X393750*
G75*
G02X395850Y305600J-2100*
G01*
Y304698*
X400826Y90200D02*
G75*
G02X407350Y88100I2924J-2100D01*
G01*
G75*
G02X400826Y86000I-3600*
G01*
X396674*
G75*
G02X394829Y84666I-2924J2100*
G01*
G75*
G02X391750Y75500I-3079J-4066*
G01*
G75*
G02X391104Y85659J5100*
G01*
G75*
G02X390150Y88100I2646J2441*
G01*
G75*
G02X396674Y90200I3600*
G01*
X400826*
X401650Y13100D02*
G75*
G02X410850I4600D01*
G01*
G75*
G02X401650I-4600*
G01*
Y33100D02*
G75*
G02X410850I4600D01*
G01*
G75*
G02X401650I-4600*
G01*
X411250Y75350D02*
G75*
G02X416000Y70600J-4750D01*
G01*
G75*
G02X411250Y65850I-4750*
G01*
G75*
G02X406500Y70600J4750*
G01*
G75*
G02X411250Y75350I4750*
G01*
X411650Y13100D02*
G75*
G02X420850I4600D01*
G01*
G75*
G02X411650I-4600*
G01*
Y33100D02*
G75*
G02X420850I4600D01*
G01*
G75*
G02X411650I-4600*
G01*
X391650Y13100D02*
G75*
G02X400850I4600D01*
G01*
G75*
G02X391650I-4600*
G01*
Y33100D02*
G75*
G02X400850I4600D01*
G01*
G75*
G02X391650I-4600*
G01*
X386650Y165600D02*
G75*
G02X396850I5100D01*
G01*
G75*
G02X386650I-5100*
G01*
Y250600D02*
G75*
G02X396850I5100D01*
G01*
G75*
G02X386650I-5100*
G01*
X371650Y13100D02*
G75*
G02X380850I4600D01*
G01*
G75*
G02X371650I-4600*
G01*
Y33100D02*
G75*
G02X380850I4600D01*
G01*
G75*
G02X371650I-4600*
G01*
Y338100D02*
G75*
G02X380850I4600D01*
G01*
G75*
G02X371650I-4600*
G01*
X391650Y318100D02*
G75*
G02X400850I4600D01*
G01*
G75*
G02X391650I-4600*
G01*
Y338100D02*
G75*
G02X400850I4600D01*
G01*
G75*
G02X391650I-4600*
G01*
X401650Y318100D02*
G75*
G02X410850I4600D01*
G01*
G75*
G02X401650I-4600*
G01*
X411250Y101350D02*
G75*
G02X416000Y96600J-4750D01*
G01*
G75*
G02X411250Y91850I-4750*
G01*
G75*
G02X406500Y96600J4750*
G01*
G75*
G02X411250Y101350I4750*
G01*
Y140350D02*
G75*
G02X416000Y135600J-4750D01*
G01*
G75*
G02X411250Y130850I-4750*
G01*
G75*
G02X406500Y135600J4750*
G01*
G75*
G02X411250Y140350I4750*
G01*
Y166350D02*
G75*
G02X416000Y161600J-4750D01*
G01*
G75*
G02X411250Y156850I-4750*
G01*
G75*
G02X406500Y161600J4750*
G01*
G75*
G02X411250Y166350I4750*
G01*
Y205350D02*
G75*
G02X416000Y200600J-4750D01*
G01*
G75*
G02X411250Y195850I-4750*
G01*
G75*
G02X406500Y200600J4750*
G01*
G75*
G02X411250Y205350I4750*
G01*
Y231350D02*
G75*
G02X416000Y226600J-4750D01*
G01*
G75*
G02X411250Y221850I-4750*
G01*
G75*
G02X406500Y226600J4750*
G01*
G75*
G02X411250Y231350I4750*
G01*
Y267850D02*
G75*
G02X416000Y263100J-4750D01*
G01*
G75*
G02X411250Y258350I-4750*
G01*
G75*
G02X406500Y263100J4750*
G01*
G75*
G02X411250Y267850I4750*
G01*
Y293850D02*
G75*
G02X416000Y289100J-4750D01*
G01*
G75*
G02X411250Y284350I-4750*
G01*
G75*
G02X406500Y289100J4750*
G01*
G75*
G02X411250Y293850I4750*
G01*
X401650Y338100D02*
G75*
G02X410850I4600D01*
G01*
G75*
G02X401650I-4600*
G01*
X411650Y318100D02*
G75*
G02X420850I4600D01*
G01*
G75*
G02X411650I-4600*
G01*
Y338100D02*
G75*
G02X420850I4600D01*
G01*
G75*
G02X411650I-4600*
G01*
X425650Y113100D02*
G75*
G02X435850I5100D01*
G01*
G75*
G02X425650I-5100*
G01*
Y270600D02*
G75*
G02X435850I5100D01*
G01*
G75*
G02X425650I-5100*
G01*
X428150Y185600D02*
G75*
G02X438350I5100D01*
G01*
G75*
G02X428150I-5100*
G01*
X436650Y13100D02*
G75*
G02X445850I4600D01*
G01*
G75*
G02X436650I-4600*
G01*
Y33100D02*
G75*
G02X445850I4600D01*
G01*
G75*
G02X436650I-4600*
G01*
X443350Y309954D02*
X445880D01*
Y301246*
X439140*
Y309954*
X439150*
Y314007*
G75*
G02X436650Y318100I2100J4093*
G01*
G75*
G02X445850I4600*
G01*
G75*
G02X443350Y314007I-4600*
G01*
Y309954*
X436650Y338100D02*
G75*
G02X445850I4600D01*
G01*
G75*
G02X436650I-4600*
G01*
X457612Y307198D02*
X463100D01*
Y289002*
X454400*
Y301607*
G75*
G02X454150Y302600I1850J993*
G01*
Y303500*
X453360*
Y301246*
X446620*
Y309954*
X453360*
Y307700*
X456250*
G75*
G02X457612Y307198J-2100*
G01*
X451650Y93100D02*
G75*
G02X461850I5100D01*
G01*
G75*
G02X451650I-5100*
G01*
X456650Y13100D02*
G75*
G02X465850I4600D01*
G01*
G75*
G02X456650I-4600*
G01*
Y33100D02*
G75*
G02X465850I4600D01*
G01*
G75*
G02X456650I-4600*
G01*
X451650Y250600D02*
G75*
G02X461850I5100D01*
G01*
G75*
G02X451650I-5100*
G01*
X454150Y165600D02*
G75*
G02X464350I5100D01*
G01*
G75*
G02X454150I-5100*
G01*
X456650Y318100D02*
G75*
G02X465850I4600D01*
G01*
G75*
G02X456650I-4600*
G01*
Y338100D02*
G75*
G02X465850I4600D01*
G01*
G75*
G02X456650I-4600*
G01*
X466650Y13100D02*
G75*
G02X475850I4600D01*
G01*
G75*
G02X466650I-4600*
G01*
Y33100D02*
G75*
G02X475850I4600D01*
G01*
G75*
G02X466650I-4600*
G01*
Y318100D02*
G75*
G02X475850I4600D01*
G01*
G75*
G02X466650I-4600*
G01*
Y338100D02*
G75*
G02X475850I4600D01*
G01*
G75*
G02X466650I-4600*
G01*
X476150Y158100D02*
G75*
G02X486350I5100D01*
G01*
G75*
G02X476150I-5100*
G01*
X485500Y125600D02*
G75*
G02X495000I4750D01*
G01*
G75*
G02X485500I-4750*
G01*
X476650Y13100D02*
G75*
G02X485850I4600D01*
G01*
G75*
G02X476650I-4600*
G01*
Y33100D02*
G75*
G02X485850I4600D01*
G01*
G75*
G02X476650I-4600*
G01*
X483750Y67850D02*
G75*
G02X488500Y63100J-4750D01*
G01*
G75*
G02X483750Y58350I-4750*
G01*
G75*
G02X479000Y63100J4750*
G01*
G75*
G02X483750Y67850I4750*
G01*
Y93850D02*
G75*
G02X488500Y89100J-4750D01*
G01*
G75*
G02X483750Y84350I-4750*
G01*
G75*
G02X479000Y89100J4750*
G01*
G75*
G02X483750Y93850I4750*
G01*
X481250Y236850D02*
G75*
G02X486000Y232100J-4750D01*
G01*
G75*
G02X481250Y227350I-4750*
G01*
G75*
G02X476500Y232100J4750*
G01*
G75*
G02X481250Y236850I4750*
G01*
Y262850D02*
G75*
G02X486000Y258100J-4750D01*
G01*
G75*
G02X481250Y253350I-4750*
G01*
G75*
G02X476500Y258100J4750*
G01*
G75*
G02X481250Y262850I4750*
G01*
X476650Y318100D02*
G75*
G02X485850I4600D01*
G01*
G75*
G02X476650I-4600*
G01*
Y338100D02*
G75*
G02X485850I4600D01*
G01*
G75*
G02X476650I-4600*
G01*
X486500Y190600D02*
G75*
G02X496000I4750D01*
G01*
G75*
G02X486500I-4750*
G01*
X4650Y250600D02*
G75*
G02X22850I9100D01*
G01*
G75*
G02X4650I-9100*
G01*
X7130Y88198D02*
G75*
G02X20370I6620D01*
G01*
G75*
G02X7130I-6620*
G01*
X9400Y140600D02*
G75*
G02X18100I4350D01*
G01*
G75*
G02X9400I-4350*
G01*
Y150600D02*
G75*
G02X18100I4350D01*
G01*
G75*
G02X9400I-4350*
G01*
Y160600D02*
G75*
G02X18100I4350D01*
G01*
G75*
G02X9400I-4350*
G01*
Y170600D02*
G75*
G02X18100I4350D01*
G01*
G75*
G02X9400I-4350*
G01*
Y180600D02*
G75*
G02X18100I4350D01*
G01*
G75*
G02X9400I-4350*
G01*
Y190600D02*
G75*
G02X18100I4350D01*
G01*
G75*
G02X9400I-4350*
G01*
Y200600D02*
G75*
G02X18100I4350D01*
G01*
G75*
G02X9400I-4350*
G01*
X41640Y214954D02*
X48380D01*
Y206246*
X41640*
Y208500*
X27559*
G75*
G02X19941I-3809J2100*
G01*
X17559*
G75*
G02X9400Y210600I-3809J2100*
G01*
G75*
G02X17559Y212700I4350*
G01*
X19941*
G75*
G02X27559I3809J-2100*
G01*
X41640*
Y214954*
X48326Y142700D02*
G75*
G02X54850Y140600I2924J-2100D01*
G01*
G75*
G02X48326Y138500I-3600*
G01*
X44174*
G75*
G02X37650Y140600I-2924J2100*
G01*
G75*
G02X44174Y142700I3600*
G01*
X48326*
Y152700D02*
G75*
G02X54850Y150600I2924J-2100D01*
G01*
G75*
G02X48326Y148500I-3600*
G01*
X44174*
G75*
G02X37650Y150600I-2924J2100*
G01*
G75*
G02X44174Y152700I3600*
G01*
X48326*
Y162700D02*
G75*
G02X54850Y160600I2924J-2100D01*
G01*
G75*
G02X48326Y158500I-3600*
G01*
X44174*
G75*
G02X37650Y160600I-2924J2100*
G01*
G75*
G02X44174Y162700I3600*
G01*
X48326*
Y172700D02*
G75*
G02X54850Y170600I2924J-2100D01*
G01*
G75*
G02X48326Y168500I-3600*
G01*
X44174*
G75*
G02X37650Y170600I-2924J2100*
G01*
G75*
G02X44174Y172700I3600*
G01*
X48326*
Y185200D02*
G75*
G02X54850Y183100I2924J-2100D01*
G01*
G75*
G02X48326Y181000I-3600*
G01*
X44174*
G75*
G02X37650Y183100I-2924J2100*
G01*
G75*
G02X44174Y185200I3600*
G01*
X48326*
Y192700D02*
G75*
G02X54850Y190600I2924J-2100D01*
G01*
G75*
G02X48326Y188500I-3600*
G01*
X44174*
G75*
G02X37650Y190600I-2924J2100*
G01*
G75*
G02X44174Y192700I3600*
G01*
X48326*
X19400Y140600D02*
G75*
G02X28100I4350D01*
G01*
G75*
G02X19400I-4350*
G01*
X27130Y88198D02*
G75*
G02X40370I6620D01*
G01*
G75*
G02X27130I-6620*
G01*
X19400Y150600D02*
G75*
G02X28100I4350D01*
G01*
G75*
G02X19400I-4350*
G01*
Y160600D02*
G75*
G02X28100I4350D01*
G01*
G75*
G02X19400I-4350*
G01*
Y170600D02*
G75*
G02X28100I4350D01*
G01*
G75*
G02X19400I-4350*
G01*
Y180600D02*
G75*
G02X28100I4350D01*
G01*
G75*
G02X19400I-4350*
G01*
Y190600D02*
G75*
G02X28100I4350D01*
G01*
G75*
G02X19400I-4350*
G01*
Y200600D02*
G75*
G02X28100I4350D01*
G01*
G75*
G02X19400I-4350*
G01*
X4650Y280100D02*
G75*
G02X22850I9100D01*
G01*
G75*
G02X4650I-9100*
G01*
X33450Y259700D02*
G75*
G02Y241500J-9100D01*
G01*
G75*
G02Y259700J9100*
G01*
X39652Y232450D02*
X57848D01*
Y223750*
X54590*
Y214954*
X55860*
Y206246*
X49120*
Y214954*
X50390*
Y223750*
X39652*
Y232450*
X24350Y280100D02*
G75*
G02X42550I9100D01*
G01*
G75*
G02X24350I-9100*
G01*
X46650Y13100D02*
G75*
G02X55850I4600D01*
G01*
G75*
G02X46650I-4600*
G01*
Y33100D02*
G75*
G02X55850I4600D01*
G01*
G75*
G02X46650I-4600*
G01*
X57790Y3400D02*
G36*
G75*
G02X57150Y5600I3459J2200D01*
G01*
Y5600*
Y13100*
X55850*
G75*
G02X46650I-4600*
G01*
X36250*
Y3400*
X57790*
G37*
X66650Y13100D02*
G36*
X65350D01*
Y9700*
X68152*
G75*
G02X66650Y13100I3099J3400*
G01*
G37*
X76650D02*
G36*
X75850D01*
G75*
G02X74348Y9700I-4601J0*
G01*
X78152*
G75*
G02X76650Y13100I3099J3400*
G01*
G37*
X86650D02*
G36*
X85850D01*
G75*
G02X84348Y9700I-4601J0*
G01*
X88152*
G75*
G02X86650Y13100I3099J3400*
G01*
G37*
X498750D02*
G36*
X485850D01*
G75*
G02X476650I-4600*
G01*
X475850*
G75*
G02X466650I-4600*
G01*
X465850*
G75*
G02X456650I-4600*
G01*
X445850*
G75*
G02X436650I-4600*
G01*
X420850*
G75*
G02X411650I-4600*
G01*
X410850*
G75*
G02X401650I-4600*
G01*
X400850*
G75*
G02X391650I-4600*
G01*
X380850*
G75*
G02X371650I-4600*
G01*
X355850*
G75*
G02X346650I-4600*
G01*
X345850*
G75*
G02X336650I-4600*
G01*
X335850*
G75*
G02X326650I-4600*
G01*
X315850*
G75*
G02X306650I-4600*
G01*
X290850*
G75*
G02X281650I-4600*
G01*
X280850*
G75*
G02X271650I-4600*
G01*
X270850*
G75*
G02X261650I-4600*
G01*
X250850*
G75*
G02X241650I-4600*
G01*
X225850*
G75*
G02X216650I-4600*
G01*
X215850*
G75*
G02X206650I-4600*
G01*
X205850*
G75*
G02X196650I-4600*
G01*
X185850*
G75*
G02X176650I-4600*
G01*
X160850*
G75*
G02X151650I-4600*
G01*
X150850*
G75*
G02X141650I-4600*
G01*
X140850*
G75*
G02X131650I-4600*
G01*
X120850*
G75*
G02X111650I-4600*
G01*
X95850*
G75*
G02X93450Y9060I-4600*
G01*
G75*
G02X95350Y5600I-2199J-3460*
G01*
G75*
G02X94710Y3400I-4100J0*
G01*
X498750*
Y13100*
G37*
X57150Y33100D02*
G36*
X55850D01*
G75*
G02X46650I-4600*
G01*
X36250*
Y13100*
X46650*
G75*
G02X55850I4600*
G01*
X57150*
Y33100*
G37*
X498750D02*
G36*
X485850D01*
G75*
G02X476650I-4600*
G01*
X475850*
G75*
G02X466650I-4600*
G01*
X465850*
G75*
G02X456650I-4600*
G01*
X445850*
G75*
G02X436650I-4600*
G01*
X420850*
G75*
G02X411650I-4600*
G01*
X410850*
G75*
G02X401650I-4600*
G01*
X400850*
G75*
G02X391650I-4600*
G01*
X380850*
G75*
G02X371650I-4600*
G01*
X355850*
G75*
G02X346650I-4600*
G01*
X345850*
G75*
G02X336650I-4600*
G01*
X335850*
G75*
G02X326650I-4600*
G01*
X315850*
G75*
G02X306650I-4600*
G01*
X290850*
G75*
G02X281650I-4600*
G01*
X280850*
G75*
G02X271650I-4600*
G01*
X270850*
G75*
G02X261650I-4600*
G01*
X250850*
G75*
G02X241650I-4600*
G01*
X225850*
G75*
G02X216650I-4600*
G01*
X215850*
G75*
G02X206650I-4600*
G01*
X205850*
G75*
G02X196650I-4600*
G01*
X185850*
G75*
G02X176650I-4600*
G01*
X160850*
G75*
G02X151650I-4600*
G01*
X150850*
G75*
G02X141650I-4600*
G01*
X140850*
G75*
G02X131650I-4600*
G01*
X120850*
G75*
G02X111650I-4600*
G01*
X95850*
G75*
G02X86650I-4600*
G01*
X85850*
G75*
G02X76650I-4600*
G01*
X75850*
G75*
G02X66650I-4600*
G01*
X65350*
Y13100*
X66650*
G75*
G02X75850I4600*
G01*
X76650*
G75*
G02X85850I4600*
G01*
X86650*
G75*
G02X95850I4600*
G01*
X111650*
G75*
G02X120850I4600*
G01*
X131650*
G75*
G02X140850I4600*
G01*
X141650*
G75*
G02X150850I4600*
G01*
X151650*
G75*
G02X160850I4600*
G01*
X176650*
G75*
G02X185850I4600*
G01*
X196650*
G75*
G02X205850I4600*
G01*
X206650*
G75*
G02X215850I4600*
G01*
X216650*
G75*
G02X225850I4600*
G01*
X241650*
G75*
G02X250850I4600*
G01*
X261650*
G75*
G02X270850I4600*
G01*
X271650*
G75*
G02X280850I4600*
G01*
X281650*
G75*
G02X290850I4600*
G01*
X306650*
G75*
G02X315850I4600*
G01*
X326650*
G75*
G02X335850I4600*
G01*
X336650*
G75*
G02X345850I4600*
G01*
X346650*
G75*
G02X355850I4600*
G01*
X371650*
G75*
G02X380850I4600*
G01*
X391650*
G75*
G02X400850I4600*
G01*
X401650*
G75*
G02X410850I4600*
G01*
X411650*
G75*
G02X420850I4600*
G01*
X436650*
G75*
G02X445850I4600*
G01*
X456650*
G75*
G02X465850I4600*
G01*
X466650*
G75*
G02X475850I4600*
G01*
X476650*
G75*
G02X485850I4600*
G01*
X498750*
Y33100*
G37*
X57150D02*
G36*
Y36402D01*
X44552Y49000*
X31250*
G75*
G02X28351Y50201I0J4101*
G01*
X20851Y57701*
G75*
G02X20171Y58600I2900J2899*
G01*
X4050*
Y38100*
X36250*
Y33100*
X46650*
G75*
G02X55850I4600*
G01*
X57150*
G37*
X538450Y40600D02*
G36*
Y58600D01*
X485270*
G75*
G02X483750Y58350I-1519J4500*
G01*
G75*
G02X482230Y58600I-1J4749*
G01*
X148850*
G75*
G02X138650I-5100*
G01*
X78850*
G75*
G02X68650I-5100*
G01*
X31548*
X32948Y57200*
X46250*
G75*
G02X49149Y55999I0J-4101*
G01*
X64149Y40999*
G75*
G02X65350Y38100I-2900J-2900*
G01*
Y33100*
X66650*
G75*
G02X75850I4600*
G01*
X76650*
G75*
G02X85850I4600*
G01*
X86650*
G75*
G02X95850I4600*
G01*
X111650*
G75*
G02X120850I4600*
G01*
X131650*
G75*
G02X140850I4600*
G01*
X141650*
G75*
G02X150850I4600*
G01*
X151650*
G75*
G02X160850I4600*
G01*
X176650*
G75*
G02X185850I4600*
G01*
X196650*
G75*
G02X205850I4600*
G01*
X206650*
G75*
G02X215850I4600*
G01*
X216650*
G75*
G02X225850I4600*
G01*
X241650*
G75*
G02X250850I4600*
G01*
X261650*
G75*
G02X270850I4600*
G01*
X271650*
G75*
G02X280850I4600*
G01*
X281650*
G75*
G02X290850I4600*
G01*
X306650*
G75*
G02X315850I4600*
G01*
X326650*
G75*
G02X335850I4600*
G01*
X336650*
G75*
G02X345850I4600*
G01*
X346650*
G75*
G02X355850I4600*
G01*
X371650*
G75*
G02X380850I4600*
G01*
X391650*
G75*
G02X400850I4600*
G01*
X401650*
G75*
G02X410850I4600*
G01*
X411650*
G75*
G02X420850I4600*
G01*
X436650*
G75*
G02X445850I4600*
G01*
X456650*
G75*
G02X465850I4600*
G01*
X466650*
G75*
G02X475850I4600*
G01*
X476650*
G75*
G02X485850I4600*
G01*
X498750*
Y40600*
X538450*
G37*
X7661Y65600D02*
G36*
X4050D01*
Y58600*
X20171*
G75*
G02X19650Y60600I3580J2001*
G01*
Y65197*
G75*
G02X7661Y65600I-5900J3002*
G01*
G37*
X479711D02*
G36*
X39838D01*
G75*
G02X27850Y65197I-6088J2599*
G01*
Y62298*
X31548Y58600*
X68650*
G75*
G02X78850I5100*
G01*
X138650*
G75*
G02X148850I5100*
G01*
X482230*
G75*
G02X479000Y63099I1519J4499*
G01*
G75*
G02Y63100I6445J0*
G01*
G75*
G02Y63101I6445J0*
G01*
G75*
G02X479711Y65600I4749J0*
G01*
G37*
X487789D02*
G36*
G75*
G02X488500Y63101I-4038J-2500D01*
G01*
G75*
G02Y63100I-6445J0*
G01*
G75*
G02Y63099I-6445J0*
G01*
G75*
G02X485270Y58600I-4749*
G01*
X538450*
Y65600*
X521350*
G75*
G02X511150I-5100*
G01*
X487789*
G37*
X7581Y70600D02*
G36*
X4050D01*
Y65600*
X7661*
G75*
G02X7130Y68198I6089J2598*
G01*
G75*
G02X7581Y70600I6620J0*
G01*
G37*
X511150Y65600D02*
G36*
G75*
G02X515245Y70600I5100D01*
G01*
X416000*
G75*
G02Y70599I-6445J0*
G01*
G75*
G02X411250Y65850I-4750*
G01*
G75*
G02X406500Y70599J4749*
G01*
G75*
G02Y70600I6445J0*
G01*
X350289*
G75*
G02X346250Y68350I-4038J2499*
G01*
G75*
G02X342211Y70600I0J4749*
G01*
X282789*
G75*
G02X278750Y68350I-4038J2499*
G01*
G75*
G02X274711Y70600I0J4749*
G01*
X220289*
G75*
G02X216250Y68350I-4038J2499*
G01*
G75*
G02X212211Y70600I0J4749*
G01*
X196885*
G75*
G02X186615I-5135J1500*
G01*
X126885*
G75*
G02X121750Y66750I-5135J1500*
G01*
G75*
G02X116615Y70600J5350*
G01*
X39919*
G75*
G02X40370Y68198I-6169J-2401*
G01*
G75*
G02X39838Y65600I-6620J0*
G01*
X479711*
G75*
G02X483750Y67850I4038J-2499*
G01*
G75*
G02X487789Y65600I0J-4749*
G01*
X511150*
G37*
X521350D02*
G36*
X538450D01*
Y70600*
X517255*
G75*
G02X521350Y65600I-1005J-5000*
G01*
G37*
X7581Y70600D02*
G36*
G75*
G02X19650Y71200I6169J-2402D01*
G01*
Y73383*
G75*
G02X18042Y75475I4100J4815*
G01*
X4050*
Y70600*
X7581*
G37*
X116615D02*
G36*
G75*
G02X116400Y72100I5135J1500D01*
G01*
G75*
G02X117599Y75475I5350J0*
G01*
X29458*
G75*
G02X27850Y73383I-5708J2724*
G01*
Y71200*
G75*
G02X39919Y70600I5900J-3002*
G01*
X116615*
G37*
X186615D02*
G36*
G75*
G02X186400Y72100I5135J1500D01*
G01*
G75*
G02X187599Y75475I5350*
G01*
X125901*
G75*
G02X127100Y72100I-4151J-3374*
G01*
G75*
G02X126885Y70600I-5350*
G01*
X186615*
G37*
X212137Y75475D02*
G36*
X195901D01*
G75*
G02X197100Y72100I-4151J-3375*
G01*
G75*
G02X196885Y70600I-5350*
G01*
X212211*
G75*
G02X211500Y73099I4038J2500*
G01*
G75*
G02Y73100I6445J0*
G01*
G75*
G02Y73101I6445J0*
G01*
G75*
G02X212137Y75475I4749J0*
G01*
G37*
X274637D02*
G36*
X220363D01*
G75*
G02X221000Y73101I-4113J-2374*
G01*
G75*
G02Y73100I-6445J0*
G01*
G75*
G02Y73099I-6445J0*
G01*
G75*
G02X220289Y70600I-4749J0*
G01*
X274711*
G75*
G02X274000Y73099I4038J2500*
G01*
G75*
G02Y73100I6445J0*
G01*
G75*
G02Y73101I6445J0*
G01*
G75*
G02X274637Y75475I4749J0*
G01*
G37*
X342137D02*
G36*
X282863D01*
G75*
G02X283500Y73101I-4113J-2374*
G01*
G75*
G02Y73100I-6445J0*
G01*
G75*
G02Y73099I-6445J0*
G01*
G75*
G02X282789Y70600I-4749J0*
G01*
X342211*
G75*
G02X341500Y73099I4038J2500*
G01*
G75*
G02Y73100I6445J0*
G01*
G75*
G02Y73101I6445J0*
G01*
G75*
G02X342137Y75475I4749J0*
G01*
G37*
X350363D02*
G36*
G75*
G02X351000Y73101I-4113J-2374D01*
G01*
G75*
G02Y73100I-6445J0*
G01*
G75*
G02Y73099I-6445J0*
G01*
G75*
G02X350289Y70600I-4749J0*
G01*
X406500*
G75*
G02Y70601I6445J0*
G01*
G75*
G02X411250Y75350I4750*
G01*
G75*
G02X416000Y70601J-4749*
G01*
G75*
G02Y70600I-6445J0*
G01*
X515245*
G75*
G02X517255I1005J-5001*
G01*
X538450*
Y75475*
X350363*
G37*
X17899Y80600D02*
G36*
X4050D01*
Y75475*
X18042*
G75*
G02X17426Y78198I5708J2724*
G01*
G75*
G02X17899Y80600I6324J0*
G01*
G37*
X117650D02*
G36*
X29601D01*
G75*
G02X30074Y78198I-5851J-2401*
G01*
G75*
G02X29458Y75475I-6325*
G01*
X117599*
G75*
G02X120099Y77189I4152J-3375*
G01*
G75*
G02X117650Y80600I1150J3411*
G01*
Y80600*
G37*
X396850D02*
G36*
G75*
G02X391750Y75500I-5100D01*
G01*
G75*
G02X386650Y80600J5100*
G01*
X328695*
G75*
G02X324250Y78000I-4445J2500*
G01*
G75*
G02X319805Y80600J5100*
G01*
X266850*
G75*
G02X261750Y75500I-5100*
G01*
G75*
G02X256650Y80600J5100*
G01*
X212350*
G75*
G02X205826Y78500I-3600*
G01*
X201674*
G75*
G02X195150Y80600I-2924J2100*
G01*
X137350*
G75*
G02X130826Y78500I-3600*
G01*
X124174*
G75*
G02X122793Y77347I-2921J2096*
G01*
G75*
G02X125901Y75475I-1043J-5248*
G01*
X187599*
G75*
G02X195901I4151J-3375*
G01*
X212137*
G75*
G02X216250Y77850I4113J-2374*
G01*
G75*
G02X220363Y75475I0J-4749*
G01*
X274637*
G75*
G02X278750Y77850I4113J-2374*
G01*
G75*
G02X282863Y75475I0J-4749*
G01*
X342137*
G75*
G02X346250Y77850I4113J-2374*
G01*
G75*
G02X350363Y75475I0J-4749*
G01*
X538450*
Y80600*
X396850*
G37*
X255150Y88100D02*
G36*
X212350D01*
G75*
G02X205826Y86000I-3600*
G01*
X201674*
G75*
G02X195150Y88100I-2924J2100*
G01*
X137350*
G75*
G02X130826Y86000I-3600*
G01*
X124174*
G75*
G02X117650Y88100I-2924J2100*
G01*
X40369*
G75*
G02X27131I-6619J98*
G01*
X20369*
G75*
G02X7131I-6619J98*
G01*
X4050*
Y80600*
X17899*
G75*
G02X23750Y84523I5851J-2402*
G01*
G75*
G02X29601Y80600J-6324*
G01*
X117650*
G75*
G02X124174Y82700I3600*
G01*
X130826*
G75*
G02X137350Y80600I2924J-2100*
G01*
X195150*
G75*
G02X201674Y82700I3600*
G01*
X205826*
G75*
G02X212350Y80600I2924J-2100*
G01*
X256650*
G75*
G02X258476Y84511I5100*
G01*
G75*
G02X255150Y88100I274J3590*
G01*
G37*
X323244D02*
G36*
X279850D01*
G75*
G02X273326Y86000I-3600*
G01*
X261674*
G75*
G02X261424Y85689I-3034J2186*
G01*
G75*
G02X261750Y85700I332J-5190*
G01*
G75*
G02X266850Y80600J-5100*
G01*
X319805*
G75*
G02X319150Y83100I4445J2500*
G01*
G75*
G02X323244Y88100I5100*
G01*
G37*
X390150D02*
G36*
X341340D01*
G75*
G02X342350Y85600I-2590J-2500*
G01*
G75*
G02X335790Y83551I-3600*
G01*
G75*
G02X334765Y84115I459J2048*
G01*
X330780Y88100*
X328841*
G75*
G02X327329Y87166I-2589J2499*
G01*
G75*
G02X329350Y83100I-3079J-4066*
G01*
G75*
G02X328695Y80600I-5100*
G01*
X386650*
G75*
G02X391104Y85659I5100*
G01*
G75*
G02X390150Y88100I2645J2441*
G01*
Y88100*
G37*
X488393D02*
G36*
G75*
G02X483750Y84350I-4643J1000D01*
G01*
G75*
G02X479107Y88100I-1J4749*
G01*
X457755*
G75*
G02X455745I-1005J5001*
G01*
X407350*
G75*
G02X400826Y86000I-3600*
G01*
X396674*
G75*
G02X394829Y84666I-2923J2099*
G01*
G75*
G02X396850Y80600I-3079J-4066*
G01*
X538450*
Y88100*
X488393*
G37*
X7131D02*
G36*
G75*
G02X7130Y88198I6626J102D01*
G01*
G75*
G02X9923Y93600I6620*
G01*
X4050*
Y88100*
X7131*
G37*
X27131D02*
G36*
G75*
G02X27130Y88198I6626J102D01*
G01*
G75*
G02X29923Y93600I6620*
G01*
X17577*
G75*
G02X20370Y88198I-3827J-5402*
G01*
G75*
G02X20369Y88100I-6627J4*
G01*
X27131*
G37*
X255150D02*
G36*
Y88100D01*
G75*
G02X256159Y90600I3600J0*
G01*
G75*
G02X255150Y93100I2590J2500*
G01*
Y93100*
G75*
G02X255185Y93600I3600J-1*
G01*
X148850*
G75*
G02X138650I-5100*
G01*
X78850*
G75*
G02X68650I-5100*
G01*
X37577*
G75*
G02X40370Y88198I-3827J-5402*
G01*
G75*
G02X40369Y88100I-6627J4*
G01*
X117650*
G75*
G02X124174Y90200I3600*
G01*
X130826*
G75*
G02X137350Y88100I2924J-2100*
G01*
X195150*
G75*
G02X201674Y90200I3600*
G01*
X205826*
G75*
G02X212350Y88100I2924J-2100*
G01*
X255150*
G37*
X323244D02*
G36*
G75*
G02X323604Y88159I1006J-4998D01*
G01*
G75*
G02X322650Y90600I2645J2441*
G01*
Y90600*
G75*
G02X324260Y93600I3600*
G01*
X277315*
G75*
G02X277350Y93100I-3564J-498*
G01*
G75*
G02X277029Y91615I-3600J0*
G01*
G75*
G02X279850Y88100I-780J-3515*
G01*
X323244*
G37*
X451674Y93600D02*
G36*
X414933D01*
G75*
G02X411250Y91850I-3682J3000*
G01*
G75*
G02X407567Y93600I-1J4749*
G01*
X342315*
G75*
G02X342350Y93100I-3565J-501*
G01*
G75*
G02X335150I-3600*
G01*
G75*
G02Y93102I3383J1*
G01*
G75*
G02X335185Y93600I3558J0*
G01*
X328240*
G75*
G02X329174Y92700I-1990J-3000*
G01*
X331248*
G75*
G02X332735Y92085I2J-2101*
G01*
X336450Y88370*
G75*
G02X341340Y88100I2300J-2770*
G01*
X390150*
G75*
G02X396674Y90200I3600*
G01*
X400826*
G75*
G02X407350Y88100I2924J-2100*
G01*
X455745*
G75*
G02X451650Y93100I1005J5000*
G01*
G75*
G02X451674Y93600I5100J2*
G01*
G37*
X330780Y88100D02*
G36*
X330380Y88500D01*
X329174*
G75*
G02X328841Y88100I-2923J2098*
G01*
X330780*
G37*
X479107D02*
G36*
G75*
G02X479000Y89099I4642J999D01*
G01*
G75*
G02Y89100I6445J0*
G01*
G75*
G02Y89101I6445J0*
G01*
G75*
G02X482230Y93600I4749*
G01*
X461826*
G75*
G02X461850Y93100I-5076J-498*
G01*
G75*
G02X457755Y88100I-5100*
G01*
X479107*
G37*
X488393D02*
G36*
X538450D01*
Y93600*
X485270*
G75*
G02X488500Y89101I-1519J-4499*
G01*
G75*
G02Y89100I-6445J0*
G01*
G75*
G02Y89099I-6445J0*
G01*
G75*
G02X488393Y88100I-4748*
G01*
G37*
X274244Y100600D02*
G36*
X240850D01*
G75*
G02X230650I-5100*
G01*
X220757*
G75*
G02X221000Y99101I-4506J-1499*
G01*
G75*
G02Y99100I-6445J0*
G01*
G75*
G02Y99099I-6445J0*
G01*
G75*
G02X216250Y94350I-4750*
G01*
G75*
G02X211500Y99099J4749*
G01*
G75*
G02Y99100I6445J0*
G01*
G75*
G02Y99101I6445J0*
G01*
G75*
G02X211743Y100600I4749*
G01*
X170480*
G75*
G02X161020I-4730J2500*
G01*
X100480*
G75*
G02X91020I-4730J2500*
G01*
X4050*
Y93600*
X9923*
G75*
G02X17577I3827J-5402*
G01*
X29923*
G75*
G02X37577I3827J-5402*
G01*
X68650*
G75*
G02X78850I5100*
G01*
X138650*
G75*
G02X148850I5100*
G01*
X255185*
G75*
G02X261674Y95200I3565J-500*
G01*
X270826*
G75*
G02X274735Y96563I2924J-2101*
G01*
G75*
G02X274000Y99100I4015J2537*
G01*
G75*
G02X274244Y100600I4750J-1*
G01*
G37*
X335185Y93600D02*
G36*
G75*
G02X335198Y93683I3523J-494D01*
G01*
X332880Y96000*
X329174*
G75*
G02X322650Y98100I-2924J2100*
G01*
G75*
G02X323660Y100600I3600J0*
G01*
X302695*
G75*
G02X293805I-4445J2500*
G01*
X283257*
G75*
G02X283500Y99101I-4506J-1499*
G01*
G75*
G02Y99100I-6445J0*
G01*
Y99100*
G75*
G02X276978Y94693I-4749*
G01*
G75*
G02X277315Y93600I-3228J-1593*
G01*
X324260*
G75*
G02X328240I1990J-3000*
G01*
X335185*
G37*
X407567D02*
G36*
G75*
G02X406500Y96599I3682J2999D01*
G01*
G75*
G02Y96600I6445J0*
G01*
G75*
G02Y96601I6445J0*
G01*
G75*
G02X408689Y100600I4749*
G01*
X370850*
G75*
G02X360650I-5100*
G01*
X350757*
G75*
G02X351000Y99101I-4506J-1499*
G01*
G75*
G02Y99100I-6445J0*
G01*
G75*
G02Y99099I-6445J0*
G01*
G75*
G02X346250Y94350I-4750*
G01*
G75*
G02X341500Y99099J4749*
G01*
G75*
G02Y99100I6445J0*
G01*
G75*
G02Y99101I6445J0*
G01*
G75*
G02X341743Y100600I4749*
G01*
X328840*
G75*
G02X329174Y100200I-2591J-2502*
G01*
X333748*
G75*
G02X335235Y99585I2J-2101*
G01*
X338167Y96652*
G75*
G02X342315Y93600I582J-3553*
G01*
X407567*
G37*
X414933D02*
G36*
X451674D01*
G75*
G02X461826I5076J-500*
G01*
X482230*
G75*
G02X483750Y93850I1519J-4500*
G01*
G75*
G02X485270Y93600I1J-4749*
G01*
X538450*
Y100600*
X521350*
G75*
G02X511150I-5100*
G01*
X413811*
G75*
G02X416000Y96601I-2561J-3999*
G01*
G75*
G02Y96600I-6445J0*
G01*
G75*
G02Y96599I-6445J0*
G01*
G75*
G02X414933Y93600I-4749*
G01*
G37*
X328840Y100600D02*
G36*
X341743D01*
G75*
G02X346250Y103850I4506J-1500*
G01*
G75*
G02X350757Y100600I0J-4749*
G01*
X360650*
G75*
G02X370850I5100*
G01*
X408689*
G75*
G02X411250Y101350I2561J-3999*
G01*
G75*
G02X413811Y100600I1J-4749*
G01*
X511150*
G75*
G02X521350I5100*
G01*
X538450*
Y113100*
X435850*
G75*
G02X425650I-5100*
G01*
X4050*
Y100600*
X91020*
G75*
G02X90400Y103100I4730J2500*
G01*
G75*
G02X101100I5350*
G01*
G75*
G02X100480Y100600I-5350*
G01*
X161020*
G75*
G02X160400Y103100I4730J2500*
G01*
G75*
G02X171100I5350*
G01*
G75*
G02X170480Y100600I-5350*
G01*
X211743*
G75*
G02X216250Y103850I4506J-1500*
G01*
G75*
G02X220757Y100600I0J-4749*
G01*
X230650*
G75*
G02X240850I5100*
G01*
X274244*
G75*
G02X278750Y103850I4506J-1500*
G01*
G75*
G02X283257Y100600I0J-4749*
G01*
X293805*
G75*
G02X293150Y103100I4445J2500*
G01*
G75*
G02X303350I5100*
G01*
G75*
G02X302695Y100600I-5100*
G01*
X323660*
G75*
G02X328840I2590J-2500*
G01*
G37*
X217874Y125600D02*
G36*
G75*
G02X209626I-4124J3000D01*
G01*
X148826*
G75*
G02X138674I-5076J500*
G01*
X78826*
G75*
G02X68674I-5076J500*
G01*
X4050*
Y113100*
X425650*
G75*
G02X435850I5100*
G01*
X538450*
Y125600*
X521000*
G75*
G02X511500I-4750*
G01*
X495000*
G75*
G02X485500I-4750*
G01*
X217874*
G37*
X351000Y138100D02*
G36*
G75*
G02Y138099I-6445J0D01*
G01*
G75*
G02X346250Y133350I-4750*
G01*
G75*
G02X341500Y138099J4749*
G01*
G75*
G02Y138100I6445J0*
G01*
X283500*
G75*
G02Y138099I-6445J0*
G01*
G75*
G02X278750Y133350I-4750*
G01*
G75*
G02X274000Y138099J4749*
G01*
G75*
G02Y138100I6445J0*
G01*
X53840*
G75*
G02X48660I-2590J2500*
G01*
X43840*
G75*
G02X38660I-2590J2500*
G01*
X27310*
G75*
G02X20190I-3560J2500*
G01*
X17310*
G75*
G02X10190I-3560J2500*
G01*
X4050*
Y125600*
X68674*
G75*
G02X68650Y126100I5076J498*
G01*
G75*
G02X78850I5100*
G01*
G75*
G02X78826Y125600I-5100J-2*
G01*
X138674*
G75*
G02X138650Y126100I5076J498*
G01*
G75*
G02X148850I5100*
G01*
G75*
G02X148826Y125600I-5100J-2*
G01*
X209626*
G75*
G02X208650Y128600I4124J3000*
G01*
G75*
G02X218850I5100*
G01*
G75*
G02X217874Y125600I-5100*
G01*
X485500*
G75*
G02X495000I4750*
G01*
X511500*
G75*
G02X521000I4750*
G01*
X538450*
Y138100*
X415289*
G75*
G02X416000Y135601I-4038J-2500*
G01*
G75*
G02Y135600I-6445J0*
G01*
G75*
G02Y135599I-6445J0*
G01*
G75*
G02X411250Y130850I-4750*
G01*
G75*
G02X406500Y135599J4749*
G01*
G75*
G02Y135600I6445J0*
G01*
G75*
G02Y135601I6445J0*
G01*
G75*
G02X407211Y138100I4749J0*
G01*
X351000*
G37*
X53840D02*
G36*
X274000D01*
G75*
G02Y138101I6445J0*
G01*
G75*
G02X278750Y142850I4750*
G01*
G75*
G02X283500Y138101J-4749*
G01*
G75*
G02Y138100I-6445J0*
G01*
X341500*
G75*
G02Y138101I6445J0*
G01*
G75*
G02X346250Y142850I4750*
G01*
G75*
G02X351000Y138101J-4749*
G01*
G75*
G02Y138100I-6445J0*
G01*
X407211*
G75*
G02X411250Y140350I4038J-2499*
G01*
G75*
G02X415289Y138100I0J-4749*
G01*
X538450*
Y150600*
X54850*
G75*
G02X48326Y148500I-3600*
G01*
X44174*
G75*
G02X37650Y150600I-2924J2100*
G01*
X28100*
G75*
G02X19400I-4350*
G01*
X18100*
G75*
G02X9400I-4350*
G01*
X4050*
Y138100*
X10190*
G75*
G02X9400Y140600I3560J2500*
G01*
G75*
G02X18100I4350*
G01*
G75*
G02X17310Y138100I-4350*
G01*
X20190*
G75*
G02X19400Y140600I3560J2500*
G01*
G75*
G02X28100I4350*
G01*
G75*
G02X27310Y138100I-4350*
G01*
X38660*
G75*
G02X37650Y140600I2590J2500*
G01*
G75*
G02X44174Y142700I3600*
G01*
X48326*
G75*
G02X54850Y140600I2924J-2100*
G01*
G75*
G02X53840Y138100I-3600J0*
G01*
G37*
X48660D02*
G36*
G75*
G02X48326Y138500I2591J2502D01*
G01*
X44174*
G75*
G02X43840Y138100I-2924J2102*
G01*
X48660*
G37*
X414461Y158100D02*
G36*
G75*
G02X411250Y156850I-3211J3499D01*
G01*
G75*
G02X408039Y158100I0J4749*
G01*
X196885*
G75*
G02X186615I-5135J1500*
G01*
X147874*
G75*
G02X139626I-4124J3000*
G01*
X127006*
G75*
G02X127100Y157100I-5256J-999*
G01*
G75*
G02X116400I-5350*
G01*
G75*
G02X116494Y158100I5350J1*
G01*
X77874*
G75*
G02X69626I-4124J3000*
G01*
X53840*
G75*
G02X48660I-2590J2500*
G01*
X43840*
G75*
G02X38660I-2590J2500*
G01*
X27310*
G75*
G02X20190I-3560J2500*
G01*
X17310*
G75*
G02X10190I-3560J2500*
G01*
X4050*
Y150600*
X9400*
G75*
G02X18100I4350*
G01*
X19400*
G75*
G02X28100I4350*
G01*
X37650*
G75*
G02X44174Y152700I3600*
G01*
X48326*
G75*
G02X54850Y150600I2924J-2100*
G01*
X538450*
Y158100*
X531350*
G75*
G02X521150I-5100*
G01*
X486350*
G75*
G02X476150I-5100*
G01*
X414461*
G37*
X10190D02*
G36*
G75*
G02X9400Y160600I3560J2500D01*
G01*
G75*
G02X11167Y164100I4350*
G01*
X4050*
Y158100*
X10190*
G37*
X20190D02*
G36*
G75*
G02X19400Y160600I3560J2500D01*
G01*
G75*
G02X21167Y164100I4350*
G01*
X16333*
G75*
G02X18100Y160600I-2583J-3500*
G01*
G75*
G02X17310Y158100I-4350*
G01*
X20190*
G37*
X38660D02*
G36*
G75*
G02X37650Y160600I2590J2500D01*
G01*
G75*
G02X40407Y164100I3600*
G01*
X26333*
G75*
G02X28100Y160600I-2583J-3500*
G01*
G75*
G02X27310Y158100I-4350*
G01*
X38660*
G37*
X50407Y164100D02*
G36*
X42093D01*
G75*
G02X44174Y162700I-843J-3500*
G01*
X48326*
G75*
G02X50407Y164100I2924J-2100*
G01*
G37*
X48660Y158100D02*
G36*
G75*
G02X48326Y158500I2591J2502D01*
G01*
X44174*
G75*
G02X43840Y158100I-2924J2102*
G01*
X48660*
G37*
X69626Y164100D02*
G36*
X52093D01*
G75*
G02X54850Y160600I-843J-3500*
G01*
G75*
G02X53840Y158100I-3600J0*
G01*
X69626*
G75*
G02X68650Y161100I4124J3000*
G01*
G75*
G02X69626Y164100I5100*
G01*
G37*
X139626D02*
G36*
X77874D01*
G75*
G02X78850Y161100I-4124J-3000*
G01*
G75*
G02X77874Y158100I-5100*
G01*
X116494*
G75*
G02X127006I5256J-1000*
G01*
X139626*
G75*
G02X138650Y161100I4124J3000*
G01*
G75*
G02X139626Y164100I5100*
G01*
G37*
X186615Y158100D02*
G36*
G75*
G02X186400Y159600I5135J1500D01*
G01*
G75*
G02X188856Y164100I5350*
G01*
X147874*
G75*
G02X148850Y161100I-4124J-3000*
G01*
G75*
G02X147874Y158100I-5100*
G01*
X186615*
G37*
X407211Y164100D02*
G36*
X396624D01*
G75*
G02X386876I-4874J1500*
G01*
X351000*
G75*
G02Y164099I-6445J0*
G01*
G75*
G02X346250Y159350I-4750*
G01*
G75*
G02X341500Y164099J4749*
G01*
G75*
G02Y164100I6445J0*
G01*
X329124*
G75*
G02X319376I-4874J1500*
G01*
X283500*
G75*
G02Y164099I-6445J0*
G01*
G75*
G02X278750Y159350I-4750*
G01*
G75*
G02X274000Y164099J4749*
G01*
G75*
G02Y164100I6445J0*
G01*
X264914*
G75*
G02X258586I-3164J4000*
G01*
X218826*
G75*
G02X218850Y163600I-5077J-498*
G01*
G75*
G02X208650I-5100*
G01*
G75*
G02X208674Y164100I5101J2*
G01*
X194644*
G75*
G02X197100Y159600I-2894J-4500*
G01*
G75*
G02X196885Y158100I-5350*
G01*
X408039*
G75*
G02X406500Y161599I3210J3499*
G01*
G75*
G02Y161600I6445J0*
G01*
G75*
G02Y161601I6445J0*
G01*
G75*
G02X407211Y164100I4749J0*
G01*
G37*
X464124D02*
G36*
G75*
G02X454376I-4874J1500D01*
G01*
X415289*
G75*
G02X416000Y161601I-4038J-2500*
G01*
G75*
G02Y161600I-6445J0*
G01*
G75*
G02Y161599I-6445J0*
G01*
G75*
G02X414461Y158100I-4749*
G01*
X476150*
G75*
G02X486350I5100*
G01*
X521150*
G75*
G02X531350I5100*
G01*
X538450*
Y164100*
X464124*
G37*
X208674D02*
G36*
G75*
G02X210288Y167345I5076J-500D01*
G01*
G75*
G02X205826Y168500I-1538J3255*
G01*
X201674*
G75*
G02X195150Y170600I-2924J2100*
G01*
X137350*
G75*
G02X130826Y168500I-3600*
G01*
X126674*
G75*
G02X120150Y170600I-2924J2100*
G01*
X54850*
G75*
G02X48326Y168500I-3600*
G01*
X44174*
G75*
G02X37650Y170600I-2924J2100*
G01*
X28100*
G75*
G02X19400I-4350*
G01*
X18100*
G75*
G02X9400I-4350*
G01*
X4050*
Y164100*
X11167*
G75*
G02X16333I2583J-3500*
G01*
X21167*
G75*
G02X26333I2583J-3500*
G01*
X40407*
G75*
G02X42093I843J-3500*
G01*
X50407*
G75*
G02X52093I843J-3500*
G01*
X69626*
G75*
G02X77874I4124J-3000*
G01*
X139626*
G75*
G02X147874I4124J-3000*
G01*
X188856*
G75*
G02X194644I2894J-4500*
G01*
X208674*
G37*
X257305Y170600D02*
G36*
X212350D01*
G75*
G02Y170599I-3759J0*
G01*
G75*
G02X211330Y168089I-3597*
G01*
G75*
G02X218826Y164100I2420J-4489*
G01*
X258586*
G75*
G02X256650Y168100I3164J4000*
G01*
G75*
G02X257305Y170600I5100*
G01*
G37*
X319376Y164100D02*
G36*
G75*
G02X319150Y165600I4874J1500D01*
G01*
G75*
G02X323245Y170600I5100*
G01*
X266195*
G75*
G02X266850Y168100I-4445J-2500*
G01*
G75*
G02X264914Y164100I-5100*
G01*
X274000*
G75*
G02Y164101I6445J0*
G01*
G75*
G02X278750Y168850I4750*
G01*
G75*
G02X283500Y164101J-4749*
G01*
G75*
G02Y164100I-6445J0*
G01*
X319376*
G37*
X386876D02*
G36*
G75*
G02X386650Y165600I4874J1500D01*
G01*
G75*
G02X390745Y170600I5100*
G01*
X325255*
G75*
G02X329350Y165600I-1005J-5000*
G01*
G75*
G02X329124Y164100I-5100*
G01*
X341500*
G75*
G02Y164101I6445J0*
G01*
G75*
G02X346250Y168850I4750*
G01*
G75*
G02X351000Y164101J-4749*
G01*
G75*
G02Y164100I-6445J0*
G01*
X386876*
G37*
X454376D02*
G36*
G75*
G02X454150Y165600I4874J1500D01*
G01*
G75*
G02X458245Y170600I5100*
G01*
X392755*
G75*
G02X396850Y165600I-1005J-5000*
G01*
G75*
G02X396624Y164100I-5100*
G01*
X407211*
G75*
G02X411250Y166350I4038J-2499*
G01*
G75*
G02X415289Y164100I0J-4749*
G01*
X454376*
G37*
X464124D02*
G36*
X538450D01*
Y170600*
X460255*
G75*
G02X464350Y165600I-1005J-5000*
G01*
G75*
G02X464124Y164100I-5100*
G01*
G37*
X276340Y178100D02*
G36*
G75*
G02X277350Y175600I-2590J-2500D01*
G01*
G75*
G02X270826Y173500I-3600*
G01*
X256674*
G75*
G02X250150Y175600I-2924J2100*
G01*
G75*
G02X251160Y178100I3600J0*
G01*
X211340*
G75*
G02X208167Y177048I-2590J2500*
G01*
X207735Y176615*
G75*
G02X206248Y176000I-1485J1486*
G01*
X201674*
G75*
G02X195150Y178100I-2924J2100*
G01*
X137350*
G75*
G02X130826Y176000I-3600*
G01*
X126674*
G75*
G02X120150Y178100I-2924J2100*
G01*
X27310*
G75*
G02X20190I-3560J2500*
G01*
X17310*
G75*
G02X10190I-3560J2500*
G01*
X4050*
Y170600*
X9400*
G75*
G02X18100I4350*
G01*
X19400*
G75*
G02X28100I4350*
G01*
X37650*
G75*
G02X44174Y172700I3600*
G01*
X48326*
G75*
G02X54850Y170600I2924J-2100*
G01*
X120150*
G75*
G02X126674Y172700I3600*
G01*
X130826*
G75*
G02X137350Y170600I2924J-2100*
G01*
X195150*
G75*
G02X201674Y172700I3600*
G01*
X205826*
G75*
G02X212350Y170600I2924J-2100*
G01*
X257305*
G75*
G02X266195I4445J-2500*
G01*
X323245*
G75*
G02X325255I1005J-5001*
G01*
X390745*
G75*
G02X392755I1005J-5001*
G01*
X458245*
G75*
G02X460255I1005J-5001*
G01*
X538450*
Y178100*
X276340*
G37*
X271160D02*
G36*
X256340D01*
G75*
G02X256674Y177700I-2591J-2502*
G01*
X270826*
G75*
G02X271160Y178100I2924J-2102*
G01*
G37*
X240195Y185600D02*
G36*
G75*
G02X231305I-4445J2500D01*
G01*
X167653*
G75*
G02X163847I-1903J5000*
G01*
X137350*
G75*
G02X130826Y183500I-3600*
G01*
X126674*
G75*
G02X120150Y185600I-2924J2100*
G01*
X100480*
G75*
G02X91020I-4730J2500*
G01*
X53840*
G75*
G02X54850Y183100I-2590J-2500*
G01*
G75*
G02X48326Y181000I-3600*
G01*
X44174*
G75*
G02X37650Y183100I-2924J2100*
G01*
G75*
G02X38660Y185600I3600J0*
G01*
X4050*
Y178100*
X10190*
G75*
G02X9400Y180600I3560J2500*
G01*
G75*
G02X18100I4350*
G01*
G75*
G02X17310Y178100I-4350*
G01*
X20190*
G75*
G02X19400Y180600I3560J2500*
G01*
G75*
G02X28100I4350*
G01*
G75*
G02X27310Y178100I-4350*
G01*
X120150*
G75*
G02X126674Y180200I3600*
G01*
X130826*
G75*
G02X137350Y178100I2924J-2100*
G01*
X195150*
G75*
G02X201674Y180200I3600*
G01*
X205172*
G75*
G02X205150Y180596I3485J396*
G01*
G75*
G02Y180600I3698J2*
G01*
G75*
G02X212350I3600*
G01*
G75*
G02X211340Y178100I-3600J0*
G01*
X251160*
G75*
G02X256340I2590J-2500*
G01*
X271160*
G75*
G02X276340I2590J-2500*
G01*
X538450*
Y185600*
X438350*
G75*
G02X428150I-5100*
G01*
X370850*
G75*
G02X360650I-5100*
G01*
X303350*
G75*
G02X293150I-5100*
G01*
X240195*
G37*
X48660D02*
G36*
X43840D01*
G75*
G02X44174Y185200I-2591J-2502*
G01*
X48326*
G75*
G02X48660Y185600I2924J-2102*
G01*
G37*
X91020Y190600D02*
G36*
X77874D01*
G75*
G02X69626I-4124J3000*
G01*
X54850*
G75*
G02X48326Y188500I-3600*
G01*
X44174*
G75*
G02X37650Y190600I-2924J2100*
G01*
X28100*
G75*
G02X19400I-4350*
G01*
X18100*
G75*
G02X9400I-4350*
G01*
X4050*
Y185600*
X38660*
G75*
G02X43840I2590J-2500*
G01*
X48660*
G75*
G02X53840I2590J-2500*
G01*
X91020*
G75*
G02X90400Y188100I4730J2500*
G01*
G75*
G02X91020Y190600I5350*
G01*
G37*
X160400D02*
G36*
X147874D01*
G75*
G02X139626I-4124J3000*
G01*
X100480*
G75*
G02X101100Y188100I-4730J-2500*
G01*
G75*
G02X100480Y185600I-5350*
G01*
X120150*
G75*
G02X126674Y187700I3600*
G01*
X130826*
G75*
G02X137350Y185600I2924J-2100*
G01*
X163847*
G75*
G02X160400Y190600I1903J5000*
G01*
G37*
X231305D02*
G36*
X171100D01*
G75*
G02X167653Y185600I-5350*
G01*
X231305*
G75*
G02X230650Y188100I4445J2500*
G01*
G75*
G02X231305Y190600I5100*
G01*
G37*
X293150Y185600D02*
G36*
G75*
G02X297245Y190600I5100D01*
G01*
X240195*
G75*
G02X240850Y188100I-4445J-2500*
G01*
G75*
G02X240195Y185600I-5100*
G01*
X293150*
G37*
X360650D02*
G36*
G75*
G02X364745Y190600I5100D01*
G01*
X299255*
G75*
G02X303350Y185600I-1005J-5000*
G01*
X360650*
G37*
X428150D02*
G36*
G75*
G02X432245Y190600I5100D01*
G01*
X366755*
G75*
G02X370850Y185600I-1005J-5000*
G01*
X428150*
G37*
X438350D02*
G36*
X538450D01*
Y190600*
X522000*
G75*
G02X512500I-4750*
G01*
X496000*
G75*
G02X486500I-4750*
G01*
X434255*
G75*
G02X438350Y185600I-1005J-5000*
G01*
G37*
X69305Y196100D02*
G36*
X4050D01*
Y190600*
X9400*
G75*
G02X18100I4350*
G01*
X19400*
G75*
G02X28100I4350*
G01*
X37650*
G75*
G02X44174Y192700I3600*
G01*
X48326*
G75*
G02X54850Y190600I2924J-2100*
G01*
X69626*
G75*
G02X68650Y193600I4124J3000*
G01*
G75*
G02X69305Y196100I5100*
G01*
G37*
X139305D02*
G36*
X78195D01*
G75*
G02X78850Y193600I-4445J-2500*
G01*
G75*
G02X77874Y190600I-5100*
G01*
X91020*
G75*
G02X100480I4730J-2500*
G01*
X139626*
G75*
G02X138650Y193600I4124J3000*
G01*
G75*
G02X139305Y196100I5100*
G01*
G37*
X412770D02*
G36*
G75*
G02X411250Y195850I-1519J4500D01*
G01*
G75*
G02X409730Y196100I-1J4749*
G01*
X280270*
G75*
G02X278750Y195850I-1519J4500*
G01*
G75*
G02X277230Y196100I-1J4749*
G01*
X218850*
G75*
G02X208650I-5100*
G01*
X148195*
G75*
G02X148850Y193600I-4445J-2500*
G01*
G75*
G02X147874Y190600I-5100*
G01*
X160400*
G75*
G02X171100I5350*
G01*
X231305*
G75*
G02X240195I4445J-2500*
G01*
X297245*
G75*
G02X299255I1005J-5001*
G01*
X364745*
G75*
G02X366755I1005J-5001*
G01*
X432245*
G75*
G02X434255I1005J-5001*
G01*
X486500*
G75*
G02X496000I4750*
G01*
X512500*
G75*
G02X522000I4750*
G01*
X538450*
Y196100*
X412770*
G37*
X208650D02*
G36*
G75*
G02X211350Y200600I5100D01*
G01*
X28100*
G75*
G02X19400I-4350*
G01*
X18100*
G75*
G02X9400I-4350*
G01*
X4050*
Y196100*
X69305*
G75*
G02X78195I4445J-2500*
G01*
X139305*
G75*
G02X148195I4445J-2500*
G01*
X208650*
G37*
X274000Y200600D02*
G36*
X216150D01*
G75*
G02X218850Y196100I-2400J-4500*
G01*
X277230*
G75*
G02X274000Y200599I1519J4499*
G01*
G75*
G02Y200600I6445J0*
G01*
G37*
X406500D02*
G36*
X350289D01*
G75*
G02X346250Y198350I-4038J2499*
G01*
G75*
G02X342211Y200600I0J4749*
G01*
X283500*
G75*
G02Y200599I-6445J0*
G01*
G75*
G02X280270Y196100I-4749*
G01*
X409730*
G75*
G02X406500Y200599I1519J4499*
G01*
G75*
G02Y200600I6445J0*
G01*
G37*
X416000D02*
G36*
G75*
G02Y200599I-6445J0D01*
G01*
G75*
G02X412770Y196100I-4749*
G01*
X538450*
Y200600*
X416000*
G37*
X55860Y210600D02*
G36*
Y206246D01*
X49120*
Y210600*
X48380*
Y206246*
X41640*
Y208500*
X27559*
G75*
G02X19941I-3809J2100*
G01*
X17559*
G75*
G02X9400Y210600I-3809J2100*
G01*
X4050*
Y200600*
X9400*
G75*
G02X18100I4350*
G01*
X19400*
G75*
G02X28100I4350*
G01*
X211350*
G75*
G02X216150I2400J-4500*
G01*
X274000*
G75*
G02Y200601I6445J0*
G01*
G75*
G02X278750Y205350I4750*
G01*
G75*
G02X283500Y200601J-4749*
G01*
G75*
G02Y200600I-6445J0*
G01*
X342211*
G75*
G02X341500Y203099I4038J2500*
G01*
G75*
G02Y203100I6445J0*
G01*
G75*
G02Y203101I6445J0*
G01*
G75*
G02X346250Y207850I4750*
G01*
G75*
G02X351000Y203101J-4749*
G01*
G75*
G02Y203100I-6445J0*
G01*
G75*
G02Y203099I-6445J0*
G01*
G75*
G02X350289Y200600I-4749J0*
G01*
X406500*
G75*
G02Y200601I6445J0*
G01*
G75*
G02X411250Y205350I4750*
G01*
G75*
G02X416000Y200601J-4749*
G01*
G75*
G02Y200600I-6445J0*
G01*
X538450*
Y210600*
X523850*
G75*
G02X513650I-5100*
G01*
X55860*
G37*
X39652Y228600D02*
G36*
X4050D01*
Y210600*
X9400*
G75*
G02X17559Y212700I4350*
G01*
X19941*
G75*
G02X27559I3809J-2100*
G01*
X41640*
Y214954*
X48380*
Y210600*
X49120*
Y214954*
X50390*
Y223750*
X39652*
Y228600*
G37*
X484461D02*
G36*
G75*
G02X481250Y227350I-3211J3499D01*
G01*
G75*
G02X478039Y228600I0J4749*
G01*
X415558*
G75*
G02X416000Y226601I-4307J-1999*
G01*
G75*
G02Y226600I-6445J0*
G01*
G75*
G02Y226599I-6445J0*
G01*
G75*
G02X411250Y221850I-4750*
G01*
G75*
G02X406500Y226599J4749*
G01*
G75*
G02Y226600I6445J0*
G01*
G75*
G02Y226601I6445J0*
G01*
G75*
G02X406942Y228600I4749*
G01*
X350973*
G75*
G02X346250Y224350I-4723J499*
G01*
G75*
G02X341527Y228600I0J4749*
G01*
X283058*
G75*
G02X283500Y226601I-4307J-1999*
G01*
G75*
G02Y226600I-6445J0*
G01*
G75*
G02Y226599I-6445J0*
G01*
G75*
G02X278750Y221850I-4750*
G01*
G75*
G02X274000Y226599J4749*
G01*
G75*
G02Y226600I6445J0*
G01*
G75*
G02Y226601I6445J0*
G01*
G75*
G02X274442Y228600I4749*
G01*
X218195*
G75*
G02X209305I-4445J2500*
G01*
X148850*
G75*
G02X138650I-5100*
G01*
X78850*
G75*
G02X68650I-5100*
G01*
X57848*
Y223750*
X54590*
Y214954*
X55860*
Y210600*
X513650*
G75*
G02X523850I5100*
G01*
X538450*
Y228600*
X484461*
G37*
X457755Y245600D02*
G36*
G75*
G02X455745I-1005J5001D01*
G01*
X392755*
G75*
G02X390745I-1005J5001*
G01*
X328695*
G75*
G02X319805I-4445J2500*
G01*
X266850*
G75*
G02X256650I-5100*
G01*
X197006*
G75*
G02X197100Y244600I-5256J-999*
G01*
G75*
G02X186400I-5350*
G01*
G75*
G02X186494Y245600I5350J1*
G01*
X125796*
G75*
G02X127100Y242100I-4046J-3500*
G01*
G75*
G02X116400I-5350*
G01*
G75*
G02X117704Y245600I5350J0*
G01*
X41053*
G75*
G02X33450Y241500I-7603J5000*
G01*
G75*
G02X25847Y245600J9100*
G01*
X21353*
G75*
G02X6147I-7603J5000*
G01*
X4050*
Y228600*
X39652*
Y232450*
X57848*
Y228600*
X68650*
G75*
G02X78850I5100*
G01*
X138650*
G75*
G02X148850I5100*
G01*
X209305*
G75*
G02X208650Y231100I4445J2500*
G01*
G75*
G02X218850I5100*
G01*
G75*
G02X218195Y228600I-5100*
G01*
X274442*
G75*
G02X278750Y231350I4307J-2000*
G01*
G75*
G02X283058Y228600I1J-4749*
G01*
X341527*
G75*
G02X341500Y229099I4721J500*
G01*
G75*
G02Y229100I6445J0*
G01*
G75*
G02Y229101I6445J0*
G01*
G75*
G02X346250Y233850I4750*
G01*
G75*
G02X351000Y229101J-4749*
G01*
G75*
G02Y229100I-6445J0*
G01*
G75*
G02Y229099I-6445J0*
G01*
G75*
G02X350973Y228600I-4748J0*
G01*
X406942*
G75*
G02X411250Y231350I4307J-2000*
G01*
G75*
G02X415558Y228600I1J-4749*
G01*
X478039*
G75*
G02X476500Y232099I3210J3499*
G01*
G75*
G02Y232100I6445J0*
G01*
G75*
G02Y232101I6445J0*
G01*
G75*
G02X481250Y236850I4750*
G01*
G75*
G02X486000Y232101J-4749*
G01*
G75*
G02Y232100I-6445J0*
G01*
G75*
G02Y232099I-6445J0*
G01*
G75*
G02X484461Y228600I-4749*
G01*
X538450*
Y245600*
X523850*
G75*
G02X513650I-5100*
G01*
X457755*
G37*
X4650Y250600D02*
G36*
X4050D01*
Y245600*
X6147*
G75*
G02X4650Y250600I7603J5000*
G01*
G37*
X24350D02*
G36*
X22850D01*
G75*
G02X21353Y245600I-9100J0*
G01*
X25847*
G75*
G02X24350Y250600I7603J5000*
G01*
G37*
X256650Y245600D02*
G36*
G75*
G02X260745Y250600I5100D01*
G01*
X42550*
G75*
G02X41053Y245600I-9100J0*
G01*
X117704*
G75*
G02X125796I4046J-3500*
G01*
X186494*
G75*
G02X197006I5256J-1000*
G01*
X256650*
G37*
X319805Y250600D02*
G36*
X262755D01*
G75*
G02X266850Y245600I-1005J-5000*
G01*
X319805*
G75*
G02X319150Y248100I4445J2500*
G01*
G75*
G02X319805Y250600I5100*
G01*
G37*
X386650D02*
G36*
X328695D01*
G75*
G02X329350Y248100I-4445J-2500*
G01*
G75*
G02X328695Y245600I-5100*
G01*
X390745*
G75*
G02X386650Y250600I1005J5000*
G01*
G37*
X451650D02*
G36*
X396850D01*
G75*
G02X392755Y245600I-5100*
G01*
X455745*
G75*
G02X451650Y250600I1005J5000*
G01*
G37*
X513650Y245600D02*
G36*
G75*
G02X517745Y250600I5100D01*
G01*
X461850*
G75*
G02X457755Y245600I-5100*
G01*
X513650*
G37*
X523850D02*
G36*
X538450D01*
Y250600*
X519755*
G75*
G02X523850Y245600I-1005J-5000*
G01*
G37*
X415558Y261100D02*
G36*
G75*
G02X411250Y258350I-4307J2000D01*
G01*
G75*
G02X406942Y261100I-1J4749*
G01*
X350558*
G75*
G02X346250Y258350I-4307J2000*
G01*
G75*
G02X341942Y261100I-1J4749*
G01*
X283058*
G75*
G02X278750Y258350I-4307J2000*
G01*
G75*
G02X274442Y261100I-1J4749*
G01*
X238150*
G75*
G02X233350I-2400J4500*
G01*
X215270*
G75*
G02X213750Y260850I-1519J4500*
G01*
G75*
G02X212230Y261100I-1J4749*
G01*
X148850*
G75*
G02X138650I-5100*
G01*
X78850*
G75*
G02X68650I-5100*
G01*
X4050*
Y250600*
X4650*
G75*
G02X22850I9100*
G01*
X24350*
G75*
G02X33450Y259700I9100*
G01*
G75*
G02X42550Y250600J-9100*
G01*
X260745*
G75*
G02X262755I1005J-5001*
G01*
X319805*
G75*
G02X328695I4445J-2500*
G01*
X386650*
G75*
G02X396850I5100*
G01*
X451650*
G75*
G02X461850I5100*
G01*
X517745*
G75*
G02X519755I1005J-5001*
G01*
X538450*
Y261100*
X484933*
G75*
G02X486000Y258101I-3682J-2999*
G01*
G75*
G02Y258100I-6445J0*
G01*
G75*
G02Y258099I-6445J0*
G01*
G75*
G02X481250Y253350I-4750*
G01*
G75*
G02X476500Y258099J4749*
G01*
G75*
G02Y258100I6445J0*
G01*
G75*
G02Y258101I6445J0*
G01*
G75*
G02X477567Y261100I4749*
G01*
X415558*
G37*
X68650D02*
G36*
G75*
G02X71350Y265600I5100D01*
G01*
X4050*
Y261100*
X68650*
G37*
X138650D02*
G36*
G75*
G02X141350Y265600I5100D01*
G01*
X76150*
G75*
G02X78850Y261100I-2400J-4500*
G01*
X138650*
G37*
X209000Y265600D02*
G36*
X146150D01*
G75*
G02X148850Y261100I-2400J-4500*
G01*
X212230*
G75*
G02X209000Y265599I1519J4499*
G01*
G75*
G02Y265600I6445J0*
G01*
G37*
X230650D02*
G36*
X218500D01*
G75*
G02Y265599I-6445J0*
G01*
G75*
G02X215270Y261100I-4749*
G01*
X233350*
G75*
G02X230650Y265600I2400J4500*
G01*
G37*
X274442Y261100D02*
G36*
G75*
G02X274000Y263099I4307J1999D01*
G01*
G75*
G02Y263100I6445J0*
G01*
G75*
G02Y263101I6445J0*
G01*
G75*
G02X274711Y265600I4749J0*
G01*
X240850*
G75*
G02X238150Y261100I-5100*
G01*
X274442*
G37*
X341942D02*
G36*
G75*
G02X341500Y263099I4307J1999D01*
G01*
G75*
G02Y263100I6445J0*
G01*
G75*
G02Y263101I6445J0*
G01*
G75*
G02X342211Y265600I4749J0*
G01*
X302695*
G75*
G02X293805I-4445J2500*
G01*
X282789*
G75*
G02X283500Y263101I-4038J-2500*
G01*
G75*
G02Y263100I-6445J0*
G01*
G75*
G02Y263099I-6445J0*
G01*
G75*
G02X283058Y261100I-4749*
G01*
X341942*
G37*
X406942D02*
G36*
G75*
G02X406500Y263099I4307J1999D01*
G01*
G75*
G02Y263100I6445J0*
G01*
G75*
G02Y263101I6445J0*
G01*
G75*
G02X407211Y265600I4749J0*
G01*
X366755*
G75*
G02X364745I-1005J5001*
G01*
X350289*
G75*
G02X351000Y263101I-4038J-2500*
G01*
G75*
G02Y263100I-6445J0*
G01*
G75*
G02Y263099I-6445J0*
G01*
G75*
G02X350558Y261100I-4749*
G01*
X406942*
G37*
X532972Y265600D02*
G36*
G75*
G02X524528I-4222J5098D01*
G01*
X512972*
G75*
G02X504528I-4222J5098*
G01*
X431755*
G75*
G02X429745I-1005J5001*
G01*
X415289*
G75*
G02X416000Y263101I-4038J-2500*
G01*
G75*
G02Y263100I-6445J0*
G01*
G75*
G02Y263099I-6445J0*
G01*
G75*
G02X415558Y261100I-4749*
G01*
X477567*
G75*
G02X481250Y262850I3682J-3000*
G01*
G75*
G02X484933Y261100I1J-4749*
G01*
X538450*
Y265600*
X532972*
G37*
X230650D02*
G36*
G75*
G02X235623Y270698I5100D01*
G01*
X167894*
G75*
G02X163606I-2144J4902*
G01*
X100531*
G75*
G02X90969I-4781J2402*
G01*
X4050*
Y265600*
X71350*
G75*
G02X76150I2400J-4500*
G01*
X141350*
G75*
G02X146150I2400J-4500*
G01*
X209000*
G75*
G02Y265601I6445J0*
G01*
G75*
G02X213750Y270350I4750*
G01*
G75*
G02X218500Y265601J-4749*
G01*
G75*
G02Y265600I-6445J0*
G01*
X230650*
G37*
X293805D02*
G36*
G75*
G02X293150Y268100I4445J2500D01*
G01*
G75*
G02X293861Y270698I5100J0*
G01*
X235877*
G75*
G02X240850Y265600I-127J-5098*
G01*
X274711*
G75*
G02X278750Y267850I4038J-2499*
G01*
G75*
G02X282789Y265600I0J-4749*
G01*
X293805*
G37*
X360651Y270698D02*
G36*
X302639D01*
G75*
G02X303350Y268100I-4389J-2598*
G01*
G75*
G02X302695Y265600I-5100*
G01*
X342211*
G75*
G02X346250Y267850I4038J-2499*
G01*
G75*
G02X350289Y265600I0J-4749*
G01*
X364745*
G75*
G02X360650Y270600I1005J5000*
G01*
G75*
G02X360651Y270698I5104J8*
G01*
G37*
X425651D02*
G36*
X370849D01*
G75*
G02X370850Y270600I-5103J-90*
G01*
G75*
G02X366755Y265600I-5100*
G01*
X407211*
G75*
G02X411250Y267850I4038J-2499*
G01*
G75*
G02X415289Y265600I0J-4749*
G01*
X429745*
G75*
G02X425650Y270600I1005J5000*
G01*
G75*
G02X425651Y270698I5104J8*
G01*
G37*
X502130D02*
G36*
X435849D01*
G75*
G02X435850Y270600I-5103J-90*
G01*
G75*
G02X431755Y265600I-5100*
G01*
X504528*
G75*
G02X502130Y270698I4222J5098*
G01*
G37*
X522130D02*
G36*
X515370D01*
G75*
G02X512972Y265600I-6620*
G01*
X524528*
G75*
G02X522130Y270698I4222J5098*
G01*
G37*
X535370D02*
G36*
G75*
G02X532972Y265600I-6620D01*
G01*
X538450*
Y270698*
X535370*
G37*
X90969D02*
G36*
G75*
G02X90400Y273100I4781J2402D01*
G01*
G75*
G02X91020Y275600I5350*
G01*
X41359*
G75*
G02X25541I-7909J4500*
G01*
X21659*
G75*
G02X5841I-7909J4500*
G01*
X4050*
Y270698*
X90969*
G37*
X160400Y275600D02*
G36*
X100480D01*
G75*
G02X101100Y273100I-4730J-2500*
G01*
G75*
G02X100531Y270698I-5350*
G01*
X163606*
G75*
G02X160400Y275600I2144J4902*
G01*
G37*
X360651Y270698D02*
G36*
G75*
G02X364745Y275600I5099J-98D01*
G01*
X171100*
G75*
G02X167894Y270698I-5350*
G01*
X235623*
G75*
G02X235877I127J-5102*
G01*
X293861*
G75*
G02X302639I4389J-2598*
G01*
X360651*
G37*
X425651D02*
G36*
G75*
G02X429745Y275600I5099J-98D01*
G01*
X366755*
G75*
G02X370849Y270698I-1005J-5000*
G01*
X425651*
G37*
X502130D02*
G36*
G75*
G02X504301Y275600I6620D01*
G01*
X431755*
G75*
G02X435849Y270698I-1005J-5000*
G01*
X502130*
G37*
X522130D02*
G36*
G75*
G02X524301Y275600I6620D01*
G01*
X522492*
G75*
G02X515008I-3742J5098*
G01*
X513199*
G75*
G02X515370Y270698I-4449J-4902*
G01*
X522130*
G37*
X535370D02*
G36*
X538450D01*
Y275600*
X533199*
G75*
G02X535370Y270698I-4449J-4902*
G01*
G37*
X4670Y280698D02*
G36*
X4050D01*
Y275600*
X5841*
G75*
G02X4650Y280100I7909J4500*
G01*
G75*
G02X4670Y280698I9101*
G01*
G37*
X24370D02*
G36*
X22830D01*
G75*
G02X22850Y280100I-9081J-598*
G01*
G75*
G02X21659Y275600I-9100*
G01*
X25541*
G75*
G02X24350Y280100I7909J4500*
G01*
G75*
G02X24370Y280698I9101*
G01*
G37*
X160400Y275600D02*
G36*
G75*
G02X164129Y280698I5350D01*
G01*
X42530*
G75*
G02X42550Y280100I-9081J-598*
G01*
G75*
G02X41359Y275600I-9100*
G01*
X91020*
G75*
G02X100480I4730J-2500*
G01*
X160400*
G37*
X512426Y280698D02*
G36*
X167371D01*
G75*
G02X171100Y275600I-1621J-5098*
G01*
X364745*
G75*
G02X366755I1005J-5001*
G01*
X429745*
G75*
G02X431755I1005J-5001*
G01*
X504301*
G75*
G02X513199I4449J-4902*
G01*
X515008*
G75*
G02X512426Y280698I3742J5098*
G01*
G37*
X525074D02*
G36*
G75*
G02X522492Y275600I-6324D01*
G01*
X524301*
G75*
G02X533199I4449J-4902*
G01*
X538450*
Y280698*
X525074*
G37*
X463100Y290698D02*
G36*
Y289002D01*
X454400*
Y290698*
X415723*
G75*
G02X416000Y289101I-4472J-1598*
G01*
G75*
G02Y289100I-6445J0*
G01*
G75*
G02Y289099I-6445J0*
G01*
G75*
G02X411250Y284350I-4750*
G01*
G75*
G02X406500Y289099J4749*
G01*
G75*
G02Y289100I6445J0*
G01*
G75*
G02Y289101I6445J0*
G01*
G75*
G02X406777Y290698I4749*
G01*
X398100*
Y286502*
X389400*
Y290698*
X350723*
G75*
G02X351000Y289101I-4472J-1598*
G01*
G75*
G02Y289100I-6445J0*
G01*
G75*
G02Y289099I-6445J0*
G01*
G75*
G02X346250Y284350I-4750*
G01*
G75*
G02X341500Y289099J4749*
G01*
G75*
G02Y289100I6445J0*
G01*
G75*
G02Y289101I6445J0*
G01*
G75*
G02X341777Y290698I4749*
G01*
X330600*
Y284002*
X321900*
Y290698*
X283223*
G75*
G02X283500Y289101I-4472J-1598*
G01*
G75*
G02Y289100I-6445J0*
G01*
G75*
G02Y289099I-6445J0*
G01*
G75*
G02X278750Y284350I-4750*
G01*
G75*
G02X274000Y289099J4749*
G01*
G75*
G02Y289100I6445J0*
G01*
G75*
G02Y289101I6445J0*
G01*
G75*
G02X274277Y290698I4749*
G01*
X263100*
Y281502*
X254400*
Y290698*
X218413*
G75*
G02X213750Y286850I-4663J901*
G01*
G75*
G02X209087Y290698I-1J4749*
G01*
X200600*
Y284002*
X191900*
Y290698*
X128100*
Y281502*
X119400*
Y290698*
X58100*
Y281502*
X49400*
Y290698*
X4050*
Y280698*
X4670*
G75*
G02X22830I9080J-598*
G01*
X24370*
G75*
G02X42530I9080J-598*
G01*
X164129*
G75*
G02X167371I1621J-5098*
G01*
X512426*
G75*
G02X525074I6324*
G01*
X538450*
Y290698*
X535370*
G75*
G02X522130I-6620*
G01*
X515370*
G75*
G02X502130I-6620*
G01*
X463100*
G37*
X49400Y296100D02*
G36*
X4050D01*
Y290698*
X49400*
Y296100*
G37*
X119400D02*
G36*
X78850D01*
G75*
G02X68650I-5100*
G01*
X58100*
Y290698*
X119400*
Y296100*
G37*
X186020D02*
G36*
X148850D01*
G75*
G02X138650I-5100*
G01*
X128100*
Y290698*
X191900*
Y295500*
X187490*
G75*
G02X186020Y296100I0J2100*
G01*
G37*
X209087Y290698D02*
G36*
G75*
G02X209000Y291599I4662J901D01*
G01*
G75*
G02Y291600I6445J0*
G01*
G75*
G02Y291601I6445J0*
G01*
G75*
G02X212230Y296100I4749*
G01*
X200600*
Y290698*
X209087*
G37*
X254400Y296100D02*
G36*
X215270D01*
G75*
G02X218500Y291601I-1519J-4499*
G01*
G75*
G02Y291600I-6445J0*
G01*
G75*
G02Y291599I-6445J0*
G01*
G75*
G02X218413Y290698I-4748*
G01*
X254400*
Y296100*
G37*
X321900D02*
G36*
X263100D01*
Y290698*
X274277*
G75*
G02X278750Y293850I4472J-1598*
G01*
G75*
G02X283223Y290698I1J-4749*
G01*
X321900*
Y296100*
G37*
X389400D02*
G36*
X330600D01*
Y290698*
X341777*
G75*
G02X346250Y293850I4472J-1598*
G01*
G75*
G02X350723Y290698I1J-4749*
G01*
X389400*
Y296100*
G37*
X454400D02*
G36*
X398100D01*
Y290698*
X406777*
G75*
G02X411250Y293850I4472J-1598*
G01*
G75*
G02X415723Y290698I1J-4749*
G01*
X454400*
Y296100*
G37*
X502130Y290698D02*
G36*
G75*
G02X504923Y296100I6620D01*
G01*
X463100*
Y290698*
X502130*
G37*
X522130D02*
G36*
G75*
G02X524923Y296100I6620D01*
G01*
X512577*
G75*
G02X515370Y290698I-3827J-5402*
G01*
X522130*
G37*
X535370D02*
G36*
X538450D01*
Y296100*
X532577*
G75*
G02X535370Y290698I-3827J-5402*
G01*
G37*
X496250Y311973D02*
G36*
X443350D01*
Y309954*
X445880*
Y301246*
X439140*
Y309954*
X439150*
Y311973*
X378350*
Y309954*
X378380*
Y301246*
X371640*
Y309954*
X374150*
Y311973*
X312110*
Y309954*
X313380*
Y301246*
X306640*
Y309954*
X307910*
Y311973*
X248350*
Y309954*
X248380*
Y301246*
X241640*
Y309954*
X244150*
Y311973*
X182110*
Y309954*
X183380*
Y301246*
X176640*
Y309954*
X177910*
Y311973*
X117110*
Y309954*
X118380*
Y301246*
X111640*
Y309954*
X112910*
Y311973*
X48093*
X47110Y310990*
Y309954*
X48380*
Y301246*
X41640*
Y309954*
X42910*
Y311860*
G75*
G02X42913Y311973I2102J-2*
G01*
X4050*
Y296100*
X49400*
Y299698*
X51650*
Y301246*
X49120*
Y309954*
X55860*
Y301246*
X55850*
Y299698*
X58100*
Y296100*
X68650*
G75*
G02X78850I5100*
G01*
X119400*
Y299698*
X121650*
Y301246*
X119120*
Y309954*
X125860*
Y301246*
X125850*
Y299698*
X128100*
Y296100*
X138650*
G75*
G02X148850I5100*
G01*
X186020*
G75*
G02X185390Y297600I1470J1500*
G01*
Y297600*
Y301246*
X184120*
Y309954*
X190860*
Y301246*
X189590*
Y299700*
X191900*
Y302198*
X200600*
Y296100*
X212230*
G75*
G02X213750Y296350I1519J-4500*
G01*
G75*
G02X215270Y296100I1J-4749*
G01*
X254400*
Y299698*
X256650*
Y303500*
X255860*
Y301246*
X249120*
Y309954*
X255860*
Y307700*
X258750*
G75*
G02X260850Y305600J-2100*
G01*
Y305600*
Y299698*
X263100*
Y296100*
X321900*
Y296607*
G75*
G02X321650Y297600I1852J993*
G01*
Y303500*
X320860*
Y301246*
X314120*
Y309954*
X320860*
Y307700*
X323750*
G75*
G02X325850Y305600J-2100*
G01*
Y305600*
Y302198*
X330600*
Y296100*
X389400*
Y303500*
X385860*
Y301246*
X379120*
Y309954*
X385860*
Y307700*
X393750*
G75*
G02X395850Y305600J-2100*
G01*
Y305600*
Y304698*
X398100*
Y296100*
X454400*
Y301607*
G75*
G02X454150Y302600I1852J993*
G01*
Y303500*
X453360*
Y301246*
X446620*
Y309954*
X453360*
Y307700*
X456250*
G75*
G02X457612Y307198I-1J-2102*
G01*
X463100*
Y296100*
X504923*
G75*
G02X512577I3827J-5402*
G01*
X524923*
G75*
G02X532577I3827J-5402*
G01*
X538450*
Y310600*
X496250*
Y311973*
G37*
X46650Y318100D02*
G36*
X36250D01*
Y315600*
X4050*
Y311973*
X42913*
G75*
G02X43525Y313345I2098J-113*
G01*
X46871Y316691*
G75*
G02X46650Y318098I4362J1407*
G01*
G75*
G02Y318100I5013J1*
G01*
G37*
X111650D02*
G36*
X95850D01*
G75*
G02X86650I-4600*
G01*
X85850*
G75*
G02X76650I-4600*
G01*
X75850*
G75*
G02X66650I-4600*
G01*
X55850*
G75*
G02X49841Y313721I-4600*
G01*
X48093Y311973*
X112910*
Y314937*
G75*
G02X111650Y318099I3339J3162*
G01*
G75*
G02Y318100I4101J0*
G01*
G37*
X176650D02*
G36*
X160850D01*
G75*
G02X151650I-4600*
G01*
X150850*
G75*
G02X141650I-4600*
G01*
X140850*
G75*
G02X131650I-4600*
G01*
X120850*
Y318100*
G75*
G02X117110Y313581I-4600*
G01*
Y311973*
X177910*
Y314937*
G75*
G02X176650Y318099I3339J3162*
G01*
G75*
G02Y318100I4101J0*
G01*
G37*
X241650D02*
G36*
X225850D01*
G75*
G02X216650I-4600*
G01*
X215850*
G75*
G02X206650I-4600*
G01*
X205850*
G75*
G02X196650I-4600*
G01*
X185850*
Y318100*
G75*
G02X182110Y313581I-4600*
G01*
Y311973*
X244150*
Y314007*
G75*
G02X241650Y318100I2099J4092*
G01*
Y318100*
G37*
X306650D02*
G36*
X290850D01*
G75*
G02X281650I-4600*
G01*
X280850*
G75*
G02X271650I-4600*
G01*
X270850*
G75*
G02X261650I-4600*
G01*
X250850*
G75*
G02X248350Y314007I-4600J0*
G01*
Y311973*
X307910*
Y314937*
G75*
G02X306650Y318099I3339J3162*
G01*
G75*
G02Y318100I4101J0*
G01*
G37*
X371650D02*
G36*
X355850D01*
G75*
G02X346650I-4600*
G01*
X345850*
G75*
G02X336650I-4600*
G01*
X335850*
G75*
G02X326650I-4600*
G01*
X315850*
Y318100*
G75*
G02X312110Y313581I-4600*
G01*
Y311973*
X374150*
Y314007*
G75*
G02X371650Y318100I2099J4092*
G01*
Y318100*
G37*
X436650D02*
G36*
X420850D01*
G75*
G02X411650I-4600*
G01*
X410850*
G75*
G02X401650I-4600*
G01*
X400850*
G75*
G02X391650I-4600*
G01*
X380850*
G75*
G02X378350Y314007I-4600J0*
G01*
Y311973*
X439150*
Y314007*
G75*
G02X436650Y318100I2099J4092*
G01*
Y318100*
G37*
X496250D02*
G36*
X485850D01*
G75*
G02X476650I-4600*
G01*
X475850*
G75*
G02X466650I-4600*
G01*
X465850*
G75*
G02X456650I-4600*
G01*
X445850*
G75*
G02X443350Y314007I-4600J0*
G01*
Y311973*
X496250*
Y318100*
G37*
Y338100D02*
G36*
X485850D01*
G75*
G02X476650I-4600*
G01*
X475850*
G75*
G02X466650I-4600*
G01*
X465850*
G75*
G02X456650I-4600*
G01*
X445850*
G75*
G02X436650I-4600*
G01*
X420850*
G75*
G02X411650I-4600*
G01*
X410850*
G75*
G02X401650I-4600*
G01*
X400850*
G75*
G02X391650I-4600*
G01*
X380850*
G75*
G02X371650I-4600*
G01*
X355850*
G75*
G02X346650I-4600*
G01*
X345850*
G75*
G02X336650I-4600*
G01*
X335850*
G75*
G02X326650I-4600*
G01*
X315850*
G75*
G02X306650I-4600*
G01*
X290850*
G75*
G02X281650I-4600*
G01*
X280850*
G75*
G02X271650I-4600*
G01*
X270850*
G75*
G02X261650I-4600*
G01*
X250850*
G75*
G02X241650I-4600*
G01*
X225850*
G75*
G02X216650I-4600*
G01*
X215850*
G75*
G02X206650I-4600*
G01*
X205850*
G75*
G02X196650I-4600*
G01*
X185850*
G75*
G02X176650I-4600*
G01*
X160850*
G75*
G02X151650I-4600*
G01*
X150850*
G75*
G02X141650I-4600*
G01*
X140850*
G75*
G02X131650I-4600*
G01*
X120850*
G75*
G02X111650I-4600*
G01*
X95850*
G75*
G02X86650I-4600*
G01*
X85850*
G75*
G02X76650I-4600*
G01*
X75850*
G75*
G02X66650I-4600*
G01*
X55850*
G75*
G02X46650I-4600*
G01*
X36250*
Y318100*
X46650*
G75*
G02X55850I4600*
G01*
X66650*
G75*
G02X75850I4600*
G01*
X76650*
G75*
G02X85850I4600*
G01*
X86650*
G75*
G02X95850I4600*
G01*
X111650*
G75*
G02X120850I4600*
G01*
X131650*
G75*
G02X140850I4600*
G01*
X141650*
G75*
G02X150850I4600*
G01*
X151650*
G75*
G02X160850I4600*
G01*
X176650*
G75*
G02X185850I4600*
G01*
X196650*
G75*
G02X205850I4600*
G01*
X206650*
G75*
G02X215850I4600*
G01*
X216650*
G75*
G02X225850I4600*
G01*
X241650*
G75*
G02X250850I4600*
G01*
X261650*
G75*
G02X270850I4600*
G01*
X271650*
G75*
G02X280850I4600*
G01*
X281650*
G75*
G02X290850I4600*
G01*
X306650*
G75*
G02X315850I4600*
G01*
X326650*
G75*
G02X335850I4600*
G01*
X336650*
G75*
G02X345850I4600*
G01*
X346650*
G75*
G02X355850I4600*
G01*
X371650*
G75*
G02X380850I4600*
G01*
X391650*
G75*
G02X400850I4600*
G01*
X401650*
G75*
G02X410850I4600*
G01*
X411650*
G75*
G02X420850I4600*
G01*
X436650*
G75*
G02X445850I4600*
G01*
X456650*
G75*
G02X465850I4600*
G01*
X466650*
G75*
G02X475850I4600*
G01*
X476650*
G75*
G02X485850I4600*
G01*
X496250*
Y338100*
G37*
Y347800D02*
G36*
X36250D01*
Y338100*
X46650*
G75*
G02X55850I4600*
G01*
X66650*
G75*
G02X75850I4600*
G01*
X76650*
G75*
G02X85850I4600*
G01*
X86650*
G75*
G02X95850I4600*
G01*
X111650*
G75*
G02X120850I4600*
G01*
X131650*
G75*
G02X140850I4600*
G01*
X141650*
G75*
G02X150850I4600*
G01*
X151650*
G75*
G02X160850I4600*
G01*
X176650*
G75*
G02X185850I4600*
G01*
X196650*
G75*
G02X205850I4600*
G01*
X206650*
G75*
G02X215850I4600*
G01*
X216650*
G75*
G02X225850I4600*
G01*
X241650*
G75*
G02X250850I4600*
G01*
X261650*
G75*
G02X270850I4600*
G01*
X271650*
G75*
G02X280850I4600*
G01*
X281650*
G75*
G02X290850I4600*
G01*
X306650*
G75*
G02X315850I4600*
G01*
X326650*
G75*
G02X335850I4600*
G01*
X336650*
G75*
G02X345850I4600*
G01*
X346650*
G75*
G02X355850I4600*
G01*
X371650*
G75*
G02X380850I4600*
G01*
X391650*
G75*
G02X400850I4600*
G01*
X401650*
G75*
G02X410850I4600*
G01*
X411650*
G75*
G02X420850I4600*
G01*
X436650*
G75*
G02X445850I4600*
G01*
X456650*
G75*
G02X465850I4600*
G01*
X466650*
G75*
G02X475850I4600*
G01*
X476650*
G75*
G02X485850I4600*
G01*
X496250*
Y347800*
G37*
D02*
D11*
X6750Y250600D02*
X4650D01*
X6750Y280100D02*
X4650D01*
X9230Y68198D02*
X7130D01*
X9230Y88198D02*
X7130D01*
X11500Y140600D02*
X9400D01*
X11500Y150600D02*
X9400D01*
X11500Y160600D02*
X9400D01*
X11500Y170600D02*
X9400D01*
X11500Y180600D02*
X9400D01*
X11500Y190600D02*
X9400D01*
X11500Y200600D02*
X9400D01*
X13750Y63679D02*
Y61579D01*
Y72718D02*
Y74818D01*
Y83679D02*
Y81579D01*
Y92718D02*
Y94818D01*
Y138350D02*
Y136250D01*
Y142850D02*
Y144950D01*
Y148350D02*
Y146250D01*
Y152850D02*
Y154950D01*
Y158350D02*
Y156250D01*
Y162850D02*
Y164950D01*
Y168350D02*
Y166250D01*
Y172850D02*
Y174950D01*
Y178350D02*
Y176250D01*
Y182850D02*
Y184950D01*
Y188350D02*
Y186250D01*
Y192850D02*
Y194950D01*
Y198350D02*
Y196250D01*
Y202850D02*
Y204950D01*
Y210600D02*
X23750D01*
X13750Y243600D02*
Y241500D01*
Y257600D02*
Y259700D01*
Y273100D02*
Y271000D01*
Y287100D02*
Y289200D01*
X16000Y140600D02*
X18100D01*
X16000Y150600D02*
X18100D01*
X16000Y160600D02*
X18100D01*
X16000Y170600D02*
X18100D01*
X16000Y180600D02*
X18100D01*
X16000Y190600D02*
X18100D01*
X16000Y200600D02*
X18100D01*
X18270Y88198D02*
X20370D01*
X20750Y250600D02*
X22850D01*
X20750Y280100D02*
X22850D01*
X23750Y210600D02*
X45010D01*
X26450Y250600D02*
X24350D01*
X26450Y280100D02*
X24350D01*
X29230Y88198D02*
X27130D01*
X33450Y243600D02*
Y241500D01*
Y257600D02*
Y259700D01*
Y273100D02*
Y271000D01*
Y287100D02*
Y289200D01*
X33750Y63679D02*
Y61579D01*
Y72718D02*
Y74818D01*
Y83679D02*
Y81579D01*
Y92718D02*
Y94818D01*
X38270Y68198D02*
X40370D01*
X38270Y88198D02*
X40370D01*
X40450Y250600D02*
X42550D01*
X40450Y280100D02*
X42550D01*
X41250Y140600D02*
X51250D01*
X41250Y150600D02*
X51250D01*
X41250Y160600D02*
X51250D01*
X41250Y170600D02*
X51250D01*
X41250Y183100D02*
X51250D01*
X41250Y190600D02*
X51250D01*
X41750Y228100D02*
X39652D01*
X44250Y225850D02*
Y223750D01*
Y230350D02*
Y232450D01*
X48750Y33100D02*
X46650D01*
X48750Y338100D02*
X46650D01*
X51250Y30600D02*
Y28500D01*
Y35600D02*
Y37700D01*
Y318100D02*
X45010Y311860D01*
Y305600*
X51250Y335600D02*
Y333500D01*
Y340600D02*
Y342700D01*
X51500Y286100D02*
X49400D01*
X52490Y210600D02*
Y228100D01*
X53250*
X52490Y305600D02*
X53750D01*
Y295100*
Y33100D02*
X55850D01*
X53750Y283600D02*
Y281502D01*
Y286100D02*
X73750D01*
Y296100*
X53750Y338100D02*
X55850D01*
X56000Y286100D02*
X58100D01*
X68750Y13100D02*
X66650D01*
X68750Y33100D02*
X66650D01*
X68750Y318100D02*
X66650D01*
X68750Y338100D02*
X66650D01*
X70750Y93600D02*
X68650D01*
X70750Y161100D02*
X68650D01*
X70750Y228600D02*
X68650D01*
X70750Y296100D02*
X68650D01*
X71250Y15600D02*
Y17700D01*
Y30600D02*
Y28500D01*
Y35600D02*
Y37700D01*
Y315600D02*
Y313500D01*
Y320600D02*
Y322700D01*
Y335600D02*
Y333500D01*
Y340600D02*
Y342700D01*
X73750Y13100D02*
X75850D01*
X73750Y33100D02*
X75850D01*
X73750Y90600D02*
Y88500D01*
Y96600D02*
Y98700D01*
Y158100D02*
Y156000D01*
Y164100D02*
Y166200D01*
Y225600D02*
Y223500D01*
Y231600D02*
Y233700D01*
Y293100D02*
Y291000D01*
Y299100D02*
Y301200D01*
Y318100D02*
X75850D01*
X73750Y338100D02*
X75850D01*
X76750Y93600D02*
X78850D01*
X76750Y161100D02*
X78850D01*
X76750Y228600D02*
X78850D01*
X76750Y296100D02*
X78850D01*
X113750Y33100D02*
X111650D01*
X113750Y338100D02*
X111650D01*
X116250Y30600D02*
Y28500D01*
Y35600D02*
Y37700D01*
Y318100D02*
X115010D01*
Y305600*
X116250Y335600D02*
Y333500D01*
Y340600D02*
Y342700D01*
X118750Y33100D02*
X120850D01*
X118750Y338100D02*
X120850D01*
X121250Y80600D02*
X133750D01*
X121250Y88100D02*
X133750D01*
X121500Y286100D02*
X119400D01*
X122490Y305600D02*
X123750D01*
Y295100*
Y170600D02*
X133750D01*
X123750Y178100D02*
X133750D01*
X123750Y185600D02*
X133750D01*
X123750Y283600D02*
Y281502D01*
Y286100D02*
X143750D01*
Y296100*
X126000Y286100D02*
X128100D01*
X133750Y13100D02*
X131650D01*
X133750Y33100D02*
X131650D01*
X133750Y318100D02*
X131650D01*
X133750Y338100D02*
X131650D01*
X136250Y10600D02*
Y8500D01*
Y15600D02*
Y17700D01*
Y30600D02*
Y28500D01*
Y35600D02*
Y37700D01*
Y315600D02*
Y313500D01*
Y320600D02*
Y322700D01*
Y335600D02*
Y333500D01*
Y340600D02*
Y342700D01*
X138750Y13100D02*
X140850D01*
X138750Y33100D02*
X140850D01*
X138750Y318100D02*
X140850D01*
X138750Y338100D02*
X140850D01*
X140750Y93600D02*
X138650D01*
X140750Y161100D02*
X138650D01*
X140750Y228600D02*
X138650D01*
X140750Y296100D02*
X138650D01*
X143750Y90600D02*
Y88500D01*
Y96600D02*
Y98700D01*
Y158100D02*
Y156000D01*
Y164100D02*
Y166200D01*
Y225600D02*
Y223500D01*
Y231600D02*
Y233700D01*
Y293100D02*
Y291000D01*
Y299100D02*
Y301200D01*
X146750Y93600D02*
X148850D01*
X146750Y161100D02*
X148850D01*
X146750Y228600D02*
X148850D01*
X146750Y296100D02*
X148850D01*
X178750Y33100D02*
X176650D01*
X178750Y338100D02*
X176650D01*
X181250Y30600D02*
Y28500D01*
Y35600D02*
Y37700D01*
Y318100D02*
X180010D01*
Y305600*
X181250Y335600D02*
Y333500D01*
Y340600D02*
Y342700D01*
X183750Y33100D02*
X185850D01*
X183750Y338100D02*
X185850D01*
X187490Y305600D02*
Y297600D01*
X196250*
X194000Y288600D02*
X191900D01*
X196250Y286100D02*
Y284002D01*
Y288600D02*
X213750D01*
Y291600*
X198500Y288600D02*
X200600D01*
X198750Y13100D02*
X196650D01*
X198750Y33100D02*
X196650D01*
X198750Y80600D02*
X208750D01*
X198750Y88100D02*
X208750D01*
X198750Y170600D02*
X208750D01*
X198750Y318100D02*
X196650D01*
X198750Y338100D02*
X196650D01*
X201250Y10600D02*
Y8500D01*
Y15600D02*
Y17700D01*
Y30600D02*
Y28500D01*
Y35600D02*
Y37700D01*
Y315600D02*
Y313500D01*
Y320600D02*
Y322700D01*
Y335600D02*
Y333500D01*
Y340600D02*
Y342700D01*
X203750Y13100D02*
X205850D01*
X203750Y33100D02*
X205850D01*
X203750Y318100D02*
X205850D01*
X203750Y338100D02*
X205850D01*
X208750Y180600D02*
X206250Y178100D01*
X198750*
X210750Y163600D02*
X208650D01*
X210750Y231100D02*
X208650D01*
X211100Y291600D02*
X209000D01*
X213600Y99100D02*
X211500D01*
X213750Y160600D02*
Y158500D01*
Y166600D02*
Y168700D01*
Y228100D02*
Y226000D01*
Y234100D02*
Y236200D01*
Y288950D02*
Y286850D01*
Y294250D02*
Y296350D01*
X216250Y96450D02*
Y94350D01*
Y101750D02*
Y103850D01*
X216400Y291600D02*
X218500D01*
X216750Y163600D02*
X218850D01*
X216750Y231100D02*
X218850D01*
X218900Y99100D02*
X221000D01*
X243750Y33100D02*
X241650D01*
X243750Y338100D02*
X241650D01*
X246250Y30600D02*
Y28500D01*
Y35600D02*
Y37700D01*
Y318100D02*
Y305600D01*
X245010*
X246250Y335600D02*
Y333500D01*
Y340600D02*
Y342700D01*
X248750Y33100D02*
X250850D01*
X248750Y338100D02*
X250850D01*
X252490Y305600D02*
X258750D01*
Y295100*
X253750Y175600D02*
X273750D01*
X256500Y286100D02*
X254400D01*
X258750Y88100D02*
X276250D01*
X258750Y93100D02*
X273750D01*
X258750Y283600D02*
Y281502D01*
Y286100D02*
Y289100D01*
X278750*
X261000Y286100D02*
X263100D01*
X263750Y13100D02*
X261650D01*
X263750Y33100D02*
X261650D01*
X263750Y318100D02*
X261650D01*
X263750Y338100D02*
X261650D01*
X266250Y10600D02*
Y8500D01*
Y15600D02*
Y17700D01*
Y30600D02*
Y28500D01*
Y35600D02*
Y37700D01*
Y315600D02*
Y313500D01*
Y320600D02*
Y322700D01*
Y335600D02*
Y333500D01*
Y340600D02*
Y342700D01*
X268750Y13100D02*
X270850D01*
X268750Y33100D02*
X270850D01*
X268750Y318100D02*
X270850D01*
X268750Y338100D02*
X270850D01*
X276100Y99100D02*
X274000D01*
X276100Y164100D02*
X274000D01*
X276100Y226600D02*
X274000D01*
X276100Y289100D02*
X274000D01*
X278750Y96450D02*
Y94350D01*
Y101750D02*
Y103850D01*
Y161450D02*
Y159350D01*
Y166750D02*
Y168850D01*
Y223950D02*
Y221850D01*
Y229250D02*
Y231350D01*
Y286450D02*
Y284350D01*
Y291750D02*
Y293850D01*
X281400Y99100D02*
X283500D01*
X281400Y164100D02*
X283500D01*
X281400Y226600D02*
X283500D01*
X281400Y289100D02*
X283500D01*
X308750Y33100D02*
X306650D01*
X308750Y338100D02*
X306650D01*
X311250Y30600D02*
Y28500D01*
Y35600D02*
Y37700D01*
Y318100D02*
X310010D01*
Y305600*
X311250Y335600D02*
Y333500D01*
Y340600D02*
Y342700D01*
X313750Y33100D02*
X315850D01*
X313750Y338100D02*
X315850D01*
X317490Y305600D02*
X323750D01*
Y297600*
X326250*
X324000Y288600D02*
X321900D01*
X326250Y90600D02*
X331250D01*
X336250Y85600*
X338750*
X326250Y98100D02*
X333750D01*
X338750Y93100*
X326250Y286100D02*
Y284002D01*
Y288600D02*
X346250D01*
Y289100*
X328500Y288600D02*
X330600D01*
X328750Y13100D02*
X326650D01*
X328750Y33100D02*
X326650D01*
X328750Y318100D02*
X326650D01*
X328750Y338100D02*
X326650D01*
X331250Y10600D02*
Y8500D01*
Y15600D02*
Y17700D01*
Y30600D02*
Y28500D01*
Y35600D02*
Y37700D01*
Y315600D02*
Y313500D01*
Y320600D02*
Y322700D01*
Y335600D02*
Y333500D01*
Y340600D02*
Y342700D01*
X333750Y13100D02*
X335850D01*
X333750Y33100D02*
X335850D01*
X333750Y318100D02*
X335850D01*
X333750Y338100D02*
X335850D01*
X343600Y99100D02*
X341500D01*
X343600Y164100D02*
X341500D01*
X343600Y229100D02*
X341500D01*
X343600Y289100D02*
X341500D01*
X346250Y96450D02*
Y94350D01*
Y101750D02*
Y103850D01*
Y161450D02*
Y159350D01*
Y166750D02*
Y168850D01*
Y226450D02*
Y224350D01*
Y231750D02*
Y233850D01*
Y286450D02*
Y284350D01*
Y291750D02*
Y293850D01*
X348900Y99100D02*
X351000D01*
X348900Y164100D02*
X351000D01*
X348900Y229100D02*
X351000D01*
X348900Y289100D02*
X351000D01*
X373750Y33100D02*
X371650D01*
X373750Y338100D02*
X371650D01*
X376250Y30600D02*
Y28500D01*
Y35600D02*
Y37700D01*
Y318100D02*
Y305600D01*
X375010*
X376250Y335600D02*
Y333500D01*
Y340600D02*
Y342700D01*
X378750Y33100D02*
X380850D01*
X378750Y338100D02*
X380850D01*
X382490Y305600D02*
X393750D01*
Y300100*
X391500Y291100D02*
X389400D01*
X393750Y13100D02*
X391650D01*
X393750Y33100D02*
X391650D01*
X393750Y88100D02*
X403750D01*
X393750Y288600D02*
Y286502D01*
Y318100D02*
X391650D01*
X393750Y338100D02*
X391650D01*
X396000Y291100D02*
X398100D01*
X396250Y10600D02*
Y8500D01*
Y15600D02*
Y17700D01*
Y30600D02*
Y28500D01*
Y35600D02*
Y37700D01*
Y315600D02*
Y313500D01*
Y320600D02*
Y322700D01*
Y335600D02*
Y333500D01*
Y340600D02*
Y342700D01*
X398750Y13100D02*
X400850D01*
X398750Y33100D02*
X400850D01*
X398750Y318100D02*
X400850D01*
X398750Y338100D02*
X400850D01*
X408600Y96600D02*
X406500D01*
X408600Y161600D02*
X406500D01*
X408600Y226600D02*
X406500D01*
X408600Y289100D02*
X406500D01*
X411250Y93950D02*
Y91850D01*
Y99250D02*
Y101350D01*
Y158950D02*
Y156850D01*
Y164250D02*
Y166350D01*
Y223950D02*
Y221850D01*
Y229250D02*
Y231350D01*
Y286450D02*
Y284350D01*
Y289100D02*
Y291100D01*
X393750*
X411250Y291750D02*
Y293850D01*
X413900Y96600D02*
X416000D01*
X413900Y161600D02*
X416000D01*
X413900Y226600D02*
X416000D01*
X413900Y289100D02*
X416000D01*
X438750Y33100D02*
X436650D01*
X438750Y338100D02*
X436650D01*
X441250Y30600D02*
Y28500D01*
Y35600D02*
Y37700D01*
Y318100D02*
Y305600D01*
X442510*
X441250Y335600D02*
Y333500D01*
Y340600D02*
Y342700D01*
X443750Y33100D02*
X445850D01*
X443750Y338100D02*
X445850D01*
X449990Y305600D02*
X456250D01*
Y302600*
X458750*
X456500Y293600D02*
X454400D01*
X458750Y13100D02*
X456650D01*
X458750Y33100D02*
X456650D01*
X458750Y291100D02*
Y289002D01*
Y318100D02*
X456650D01*
X458750Y338100D02*
X456650D01*
X461000Y293600D02*
X463100D01*
X461250Y10600D02*
Y8500D01*
Y15600D02*
Y17700D01*
Y30600D02*
Y28500D01*
Y35600D02*
Y37700D01*
Y315600D02*
Y313500D01*
Y320600D02*
Y322700D01*
Y335600D02*
Y333500D01*
Y340600D02*
Y342700D01*
X463750Y13100D02*
X465850D01*
X463750Y33100D02*
X465850D01*
X463750Y318100D02*
X465850D01*
X463750Y338100D02*
X465850D01*
X478600Y232100D02*
X476500D01*
X481100Y89100D02*
X479000D01*
X481250Y229450D02*
Y227350D01*
Y234750D02*
Y236850D01*
X483750Y86450D02*
Y84350D01*
Y91750D02*
Y93850D01*
X483900Y232100D02*
X486000D01*
X486400Y89100D02*
X488500D01*
X487600Y125600D02*
X485500D01*
X490250Y122950D02*
Y120850D01*
Y128250D02*
Y130350D01*
X492900Y125600D02*
X495000D01*
X504230Y270698D02*
X502130D01*
X504230Y290698D02*
X502130D01*
X508750Y266179D02*
Y264079D01*
Y275218D02*
Y277318D01*
Y286179D02*
Y284079D01*
Y295218D02*
Y297318D01*
X513270Y270698D02*
X515370D01*
X513270Y290698D02*
X515370D01*
X514600Y190600D02*
X512500D01*
X517250Y187950D02*
Y185850D01*
Y193250D02*
Y195350D01*
X519900Y190600D02*
X522000D01*
X524230Y270698D02*
X522130D01*
X524230Y290698D02*
X522130D01*
X528750Y266179D02*
Y264079D01*
Y275218D02*
Y277318D01*
Y286179D02*
Y284079D01*
Y295218D02*
Y297318D01*
X533270Y270698D02*
X535370D01*
X533270Y290698D02*
X535370D01*
D02*
D12*
X21250Y20600D03*
Y330600D03*
X521250Y20600D03*
Y330600D03*
D02*
D13*
X41250Y140600D03*
Y150600D03*
Y160600D03*
Y170600D03*
Y183100D03*
Y190600D03*
X51250Y140600D03*
Y150600D03*
Y160600D03*
Y170600D03*
Y183100D03*
Y190600D03*
X91250Y5600D03*
X121250Y80600D03*
Y88100D03*
X123750Y170600D03*
Y178100D03*
Y185600D03*
X133750Y80600D03*
Y88100D03*
Y170600D03*
Y178100D03*
Y185600D03*
X198750Y80600D03*
Y88100D03*
Y170600D03*
Y178100D03*
X208750Y80600D03*
Y88100D03*
Y170600D03*
Y180600D03*
X253750Y175600D03*
X258750Y88100D03*
Y93100D03*
X273750D03*
Y175600D03*
X276250Y88100D03*
X326250Y90600D03*
Y98100D03*
X338750Y85600D03*
Y93100D03*
X393750Y88100D03*
X403750D03*
D02*
D14*
X51250Y13100D03*
Y33100D03*
Y318100D03*
Y338100D03*
X71250Y13100D03*
Y33100D03*
Y318100D03*
Y338100D03*
X81250Y13100D03*
Y33100D03*
Y318100D03*
Y338100D03*
X91250Y13100D03*
Y33100D03*
Y318100D03*
Y338100D03*
X116250Y13100D03*
Y33100D03*
Y318100D03*
Y338100D03*
X136250Y13100D03*
Y33100D03*
Y318100D03*
Y338100D03*
X146250Y13100D03*
Y33100D03*
Y318100D03*
Y338100D03*
X156250Y13100D03*
Y33100D03*
Y318100D03*
Y338100D03*
X181250Y13100D03*
Y33100D03*
Y318100D03*
Y338100D03*
X201250Y13100D03*
Y33100D03*
Y318100D03*
Y338100D03*
X211250Y13100D03*
Y33100D03*
Y318100D03*
Y338100D03*
X221250Y13100D03*
Y33100D03*
Y318100D03*
Y338100D03*
X246250Y13100D03*
Y33100D03*
Y318100D03*
Y338100D03*
X266250Y13100D03*
Y33100D03*
Y318100D03*
Y338100D03*
X276250Y13100D03*
Y33100D03*
Y318100D03*
Y338100D03*
X286250Y13100D03*
Y33100D03*
Y318100D03*
Y338100D03*
X311250Y13100D03*
Y33100D03*
Y318100D03*
Y338100D03*
X331250Y13100D03*
Y33100D03*
Y318100D03*
Y338100D03*
X341250Y13100D03*
Y33100D03*
Y318100D03*
Y338100D03*
X351250Y13100D03*
Y33100D03*
Y318100D03*
Y338100D03*
X376250Y13100D03*
Y33100D03*
Y318100D03*
Y338100D03*
X396250Y13100D03*
Y33100D03*
Y318100D03*
Y338100D03*
X406250Y13100D03*
Y33100D03*
Y318100D03*
Y338100D03*
X416250Y13100D03*
Y33100D03*
Y318100D03*
Y338100D03*
X441250Y13100D03*
Y33100D03*
Y318100D03*
Y338100D03*
X461250Y13100D03*
Y33100D03*
Y318100D03*
Y338100D03*
X471250Y13100D03*
Y33100D03*
Y318100D03*
Y338100D03*
X481250Y13100D03*
Y33100D03*
Y318100D03*
Y338100D03*
D02*
D70*
X53750Y286100D03*
Y295100D03*
X123750Y286100D03*
Y295100D03*
X196250Y288600D03*
Y297600D03*
X258750Y286100D03*
Y295100D03*
X326250Y288600D03*
Y297600D03*
X393750Y291100D03*
Y300100D03*
X458750Y293600D03*
Y302600D03*
D02*
D71*
X213750Y265600D03*
Y291600D03*
X216250Y73100D03*
Y99100D03*
X278750Y73100D03*
Y99100D03*
Y138100D03*
Y164100D03*
Y200600D03*
Y226600D03*
Y263100D03*
Y289100D03*
X346250Y73100D03*
Y99100D03*
Y138100D03*
Y164100D03*
Y203100D03*
Y229100D03*
Y263100D03*
Y289100D03*
X411250Y70600D03*
Y96600D03*
Y135600D03*
Y161600D03*
Y200600D03*
Y226600D03*
Y263100D03*
Y289100D03*
X481250Y232100D03*
Y258100D03*
X483750Y63100D03*
Y89100D03*
X490250Y125600D03*
X491250Y190600D03*
X516250Y125600D03*
X517250Y190600D03*
D02*
D21*
X23750Y78198D03*
X518750Y280698D03*
D02*
D22*
X13750Y68198D03*
Y88198D03*
X33750Y68198D03*
Y88198D03*
X508750Y270698D03*
Y290698D03*
X528750Y270698D03*
Y290698D03*
D02*
D25*
X44250Y228100D03*
X53250D03*
D02*
D26*
X45010Y210600D03*
Y305600D03*
X52490Y210600D03*
Y305600D03*
X115010D03*
X122490D03*
X180010D03*
X187490D03*
X245010D03*
X252490D03*
X310010D03*
X317490D03*
X375010D03*
X382490D03*
X442510D03*
X449990D03*
D02*
D73*
X13750Y140600D03*
Y150600D03*
Y160600D03*
Y170600D03*
Y180600D03*
Y190600D03*
Y200600D03*
Y210600D03*
X23750Y140600D03*
Y150600D03*
Y160600D03*
Y170600D03*
Y180600D03*
Y190600D03*
Y200600D03*
Y210600D03*
D02*
D84*
X91250Y5600D02*
X61250D01*
Y38100*
X46250Y53100*
X31250*
X23750Y60600*
Y78198*
D02*
D107*
X95750Y103100D03*
Y188100D03*
Y273100D03*
X121750Y72100D03*
Y157100D03*
Y242100D03*
X165750Y103100D03*
Y190600D03*
Y275600D03*
X191750Y72100D03*
Y159600D03*
Y244600D03*
D02*
D108*
X73750Y58600D03*
Y93600D03*
Y126100D03*
Y161100D03*
Y193600D03*
Y228600D03*
Y261100D03*
Y296100D03*
X143750Y58600D03*
Y93600D03*
Y126100D03*
Y161100D03*
Y193600D03*
Y228600D03*
Y261100D03*
Y296100D03*
X213750Y128600D03*
Y163600D03*
Y196100D03*
Y231100D03*
X235750Y100600D03*
Y188100D03*
Y265600D03*
X261750Y80600D03*
Y168100D03*
Y245600D03*
X298250Y103100D03*
Y185600D03*
Y268100D03*
X324250Y83100D03*
Y165600D03*
Y248100D03*
X365750Y100600D03*
Y185600D03*
Y270600D03*
X391750Y80600D03*
Y165600D03*
Y250600D03*
X430750Y113100D03*
Y270600D03*
X433250Y185600D03*
X456750Y93100D03*
Y250600D03*
X459250Y165600D03*
X481250Y158100D03*
X516250Y65600D03*
Y100600D03*
X518750Y210600D03*
Y245600D03*
X526250Y158100D03*
D02*
D109*
X13750Y250600D03*
Y280100D03*
X33450Y250600D03*
Y280100D03*
X0Y0D02*
M02*
