G04 EasyPC Gerber Version 20.0.2 Build 4112 *
G04 #@! TF.Part,Single*
G04 #@! TF.FileFunction,Legend,Top *
%FSLAX35Y35*%
%MOIN*%
%ADD15C,0.00100*%
%ADD143C,0.00300*%
%ADD11C,0.00500*%
%ADD142C,0.00600*%
%ADD14C,0.00787*%
%ADD13C,0.00800*%
%ADD12C,0.01000*%
%ADD10C,0.01200*%
X0Y0D02*
D02*
D10*
X680250Y344250D02*
X1280250D01*
Y694250*
X680250*
Y344250*
X867017Y659538D02*
G75*
G03Y656005J-1767D01*
G01*
G75*
G03Y659538J1767*
G01*
G36*
G75*
G03Y656005J-1767*
G01*
G75*
G03Y659538J1767*
G01*
G37*
X929517Y669538D02*
G75*
G03Y666005J-1767D01*
G01*
G75*
G03Y669538J1767*
G01*
G36*
G75*
G03Y666005J-1767*
G01*
G75*
G03Y669538J1767*
G01*
G37*
X1082017D02*
G75*
G03Y666005J-1767D01*
G01*
G75*
G03Y669538J1767*
G01*
G36*
G75*
G03Y666005J-1767*
G01*
G75*
G03Y669538J1767*
G01*
G37*
D02*
D11*
X681750Y512187D02*
Y515937D01*
X683937*
X684563Y515625*
X684875Y515000*
X684563Y514375*
X683937Y514063*
X681750*
X683937D02*
X684875Y512187D01*
X687687Y514063D02*
X688313D01*
X688937Y514375*
X689250Y515000*
X688937Y515625*
X688313Y515937*
X687687*
X687063Y515625*
X686750Y515000*
X687063Y514375*
X687687Y514063*
X687063Y513750*
X686750Y513125*
X687063Y512500*
X687687Y512187*
X688313*
X688937Y512500*
X689250Y513125*
X688937Y513750*
X688313Y514063*
X692063Y512500D02*
X692687Y512187D01*
X693313*
X693937Y512500*
X694250Y513125*
X693937Y513750*
X693313Y514063*
X692687*
X693313D02*
X693937Y514375D01*
X694250Y515000*
X693937Y515625*
X693313Y515937*
X692687*
X692063Y515625*
X681750Y556687D02*
Y560437D01*
X683937*
X684563Y560125*
X684875Y559500*
X684563Y558875*
X683937Y558563*
X681750*
X683937D02*
X684875Y556687D01*
X687687Y558563D02*
X688313D01*
X688937Y558875*
X689250Y559500*
X688937Y560125*
X688313Y560437*
X687687*
X687063Y560125*
X686750Y559500*
X687063Y558875*
X687687Y558563*
X687063Y558250*
X686750Y557625*
X687063Y557000*
X687687Y556687*
X688313*
X688937Y557000*
X689250Y557625*
X688937Y558250*
X688313Y558563*
X692375Y556687D02*
X693625D01*
X693000D02*
Y560437D01*
X692375Y559813*
X682017Y572601D02*
Y574851D01*
X683892*
X683517Y573726D02*
X682017D01*
Y600101D02*
Y602351D01*
X683329*
X683704Y602163*
X683892Y601788*
X683704Y601413*
X683329Y601226*
X682017*
X683329D02*
X683892Y600101D01*
X682017Y612601D02*
Y614851D01*
X683892*
X683517Y613726D02*
X682017D01*
Y647601D02*
Y649851D01*
X683329*
X683704Y649663*
X683892Y649288*
X683704Y648913*
X683329Y648726*
X682017*
X683329D02*
X683892Y647601D01*
X682750Y565187D02*
Y568937D01*
X684937*
X685563Y568625*
X685875Y568000*
X685563Y567375*
X684937Y567063*
X682750*
X687750Y568937D02*
Y565187D01*
X690875*
X693375D02*
X694625D01*
X694000D02*
Y568937D01*
X693375Y568313*
X682750Y607687D02*
Y611437D01*
X684937*
X685563Y611125*
X685875Y610500*
X685563Y609875*
X684937Y609563*
X682750*
X687750Y611437D02*
Y607687D01*
X690875*
X695250D02*
X692750D01*
X694937Y609875*
X695250Y610500*
X694937Y611125*
X694313Y611437*
X693375*
X692750Y611125*
X683750Y555250D02*
Y533250D01*
X691750*
Y555250*
X683750*
X684250Y522750D02*
X706250D01*
Y530750*
X684250*
Y522750*
X683954Y577038D02*
X681704Y577976D01*
X683954Y578913*
X683017Y577413D02*
Y578538D01*
X683954Y580038D02*
X682454D01*
X683017D02*
X682641Y580226D01*
X682454Y580601*
Y580976*
X682641Y581351*
X683017Y584538D02*
X682641Y584351D01*
X682454Y583976*
Y583601*
X682641Y583226*
X683017Y583038*
X683391*
X683767Y583226*
X683954Y583601*
Y583976*
X683767Y584351*
X683391Y584538*
X683954D02*
X681704D01*
X682454Y586038D02*
X683391D01*
X683767Y586226*
X683954Y586601*
Y586976*
X683767Y587351*
X683391Y587538*
X682454D02*
X683954D01*
Y589788D02*
X682454D01*
X681891D02*
X683954Y592038*
X682454D01*
X683017D02*
X682641Y592226D01*
X682454Y592601*
Y592976*
X682641Y593351*
X683017Y593538*
X683954*
X683391Y595038D02*
X683767Y595226D01*
X683954Y595601*
Y595976*
X683767Y596351*
X683391Y596538*
X683017*
X682641Y596351*
X682454Y595976*
Y595601*
X682641Y595226*
X683017Y595038*
X683391*
X683954Y617038D02*
X681704D01*
Y618351*
X681891Y618726*
X682267Y618913*
X682641Y618726*
X682829Y618351*
Y617038*
Y618351D02*
X683954Y618913D01*
X683767Y621538D02*
X683954Y621351D01*
Y620976*
Y620601*
X683767Y620226*
X683391Y620038*
X682829*
X682641Y620226*
X682454Y620601*
Y620976*
X682641Y621351*
X682829Y621538*
X683017*
X683204Y621351*
X683391Y620976*
Y620601*
X683204Y620226*
X683017Y620038*
Y624538D02*
X682641Y624351D01*
X682454Y623976*
Y623601*
X682641Y623226*
X683017Y623038*
X683391*
X683767Y623226*
X683954Y623601*
Y623976*
X683767Y624351*
X683391Y624538*
X683954D02*
X681704D01*
X683954Y629038D02*
X681704D01*
Y630351*
X681891Y630726*
X682267Y630913*
X682641Y630726*
X682829Y630351*
Y629038*
X683954Y632788D02*
X682454D01*
X681891D02*
X682454Y635413*
Y636163D01*
X682079Y635788D02*
X683767D01*
X683954Y635976*
Y636163*
X683767Y636351*
X682641Y638038D02*
X682454Y638413D01*
Y638976*
X682641Y639351*
X683017Y639538*
X683579*
X683767Y639351*
X683954Y638976*
Y638601*
X683767Y638226*
X683579Y638038*
X683391*
X683204Y638226*
X683017Y638601*
Y638976*
X683204Y639351*
X683391Y639538*
X683579D02*
X683954D01*
X682454Y641038D02*
X683204Y641226D01*
X683579Y641601*
Y641976*
X683204Y642351*
X682454Y642538*
X683204Y642351D02*
X683954Y642163D01*
X684329Y641976*
X684517Y641601*
X684329Y641226*
X682641Y644038D02*
X682454Y644413D01*
Y644976*
X682641Y645351*
X683017Y645538*
X683579*
X683767Y645351*
X683954Y644976*
Y644601*
X683767Y644226*
X683579Y644038*
X683391*
X683204Y644226*
X683017Y644601*
Y644976*
X683204Y645351*
X683391Y645538*
X683579D02*
X683954D01*
X688267Y442788D02*
Y445788D01*
X687017D02*
X689517D01*
X691017Y442788D02*
X693517Y445788D01*
X691017D02*
X693517Y442788D01*
X699017Y443538D02*
X699267Y443038D01*
X699767Y442788*
X700767*
X701267Y443038*
X701517Y443538*
X701267Y444038*
X700767Y444288*
X699767*
X699267Y444538*
X699017Y445038*
X699267Y445538*
X699767Y445788*
X700767*
X701267Y445538*
X701517Y445038*
X703017Y444538D02*
X703517Y444788D01*
X704267*
X704767Y444538*
X705017Y444038*
Y443288*
X704767Y443038*
X704267Y442788*
X703767*
X703267Y443038*
X703017Y443288*
Y443538*
X703267Y443788*
X703767Y444038*
X704267*
X704767Y443788*
X705017Y443538*
Y443288D02*
Y442788D01*
X707017D02*
Y444788D01*
Y444538D02*
X707267Y444788D01*
X707767*
X708017Y444538*
Y443788*
Y444538D02*
X708267Y444788D01*
X708767*
X709017Y444538*
Y442788*
X711017Y444788D02*
Y442038D01*
Y443538D02*
X711267Y443038D01*
X711767Y442788*
X712267*
X712767Y443038*
X713017Y443538*
Y444038*
X712767Y444538*
X712267Y444788*
X711767*
X711267Y444538*
X711017Y444038*
Y443538*
X716267Y442788D02*
X716017D01*
Y445788*
X721017Y443038D02*
X720767Y442788D01*
X720267*
X719767*
X719267Y443038*
X719017Y443538*
Y444288*
X719267Y444538*
X719767Y444788*
X720267*
X720767Y444538*
X721017Y444288*
Y444038*
X720767Y443788*
X720267Y443538*
X719767*
X719267Y443788*
X719017Y444038*
X695250Y497687D02*
Y501437D01*
X697437*
X698063Y501125*
X698375Y500500*
X698063Y499875*
X697437Y499563*
X695250*
X697437D02*
X698375Y497687D01*
X700250Y498000D02*
X700875Y497687D01*
X701813*
X702437Y498000*
X702750Y498625*
Y498937*
X702437Y499563*
X701813Y499875*
X700250*
Y501437*
X702750*
X698375Y649813D02*
X698063Y649500D01*
X697437Y649187*
X696500*
X695875Y649500*
X695563Y649813*
X695250Y650437*
Y651687*
X695563Y652313*
X695875Y652625*
X696500Y652937*
X697437*
X698063Y652625*
X698375Y652313*
X700875Y649187D02*
X702125D01*
X701500D02*
Y652937D01*
X700875Y652313*
X705250Y649187D02*
X707750Y652937D01*
X705250*
X695750Y488187D02*
Y491937D01*
X697937*
X698563Y491625*
X698875Y491000*
X698563Y490375*
X697937Y490063*
X695750*
X697937D02*
X698875Y488187D01*
X702313D02*
Y491937D01*
X700750Y489437*
X703250*
X699375Y558813D02*
X699063Y558500D01*
X698437Y558187*
X697500*
X696875Y558500*
X696563Y558813*
X696250Y559437*
Y560687*
X696563Y561313*
X696875Y561625*
X697500Y561937*
X698437*
X699063Y561625*
X699375Y561313*
X703750Y558187D02*
X701250D01*
X703437Y560375*
X703750Y561000*
X703437Y561625*
X702813Y561937*
X701875*
X701250Y561625*
X706250Y559125D02*
X706563Y559750D01*
X707187Y560063*
X707813*
X708437Y559750*
X708750Y559125*
X708437Y558500*
X707813Y558187*
X707187*
X706563Y558500*
X706250Y559125*
Y560063*
X706563Y561000*
X707187Y561625*
X707813Y561937*
X696750Y508687D02*
Y512437D01*
X698937*
X699563Y512125*
X699875Y511500*
X699563Y510875*
X698937Y510563*
X696750*
X698937D02*
X699875Y508687D01*
X702375D02*
X703625D01*
X703000D02*
Y512437D01*
X702375Y511813*
X707063Y509000D02*
X707687Y508687D01*
X708313*
X708937Y509000*
X709250Y509625*
Y511500*
X708937Y512125*
X708313Y512437*
X707687*
X707063Y512125*
X706750Y511500*
Y509625*
X707063Y509000*
X708937Y512125*
X699875Y600813D02*
X699563Y600500D01*
X698937Y600187*
X698000*
X697375Y600500*
X697063Y600813*
X696750Y601437*
Y602687*
X697063Y603313*
X697375Y603625*
X698000Y603937*
X698937*
X699563Y603625*
X699875Y603313*
X704250Y600187D02*
X701750D01*
X703937Y602375*
X704250Y603000*
X703937Y603625*
X703313Y603937*
X702375*
X701750Y603625*
X706750Y600187D02*
X709250Y603937D01*
X706750*
X700375Y607313D02*
X700063Y607000D01*
X699437Y606687*
X698500*
X697875Y607000*
X697563Y607313*
X697250Y607937*
Y609187*
X697563Y609813*
X697875Y610125*
X698500Y610437*
X699437*
X700063Y610125*
X700375Y609813*
X704750Y606687D02*
X702250D01*
X704437Y608875*
X704750Y609500*
X704437Y610125*
X703813Y610437*
X702875*
X702250Y610125*
X707875Y606687D02*
X709125D01*
X708500D02*
Y610437D01*
X707875Y609813*
X697813Y536750D02*
X694063D01*
Y538937*
X694375Y539563*
X695000Y539875*
X695625Y539563*
X695937Y538937*
Y536750*
Y538937D02*
X697813Y539875D01*
X695937Y542687D02*
Y543313D01*
X695625Y543937*
X695000Y544250*
X694375Y543937*
X694063Y543313*
Y542687*
X694375Y542063*
X695000Y541750*
X695625Y542063*
X695937Y542687*
X696250Y542063*
X696875Y541750*
X697500Y542063*
X697813Y542687*
Y543313*
X697500Y543937*
X696875Y544250*
X696250Y543937*
X695937Y543313*
X697813Y549250D02*
Y546750D01*
X695625Y548937*
X695000Y549250*
X694375Y548937*
X694063Y548313*
Y547375*
X694375Y546750*
X698750Y555250D02*
Y533250D01*
X706750*
Y555250*
X698750*
X699250Y579750D02*
Y563750D01*
X706250*
Y579750*
X699250*
Y627250D02*
Y611250D01*
X706250*
Y627250*
X699250*
X704250Y485250D02*
X726250D01*
Y493250*
X704250*
Y485250*
Y495250D02*
X726250D01*
Y503250*
X704250*
Y495250*
X706250Y583750D02*
Y599750D01*
X699250*
Y583750*
X706250*
Y631250D02*
Y647250D01*
X699250*
Y631250*
X706250*
X706313Y428750D02*
X702563D01*
Y430937*
X702875Y431563*
X703500Y431875*
X704125Y431563*
X704437Y430937*
Y428750*
Y430937D02*
X706313Y431875D01*
X706000Y434063D02*
X706313Y434687D01*
Y435313*
X706000Y435937*
X705375Y436250*
X704750Y435937*
X704437Y435313*
Y434687*
Y435313D02*
X704125Y435937D01*
X703500Y436250*
X702875Y435937*
X702563Y435313*
Y434687*
X702875Y434063*
X707750Y437250D02*
Y421250D01*
X714750*
Y437250*
X707750*
X708750Y555250D02*
Y533250D01*
X716750*
Y555250*
X708750*
X709250Y522750D02*
X731250D01*
Y530750*
X709250*
Y522750*
Y579750D02*
Y563750D01*
X716250*
Y579750*
X709250*
Y627250D02*
Y611250D01*
X716250*
Y627250*
X709250*
X710750Y520250D02*
X694750D01*
Y513250*
X710750*
Y520250*
X711750Y649687D02*
Y653437D01*
X713937*
X714563Y653125*
X714875Y652500*
X714563Y651875*
X713937Y651563*
X711750*
X713937D02*
X714875Y649687D01*
X716750D02*
X719250Y653437D01*
X716750*
X721750Y650625D02*
X722063Y651250D01*
X722687Y651563*
X723313*
X723937Y651250*
X724250Y650625*
X723937Y650000*
X723313Y649687*
X722687*
X722063Y650000*
X721750Y650625*
Y651563*
X722063Y652500*
X722687Y653125*
X723313Y653437*
X712250Y558187D02*
Y561937D01*
X714437*
X715063Y561625*
X715375Y561000*
X715063Y560375*
X714437Y560063*
X712250*
X714437D02*
X715375Y558187D01*
X718187Y560063D02*
X718813D01*
X719437Y560375*
X719750Y561000*
X719437Y561625*
X718813Y561937*
X718187*
X717563Y561625*
X717250Y561000*
X717563Y560375*
X718187Y560063*
X717563Y559750*
X717250Y559125*
X717563Y558500*
X718187Y558187*
X718813*
X719437Y558500*
X719750Y559125*
X719437Y559750*
X718813Y560063*
X723813Y558187D02*
Y561937D01*
X722250Y559437*
X724750*
X712250Y606687D02*
Y610437D01*
X714437*
X715063Y610125*
X715375Y609500*
X715063Y608875*
X714437Y608563*
X712250*
X714437D02*
X715375Y606687D01*
X717250D02*
X719750Y610437D01*
X717250*
X723187Y606687D02*
X723813Y607000D01*
X724437Y607625*
X724750Y608563*
Y609500*
X724437Y610125*
X723813Y610437*
X723187*
X722563Y610125*
X722250Y609500*
X722563Y608875*
X723187Y608563*
X723813*
X724437Y608875*
X724750Y609500*
X714517Y671726D02*
X717017D01*
X720142Y670476D02*
X721392D01*
X720767D02*
Y674226D01*
X720142Y673601*
X727017Y670476D02*
X724517D01*
X726704Y672663*
X727017Y673288*
X726704Y673913*
X726079Y674226*
X725142*
X724517Y673913*
X729517Y674226D02*
X731079Y670476D01*
X732642Y674226*
X714517Y681726D02*
X717017D01*
X715767Y680476D02*
Y682976D01*
X720142Y680476D02*
X721392D01*
X720767D02*
Y684226D01*
X720142Y683601*
X727017Y680476D02*
X724517D01*
X726704Y682663*
X727017Y683288*
X726704Y683913*
X726079Y684226*
X725142*
X724517Y683913*
X729517Y684226D02*
X731079Y680476D01*
X732642Y684226*
X714750Y513250D02*
X730750D01*
Y520250*
X714750*
Y513250*
X716250Y583750D02*
Y599750D01*
X709250*
Y583750*
X716250*
Y631250D02*
Y647250D01*
X709250*
Y631250*
X716250*
X718250Y509187D02*
Y512937D01*
X720437*
X721063Y512625*
X721375Y512000*
X721063Y511375*
X720437Y511063*
X718250*
X720437D02*
X721375Y509187D01*
X724187D02*
X724813Y509500D01*
X725437Y510125*
X725750Y511063*
Y512000*
X725437Y512625*
X724813Y512937*
X724187*
X723563Y512625*
X723250Y512000*
X723563Y511375*
X724187Y511063*
X724813*
X725437Y511375*
X725750Y512000*
X720250Y574187D02*
Y577937D01*
X722437*
X723063Y577625*
X723375Y577000*
X723063Y576375*
X722437Y576063*
X720250*
X722437D02*
X723375Y574187D01*
X726187Y576063D02*
X726813D01*
X727437Y576375*
X727750Y577000*
X727437Y577625*
X726813Y577937*
X726187*
X725563Y577625*
X725250Y577000*
X725563Y576375*
X726187Y576063*
X725563Y575750*
X725250Y575125*
X725563Y574500*
X726187Y574187*
X726813*
X727437Y574500*
X727750Y575125*
X727437Y575750*
X726813Y576063*
X730250Y575125D02*
X730563Y575750D01*
X731187Y576063*
X731813*
X732437Y575750*
X732750Y575125*
X732437Y574500*
X731813Y574187*
X731187*
X730563Y574500*
X730250Y575125*
Y576063*
X730563Y577000*
X731187Y577625*
X731813Y577937*
X721313Y538250D02*
X717563D01*
Y540437*
X717875Y541063*
X718500Y541375*
X719125Y541063*
X719437Y540437*
Y538250*
Y540437D02*
X721313Y541375D01*
X721000Y543563D02*
X721313Y544187D01*
Y544813*
X721000Y545437*
X720375Y545750*
X719750Y545437*
X719437Y544813*
Y544187*
Y544813D02*
X719125Y545437D01*
X718500Y545750*
X717875Y545437*
X717563Y544813*
Y544187*
X717875Y543563*
X720375Y548250D02*
X719750Y548563D01*
X719437Y549187*
Y549813*
X719750Y550437*
X720375Y550750*
X721000Y550437*
X721313Y549813*
Y549187*
X721000Y548563*
X720375Y548250*
X719437*
X718500Y548563*
X717875Y549187*
X717563Y549813*
X721313Y581750D02*
X717563D01*
Y583937*
X717875Y584563*
X718500Y584875*
X719125Y584563*
X719437Y583937*
Y581750*
Y583937D02*
X721313Y584875D01*
X719437Y587687D02*
Y588313D01*
X719125Y588937*
X718500Y589250*
X717875Y588937*
X717563Y588313*
Y587687*
X717875Y587063*
X718500Y586750*
X719125Y587063*
X719437Y587687*
X719750Y587063*
X720375Y586750*
X721000Y587063*
X721313Y587687*
Y588313*
X721000Y588937*
X720375Y589250*
X719750Y588937*
X719437Y588313*
X721000Y591750D02*
X721313Y592375D01*
Y593313*
X721000Y593937*
X720375Y594250*
X720063*
X719437Y593937*
X719125Y593313*
Y591750*
X717563*
Y594250*
X723750Y555250D02*
Y533250D01*
X731750*
Y555250*
X723750*
X726250Y623187D02*
Y626937D01*
X728437*
X729063Y626625*
X729375Y626000*
X729063Y625375*
X728437Y625063*
X726250*
X728437D02*
X729375Y623187D01*
X731250D02*
X733750Y626937D01*
X731250*
X737813Y623187D02*
Y626937D01*
X736250Y624437*
X738750*
X732250Y524687D02*
Y528437D01*
X734437*
X735063Y528125*
X735375Y527500*
X735063Y526875*
X734437Y526563*
X732250*
X734437D02*
X735375Y524687D01*
X737563Y525000D02*
X738187Y524687D01*
X738813*
X739437Y525000*
X739750Y525625*
X739437Y526250*
X738813Y526563*
X738187*
X738813D02*
X739437Y526875D01*
X739750Y527500*
X739437Y528125*
X738813Y528437*
X738187*
X737563Y528125*
X743187Y526563D02*
X743813D01*
X744437Y526875*
X744750Y527500*
X744437Y528125*
X743813Y528437*
X743187*
X742563Y528125*
X742250Y527500*
X742563Y526875*
X743187Y526563*
X742563Y526250*
X742250Y525625*
X742563Y525000*
X743187Y524687*
X743813*
X744437Y525000*
X744750Y525625*
X744437Y526250*
X743813Y526563*
X737875Y659813D02*
X737563Y659500D01*
X736937Y659187*
X736000*
X735375Y659500*
X735063Y659813*
X734750Y660437*
Y661687*
X735063Y662313*
X735375Y662625*
X736000Y662937*
X736937*
X737563Y662625*
X737875Y662313*
X740063Y659500D02*
X740687Y659187D01*
X741313*
X741937Y659500*
X742250Y660125*
X741937Y660750*
X741313Y661063*
X740687*
X741313D02*
X741937Y661375D01*
X742250Y662000*
X741937Y662625*
X741313Y662937*
X740687*
X740063Y662625*
X745687Y661063D02*
X746313D01*
X746937Y661375*
X747250Y662000*
X746937Y662625*
X746313Y662937*
X745687*
X745063Y662625*
X744750Y662000*
X745063Y661375*
X745687Y661063*
X745063Y660750*
X744750Y660125*
X745063Y659500*
X745687Y659187*
X746313*
X746937Y659500*
X747250Y660125*
X746937Y660750*
X746313Y661063*
X735750Y572750D02*
X719750D01*
Y565750*
X735750*
Y572750*
Y617750D02*
X719750D01*
Y610750*
X735750*
Y617750*
X737250Y611687D02*
Y615437D01*
X739437*
X740063Y615125*
X740375Y614500*
X740063Y613875*
X739437Y613563*
X737250*
X739437D02*
X740375Y611687D01*
X743187Y613563D02*
X743813D01*
X744437Y613875*
X744750Y614500*
X744437Y615125*
X743813Y615437*
X743187*
X742563Y615125*
X742250Y614500*
X742563Y613875*
X743187Y613563*
X742563Y613250*
X742250Y612625*
X742563Y612000*
X743187Y611687*
X743813*
X744437Y612000*
X744750Y612625*
X744437Y613250*
X743813Y613563*
X747563Y612000D02*
X748187Y611687D01*
X748813*
X749437Y612000*
X749750Y612625*
Y614500*
X749437Y615125*
X748813Y615437*
X748187*
X747563Y615125*
X747250Y614500*
Y612625*
X747563Y612000*
X749437Y615125*
X737313Y542750D02*
X733563D01*
Y544937*
X733875Y545563*
X734500Y545875*
X735125Y545563*
X735437Y544937*
Y542750*
Y544937D02*
X737313Y545875D01*
X737000Y548063D02*
X737313Y548687D01*
Y549313*
X737000Y549937*
X736375Y550250*
X735750Y549937*
X735437Y549313*
Y548687*
Y549313D02*
X735125Y549937D01*
X734500Y550250*
X733875Y549937*
X733563Y549313*
Y548687*
X733875Y548063*
X737313Y552750D02*
X733563Y555250D01*
Y552750*
X739750Y620750D02*
X755750D01*
Y627750*
X739750*
Y620750*
X738136Y449250D02*
X741886D01*
Y452375*
Y456750D02*
Y454250D01*
X739698Y456437*
X739074Y456750*
X738448Y456437*
X738136Y455813*
Y454875*
X738448Y454250*
X744750Y563250D02*
X760750D01*
Y570250*
X744750*
Y563250*
Y573250D02*
X760750D01*
Y580250*
X744750*
Y573250*
X746250Y543750D02*
Y559750D01*
X739250*
Y543750*
X746250*
Y687687D02*
Y691437D01*
X748437*
X749063Y691125*
X749375Y690500*
X749063Y689875*
X748437Y689563*
X746250*
X748437D02*
X749375Y687687D01*
X752187Y689563D02*
X752813D01*
X753437Y689875*
X753750Y690500*
X753437Y691125*
X752813Y691437*
X752187*
X751563Y691125*
X751250Y690500*
X751563Y689875*
X752187Y689563*
X751563Y689250*
X751250Y688625*
X751563Y688000*
X752187Y687687*
X752813*
X753437Y688000*
X753750Y688625*
X753437Y689250*
X752813Y689563*
X757187Y687687D02*
X757813Y688000D01*
X758437Y688625*
X758750Y689563*
Y690500*
X758437Y691125*
X757813Y691437*
X757187*
X756563Y691125*
X756250Y690500*
X756563Y689875*
X757187Y689563*
X757813*
X758437Y689875*
X758750Y690500*
X749750Y678250D02*
X765750D01*
Y685250*
X749750*
Y678250*
X751313Y545750D02*
X747563D01*
Y547937*
X747875Y548563*
X748500Y548875*
X749125Y548563*
X749437Y547937*
Y545750*
Y547937D02*
X751313Y548875D01*
X750375Y550750D02*
X749750Y551063D01*
X749437Y551687*
Y552313*
X749750Y552937*
X750375Y553250*
X751000Y552937*
X751313Y552313*
Y551687*
X751000Y551063*
X750375Y550750*
X749437*
X748500Y551063*
X747875Y551687*
X747563Y552313*
X751313Y556687D02*
X751000Y557313D01*
X750375Y557937*
X749437Y558250*
X748500*
X747875Y557937*
X747563Y557313*
Y556687*
X747875Y556063*
X748500Y555750*
X749125Y556063*
X749437Y556687*
Y557313*
X749125Y557937*
X748500Y558250*
X751813Y586750D02*
X748063D01*
Y588937*
X748375Y589563*
X749000Y589875*
X749625Y589563*
X749937Y588937*
Y586750*
Y588937D02*
X751813Y589875D01*
Y591750D02*
X748063Y594250D01*
Y591750*
X751500Y597063D02*
X751813Y597687D01*
Y598313*
X751500Y598937*
X750875Y599250*
X750250Y598937*
X749937Y598313*
Y597687*
Y598313D02*
X749625Y598937D01*
X749000Y599250*
X748375Y598937*
X748063Y598313*
Y597687*
X748375Y597063*
X755750Y640250D02*
X739750D01*
Y633250*
X755750*
Y640250*
Y650250D02*
X739750D01*
Y643250*
X755750*
Y650250*
X757750Y636187D02*
Y639937D01*
X759937*
X760563Y639625*
X760875Y639000*
X760563Y638375*
X759937Y638063*
X757750*
X759937D02*
X760875Y636187D01*
X762750D02*
X765250Y639937D01*
X762750*
X767750Y636500D02*
X768375Y636187D01*
X769313*
X769937Y636500*
X770250Y637125*
Y637437*
X769937Y638063*
X769313Y638375*
X767750*
Y639937*
X770250*
X757750Y645187D02*
Y648937D01*
X759937*
X760563Y648625*
X760875Y648000*
X760563Y647375*
X759937Y647063*
X757750*
X759937D02*
X760875Y645187D01*
X763687Y647063D02*
X764313D01*
X764937Y647375*
X765250Y648000*
X764937Y648625*
X764313Y648937*
X763687*
X763063Y648625*
X762750Y648000*
X763063Y647375*
X763687Y647063*
X763063Y646750*
X762750Y646125*
X763063Y645500*
X763687Y645187*
X764313*
X764937Y645500*
X765250Y646125*
X764937Y646750*
X764313Y647063*
X767750Y645187D02*
X770250Y648937D01*
X767750*
X761250Y583750D02*
Y599750D01*
X754250*
Y583750*
X761250*
X764375Y601813D02*
X764063Y601500D01*
X763437Y601187*
X762500*
X761875Y601500*
X761563Y601813*
X761250Y602437*
Y603687*
X761563Y604313*
X761875Y604625*
X762500Y604937*
X763437*
X764063Y604625*
X764375Y604313*
X766875Y601187D02*
X768125D01*
X767500D02*
Y604937D01*
X766875Y604313*
X771250Y602125D02*
X771563Y602750D01*
X772187Y603063*
X772813*
X773437Y602750*
X773750Y602125*
X773437Y601500*
X772813Y601187*
X772187*
X771563Y601500*
X771250Y602125*
Y603063*
X771563Y604000*
X772187Y604625*
X772813Y604937*
X765750Y665250D02*
X749750D01*
Y658250*
X765750*
Y665250*
Y675250D02*
X749750D01*
Y668250*
X765750*
Y675250*
X765687Y564875D02*
X766000Y564563D01*
X766313Y563937*
Y563000*
X766000Y562375*
X765687Y562063*
X765063Y561750*
X763813*
X763187Y562063*
X762875Y562375*
X762563Y563000*
Y563937*
X762875Y564563*
X763187Y564875*
X766313Y567687D02*
X766000Y568313D01*
X765375Y568937*
X764437Y569250*
X763500*
X762875Y568937*
X762563Y568313*
Y567687*
X762875Y567063*
X763500Y566750*
X764125Y567063*
X764437Y567687*
Y568313*
X764125Y568937*
X763500Y569250*
X765687Y574875D02*
X766000Y574563D01*
X766313Y573937*
Y573000*
X766000Y572375*
X765687Y572063*
X765063Y571750*
X763813*
X763187Y572063*
X762875Y572375*
X762563Y573000*
Y573937*
X762875Y574563*
X763187Y574875*
X764437Y577687D02*
Y578313D01*
X764125Y578937*
X763500Y579250*
X762875Y578937*
X762563Y578313*
Y577687*
X762875Y577063*
X763500Y576750*
X764125Y577063*
X764437Y577687*
X764750Y577063*
X765375Y576750*
X766000Y577063*
X766313Y577687*
Y578313*
X766000Y578937*
X765375Y579250*
X764750Y578937*
X764437Y578313*
X767250Y685187D02*
Y688937D01*
X769437*
X770063Y688625*
X770375Y688000*
X770063Y687375*
X769437Y687063*
X767250*
X769437D02*
X770375Y685187D01*
X773187D02*
X773813Y685500D01*
X774437Y686125*
X774750Y687063*
Y688000*
X774437Y688625*
X773813Y688937*
X773187*
X772563Y688625*
X772250Y688000*
X772563Y687375*
X773187Y687063*
X773813*
X774437Y687375*
X774750Y688000*
X777563Y685500D02*
X778187Y685187D01*
X778813*
X779437Y685500*
X779750Y686125*
Y688000*
X779437Y688625*
X778813Y688937*
X778187*
X777563Y688625*
X777250Y688000*
Y686125*
X777563Y685500*
X779437Y688625*
X767750Y510750D02*
X783750D01*
Y517750*
X767750*
Y510750*
Y520750D02*
X783750D01*
Y527750*
X767750*
Y520750*
X769750Y683350D02*
Y660150D01*
X780750*
Y683350*
X769750*
X771187Y562187D02*
X772437D01*
X771813D02*
Y565937D01*
X771187D02*
X772437D01*
X778375Y562813D02*
X778063Y562500D01*
X777437Y562187*
X776500*
X775875Y562500*
X775563Y562813*
X775250Y563437*
Y564687*
X775563Y565313*
X775875Y565625*
X776500Y565937*
X777437*
X778063Y565625*
X778375Y565313*
X780250Y563125D02*
X780563Y563750D01*
X781187Y564063*
X781813*
X782437Y563750*
X782750Y563125*
X782437Y562500*
X781813Y562187*
X781187*
X780563Y562500*
X780250Y563125*
Y564063*
X780563Y565000*
X781187Y565625*
X781813Y565937*
X773475Y655813D02*
X773163Y655500D01*
X772537Y655187*
X771600*
X770975Y655500*
X770663Y655813*
X770350Y656437*
Y657687*
X770663Y658313*
X770975Y658625*
X771600Y658937*
X772537*
X773163Y658625*
X773475Y658313*
X776913Y655187D02*
Y658937D01*
X775350Y656437*
X777850*
X780350Y655500D02*
X780975Y655187D01*
X781913*
X782537Y655500*
X782850Y656125*
Y656437*
X782537Y657063*
X781913Y657375*
X780350*
Y658937*
X782850*
X771250Y583750D02*
Y599750D01*
X764250*
Y583750*
X771250*
X771750Y628750D02*
Y609750D01*
X803750*
Y628750*
X771750*
X775187Y629687D02*
X776437D01*
X775813D02*
Y633437D01*
X775187D02*
X776437D01*
X782375Y630313D02*
X782063Y630000D01*
X781437Y629687*
X780500*
X779875Y630000*
X779563Y630313*
X779250Y630937*
Y632187*
X779563Y632813*
X779875Y633125*
X780500Y633437*
X781437*
X782063Y633125*
X782375Y632813*
X785187Y631563D02*
X785813D01*
X786437Y631875*
X786750Y632500*
X786437Y633125*
X785813Y633437*
X785187*
X784563Y633125*
X784250Y632500*
X784563Y631875*
X785187Y631563*
X784563Y631250*
X784250Y630625*
X784563Y630000*
X785187Y629687*
X785813*
X786437Y630000*
X786750Y630625*
X786437Y631250*
X785813Y631563*
X782875Y643813D02*
X782563Y643500D01*
X781937Y643187*
X781000*
X780375Y643500*
X780063Y643813*
X779750Y644437*
Y645687*
X780063Y646313*
X780375Y646625*
X781000Y646937*
X781937*
X782563Y646625*
X782875Y646313*
X787250Y643187D02*
X784750D01*
X786937Y645375*
X787250Y646000*
X786937Y646625*
X786313Y646937*
X785375*
X784750Y646625*
X789750Y643500D02*
X790375Y643187D01*
X791313*
X791937Y643500*
X792250Y644125*
Y644437*
X791937Y645063*
X791313Y645375*
X789750*
Y646937*
X792250*
X775636Y451717D02*
X779386D01*
Y454843*
Y457343D02*
Y458593D01*
Y457967D02*
X775636D01*
X776261Y457343*
X787875Y514313D02*
X787563Y514000D01*
X786937Y513687*
X786000*
X785375Y514000*
X785063Y514313*
X784750Y514937*
Y516187*
X785063Y516813*
X785375Y517125*
X786000Y517437*
X786937*
X787563Y517125*
X787875Y516813*
X790375Y513687D02*
X791625D01*
X791000D02*
Y517437D01*
X790375Y516813*
X795063Y514000D02*
X795687Y513687D01*
X796313*
X796937Y514000*
X797250Y514625*
Y516500*
X796937Y517125*
X796313Y517437*
X795687*
X795063Y517125*
X794750Y516500*
Y514625*
X795063Y514000*
X796937Y517125*
X787875Y523813D02*
X787563Y523500D01*
X786937Y523187*
X786000*
X785375Y523500*
X785063Y523813*
X784750Y524437*
Y525687*
X785063Y526313*
X785375Y526625*
X786000Y526937*
X786937*
X787563Y526625*
X787875Y526313*
X790375Y523187D02*
X791625D01*
X791000D02*
Y526937D01*
X790375Y526313*
X795375Y523187D02*
X796625D01*
X796000D02*
Y526937D01*
X795375Y526313*
X784829Y659538D02*
Y662038D01*
X786079Y665163D02*
Y666413D01*
Y665788D02*
X782329D01*
X782954Y665163*
X786079Y672038D02*
Y669538D01*
X783891Y671726*
X783267Y672038*
X782641Y671726*
X782329Y671101*
Y670163*
X782641Y669538*
X782329Y674538D02*
X786079Y676101D01*
X782329Y677663*
X791250Y534250D02*
Y550250D01*
X784250*
Y534250*
X791250*
X791313Y431250D02*
X787563D01*
Y433437*
X787875Y434063*
X788500Y434375*
X789125Y434063*
X789437Y433437*
Y431250*
Y433437D02*
X791313Y434375D01*
Y438750D02*
Y436250D01*
X789125Y438437*
X788500Y438750*
X787875Y438437*
X787563Y437813*
Y436875*
X787875Y436250*
X792250Y628750D02*
G75*
G02X787750Y624250I-4500D01*
G01*
G75*
G02X783250Y628750J4500*
G01*
X792750Y437250D02*
Y421250D01*
X799750*
Y437250*
X792750*
X794250Y666187D02*
Y669937D01*
X796437*
X797063Y669625*
X797375Y669000*
X797063Y668375*
X796437Y668063*
X794250*
X799250Y669937D02*
Y666187D01*
X802375*
X805813D02*
Y669937D01*
X804250Y667437*
X806750*
X794250Y686687D02*
Y690437D01*
X796437*
X797063Y690125*
X797375Y689500*
X797063Y688875*
X796437Y688563*
X794250*
X799250Y690437D02*
Y686687D01*
X802375*
X804563Y687000D02*
X805187Y686687D01*
X805813*
X806437Y687000*
X806750Y687625*
X806437Y688250*
X805813Y688563*
X805187*
X805813D02*
X806437Y688875D01*
X806750Y689500*
X806437Y690125*
X805813Y690437*
X805187*
X804563Y690125*
X795813Y530750D02*
X792063D01*
Y532937*
X792375Y533563*
X793000Y533875*
X793625Y533563*
X793937Y532937*
Y530750*
Y532937D02*
X795813Y533875D01*
Y535750D02*
X792063Y538250D01*
Y535750*
X795813Y541375D02*
Y542625D01*
Y542000D02*
X792063D01*
X792687Y541375*
X802313Y486750D02*
X798563D01*
Y488937*
X798875Y489563*
X799500Y489875*
X800125Y489563*
X800437Y488937*
Y486750*
Y488937D02*
X802313Y489875D01*
Y491750D02*
X798563Y494250D01*
Y491750*
X807750Y594187D02*
Y597937D01*
X809937*
X810563Y597625*
X810875Y597000*
X810563Y596375*
X809937Y596063*
X807750*
X809937D02*
X810875Y594187D01*
X812750D02*
X815250Y597937D01*
X812750*
X817750Y594187D02*
X820250Y597937D01*
X817750*
X808313Y547750D02*
X804563D01*
Y549937*
X804875Y550563*
X805500Y550875*
X806125Y550563*
X806437Y549937*
Y547750*
Y549937D02*
X808313Y550875D01*
Y552750D02*
X804563Y555250D01*
Y552750*
X808000Y558063D02*
X808313Y558687D01*
Y559313*
X808000Y559937*
X807375Y560250*
X805500*
X804875Y559937*
X804563Y559313*
Y558687*
X804875Y558063*
X805500Y557750*
X807375*
X808000Y558063*
X804875Y559937*
X811750Y485750D02*
Y507750D01*
X803750*
Y485750*
X811750*
X812250Y512750D02*
X828250D01*
Y519750*
X812250*
Y512750*
Y522750D02*
X828250D01*
Y529750*
X812250*
Y522750*
X816750Y546250D02*
Y562250D01*
X809750*
Y546250*
X816750*
X816850Y649750D02*
X793650D01*
Y638750*
X816850*
Y649750*
X819517Y689226D02*
Y690476D01*
X819829Y691101*
X820142Y691413*
X820767Y691726*
X821392*
X822017Y691413*
X822329Y691101*
X822642Y690476*
Y689226*
X822329Y688601*
X822017Y688288*
X821392Y687976*
X820767*
X820142Y688288*
X819829Y688601*
X819517Y689226*
X827642Y688601D02*
X827329Y688288D01*
X826704Y687976*
X825767*
X825142Y688288*
X824829Y688601*
X824517Y689226*
Y690476*
X824829Y691101*
X825142Y691413*
X825767Y691726*
X826704*
X827329Y691413*
X827642Y691101*
X836079Y687976D02*
Y691726D01*
X834517D02*
X837642D01*
X839517Y687976D02*
X842642Y691726D01*
X839517D02*
X842642Y687976D01*
X823875Y633313D02*
X823563Y633000D01*
X822937Y632687*
X822000*
X821375Y633000*
X821063Y633313*
X820750Y633937*
Y635187*
X821063Y635813*
X821375Y636125*
X822000Y636437*
X822937*
X823563Y636125*
X823875Y635813*
X828250Y632687D02*
X825750D01*
X827937Y634875*
X828250Y635500*
X827937Y636125*
X827313Y636437*
X826375*
X825750Y636125*
X831063Y633000D02*
X831687Y632687D01*
X832313*
X832937Y633000*
X833250Y633625*
X832937Y634250*
X832313Y634563*
X831687*
X832313D02*
X832937Y634875D01*
X833250Y635500*
X832937Y636125*
X832313Y636437*
X831687*
X831063Y636125*
X821750Y485750D02*
Y507750D01*
X813750*
Y485750*
X821750*
Y602809D02*
Y586809D01*
X828750*
Y602809*
X821750*
Y624750D02*
Y608750D01*
X828750*
Y624750*
X821750*
X822329Y659538D02*
Y662038D01*
X823579Y660788D02*
X821079D01*
X823579Y665163D02*
Y666413D01*
Y665788D02*
X819829D01*
X820454Y665163*
X823579Y672038D02*
Y669538D01*
X821391Y671726*
X820767Y672038*
X820141Y671726*
X819829Y671101*
Y670163*
X820141Y669538*
X819829Y674538D02*
X823579Y676101D01*
X819829Y677663*
X825750Y572750D02*
X809750D01*
Y565750*
X825750*
Y572750*
Y582750D02*
X809750D01*
Y575750*
X825750*
Y582750*
X829875Y568313D02*
X829563Y568000D01*
X828937Y567687*
X828000*
X827375Y568000*
X827063Y568313*
X826750Y568937*
Y570187*
X827063Y570813*
X827375Y571125*
X828000Y571437*
X828937*
X829563Y571125*
X829875Y570813*
X832375Y567687D02*
X833625D01*
X833000D02*
Y571437D01*
X832375Y570813*
X837063Y568000D02*
X837687Y567687D01*
X838313*
X838937Y568000*
X839250Y568625*
X838937Y569250*
X838313Y569563*
X837687*
X838313D02*
X838937Y569875D01*
X839250Y570500*
X838937Y571125*
X838313Y571437*
X837687*
X837063Y571125*
X829875Y577813D02*
X829563Y577500D01*
X828937Y577187*
X828000*
X827375Y577500*
X827063Y577813*
X826750Y578437*
Y579687*
X827063Y580313*
X827375Y580625*
X828000Y580937*
X828937*
X829563Y580625*
X829875Y580313*
X832375Y577187D02*
X833625D01*
X833000D02*
Y580937D01*
X832375Y580313*
X839250Y577187D02*
X836750D01*
X838937Y579375*
X839250Y580000*
X838937Y580625*
X838313Y580937*
X837375*
X836750Y580625*
X827017Y647976D02*
Y651726D01*
X829204*
X829829Y651413*
X830142Y650788*
X829829Y650163*
X829204Y649851*
X827017*
X832017Y651726D02*
Y647976D01*
X835142*
X837017Y648288D02*
X837642Y647976D01*
X838579*
X839204Y648288*
X839517Y648913*
Y649226*
X839204Y649851*
X838579Y650163*
X837017*
Y651726*
X839517*
X826313Y499750D02*
X822563D01*
Y501937*
X822875Y502563*
X823500Y502875*
X824125Y502563*
X824437Y501937*
Y499750*
Y501937D02*
X826313Y502875D01*
X825375Y504750D02*
X824750Y505063D01*
X824437Y505687*
Y506313*
X824750Y506937*
X825375Y507250*
X826000Y506937*
X826313Y506313*
Y505687*
X826000Y505063*
X825375Y504750*
X824437*
X823500Y505063*
X822875Y505687*
X822563Y506313*
X829187Y559187D02*
X830437D01*
X829813D02*
Y562937D01*
X829187D02*
X830437D01*
X836375Y559813D02*
X836063Y559500D01*
X835437Y559187*
X834500*
X833875Y559500*
X833563Y559813*
X833250Y560437*
Y561687*
X833563Y562313*
X833875Y562625*
X834500Y562937*
X835437*
X836063Y562625*
X836375Y562313*
X838250Y559187D02*
X840750Y562937D01*
X838250*
X832375Y525813D02*
X832063Y525500D01*
X831437Y525187*
X830500*
X829875Y525500*
X829563Y525813*
X829250Y526437*
Y527687*
X829563Y528313*
X829875Y528625*
X830500Y528937*
X831437*
X832063Y528625*
X832375Y528313*
X834875Y525187D02*
X836125D01*
X835500D02*
Y528937D01*
X834875Y528313*
X839250Y525500D02*
X839875Y525187D01*
X840813*
X841437Y525500*
X841750Y526125*
Y526437*
X841437Y527063*
X840813Y527375*
X839250*
Y528937*
X841750*
X832875Y514813D02*
X832563Y514500D01*
X831937Y514187*
X831000*
X830375Y514500*
X830063Y514813*
X829750Y515437*
Y516687*
X830063Y517313*
X830375Y517625*
X831000Y517937*
X831937*
X832563Y517625*
X832875Y517313*
X835375Y514187D02*
X836625D01*
X836000D02*
Y517937D01*
X835375Y517313*
X841313Y514187D02*
Y517937D01*
X839750Y515437*
X842250*
X830750Y612187D02*
Y615937D01*
X832937*
X833563Y615625*
X833875Y615000*
X833563Y614375*
X832937Y614063*
X830750*
X832937D02*
X833875Y612187D01*
X835750D02*
X838250Y615937D01*
X835750*
X841687Y614063D02*
X842313D01*
X842937Y614375*
X843250Y615000*
X842937Y615625*
X842313Y615937*
X841687*
X841063Y615625*
X840750Y615000*
X841063Y614375*
X841687Y614063*
X841063Y613750*
X840750Y613125*
X841063Y612500*
X841687Y612187*
X842313*
X842937Y612500*
X843250Y613125*
X842937Y613750*
X842313Y614063*
X831750Y602809D02*
Y586809D01*
X838750*
Y602809*
X831750*
X835750Y645250D02*
X819750D01*
Y638250*
X835750*
Y645250*
X843375Y592313D02*
X843063Y592000D01*
X842437Y591687*
X841500*
X840875Y592000*
X840563Y592313*
X840250Y592937*
Y594187*
X840563Y594813*
X840875Y595125*
X841500Y595437*
X842437*
X843063Y595125*
X843375Y594813*
X847750Y591687D02*
X845250D01*
X847437Y593875*
X847750Y594500*
X847437Y595125*
X846813Y595437*
X845875*
X845250Y595125*
X850563Y592000D02*
X851187Y591687D01*
X851813*
X852437Y592000*
X852750Y592625*
Y594500*
X852437Y595125*
X851813Y595437*
X851187*
X850563Y595125*
X850250Y594500*
Y592625*
X850563Y592000*
X852437Y595125*
X842250Y675750D02*
X858250D01*
Y682750*
X842250*
Y675750*
X845313Y647687D02*
Y651437D01*
X843750D02*
X846875D01*
X848750Y647687D02*
Y651437D01*
X850937*
X851563Y651125*
X851875Y650500*
X851563Y649875*
X850937Y649563*
X848750*
X850937D02*
X851875Y647687D01*
X856250D02*
X853750D01*
X855937Y649875*
X856250Y650500*
X855937Y651125*
X855313Y651437*
X854375*
X853750Y651125*
X861250Y647687D02*
X858750D01*
X860937Y649875*
X861250Y650500*
X860937Y651125*
X860313Y651437*
X859375*
X858750Y651125*
X845750Y684687D02*
Y688437D01*
X847937*
X848563Y688125*
X848875Y687500*
X848563Y686875*
X847937Y686563*
X845750*
X847937D02*
X848875Y684687D01*
X852313D02*
Y688437D01*
X850750Y685937*
X853250*
X856687Y686563D02*
X857313D01*
X857937Y686875*
X858250Y687500*
X857937Y688125*
X857313Y688437*
X856687*
X856063Y688125*
X855750Y687500*
X856063Y686875*
X856687Y686563*
X856063Y686250*
X855750Y685625*
X856063Y685000*
X856687Y684687*
X857313*
X857937Y685000*
X858250Y685625*
X857937Y686250*
X857313Y686563*
X848313Y624187D02*
Y627937D01*
X846750D02*
X849875D01*
X851750Y624187D02*
Y627937D01*
X853937*
X854563Y627625*
X854875Y627000*
X854563Y626375*
X853937Y626063*
X851750*
X853937D02*
X854875Y624187D01*
X857375D02*
X858625D01*
X858000D02*
Y627937D01*
X857375Y627313*
X853250Y549187D02*
Y552937D01*
X855437*
X856063Y552625*
X856375Y552000*
X856063Y551375*
X855437Y551063*
X853250*
X855437D02*
X856375Y549187D01*
X858250D02*
X860750Y552937D01*
X858250*
X865750Y549187D02*
X863250D01*
X865437Y551375*
X865750Y552000*
X865437Y552625*
X864813Y552937*
X863875*
X863250Y552625*
X859250Y531250D02*
Y547250D01*
X852250*
Y531250*
X859250*
X859750Y629250D02*
Y644250D01*
X845750*
Y629250*
X859650*
X859750Y653250D02*
Y668250D01*
X845750*
Y653250*
X859650*
X864375Y391813D02*
X864063Y391500D01*
X863437Y391187*
X862500*
X861875Y391500*
X861563Y391813*
X861250Y392437*
Y393687*
X861563Y394313*
X861875Y394625*
X862500Y394937*
X863437*
X864063Y394625*
X864375Y394313*
X866563Y391500D02*
X867187Y391187D01*
X867813*
X868437Y391500*
X868750Y392125*
X868437Y392750*
X867813Y393063*
X867187*
X867813D02*
X868437Y393375D01*
X868750Y394000*
X868437Y394625*
X867813Y394937*
X867187*
X866563Y394625*
X871563Y391500D02*
X872187Y391187D01*
X872813*
X873437Y391500*
X873750Y392125*
Y394000*
X873437Y394625*
X872813Y394937*
X872187*
X871563Y394625*
X871250Y394000*
Y392125*
X871563Y391500*
X873437Y394625*
X869750Y450687D02*
Y454437D01*
X871937*
X872563Y454125*
X872875Y453500*
X872563Y452875*
X871937Y452563*
X869750*
X871937D02*
X872875Y450687D01*
X875687Y452563D02*
X876313D01*
X876937Y452875*
X877250Y453500*
X876937Y454125*
X876313Y454437*
X875687*
X875063Y454125*
X874750Y453500*
X875063Y452875*
X875687Y452563*
X875063Y452250*
X874750Y451625*
X875063Y451000*
X875687Y450687*
X876313*
X876937Y451000*
X877250Y451625*
X876937Y452250*
X876313Y452563*
X869750Y455750D02*
X885750D01*
Y462750*
X869750*
Y455750*
X871250Y373750D02*
Y389750D01*
X864250*
Y373750*
X871250*
X871313Y430750D02*
X867563D01*
Y432937*
X867875Y433563*
X868500Y433875*
X869125Y433563*
X869437Y432937*
Y430750*
Y432937D02*
X871313Y433875D01*
Y436375D02*
Y437625D01*
Y437000D02*
X867563D01*
X868187Y436375*
X872750Y436750D02*
Y420750D01*
X879750*
Y436750*
X872750*
X874517Y638913D02*
X874829Y638288D01*
X875454Y637976*
X876704*
X877329Y638288*
X877642Y638913*
X877329Y639538*
X876704Y639851*
X875454*
X874829Y640163*
X874517Y640788*
X874829Y641413*
X875454Y641726*
X876704*
X877329Y641413*
X877642Y640788*
X882017Y638288D02*
X881704Y637976D01*
X881079*
X880454*
X879829Y638288*
X879517Y638913*
Y639851*
X879829Y640163*
X880454Y640476*
X881079*
X881704Y640163*
X882017Y639851*
Y639538*
X881704Y639226*
X881079Y638913*
X880454*
X879829Y639226*
X879517Y639538*
X884517Y637976D02*
Y640476D01*
Y639538D02*
X884829Y640163D01*
X885454Y640476*
X886079*
X886704Y640163*
X890767Y637976D02*
Y640476D01*
Y641413D02*
X894517Y640163*
X895142Y640476D01*
X896079*
X896704Y640163*
X897017Y639538*
Y638601*
X896704Y638288*
X896079Y637976*
X895454*
X894829Y638288*
X894517Y638601*
Y638913*
X894829Y639226*
X895454Y639538*
X896079*
X896704Y639226*
X897017Y638913*
Y638601D02*
Y637976D01*
X901079D02*
X900767D01*
Y641726*
X882875Y657813D02*
X882563Y657500D01*
X881937Y657187*
X881000*
X880375Y657500*
X880063Y657813*
X879750Y658437*
Y659687*
X880063Y660313*
X880375Y660625*
X881000Y660937*
X881937*
X882563Y660625*
X882875Y660313*
X884750Y658437D02*
Y659687D01*
X885063Y660313*
X885375Y660625*
X886000Y660937*
X886625*
X887250Y660625*
X887563Y660313*
X887875Y659687*
Y658437*
X887563Y657813*
X887250Y657500*
X886625Y657187*
X886000*
X885375Y657500*
X885063Y657813*
X884750Y658437*
X889750Y657187D02*
Y660937D01*
X892875Y657187*
Y660937*
X894750Y657187D02*
Y660937D01*
X897875Y657187*
Y660937*
X900375Y657187D02*
X901625D01*
X901000D02*
Y660937D01*
X900375Y660313*
X886079Y527976D02*
Y531726D01*
X884517D02*
X887642D01*
X889517Y527976D02*
X892642Y531726D01*
X894517Y527976D02*
Y531726D01*
X896704*
X897329Y531413*
X897642Y530788*
X897329Y530163*
X896704Y529851*
X894517*
X896704D02*
X897642Y527976D01*
X922313Y646187D02*
Y649937D01*
X920750D02*
X923875D01*
X925750Y646187D02*
Y649937D01*
X927937*
X928563Y649625*
X928875Y649000*
X928563Y648375*
X927937Y648063*
X925750*
X927937D02*
X928875Y646187D01*
X930750Y647125D02*
X931063Y647750D01*
X931687Y648063*
X932313*
X932937Y647750*
X933250Y647125*
X932937Y646500*
X932313Y646187*
X931687*
X931063Y646500*
X930750Y647125*
Y648063*
X931063Y649000*
X931687Y649625*
X932313Y649937*
X922313Y658187D02*
Y661937D01*
X920750D02*
X923875D01*
X925750Y658187D02*
Y661937D01*
X927937*
X928563Y661625*
X928875Y661000*
X928563Y660375*
X927937Y660063*
X925750*
X927937D02*
X928875Y658187D01*
X933250D02*
X930750D01*
X932937Y660375*
X933250Y661000*
X932937Y661625*
X932313Y661937*
X931375*
X930750Y661625*
X922813Y651687D02*
Y655437D01*
X921250D02*
X924375D01*
X926250Y651687D02*
Y655437D01*
X928437*
X929063Y655125*
X929375Y654500*
X929063Y653875*
X928437Y653563*
X926250*
X928437D02*
X929375Y651687D01*
X932813D02*
Y655437D01*
X931250Y652937*
X933750*
X923579Y487976D02*
Y491726D01*
X922017D02*
X925142D01*
X927017Y487976D02*
X930142Y491726D01*
X927017D02*
X930142Y487976D01*
X937017D02*
Y491726D01*
X939204*
X939829Y491413*
X940142Y490788*
X939829Y490163*
X939204Y489851*
X937017*
X939204D02*
X940142Y487976D01*
X942017D02*
Y491726D01*
X945142*
X944517Y489851D02*
X942017D01*
X934750Y635750D02*
X950750D01*
Y642750*
X934750*
Y635750*
X935750Y659250D02*
Y644250D01*
X949750*
Y659250*
X935850*
X936750Y625187D02*
Y628937D01*
X938937*
X939563Y628625*
X939875Y628000*
X939563Y627375*
X938937Y627063*
X936750*
X938937D02*
X939875Y625187D01*
X943313D02*
Y628937D01*
X941750Y626437*
X944250*
X947687Y625187D02*
X948313Y625500D01*
X948937Y626125*
X949250Y627063*
Y628000*
X948937Y628625*
X948313Y628937*
X947687*
X947063Y628625*
X946750Y628000*
X947063Y627375*
X947687Y627063*
X948313*
X948937Y627375*
X949250Y628000*
X939437Y530687D02*
X938813Y531625D01*
Y533813*
X939437Y534437*
X944750Y532875D02*
X944125Y533187D01*
X943187*
X942563Y532875*
X942250Y532250*
Y531625*
X942563Y531000*
X943187Y530687*
X944125*
X944750Y531000*
X948187Y530687D02*
X948813Y531625D01*
Y533813*
X948187Y534437*
X957250D02*
Y530687D01*
X960375*
X962250Y532875D02*
X962875Y533187D01*
X963813*
X964437Y532875*
X964750Y532250*
Y531313*
X964437Y531000*
X963813Y530687*
X963187*
X962563Y531000*
X962250Y531313*
Y531625*
X962563Y531937*
X963187Y532250*
X963813*
X964437Y531937*
X964750Y531625*
Y531313D02*
Y530687D01*
X967250Y533187D02*
Y531625D01*
X967563Y531000*
X968187Y530687*
X968813*
X969437Y531000*
X969750Y531625*
Y533187D02*
Y530687D01*
X972250D02*
Y533187D01*
Y532250D02*
X972563Y532875D01*
X973187Y533187*
X973813*
X974437Y532875*
X979750Y531000D02*
X979437Y530687D01*
X978813*
X978187*
X977563Y531000*
X977250Y531625*
Y532563*
X977563Y532875*
X978187Y533187*
X978813*
X979437Y532875*
X979750Y532563*
Y532250*
X979437Y531937*
X978813Y531625*
X978187*
X977563Y531937*
X977250Y532250*
X982250Y530687D02*
Y533187D01*
Y532250D02*
X982563Y532875D01*
X983187Y533187*
X983813*
X984437Y532875*
X984750Y532250*
Y530687*
X989750Y532875D02*
X989125Y533187D01*
X988187*
X987563Y532875*
X987250Y532250*
Y531625*
X987563Y531000*
X988187Y530687*
X989125*
X989750Y531000*
X994750D02*
X994437Y530687D01*
X993813*
X993187*
X992563Y531000*
X992250Y531625*
Y532563*
X992563Y532875*
X993187Y533187*
X993813*
X994437Y532875*
X994750Y532563*
Y532250*
X994437Y531937*
X993813Y531625*
X993187*
X992563Y531937*
X992250Y532250*
X1004437Y532563D02*
X1005063Y532250D01*
X1005375Y531625*
X1005063Y531000*
X1004437Y530687*
X1002250*
Y534437*
X1004437*
X1005063Y534125*
X1005375Y533500*
X1005063Y532875*
X1004437Y532563*
X1002250*
X1007250Y532875D02*
X1007875Y533187D01*
X1008813*
X1009437Y532875*
X1009750Y532250*
Y531313*
X1009437Y531000*
X1008813Y530687*
X1008187*
X1007563Y531000*
X1007250Y531313*
Y531625*
X1007563Y531937*
X1008187Y532250*
X1008813*
X1009437Y531937*
X1009750Y531625*
Y531313D02*
Y530687D01*
X1012250D02*
Y533187D01*
Y532250D02*
X1012563Y532875D01*
X1013187Y533187*
X1013813*
X1014437Y532875*
X1017250Y530687D02*
Y534437D01*
Y531937D02*
X1018187D01*
X1019750Y533187*
X1018187Y531937D02*
X1019750Y530687D01*
X1024750Y531000D02*
X1024437Y530687D01*
X1023813*
X1023187*
X1022563Y531000*
X1022250Y531625*
Y532563*
X1022563Y532875*
X1023187Y533187*
X1023813*
X1024437Y532875*
X1024750Y532563*
Y532250*
X1024437Y531937*
X1023813Y531625*
X1023187*
X1022563Y531937*
X1022250Y532250*
X1027250Y530687D02*
Y533187D01*
Y532250D02*
X1027563Y532875D01*
X1028187Y533187*
X1028813*
X1029437Y532875*
X1039437Y532250D02*
X1040375D01*
Y531937*
X1040063Y531313*
X1039750Y531000*
X1039125Y530687*
X1038500*
X1037875Y531000*
X1037563Y531313*
X1037250Y531937*
Y533187*
X1037563Y533813*
X1037875Y534125*
X1038500Y534437*
X1039125*
X1039750Y534125*
X1040063Y533813*
X1040375Y533187*
X1043187Y532563D02*
X1043813D01*
X1044437Y532875*
X1044750Y533500*
X1044437Y534125*
X1043813Y534437*
X1043187*
X1042563Y534125*
X1042250Y533500*
X1042563Y532875*
X1043187Y532563*
X1042563Y532250*
X1042250Y531625*
X1042563Y531000*
X1043187Y530687*
X1043813*
X1044437Y531000*
X1044750Y531625*
X1044437Y532250*
X1043813Y532563*
X1047250Y530687D02*
Y534437D01*
X1050375Y530687*
Y534437*
X1052250Y531313D02*
X1052563Y531000D01*
X1053187Y530687*
X1053813Y531000*
X1054125Y531313*
Y534437*
X1054750*
X1054125D02*
X1052875D01*
X1057250Y531313D02*
X1057563Y531000D01*
X1058187Y530687*
X1058813Y531000*
X1059125Y531313*
Y534437*
X1059750*
X1059125D02*
X1057875D01*
X944375Y687813D02*
X944063Y687500D01*
X943437Y687187*
X942500*
X941875Y687500*
X941563Y687813*
X941250Y688437*
Y689687*
X941563Y690313*
X941875Y690625*
X942500Y690937*
X943437*
X944063Y690625*
X944375Y690313*
X946250Y688437D02*
Y689687D01*
X946563Y690313*
X946875Y690625*
X947500Y690937*
X948125*
X948750Y690625*
X949063Y690313*
X949375Y689687*
Y688437*
X949063Y687813*
X948750Y687500*
X948125Y687187*
X947500*
X946875Y687500*
X946563Y687813*
X946250Y688437*
X951250Y687187D02*
Y690937D01*
X954375Y687187*
Y690937*
X956250Y687187D02*
Y690937D01*
X959375Y687187*
Y690937*
X963750Y687187D02*
X961250D01*
X963437Y689375*
X963750Y690000*
X963437Y690625*
X962813Y690937*
X961875*
X961250Y690625*
X949250Y508625D02*
X949563Y508000D01*
X950187Y507687*
X951437*
X952063Y508000*
X952375Y508625*
X952063Y509250*
X951437Y509563*
X950187*
X949563Y509875*
X949250Y510500*
X949563Y511125*
X950187Y511437*
X951437*
X952063Y511125*
X952375Y510500*
X954250Y507687D02*
Y511437D01*
X956125*
X956750Y511125*
X957063Y510813*
X957375Y510187*
Y508937*
X957063Y508313*
X956750Y508000*
X956125Y507687*
X954250*
X959250D02*
Y511437D01*
X961437*
X962063Y511125*
X962375Y510500*
X962063Y509875*
X961437Y509563*
X959250*
X961437D02*
X962375Y507687D01*
X969250Y508625D02*
X969563Y508000D01*
X970187Y507687*
X971437*
X972063Y508000*
X972375Y508625*
X972063Y509250*
X971437Y509563*
X970187*
X969563Y509875*
X969250Y510500*
X969563Y511125*
X970187Y511437*
X971437*
X972063Y511125*
X972375Y510500*
X975500Y507687D02*
Y510187D01*
Y511125D02*
X981750Y509250*
X981437Y509875D01*
X980813Y510187*
X980187*
X979563Y509875*
X979250Y509250*
Y508937*
X979563Y508313*
X980187Y508000*
X980813*
X981437Y508313*
X981750Y508937*
Y510187D02*
Y507687D01*
X981437Y507063*
X980813Y506750*
X979875*
X979250Y507063*
X984250Y507687D02*
Y510187D01*
Y509250D02*
X984563Y509875D01*
X985187Y510187*
X985813*
X986437Y509875*
X986750Y509250*
Y507687*
X989250Y509875D02*
X989875Y510187D01*
X990813*
X991437Y509875*
X991750Y509250*
Y508313*
X991437Y508000*
X990813Y507687*
X990187*
X989563Y508000*
X989250Y508313*
Y508625*
X989563Y508937*
X990187Y509250*
X990813*
X991437Y508937*
X991750Y508625*
Y508313D02*
Y507687D01*
X995813D02*
X995500D01*
Y511437*
X1004250Y507687D02*
Y511437D01*
X1006437*
X1007063Y511125*
X1007375Y510500*
X1007063Y509875*
X1006437Y509563*
X1004250*
X1006437D02*
X1007375Y507687D01*
X1009250Y508625D02*
X1009563Y508000D01*
X1010187Y507687*
X1010813*
X1011437Y508000*
X1011750Y508625*
Y509250*
X1011437Y509875*
X1010813Y510187*
X1010187*
X1009563Y509875*
X1009250Y509250*
Y508625*
X1014250Y510187D02*
Y508625D01*
X1014563Y508000*
X1015187Y507687*
X1015813*
X1016437Y508000*
X1016750Y508625*
Y510187D02*
Y507687D01*
X1019875Y510187D02*
X1021125D01*
X1020500Y510813D02*
Y508000D01*
X1020813Y507687*
X1021125*
X1021437Y508000*
X1025500Y507687D02*
Y510187D01*
Y511125D02*
X1029250Y507687*
Y510187D01*
Y509250D02*
X1029563Y509875D01*
X1030187Y510187*
X1030813*
X1031437Y509875*
X1031750Y509250*
Y507687*
X1036750Y509250D02*
X1036437Y509875D01*
X1035813Y510187*
X1035187*
X1034563Y509875*
X1034250Y509250*
Y508937*
X1034563Y508313*
X1035187Y508000*
X1035813*
X1036437Y508313*
X1036750Y508937*
Y510187D02*
Y507687D01*
X1036437Y507063*
X1035813Y506750*
X1034875*
X1034250Y507063*
X1044250Y507687D02*
Y511437D01*
X1046437*
X1047063Y511125*
X1047375Y510500*
X1047063Y509875*
X1046437Y509563*
X1044250*
X1052375Y508313D02*
X1052063Y508000D01*
X1051437Y507687*
X1050500*
X1049875Y508000*
X1049563Y508313*
X1049250Y508937*
Y510187*
X1049563Y510813*
X1049875Y511125*
X1050500Y511437*
X1051437*
X1052063Y511125*
X1052375Y510813*
X1056437Y509563D02*
X1057063Y509250D01*
X1057375Y508625*
X1057063Y508000*
X1056437Y507687*
X1054250*
Y511437*
X1056437*
X1057063Y511125*
X1057375Y510500*
X1057063Y509875*
X1056437Y509563*
X1054250*
X949517Y617976D02*
Y621726D01*
X951704*
X952329Y621413*
X952642Y620788*
X952329Y620163*
X951704Y619851*
X949517*
X951704D02*
X952642Y617976D01*
X954517D02*
X957642Y621726D01*
X954517D02*
X957642Y617976D01*
X966704Y619851D02*
X967329Y619538D01*
X967642Y618913*
X967329Y618288*
X966704Y617976*
X964517*
Y621726*
X966704*
X967329Y621413*
X967642Y620788*
X967329Y620163*
X966704Y619851*
X964517*
X969517Y617976D02*
Y621726D01*
X971704*
X972329Y621413*
X972642Y620788*
X972329Y620163*
X971704Y619851*
X969517*
X974517Y617976D02*
Y621726D01*
X977642*
X977017Y619851D02*
X974517D01*
X987017Y619538D02*
X986704Y620163D01*
X986079Y620476*
X985454*
X984829Y620163*
X984517Y619538*
Y618913*
X984829Y618288*
X985454Y617976*
X986079*
X986704Y618288*
X987017Y618913*
Y617976D02*
Y621726D01*
X989517Y617976D02*
Y620476D01*
Y619538D02*
X989829Y620163D01*
X990454Y620476*
X991079*
X991704Y620163*
X995767Y617976D02*
Y620476D01*
Y621413D02*
X999517Y620476*
X1000767Y617976D01*
X1002017Y620476*
X1007017Y618288D02*
X1006704Y617976D01*
X1006079*
X1005454*
X1004829Y618288*
X1004517Y618913*
Y619851*
X1004829Y620163*
X1005454Y620476*
X1006079*
X1006704Y620163*
X1007017Y619851*
Y619538*
X1006704Y619226*
X1006079Y618913*
X1005454*
X1004829Y619226*
X1004517Y619538*
X1009517Y617976D02*
Y620476D01*
Y619538D02*
X1009829Y620163D01*
X1010454Y620476*
X1011079*
X1011704Y620163*
X1014517Y618288D02*
X1015142Y617976D01*
X1016392*
X1017017Y618288*
Y618913*
X1016392Y619226*
X1015142*
X1014517Y619538*
Y620163*
X1015142Y620476*
X1016392*
X1017017Y620163*
X951750Y434750D02*
Y418750D01*
X958750*
Y434750*
X951750*
X954750Y635750D02*
X970750D01*
Y642750*
X954750*
Y635750*
X955750Y659250D02*
Y644250D01*
X969750*
Y659250*
X955850*
X956750Y624187D02*
Y627937D01*
X958937*
X959563Y627625*
X959875Y627000*
X959563Y626375*
X958937Y626063*
X956750*
X958937D02*
X959875Y624187D01*
X961750Y624500D02*
X962375Y624187D01*
X963313*
X963937Y624500*
X964250Y625125*
Y625437*
X963937Y626063*
X963313Y626375*
X961750*
Y627937*
X964250*
X967375Y624187D02*
X968625D01*
X968000D02*
Y627937D01*
X967375Y627313*
X957250Y447687D02*
Y451437D01*
X959437*
X960063Y451125*
X960375Y450500*
X960063Y449875*
X959437Y449563*
X957250*
X959437D02*
X960375Y447687D01*
X962563Y448000D02*
X963187Y447687D01*
X963813*
X964437Y448000*
X964750Y448625*
X964437Y449250*
X963813Y449563*
X963187*
X963813D02*
X964437Y449875D01*
X964750Y450500*
X964437Y451125*
X963813Y451437*
X963187*
X962563Y451125*
X967250Y448000D02*
X967875Y447687D01*
X968813*
X969437Y448000*
X969750Y448625*
Y448937*
X969437Y449563*
X968813Y449875*
X967250*
Y451437*
X969750*
X959750Y453250D02*
X975750D01*
Y460250*
X959750*
Y453250*
X960750Y436187D02*
Y439937D01*
X962937*
X963563Y439625*
X963875Y439000*
X963563Y438375*
X962937Y438063*
X960750*
X962937D02*
X963875Y436187D01*
X966063Y436500D02*
X966687Y436187D01*
X967313*
X967937Y436500*
X968250Y437125*
X967937Y437750*
X967313Y438063*
X966687*
X967313D02*
X967937Y438375D01*
X968250Y439000*
X967937Y439625*
X967313Y439937*
X966687*
X966063Y439625*
X971687Y436187D02*
X972313Y436500D01*
X972937Y437125*
X973250Y438063*
Y439000*
X972937Y439625*
X972313Y439937*
X971687*
X971063Y439625*
X970750Y439000*
X971063Y438375*
X971687Y438063*
X972313*
X972937Y438375*
X973250Y439000*
X974750Y635750D02*
X990750D01*
Y642750*
X974750*
Y635750*
X975750Y659250D02*
Y644250D01*
X989750*
Y659250*
X975850*
X976250Y624187D02*
Y627937D01*
X978437*
X979063Y627625*
X979375Y627000*
X979063Y626375*
X978437Y626063*
X976250*
X978437D02*
X979375Y624187D01*
X981250Y624500D02*
X981875Y624187D01*
X982813*
X983437Y624500*
X983750Y625125*
Y625437*
X983437Y626063*
X982813Y626375*
X981250*
Y627937*
X983750*
X986563Y624500D02*
X987187Y624187D01*
X987813*
X988437Y624500*
X988750Y625125*
X988437Y625750*
X987813Y626063*
X987187*
X987813D02*
X988437Y626375D01*
X988750Y627000*
X988437Y627625*
X987813Y627937*
X987187*
X986563Y627625*
X994750Y635750D02*
X1010750D01*
Y642750*
X994750*
Y635750*
X995250Y624187D02*
Y627937D01*
X997437*
X998063Y627625*
X998375Y627000*
X998063Y626375*
X997437Y626063*
X995250*
X997437D02*
X998375Y624187D01*
X1000250Y624500D02*
X1000875Y624187D01*
X1001813*
X1002437Y624500*
X1002750Y625125*
Y625437*
X1002437Y626063*
X1001813Y626375*
X1000250*
Y627937*
X1002750*
X1005250Y624500D02*
X1005875Y624187D01*
X1006813*
X1007437Y624500*
X1007750Y625125*
Y625437*
X1007437Y626063*
X1006813Y626375*
X1005250*
Y627937*
X1007750*
X995750Y659250D02*
Y644250D01*
X1009750*
Y659250*
X995850*
X1002250Y403250D02*
X1018250D01*
Y410250*
X1002250*
Y403250*
X1005875Y411813D02*
X1005563Y411500D01*
X1004937Y411187*
X1004000*
X1003375Y411500*
X1003063Y411813*
X1002750Y412437*
Y413687*
X1003063Y414313*
X1003375Y414625*
X1004000Y414937*
X1004937*
X1005563Y414625*
X1005875Y414313*
X1010250Y411187D02*
X1007750D01*
X1009937Y413375*
X1010250Y414000*
X1009937Y414625*
X1009313Y414937*
X1008375*
X1007750Y414625*
X1013687Y411187D02*
X1014313Y411500D01*
X1014937Y412125*
X1015250Y413063*
Y414000*
X1014937Y414625*
X1014313Y414937*
X1013687*
X1013063Y414625*
X1012750Y414000*
X1013063Y413375*
X1013687Y413063*
X1014313*
X1014937Y413375*
X1015250Y414000*
X1007750Y455687D02*
Y459437D01*
X1009937*
X1010563Y459125*
X1010875Y458500*
X1010563Y457875*
X1009937Y457563*
X1007750*
X1009937D02*
X1010875Y455687D01*
X1013687Y457563D02*
X1014313D01*
X1014937Y457875*
X1015250Y458500*
X1014937Y459125*
X1014313Y459437*
X1013687*
X1013063Y459125*
X1012750Y458500*
X1013063Y457875*
X1013687Y457563*
X1013063Y457250*
X1012750Y456625*
X1013063Y456000*
X1013687Y455687*
X1014313*
X1014937Y456000*
X1015250Y456625*
X1014937Y457250*
X1014313Y457563*
X1018687D02*
X1019313D01*
X1019937Y457875*
X1020250Y458500*
X1019937Y459125*
X1019313Y459437*
X1018687*
X1018063Y459125*
X1017750Y458500*
X1018063Y457875*
X1018687Y457563*
X1018063Y457250*
X1017750Y456625*
X1018063Y456000*
X1018687Y455687*
X1019313*
X1019937Y456000*
X1020250Y456625*
X1019937Y457250*
X1019313Y457563*
X1013750Y438187D02*
Y441937D01*
X1015937*
X1016563Y441625*
X1016875Y441000*
X1016563Y440375*
X1015937Y440063*
X1013750*
X1015937D02*
X1016875Y438187D01*
X1020313D02*
Y441937D01*
X1018750Y439437*
X1021250*
X1024063Y438500D02*
X1024687Y438187D01*
X1025313*
X1025937Y438500*
X1026250Y439125*
Y441000*
X1025937Y441625*
X1025313Y441937*
X1024687*
X1024063Y441625*
X1023750Y441000*
Y439125*
X1024063Y438500*
X1025937Y441625*
X1014750Y635750D02*
X1030750D01*
Y642750*
X1014750*
Y635750*
X1015750Y659250D02*
Y644250D01*
X1029750*
Y659250*
X1015850*
X1016250Y624187D02*
Y627937D01*
X1018437*
X1019063Y627625*
X1019375Y627000*
X1019063Y626375*
X1018437Y626063*
X1016250*
X1018437D02*
X1019375Y624187D01*
X1021250Y624500D02*
X1021875Y624187D01*
X1022813*
X1023437Y624500*
X1023750Y625125*
Y625437*
X1023437Y626063*
X1022813Y626375*
X1021250*
Y627937*
X1023750*
X1026250Y624187D02*
X1028750Y627937D01*
X1026250*
X1021750Y437250D02*
Y421250D01*
X1028750*
Y437250*
X1021750*
X1022250Y453250D02*
X1038250D01*
Y460250*
X1022250*
Y453250*
X1034750Y635750D02*
X1050750D01*
Y642750*
X1034750*
Y635750*
X1035750Y659250D02*
Y644250D01*
X1049750*
Y659250*
X1035850*
X1036250Y624187D02*
Y627937D01*
X1038437*
X1039063Y627625*
X1039375Y627000*
X1039063Y626375*
X1038437Y626063*
X1036250*
X1038437D02*
X1039375Y624187D01*
X1041250Y624500D02*
X1041875Y624187D01*
X1042813*
X1043437Y624500*
X1043750Y625125*
Y625437*
X1043437Y626063*
X1042813Y626375*
X1041250*
Y627937*
X1043750*
X1047187Y624187D02*
X1047813Y624500D01*
X1048437Y625125*
X1048750Y626063*
Y627000*
X1048437Y627625*
X1047813Y627937*
X1047187*
X1046563Y627625*
X1046250Y627000*
X1046563Y626375*
X1047187Y626063*
X1047813*
X1048437Y626375*
X1048750Y627000*
X1052113Y651187D02*
Y654937D01*
X1050550D02*
X1053675D01*
X1055550Y651187D02*
Y654937D01*
X1057737*
X1058363Y654625*
X1058675Y654000*
X1058363Y653375*
X1057737Y653063*
X1055550*
X1057737D02*
X1058675Y651187D01*
X1061175D02*
X1062425D01*
X1061800D02*
Y654937D01*
X1061175Y654313*
X1065863Y651500D02*
X1066487Y651187D01*
X1067113*
X1067737Y651500*
X1068050Y652125*
Y654000*
X1067737Y654625*
X1067113Y654937*
X1066487*
X1065863Y654625*
X1065550Y654000*
Y652125*
X1065863Y651500*
X1067737Y654625*
X1052313Y645687D02*
Y649437D01*
X1050750D02*
X1053875D01*
X1055750Y645687D02*
Y649437D01*
X1057937*
X1058563Y649125*
X1058875Y648500*
X1058563Y647875*
X1057937Y647563*
X1055750*
X1057937D02*
X1058875Y645687D01*
X1061375D02*
X1062625D01*
X1062000D02*
Y649437D01*
X1061375Y648813*
X1068250Y645687D02*
X1065750D01*
X1067937Y647875*
X1068250Y648500*
X1067937Y649125*
X1067313Y649437*
X1066375*
X1065750Y649125*
X1052313Y657187D02*
Y660937D01*
X1050750D02*
X1053875D01*
X1055750Y657187D02*
Y660937D01*
X1057937*
X1058563Y660625*
X1058875Y660000*
X1058563Y659375*
X1057937Y659063*
X1055750*
X1057937D02*
X1058875Y657187D01*
X1061687Y659063D02*
X1062313D01*
X1062937Y659375*
X1063250Y660000*
X1062937Y660625*
X1062313Y660937*
X1061687*
X1061063Y660625*
X1060750Y660000*
X1061063Y659375*
X1061687Y659063*
X1061063Y658750*
X1060750Y658125*
X1061063Y657500*
X1061687Y657187*
X1062313*
X1062937Y657500*
X1063250Y658125*
X1062937Y658750*
X1062313Y659063*
X1058375Y481813D02*
X1058063Y481500D01*
X1057437Y481187*
X1056500*
X1055875Y481500*
X1055563Y481813*
X1055250Y482437*
Y483687*
X1055563Y484313*
X1055875Y484625*
X1056500Y484937*
X1057437*
X1058063Y484625*
X1058375Y484313*
X1060563Y481500D02*
X1061187Y481187D01*
X1061813*
X1062437Y481500*
X1062750Y482125*
X1062437Y482750*
X1061813Y483063*
X1061187*
X1061813D02*
X1062437Y483375D01*
X1062750Y484000*
X1062437Y484625*
X1061813Y484937*
X1061187*
X1060563Y484625*
X1065875Y481187D02*
X1067125D01*
X1066500D02*
Y484937D01*
X1065875Y484313*
X1056750Y479750D02*
Y463750D01*
X1063750*
Y479750*
X1056750*
X1062250Y448187D02*
Y451937D01*
X1064437*
X1065063Y451625*
X1065375Y451000*
X1065063Y450375*
X1064437Y450063*
X1062250*
X1064437D02*
X1065375Y448187D01*
X1068813D02*
Y451937D01*
X1067250Y449437*
X1069750*
X1072250Y448500D02*
X1072875Y448187D01*
X1073813*
X1074437Y448500*
X1074750Y449125*
Y449437*
X1074437Y450063*
X1073813Y450375*
X1072250*
Y451937*
X1074750*
X1064313Y507750D02*
X1060563D01*
Y509937*
X1060875Y510563*
X1061500Y510875*
X1062125Y510563*
X1062437Y509937*
Y507750*
Y509937D02*
X1064313Y510875D01*
Y515250D02*
Y512750D01*
X1062125Y514937*
X1061500Y515250*
X1060875Y514937*
X1060563Y514313*
Y513375*
X1060875Y512750*
X1063375Y517750D02*
X1062750Y518063D01*
X1062437Y518687*
Y519313*
X1062750Y519937*
X1063375Y520250*
X1064000Y519937*
X1064313Y519313*
Y518687*
X1064000Y518063*
X1063375Y517750*
X1062437*
X1061500Y518063*
X1060875Y518687*
X1060563Y519313*
X1066250Y525250D02*
Y503250D01*
X1074250*
Y525250*
X1066250*
X1067250Y453250D02*
X1083250D01*
Y460250*
X1067250*
Y453250*
X1071313Y643187D02*
Y646937D01*
X1069750D02*
X1072875D01*
X1074750Y643187D02*
Y646937D01*
X1076937*
X1077563Y646625*
X1077875Y646000*
X1077563Y645375*
X1076937Y645063*
X1074750*
X1076937D02*
X1077875Y643187D01*
X1082250D02*
X1079750D01*
X1081937Y645375*
X1082250Y646000*
X1081937Y646625*
X1081313Y646937*
X1080375*
X1079750Y646625*
X1085063Y643500D02*
X1085687Y643187D01*
X1086313*
X1086937Y643500*
X1087250Y644125*
Y646000*
X1086937Y646625*
X1086313Y646937*
X1085687*
X1085063Y646625*
X1084750Y646000*
Y644125*
X1085063Y643500*
X1086937Y646625*
X1071313Y648187D02*
Y651937D01*
X1069750D02*
X1072875D01*
X1074750Y648187D02*
Y651937D01*
X1076937*
X1077563Y651625*
X1077875Y651000*
X1077563Y650375*
X1076937Y650063*
X1074750*
X1076937D02*
X1077875Y648187D01*
X1080375D02*
X1081625D01*
X1081000D02*
Y651937D01*
X1080375Y651313*
X1085687Y650063D02*
X1086313D01*
X1086937Y650375*
X1087250Y651000*
X1086937Y651625*
X1086313Y651937*
X1085687*
X1085063Y651625*
X1084750Y651000*
X1085063Y650375*
X1085687Y650063*
X1085063Y649750*
X1084750Y649125*
X1085063Y648500*
X1085687Y648187*
X1086313*
X1086937Y648500*
X1087250Y649125*
X1086937Y649750*
X1086313Y650063*
X1071313Y653687D02*
Y657437D01*
X1069750D02*
X1072875D01*
X1074750Y653687D02*
Y657437D01*
X1076937*
X1077563Y657125*
X1077875Y656500*
X1077563Y655875*
X1076937Y655563*
X1074750*
X1076937D02*
X1077875Y653687D01*
X1080375D02*
X1081625D01*
X1081000D02*
Y657437D01*
X1080375Y656813*
X1084750Y654625D02*
X1085063Y655250D01*
X1085687Y655563*
X1086313*
X1086937Y655250*
X1087250Y654625*
X1086937Y654000*
X1086313Y653687*
X1085687*
X1085063Y654000*
X1084750Y654625*
Y655563*
X1085063Y656500*
X1085687Y657125*
X1086313Y657437*
X1071313Y658687D02*
Y662437D01*
X1069750D02*
X1072875D01*
X1074750Y658687D02*
Y662437D01*
X1076937*
X1077563Y662125*
X1077875Y661500*
X1077563Y660875*
X1076937Y660563*
X1074750*
X1076937D02*
X1077875Y658687D01*
X1080375D02*
X1081625D01*
X1081000D02*
Y662437D01*
X1080375Y661813*
X1086313Y658687D02*
Y662437D01*
X1084750Y659937*
X1087250*
X1080750Y512687D02*
Y516437D01*
X1082937*
X1083563Y516125*
X1083875Y515500*
X1083563Y514875*
X1082937Y514563*
X1080750*
X1082937D02*
X1083875Y512687D01*
X1088250D02*
X1085750D01*
X1087937Y514875*
X1088250Y515500*
X1087937Y516125*
X1087313Y516437*
X1086375*
X1085750Y516125*
X1090750Y512687D02*
X1093250Y516437D01*
X1090750*
X1087250Y635750D02*
X1103250D01*
Y642750*
X1087250*
Y635750*
X1088250Y659250D02*
Y644250D01*
X1102250*
Y659250*
X1088350*
X1089250Y624687D02*
Y628437D01*
X1091437*
X1092063Y628125*
X1092375Y627500*
X1092063Y626875*
X1091437Y626563*
X1089250*
X1091437D02*
X1092375Y624687D01*
X1094250Y625625D02*
X1094563Y626250D01*
X1095187Y626563*
X1095813*
X1096437Y626250*
X1096750Y625625*
X1096437Y625000*
X1095813Y624687*
X1095187*
X1094563Y625000*
X1094250Y625625*
Y626563*
X1094563Y627500*
X1095187Y628125*
X1095813Y628437*
X1099875Y624687D02*
X1101125D01*
X1100500D02*
Y628437D01*
X1099875Y627813*
X1093579Y617976D02*
Y621726D01*
X1092017D02*
X1095142D01*
X1097017Y617976D02*
X1100142Y621726D01*
X1097017D02*
X1100142Y617976D01*
X1107017Y621726D02*
Y617976D01*
X1110142*
X1112017D02*
Y621726D01*
X1114204*
X1114829Y621413*
X1115142Y620788*
X1114829Y620163*
X1114204Y619851*
X1112017*
X1117017Y617976D02*
Y621726D01*
X1120142*
X1119517Y619851D02*
X1117017D01*
X1129517Y619538D02*
X1129204Y620163D01*
X1128579Y620476*
X1127954*
X1127329Y620163*
X1127017Y619538*
Y618913*
X1127329Y618288*
X1127954Y617976*
X1128579*
X1129204Y618288*
X1129517Y618913*
Y617976D02*
Y621726D01*
X1132017Y617976D02*
Y620476D01*
Y619538D02*
X1132329Y620163D01*
X1132954Y620476*
X1133579*
X1134204Y620163*
X1138267Y617976D02*
Y620476D01*
Y621413D02*
X1142017Y620476*
X1143267Y617976D01*
X1144517Y620476*
X1149517Y618288D02*
X1149204Y617976D01*
X1148579*
X1147954*
X1147329Y618288*
X1147017Y618913*
Y619851*
X1147329Y620163*
X1147954Y620476*
X1148579*
X1149204Y620163*
X1149517Y619851*
Y619538*
X1149204Y619226*
X1148579Y618913*
X1147954*
X1147329Y619226*
X1147017Y619538*
X1152017Y617976D02*
Y620476D01*
Y619538D02*
X1152329Y620163D01*
X1152954Y620476*
X1153579*
X1154204Y620163*
X1157017Y618288D02*
X1157642Y617976D01*
X1158892*
X1159517Y618288*
Y618913*
X1158892Y619226*
X1157642*
X1157017Y619538*
Y620163*
X1157642Y620476*
X1158892*
X1159517Y620163*
X1097750Y438187D02*
Y441937D01*
X1099937*
X1100563Y441625*
X1100875Y441000*
X1100563Y440375*
X1099937Y440063*
X1097750*
X1099937D02*
X1100875Y438187D01*
X1104313D02*
Y441937D01*
X1102750Y439437*
X1105250*
X1108375Y438187D02*
X1109625D01*
X1109000D02*
Y441937D01*
X1108375Y441313*
X1098750Y510750D02*
X1076750D01*
Y502750*
X1098750*
Y510750*
X1099250Y437250D02*
Y421250D01*
X1106250*
Y437250*
X1099250*
X1103375Y687813D02*
X1103063Y687500D01*
X1102437Y687187*
X1101500*
X1100875Y687500*
X1100563Y687813*
X1100250Y688437*
Y689687*
X1100563Y690313*
X1100875Y690625*
X1101500Y690937*
X1102437*
X1103063Y690625*
X1103375Y690313*
X1105250Y688437D02*
Y689687D01*
X1105563Y690313*
X1105875Y690625*
X1106500Y690937*
X1107125*
X1107750Y690625*
X1108063Y690313*
X1108375Y689687*
Y688437*
X1108063Y687813*
X1107750Y687500*
X1107125Y687187*
X1106500*
X1105875Y687500*
X1105563Y687813*
X1105250Y688437*
X1110250Y687187D02*
Y690937D01*
X1113375Y687187*
Y690937*
X1115250Y687187D02*
Y690937D01*
X1118375Y687187*
Y690937*
X1120563Y687500D02*
X1121187Y687187D01*
X1121813*
X1122437Y687500*
X1122750Y688125*
X1122437Y688750*
X1121813Y689063*
X1121187*
X1121813D02*
X1122437Y689375D01*
X1122750Y690000*
X1122437Y690625*
X1121813Y690937*
X1121187*
X1120563Y690625*
X1101250Y525250D02*
Y503250D01*
X1109250*
Y525250*
X1101250*
X1106313Y527250D02*
X1102563D01*
Y529437*
X1102875Y530063*
X1103500Y530375*
X1104125Y530063*
X1104437Y529437*
Y527250*
Y529437D02*
X1106313Y530375D01*
Y534750D02*
Y532250D01*
X1104125Y534437*
X1103500Y534750*
X1102875Y534437*
X1102563Y533813*
Y532875*
X1102875Y532250*
X1106000Y537250D02*
X1106313Y537875D01*
Y538813*
X1106000Y539437*
X1105375Y539750*
X1105063*
X1104437Y539437*
X1104125Y538813*
Y537250*
X1102563*
Y539750*
X1107250Y635750D02*
X1123250D01*
Y642750*
X1107250*
Y635750*
X1108250Y659250D02*
Y644250D01*
X1122250*
Y659250*
X1108350*
X1108750Y623787D02*
Y627537D01*
X1110937*
X1111563Y627225*
X1111875Y626600*
X1111563Y625975*
X1110937Y625663*
X1108750*
X1110937D02*
X1111875Y623787D01*
X1113750Y624725D02*
X1114063Y625350D01*
X1114687Y625663*
X1115313*
X1115937Y625350*
X1116250Y624725*
X1115937Y624100*
X1115313Y623787*
X1114687*
X1114063Y624100*
X1113750Y624725*
Y625663*
X1114063Y626600*
X1114687Y627225*
X1115313Y627537*
X1119063Y624100D02*
X1119687Y623787D01*
X1120313*
X1120937Y624100*
X1121250Y624725*
X1120937Y625350*
X1120313Y625663*
X1119687*
X1120313D02*
X1120937Y625975D01*
X1121250Y626600*
X1120937Y627225*
X1120313Y627537*
X1119687*
X1119063Y627225*
X1111250Y525250D02*
Y503250D01*
X1119250*
Y525250*
X1111250*
X1116250Y448687D02*
Y452437D01*
X1118437*
X1119063Y452125*
X1119375Y451500*
X1119063Y450875*
X1118437Y450563*
X1116250*
X1118437D02*
X1119375Y448687D01*
X1122813D02*
Y452437D01*
X1121250Y449937*
X1123750*
X1126250Y449625D02*
X1126563Y450250D01*
X1127187Y450563*
X1127813*
X1128437Y450250*
X1128750Y449625*
X1128437Y449000*
X1127813Y448687*
X1127187*
X1126563Y449000*
X1126250Y449625*
Y450563*
X1126563Y451500*
X1127187Y452125*
X1127813Y452437*
X1117313Y526750D02*
X1113563D01*
Y528937*
X1113875Y529563*
X1114500Y529875*
X1115125Y529563*
X1115437Y528937*
Y526750*
Y528937D02*
X1117313Y529875D01*
Y534250D02*
Y531750D01*
X1115125Y533937*
X1114500Y534250*
X1113875Y533937*
X1113563Y533313*
Y532375*
X1113875Y531750*
X1117313Y537687D02*
X1117000Y538313D01*
X1116375Y538937*
X1115437Y539250*
X1114500*
X1113875Y538937*
X1113563Y538313*
Y537687*
X1113875Y537063*
X1114500Y536750*
X1115125Y537063*
X1115437Y537687*
Y538313*
X1115125Y538937*
X1114500Y539250*
X1119750Y453250D02*
X1135750D01*
Y460250*
X1119750*
Y453250*
X1127250Y635750D02*
X1143250D01*
Y642750*
X1127250*
Y635750*
X1128250Y659250D02*
Y644250D01*
X1142250*
Y659250*
X1128350*
X1128750Y512187D02*
Y515937D01*
X1130937*
X1131563Y515625*
X1131875Y515000*
X1131563Y514375*
X1130937Y514063*
X1128750*
X1130937D02*
X1131875Y512187D01*
X1134063Y512500D02*
X1134687Y512187D01*
X1135313*
X1135937Y512500*
X1136250Y513125*
X1135937Y513750*
X1135313Y514063*
X1134687*
X1135313D02*
X1135937Y514375D01*
X1136250Y515000*
X1135937Y515625*
X1135313Y515937*
X1134687*
X1134063Y515625*
X1139063Y512500D02*
X1139687Y512187D01*
X1140313*
X1140937Y512500*
X1141250Y513125*
Y515000*
X1140937Y515625*
X1140313Y515937*
X1139687*
X1139063Y515625*
X1138750Y515000*
Y513125*
X1139063Y512500*
X1140937Y515625*
X1129250Y624187D02*
Y627937D01*
X1131437*
X1132063Y627625*
X1132375Y627000*
X1132063Y626375*
X1131437Y626063*
X1129250*
X1131437D02*
X1132375Y624187D01*
X1134250Y625125D02*
X1134563Y625750D01*
X1135187Y626063*
X1135813*
X1136437Y625750*
X1136750Y625125*
X1136437Y624500*
X1135813Y624187*
X1135187*
X1134563Y624500*
X1134250Y625125*
Y626063*
X1134563Y627000*
X1135187Y627625*
X1135813Y627937*
X1139250Y624500D02*
X1139875Y624187D01*
X1140813*
X1141437Y624500*
X1141750Y625125*
Y625437*
X1141437Y626063*
X1140813Y626375*
X1139250*
Y627937*
X1141750*
X1146250Y510750D02*
X1124250D01*
Y502750*
X1146250*
Y510750*
X1147250Y635750D02*
X1163250D01*
Y642750*
X1147250*
Y635750*
X1148250Y659250D02*
Y644250D01*
X1162250*
Y659250*
X1148350*
X1148750Y624687D02*
Y628437D01*
X1150937*
X1151563Y628125*
X1151875Y627500*
X1151563Y626875*
X1150937Y626563*
X1148750*
X1150937D02*
X1151875Y624687D01*
X1153750Y625625D02*
X1154063Y626250D01*
X1154687Y626563*
X1155313*
X1155937Y626250*
X1156250Y625625*
X1155937Y625000*
X1155313Y624687*
X1154687*
X1154063Y625000*
X1153750Y625625*
Y626563*
X1154063Y627500*
X1154687Y628125*
X1155313Y628437*
X1158750Y624687D02*
X1161250Y628437D01*
X1158750*
X1151250Y525250D02*
Y503250D01*
X1159250*
Y525250*
X1151250*
X1156875Y411813D02*
X1156563Y411500D01*
X1155937Y411187*
X1155000*
X1154375Y411500*
X1154063Y411813*
X1153750Y412437*
Y413687*
X1154063Y414313*
X1154375Y414625*
X1155000Y414937*
X1155937*
X1156563Y414625*
X1156875Y414313*
X1159063Y411500D02*
X1159687Y411187D01*
X1160313*
X1160937Y411500*
X1161250Y412125*
X1160937Y412750*
X1160313Y413063*
X1159687*
X1160313D02*
X1160937Y413375D01*
X1161250Y414000*
X1160937Y414625*
X1160313Y414937*
X1159687*
X1159063Y414625*
X1166250Y411187D02*
X1163750D01*
X1165937Y413375*
X1166250Y414000*
X1165937Y414625*
X1165313Y414937*
X1164375*
X1163750Y414625*
X1157250Y403250D02*
X1173250D01*
Y410250*
X1157250*
Y403250*
X1156313Y526250D02*
X1152563D01*
Y528437*
X1152875Y529063*
X1153500Y529375*
X1154125Y529063*
X1154437Y528437*
Y526250*
Y528437D02*
X1156313Y529375D01*
Y533750D02*
Y531250D01*
X1154125Y533437*
X1153500Y533750*
X1152875Y533437*
X1152563Y532813*
Y531875*
X1152875Y531250*
X1154437Y537187D02*
Y537813D01*
X1154125Y538437*
X1153500Y538750*
X1152875Y538437*
X1152563Y537813*
Y537187*
X1152875Y536563*
X1153500Y536250*
X1154125Y536563*
X1154437Y537187*
X1154750Y536563*
X1155375Y536250*
X1156000Y536563*
X1156313Y537187*
Y537813*
X1156000Y538437*
X1155375Y538750*
X1154750Y538437*
X1154437Y537813*
X1164517Y457976D02*
Y461726D01*
X1166704*
X1167329Y461413*
X1167642Y460788*
X1167329Y460163*
X1166704Y459851*
X1164517*
X1166704D02*
X1167642Y457976D01*
X1169517D02*
X1172642Y461726D01*
X1169517D02*
X1172642Y457976D01*
X1177017D02*
X1174517D01*
X1176704Y460163*
X1177017Y460788*
X1176704Y461413*
X1176079Y461726*
X1175142*
X1174517Y461413*
X1184517Y458913D02*
X1184829Y458288D01*
X1185454Y457976*
X1186079*
X1186704Y458288*
X1187017Y458913*
Y459538*
X1186704Y460163*
X1186079Y460476*
X1185454*
X1184829Y460163*
X1184517Y459538*
Y458913*
X1189517Y460476D02*
Y458913D01*
X1189829Y458288*
X1190454Y457976*
X1191079*
X1191704Y458288*
X1192017Y458913*
Y460476D02*
Y457976D01*
X1195142Y460476D02*
X1196392D01*
X1195767Y461101D02*
Y458288D01*
X1196079Y457976*
X1196392*
X1196704Y458288*
X1167250Y648250D02*
X1183250D01*
Y655250*
X1167250*
Y648250*
X1174875Y657313D02*
X1174563Y657000D01*
X1173937Y656687*
X1173000*
X1172375Y657000*
X1172063Y657313*
X1171750Y657937*
Y659187*
X1172063Y659813*
X1172375Y660125*
X1173000Y660437*
X1173937*
X1174563Y660125*
X1174875Y659813*
X1176750Y657000D02*
X1177375Y656687D01*
X1178313*
X1178937Y657000*
X1179250Y657625*
Y657937*
X1178937Y658563*
X1178313Y658875*
X1176750*
Y660437*
X1179250*
X1173250Y435687D02*
Y439437D01*
X1175437*
X1176063Y439125*
X1176375Y438500*
X1176063Y437875*
X1175437Y437563*
X1173250*
X1175437D02*
X1176375Y435687D01*
X1179813D02*
Y439437D01*
X1178250Y436937*
X1180750*
X1185750Y435687D02*
X1183250D01*
X1185437Y437875*
X1185750Y438500*
X1185437Y439125*
X1184813Y439437*
X1183875*
X1183250Y439125*
X1176750Y434750D02*
Y418750D01*
X1183750*
Y434750*
X1176750*
X1182875Y687813D02*
X1182563Y687500D01*
X1181937Y687187*
X1181000*
X1180375Y687500*
X1180063Y687813*
X1179750Y688437*
Y689687*
X1180063Y690313*
X1180375Y690625*
X1181000Y690937*
X1181937*
X1182563Y690625*
X1182875Y690313*
X1185063Y687500D02*
X1185687Y687187D01*
X1186313*
X1186937Y687500*
X1187250Y688125*
X1186937Y688750*
X1186313Y689063*
X1185687*
X1186313D02*
X1186937Y689375D01*
X1187250Y690000*
X1186937Y690625*
X1186313Y690937*
X1185687*
X1185063Y690625*
X1189750Y688125D02*
X1190063Y688750D01*
X1190687Y689063*
X1191313*
X1191937Y688750*
X1192250Y688125*
X1191937Y687500*
X1191313Y687187*
X1190687*
X1190063Y687500*
X1189750Y688125*
Y689063*
X1190063Y690000*
X1190687Y690625*
X1191313Y690937*
X1183875Y514313D02*
X1183563Y514000D01*
X1182937Y513687*
X1182000*
X1181375Y514000*
X1181063Y514313*
X1180750Y514937*
Y516187*
X1181063Y516813*
X1181375Y517125*
X1182000Y517437*
X1182937*
X1183563Y517125*
X1183875Y516813*
X1186063Y514000D02*
X1186687Y513687D01*
X1187313*
X1187937Y514000*
X1188250Y514625*
X1187937Y515250*
X1187313Y515563*
X1186687*
X1187313D02*
X1187937Y515875D01*
X1188250Y516500*
X1187937Y517125*
X1187313Y517437*
X1186687*
X1186063Y517125*
X1190750Y514000D02*
X1191375Y513687D01*
X1192313*
X1192937Y514000*
X1193250Y514625*
Y514937*
X1192937Y515563*
X1192313Y515875*
X1190750*
Y517437*
X1193250*
X1186750Y655250D02*
Y639250D01*
X1193750*
Y655250*
X1186750*
X1187750Y537687D02*
Y541437D01*
X1189937*
X1190563Y541125*
X1190875Y540500*
X1190563Y539875*
X1189937Y539563*
X1187750*
X1192750Y541437D02*
Y537687D01*
X1195875*
X1197750Y538625D02*
X1198063Y539250D01*
X1198687Y539563*
X1199313*
X1199937Y539250*
X1200250Y538625*
X1199937Y538000*
X1199313Y537687*
X1198687*
X1198063Y538000*
X1197750Y538625*
Y539563*
X1198063Y540500*
X1198687Y541125*
X1199313Y541437*
X1190875Y560313D02*
X1190563Y560000D01*
X1189937Y559687*
X1189000*
X1188375Y560000*
X1188063Y560313*
X1187750Y560937*
Y562187*
X1188063Y562813*
X1188375Y563125*
X1189000Y563437*
X1189937*
X1190563Y563125*
X1190875Y562813*
X1193063Y560000D02*
X1193687Y559687D01*
X1194313*
X1194937Y560000*
X1195250Y560625*
X1194937Y561250*
X1194313Y561563*
X1193687*
X1194313D02*
X1194937Y561875D01*
X1195250Y562500*
X1194937Y563125*
X1194313Y563437*
X1193687*
X1193063Y563125*
X1199313Y559687D02*
Y563437D01*
X1197750Y560937*
X1200250*
X1190750Y662650D02*
Y685850D01*
X1179750*
Y662650*
X1190750*
X1192017Y545476D02*
Y549226D01*
X1195142*
X1194517Y547351D02*
X1192017D01*
X1197017Y547663D02*
X1197642Y547976D01*
X1198579*
X1199204Y547663*
X1199517Y547038*
Y546101*
X1199204Y545788*
X1198579Y545476*
X1197954*
X1197329Y545788*
X1197017Y546101*
Y546413*
X1197329Y546726*
X1197954Y547038*
X1198579*
X1199204Y546726*
X1199517Y546413*
Y546101D02*
Y545476D01*
X1202017D02*
Y547976D01*
Y547038D02*
X1202329Y547663D01*
X1202954Y547976*
X1203579*
X1204204Y547663*
X1204517Y547038*
Y545476*
X1222017Y546726D02*
X1224517D01*
X1223267Y545476D02*
Y547976D01*
X1227642Y545476D02*
X1228892D01*
X1228267D02*
Y549226D01*
X1227642Y548601*
X1234517Y545476D02*
X1232017D01*
X1234204Y547663*
X1234517Y548288*
X1234204Y548913*
X1233579Y549226*
X1232642*
X1232017Y548913*
X1237017Y549226D02*
X1238579Y545476D01*
X1240142Y549226*
X1192250Y550750D02*
X1208250D01*
Y557750*
X1192250*
Y550750*
X1194517Y592976D02*
Y596726D01*
X1196704*
X1197329Y596413*
X1197642Y595788*
X1197329Y595163*
X1196704Y594851*
X1194517*
X1196704D02*
X1197642Y592976D01*
X1199517D02*
X1202642Y596726D01*
X1199517D02*
X1202642Y592976D01*
X1205142D02*
X1206392D01*
X1205767D02*
Y596726D01*
X1205142Y596101*
X1214517Y593913D02*
X1214829Y593288D01*
X1215454Y592976*
X1216079*
X1216704Y593288*
X1217017Y593913*
Y594538*
X1216704Y595163*
X1216079Y595476*
X1215454*
X1214829Y595163*
X1214517Y594538*
Y593913*
X1219517Y595476D02*
Y593913D01*
X1219829Y593288*
X1220454Y592976*
X1221079*
X1221704Y593288*
X1222017Y593913*
Y595476D02*
Y592976D01*
X1225142Y595476D02*
X1226392D01*
X1225767Y596101D02*
Y593288D01*
X1226079Y592976*
X1226392*
X1226704Y593288*
X1197875Y438813D02*
X1197563Y438500D01*
X1196937Y438187*
X1196000*
X1195375Y438500*
X1195063Y438813*
X1194750Y439437*
Y440687*
X1195063Y441313*
X1195375Y441625*
X1196000Y441937*
X1196937*
X1197563Y441625*
X1197875Y441313*
X1200063Y438500D02*
X1200687Y438187D01*
X1201313*
X1201937Y438500*
X1202250Y439125*
X1201937Y439750*
X1201313Y440063*
X1200687*
X1201313D02*
X1201937Y440375D01*
X1202250Y441000*
X1201937Y441625*
X1201313Y441937*
X1200687*
X1200063Y441625*
X1205063Y438500D02*
X1205687Y438187D01*
X1206313*
X1206937Y438500*
X1207250Y439125*
X1206937Y439750*
X1206313Y440063*
X1205687*
X1206313D02*
X1206937Y440375D01*
X1207250Y441000*
X1206937Y441625*
X1206313Y441937*
X1205687*
X1205063Y441625*
X1194750Y443250D02*
X1210750D01*
Y450250*
X1194750*
Y443250*
X1198813Y643750D02*
X1195063D01*
Y645937*
X1195375Y646563*
X1196000Y646875*
X1196625Y646563*
X1196937Y645937*
Y643750*
Y645937D02*
X1198813Y646875D01*
X1198500Y649063D02*
X1198813Y649687D01*
Y650313*
X1198500Y650937*
X1197875Y651250*
X1197250Y650937*
X1196937Y650313*
Y649687*
Y650313D02*
X1196625Y650937D01*
X1196000Y651250*
X1195375Y650937*
X1195063Y650313*
Y649687*
X1195375Y649063*
X1198813Y655313D02*
X1195063D01*
X1197563Y653750*
Y656250*
X1200750Y529687D02*
Y533437D01*
X1202937*
X1203563Y533125*
X1203875Y532500*
X1203563Y531875*
X1202937Y531563*
X1200750*
X1202937D02*
X1203875Y529687D01*
X1207313D02*
Y533437D01*
X1205750Y530937*
X1208250*
X1212313Y529687D02*
Y533437D01*
X1210750Y530937*
X1213250*
X1201850Y512250D02*
X1178650D01*
Y501250*
X1201850*
Y512250*
X1209250Y586187D02*
Y589937D01*
X1211437*
X1212063Y589625*
X1212375Y589000*
X1212063Y588375*
X1211437Y588063*
X1209250*
X1211437D02*
X1212375Y586187D01*
X1215813D02*
Y589937D01*
X1214250Y587437*
X1216750*
X1219250Y586187D02*
X1221750Y589937D01*
X1219250*
X1214250Y474750D02*
Y458750D01*
X1221250*
Y474750*
X1214250*
Y529750D02*
Y513750D01*
X1221250*
Y529750*
X1214250*
Y584750D02*
Y568750D01*
X1221250*
Y584750*
X1214250*
X1219313Y476750D02*
X1215563D01*
Y478937*
X1215875Y479563*
X1216500Y479875*
X1217125Y479563*
X1217437Y478937*
Y476750*
Y478937D02*
X1219313Y479875D01*
Y483313D02*
X1215563D01*
X1218063Y481750*
Y484250*
X1219000Y487063D02*
X1219313Y487687D01*
Y488313*
X1219000Y488937*
X1218375Y489250*
X1217750Y488937*
X1217437Y488313*
Y487687*
Y488313D02*
X1217125Y488937D01*
X1216500Y489250*
X1215875Y488937*
X1215563Y488313*
Y487687*
X1215875Y487063*
X1223750Y641250D02*
Y657250D01*
X1216750*
Y641250*
X1223750*
X1228375Y653313D02*
X1228063Y653000D01*
X1227437Y652687*
X1226500*
X1225875Y653000*
X1225563Y653313*
X1225250Y653937*
Y655187*
X1225563Y655813*
X1225875Y656125*
X1226500Y656437*
X1227437*
X1228063Y656125*
X1228375Y655813*
X1230250Y652687D02*
X1232750Y656437D01*
X1230250*
X1233579Y592976D02*
Y596726D01*
X1232017D02*
X1235142D01*
X1237017Y592976D02*
X1240142Y596726D01*
X1237017D02*
X1240142Y592976D01*
X1247017Y593913D02*
X1247329Y593288D01*
X1247954Y592976*
X1249204*
X1249829Y593288*
X1250142Y593913*
X1249829Y594538*
X1249204Y594851*
X1247954*
X1247329Y595163*
X1247017Y595788*
X1247329Y596413*
X1247954Y596726*
X1249204*
X1249829Y596413*
X1250142Y595788*
X1252017Y595163D02*
X1252642Y595476D01*
X1253579*
X1254204Y595163*
X1254517Y594538*
Y593601*
X1254204Y593288*
X1253579Y592976*
X1252954*
X1252329Y593288*
X1252017Y593601*
Y593913*
X1252329Y594226*
X1252954Y594538*
X1253579*
X1254204Y594226*
X1254517Y593913*
Y593601D02*
Y592976D01*
X1257017D02*
Y595476D01*
Y595163D02*
X1257329Y595476D01*
X1257954*
X1258267Y595163*
Y594226*
Y595163D02*
X1258579Y595476D01*
X1259204*
X1259517Y595163*
Y592976*
X1262017Y595476D02*
Y592038D01*
Y593913D02*
X1262329Y593288D01*
X1262954Y592976*
X1263579*
X1264204Y593288*
X1264517Y593913*
Y594538*
X1264204Y595163*
X1263579Y595476*
X1262954*
X1262329Y595163*
X1262017Y594538*
Y593913*
X1268579Y592976D02*
X1268267D01*
Y596726*
X1274517Y593288D02*
X1274204Y592976D01*
X1273579*
X1272954*
X1272329Y593288*
X1272017Y593913*
Y594851*
X1272329Y595163*
X1272954Y595476*
X1273579*
X1274204Y595163*
X1274517Y594851*
Y594538*
X1274204Y594226*
X1273579Y593913*
X1272954*
X1272329Y594226*
X1272017Y594538*
X1239750Y480187D02*
Y483937D01*
X1241937*
X1242563Y483625*
X1242875Y483000*
X1242563Y482375*
X1241937Y482063*
X1239750*
X1241937D02*
X1242875Y480187D01*
X1247250D02*
X1244750D01*
X1246937Y482375*
X1247250Y483000*
X1246937Y483625*
X1246313Y483937*
X1245375*
X1244750Y483625*
X1250063Y480500D02*
X1250687Y480187D01*
X1251313*
X1251937Y480500*
X1252250Y481125*
Y483000*
X1251937Y483625*
X1251313Y483937*
X1250687*
X1250063Y483625*
X1249750Y483000*
Y481125*
X1250063Y480500*
X1251937Y483625*
X1240250Y489687D02*
Y493437D01*
X1242437*
X1243063Y493125*
X1243375Y492500*
X1243063Y491875*
X1242437Y491563*
X1240250*
X1242437D02*
X1243375Y489687D01*
X1247750D02*
X1245250D01*
X1247437Y491875*
X1247750Y492500*
X1247437Y493125*
X1246813Y493437*
X1245875*
X1245250Y493125*
X1252750Y489687D02*
X1250250D01*
X1252437Y491875*
X1252750Y492500*
X1252437Y493125*
X1251813Y493437*
X1250875*
X1250250Y493125*
X1256250Y427687D02*
Y431437D01*
X1258437*
X1259063Y431125*
X1259375Y430500*
X1259063Y429875*
X1258437Y429563*
X1256250*
X1258437D02*
X1259375Y427687D01*
X1261875D02*
X1263125D01*
X1262500D02*
Y431437D01*
X1261875Y430813*
X1267187Y427687D02*
X1267813Y428000D01*
X1268437Y428625*
X1268750Y429563*
Y430500*
X1268437Y431125*
X1267813Y431437*
X1267187*
X1266563Y431125*
X1266250Y430500*
X1266563Y429875*
X1267187Y429563*
X1267813*
X1268437Y429875*
X1268750Y430500*
X1257250Y542187D02*
Y545937D01*
X1259437*
X1260063Y545625*
X1260375Y545000*
X1260063Y544375*
X1259437Y544063*
X1257250*
X1259437D02*
X1260375Y542187D01*
X1264750D02*
X1262250D01*
X1264437Y544375*
X1264750Y545000*
X1264437Y545625*
X1263813Y545937*
X1262875*
X1262250Y545625*
X1267563Y542500D02*
X1268187Y542187D01*
X1268813*
X1269437Y542500*
X1269750Y543125*
X1269437Y543750*
X1268813Y544063*
X1268187*
X1268813D02*
X1269437Y544375D01*
X1269750Y545000*
X1269437Y545625*
X1268813Y545937*
X1268187*
X1267563Y545625*
X1265250Y472187D02*
Y475937D01*
X1267437*
X1268063Y475625*
X1268375Y475000*
X1268063Y474375*
X1267437Y474063*
X1265250*
X1267437D02*
X1268375Y472187D01*
X1272750D02*
X1270250D01*
X1272437Y474375*
X1272750Y475000*
X1272437Y475625*
X1271813Y475937*
X1270875*
X1270250Y475625*
X1275875Y472187D02*
X1277125D01*
X1276500D02*
Y475937D01*
X1275875Y475313*
X1265250Y527187D02*
Y530937D01*
X1267437*
X1268063Y530625*
X1268375Y530000*
X1268063Y529375*
X1267437Y529063*
X1265250*
X1267437D02*
X1268375Y527187D01*
X1272750D02*
X1270250D01*
X1272437Y529375*
X1272750Y530000*
X1272437Y530625*
X1271813Y530937*
X1270875*
X1270250Y530625*
X1276813Y527187D02*
Y530937D01*
X1275250Y528437*
X1277750*
X1274250Y448250D02*
Y470250D01*
X1266250*
Y448250*
X1274250*
Y503250D02*
Y525250D01*
X1266250*
Y503250*
X1274250*
X1276250Y440750D02*
X1254250D01*
Y432750*
X1276250*
Y440750*
Y485750D02*
X1254250D01*
Y477750*
X1276250*
Y485750*
Y495750D02*
X1254250D01*
Y487750*
X1276250*
Y495750*
Y540750D02*
X1254250D01*
Y532750*
X1276250*
Y540750*
D02*
D12*
X685250Y601750D02*
Y571750D01*
X695250*
Y601750*
X685250*
Y644250D02*
Y614250D01*
X695250*
Y644250*
X685250*
X692848Y466179D02*
Y457518D01*
X700919Y449447D02*
X709581D01*
X700919Y474250D02*
X709581D01*
X717652Y466179D02*
Y457518D01*
X780506Y333266D02*
Y251770D01*
X729994*
Y333266*
X783793D02*
Y388778D01*
X726707*
Y333266*
X783793*
X817750Y664250D02*
X787750D01*
Y654250*
X817750*
Y664250*
Y684250D02*
X787750D01*
Y674250*
X817750*
Y684250*
X830250D02*
Y654250D01*
X840250*
Y684250*
X830250*
X855506Y333266D02*
Y251770D01*
X804994*
Y333266*
X858793D02*
Y388778D01*
X801707*
Y333266*
X858793*
X922848Y513679D02*
Y505018D01*
X930506Y333266D02*
Y251770D01*
X879994*
Y333266*
X930919Y496947D02*
X939581D01*
X930919Y521750D02*
X939581D01*
X933793Y333266D02*
Y388778D01*
X876707*
Y333266*
X933793*
X947652Y513679D02*
Y505018D01*
X960565Y432045D02*
Y406455D01*
X962364Y402911D02*
G75*
G02X961915I-224D01*
G01*
X962364D02*
G75*
G02X961915I-224D01*
G01*
G75*
G02X962364I224*
G01*
X964955Y462065D02*
X990545D01*
X964955Y501435D02*
X990545D01*
X994089Y463864D02*
G75*
G02Y463415J-224D01*
G01*
Y463864D02*
G75*
G02Y463415J-224D01*
G01*
G75*
G02Y463864J224*
G01*
X999935Y432045D02*
Y406455D01*
X1005506Y333266D02*
Y251770D01*
X954994*
Y333266*
X1008793D02*
Y388778D01*
X951707*
Y333266*
X1008793*
X1024955Y462065D02*
X1050545D01*
X1024955Y501435D02*
X1050545D01*
X1033065Y432045D02*
Y406455D01*
X1034864Y402911D02*
G75*
G02X1034415I-224D01*
G01*
X1034864D02*
G75*
G02X1034415I-224D01*
G01*
G75*
G02X1034864I224*
G01*
X1054089Y463864D02*
G75*
G02Y463415J-224D01*
G01*
Y463864D02*
G75*
G02Y463415J-224D01*
G01*
G75*
G02Y463864J224*
G01*
X1072435Y432045D02*
Y406455D01*
X1072455Y462065D02*
X1098045D01*
X1072455Y501435D02*
X1098045D01*
X1080506Y333266D02*
Y251770D01*
X1029994*
Y333266*
X1083793D02*
Y388778D01*
X1026707*
Y333266*
X1083793*
X1101589Y463864D02*
G75*
G02Y463415J-224D01*
G01*
Y463864D02*
G75*
G02Y463415J-224D01*
G01*
G75*
G02Y463864J224*
G01*
X1110565Y432045D02*
Y406455D01*
X1112364Y402911D02*
G75*
G02X1111915I-224D01*
G01*
X1112364D02*
G75*
G02X1111915I-224D01*
G01*
G75*
G02X1112364I224*
G01*
X1122455Y462065D02*
X1148045D01*
X1122455Y501435D02*
X1148045D01*
X1149935Y432045D02*
Y406455D01*
X1151589Y463864D02*
G75*
G02Y463415J-224D01*
G01*
Y463864D02*
G75*
G02Y463415J-224D01*
G01*
G75*
G02Y463864J224*
G01*
X1155506Y333266D02*
Y251770D01*
X1104994*
Y333266*
X1158793D02*
Y388778D01*
X1101707*
Y333266*
X1158793*
X1170348Y483679D02*
Y475018D01*
X1178419Y466947D02*
X1187081D01*
X1178419Y491750D02*
X1187081D01*
X1185565Y432045D02*
Y406455D01*
X1187364Y402911D02*
G75*
G02X1186915I-224D01*
G01*
X1187364D02*
G75*
G02X1186915I-224D01*
G01*
G75*
G02X1187364I224*
G01*
X1195152Y483679D02*
Y475018D01*
X1197848Y618679D02*
Y610018D01*
X1205919Y601947D02*
X1214581D01*
X1205919Y626750D02*
X1214581D01*
X1222652Y618679D02*
Y610018D01*
X1222750Y544250D02*
X1202750D01*
Y534250*
X1222750*
Y544250*
X1223065Y472045D02*
Y446455D01*
Y527045D02*
Y501455D01*
Y582045D02*
Y556455D01*
X1224864Y442911D02*
G75*
G02X1224415I-224D01*
G01*
X1224864D02*
G75*
G02X1224415I-224D01*
G01*
G75*
G02X1224864I224*
G01*
Y497911D02*
G75*
G02X1224415I-224D01*
G01*
X1224864D02*
G75*
G02X1224415I-224D01*
G01*
G75*
G02X1224864I224*
G01*
Y552911D02*
G75*
G02X1224415I-224D01*
G01*
X1224864D02*
G75*
G02X1224415I-224D01*
G01*
G75*
G02X1224864I224*
G01*
X1224935Y432045D02*
Y406455D01*
X1230506Y333266D02*
Y251770D01*
X1179994*
Y333266*
X1233793D02*
Y388778D01*
X1176707*
Y333266*
X1233793*
X1237848Y618679D02*
Y610018D01*
X1245919Y601947D02*
X1254581D01*
X1245919Y626750D02*
X1254581D01*
X1262435Y472045D02*
Y446455D01*
Y527045D02*
Y501455D01*
Y582045D02*
Y556455D01*
X1262652Y618679D02*
Y610018D01*
D02*
D13*
X757250Y446750D02*
Y496750D01*
X743250*
Y446750*
X757250*
X794750Y451750D02*
Y501750D01*
X780750*
Y451750*
X794750*
X865000Y663750D02*
X920500D01*
Y711750*
X865000*
Y663750*
X935000D02*
X1070500D01*
Y711750*
X935000*
Y663750*
X1087500D02*
X1173000D01*
Y711750*
X1087500*
Y663750*
D02*
D14*
X699789Y412148D02*
Y421596D01*
X704711Y414904D02*
Y421596D01*
X715384Y405510D02*
Y416140D01*
X707116*
Y405510*
X716116Y404880D02*
Y433620D01*
X717317Y398033D02*
G75*
G02X716608I-354D01*
G01*
X717317D02*
G75*
G02X716608I-354D01*
G01*
G75*
G02X717317I354*
G01*
X723604Y404880D02*
X737069D01*
X723604Y433620D02*
X737069D01*
X736510Y667616D02*
X747140D01*
Y675884*
X736510*
X743990Y685884D02*
X733360D01*
Y677616*
X743990*
X760191Y620057D02*
Y630096D01*
X763821Y404880D02*
X774384D01*
Y433620*
X763821*
X765309Y623404D02*
Y630096D01*
X775191Y595096D02*
Y588404D01*
X780309Y598443D02*
Y588404D01*
X785289Y415648D02*
Y425096D01*
X790211Y418404D02*
Y425096D01*
X800384Y405510D02*
Y416140D01*
X792116*
Y405510*
X801116Y404880D02*
Y433620D01*
X802317Y398033D02*
G75*
G02X801608I-354D01*
G01*
X802317D02*
G75*
G02X801608I-354D01*
G01*
G75*
G02X802317I354*
G01*
X808604Y404880D02*
X822069D01*
X808604Y433620D02*
X822069D01*
X812691Y610057D02*
Y620096D01*
X817809Y613404D02*
Y620096D01*
X848821Y404880D02*
X859384D01*
Y433620*
X848821*
X852691Y570096D02*
Y563404D01*
X857809Y573443D02*
Y563404D01*
X862789Y413148D02*
Y422596D01*
X867711Y415904D02*
Y422596D01*
X873380Y472604D02*
Y486069D01*
X879384Y405510D02*
Y416140D01*
X871116*
Y405510*
X881116Y404880D02*
Y433620D01*
X882317Y398033D02*
G75*
G02X881608I-354D01*
G01*
X882317D02*
G75*
G02X881608I-354D01*
G01*
G75*
G02X882317I354*
G01*
X888604Y404880D02*
X902069D01*
X888604Y433620D02*
X902069D01*
X891096Y451711D02*
X884404D01*
X893852Y446789D02*
X884404D01*
X901490Y463384D02*
X890860D01*
Y455116*
X901490*
X902120Y465116D02*
X873380D01*
X902120Y472604D02*
Y486069D01*
Y512821D02*
Y523384D01*
X873380*
Y512821*
X908967Y466317D02*
G75*
G02Y465608J-354D01*
G01*
Y466317D02*
G75*
G02Y465608J-354D01*
G01*
G75*
G02Y466317J354*
G01*
X928821Y404880D02*
X939384D01*
Y433620*
X928821*
X942789Y415648D02*
Y425096D01*
X947711Y418404D02*
Y425096D01*
X959384Y405510D02*
Y416140D01*
X951116*
Y405510*
X981096Y449211D02*
X974404D01*
X983852Y444289D02*
X974404D01*
X988990Y460884D02*
X978360D01*
Y452616*
X988990*
X1012789Y415648D02*
Y425096D01*
X1017711Y418404D02*
Y425096D01*
X1029384Y408010D02*
Y418640D01*
X1021116*
Y408010*
X1038596Y446711D02*
X1031904D01*
X1041352Y441789D02*
X1031904D01*
X1051490Y460884D02*
X1040860D01*
Y452616*
X1051490*
X1086096Y449211D02*
X1079404D01*
X1088852Y444289D02*
X1079404D01*
X1090289Y415648D02*
Y425096D01*
X1095211Y418404D02*
Y425096D01*
X1098990Y460884D02*
X1088360D01*
Y452616*
X1098990*
X1106884Y405510D02*
Y416140D01*
X1098616*
Y405510*
X1138596Y449211D02*
X1131904D01*
X1141352Y444289D02*
X1131904D01*
X1148990Y460884D02*
X1138360D01*
Y452616*
X1148990*
X1167789Y415648D02*
Y425096D01*
X1172711Y418404D02*
Y425096D01*
X1184384Y405510D02*
Y416140D01*
X1176116*
Y405510*
X1202789Y563148D02*
Y572596D01*
X1205289Y508148D02*
Y517596D01*
X1207711Y565904D02*
Y572596D01*
X1207789Y460648D02*
Y470096D01*
X1210211Y510904D02*
Y517596D01*
X1212711Y463404D02*
Y470096D01*
X1221884Y445510D02*
Y456140D01*
X1213616*
Y445510*
X1221884Y500510D02*
Y511140D01*
X1213616*
Y500510*
X1221884Y555510D02*
Y566140D01*
X1213616*
Y555510*
D02*
D15*
X686750Y480187D02*
X686906Y479875D01*
X687219Y479719*
X687844*
X688156Y479875*
X688313Y480187*
X688156Y480500*
X687844Y480656*
X687219*
X686906Y480813*
X686750Y481125*
X686906Y481437*
X687219Y481594*
X687844*
X688156Y481437*
X688313Y481125*
X689250Y479719D02*
Y481594D01*
Y480656D02*
X689719D01*
X690813Y481594*
X689719Y480656D02*
X690813Y479719D01*
X692063D02*
X692687D01*
X692375D02*
Y481594D01*
X692063Y481281*
X695031Y479719D02*
Y481594D01*
X694250Y480344*
X695500*
X698281Y414250D02*
X696406D01*
Y415187*
X696563Y415500*
X696719Y415656*
X697031Y415813*
X697656*
X697969Y415656*
X698125Y415500*
X698281Y415187*
Y414250*
Y418000D02*
Y416750D01*
X697187Y417844*
X696875Y418000*
X696563Y417844*
X696406Y417531*
Y417063*
X696563Y416750*
X698281Y419563D02*
Y420187D01*
Y419875D02*
X696406D01*
X696719Y419563*
X703906Y401750D02*
X705781D01*
Y403313*
Y404250D02*
X703906D01*
Y405813*
X704844Y405500D02*
Y404250D01*
X705781D02*
Y405813D01*
Y406750D02*
X703906D01*
Y407687*
X704063Y408000*
X704219Y408156*
X704531Y408313*
X705156*
X705469Y408156*
X705625Y408000*
X705781Y407687*
Y406750*
X705625Y409406D02*
X705781Y409719D01*
Y410031*
X705625Y410344*
X705313Y410500*
X705000Y410344*
X704844Y410031*
Y409719*
Y410031D02*
X704687Y410344D01*
X704375Y410500*
X704063Y410344*
X703906Y410031*
Y409719*
X704063Y409406*
X726250Y690094D02*
Y688219D01*
X727813*
X728750D02*
Y690094D01*
X730313*
X730000Y689156D02*
X728750D01*
Y688219D02*
X730313D01*
X731250D02*
Y690094D01*
X732187*
X732500Y689937*
X732656Y689781*
X732813Y689469*
Y688844*
X732656Y688531*
X732500Y688375*
X732187Y688219*
X731250*
X735000D02*
X733750D01*
X734844Y689313*
X735000Y689625*
X734844Y689937*
X734531Y690094*
X734063*
X733750Y689937*
X737031Y688219D02*
Y690094D01*
X736250Y688844*
X737500*
X729250Y666594D02*
Y664719D01*
X730813*
X731750D02*
Y666594D01*
X733313*
X733000Y665656D02*
X731750D01*
Y664719D02*
X733313D01*
X734250D02*
Y666594D01*
X735187*
X735500Y666437*
X735656Y666281*
X735813Y665969*
Y665344*
X735656Y665031*
X735500Y664875*
X735187Y664719*
X734250*
X738000D02*
X736750D01*
X737844Y665813*
X738000Y666125*
X737844Y666437*
X737531Y666594*
X737063*
X736750Y666437*
X739250Y664875D02*
X739563Y664719D01*
X740031*
X740344Y664875*
X740500Y665187*
Y665344*
X740344Y665656*
X740031Y665813*
X739250*
Y666594*
X740500*
X743801Y420117D02*
Y421991D01*
X744895*
X745207Y421835*
X745364Y421523*
X745207Y421210*
X744895Y421054*
X743801*
X744895D02*
X745364Y420117D01*
X746301Y421991D02*
Y420117D01*
X747864*
X748957Y420273D02*
X749270Y420117D01*
X749582*
X749895Y420273*
X750051Y420585*
X749895Y420898*
X749582Y421054*
X749270*
X749582D02*
X749895Y421210D01*
X750051Y421523*
X749895Y421835*
X749582Y421991*
X749270*
X748957Y421835*
X765250Y632219D02*
Y634094D01*
X766187*
X766500Y633937*
X766656Y633781*
X766813Y633469*
Y632844*
X766656Y632531*
X766500Y632375*
X766187Y632219*
X765250*
X769000D02*
X767750D01*
X768844Y633313*
X769000Y633625*
X768844Y633937*
X768531Y634094*
X768063*
X767750Y633937*
X770250Y391687D02*
X770406Y391375D01*
X770719Y391219*
X771344*
X771656Y391375*
X771813Y391687*
X771656Y392000*
X771344Y392156*
X770719*
X770406Y392313*
X770250Y392625*
X770406Y392937*
X770719Y393094*
X771344*
X771656Y392937*
X771813Y392625*
X772750Y391219D02*
Y393094D01*
Y392156D02*
X773219D01*
X774313Y393094*
X773219Y392156D02*
X774313Y391219D01*
X775563D02*
X776187D01*
X775875D02*
Y393094D01*
X775563Y392781*
X775250Y600219D02*
Y602094D01*
X776187*
X776500Y601937*
X776656Y601781*
X776813Y601469*
Y600844*
X776656Y600531*
X776500Y600375*
X776187Y600219*
X775250*
X778063D02*
X778687D01*
X778375D02*
Y602094D01*
X778063Y601781*
X781350Y682237D02*
X783850D01*
X782600Y680987D02*
Y683487D01*
X782781Y419250D02*
X780906D01*
Y420187*
X781063Y420500*
X781219Y420656*
X781531Y420813*
X782156*
X782469Y420656*
X782625Y420500*
X782781Y420187*
Y419250*
Y423000D02*
Y421750D01*
X781687Y422844*
X781375Y423000*
X781063Y422844*
X780906Y422531*
Y422063*
X781063Y421750*
X782625Y424406D02*
X782781Y424719D01*
Y425031*
X782625Y425344*
X782313Y425500*
X781375*
X781063Y425344*
X780906Y425031*
Y424719*
X781063Y424406*
X781375Y424250*
X782313*
X782625Y424406*
X781063Y425344*
X788406Y403250D02*
X790281D01*
Y404813*
Y405750D02*
X788406D01*
Y407313*
X789344Y407000D02*
Y405750D01*
X790281D02*
Y407313D01*
Y408250D02*
X788406D01*
Y409187*
X788563Y409500*
X788719Y409656*
X789031Y409813*
X789656*
X789969Y409656*
X790125Y409500*
X790281Y409187*
Y408250*
Y412000D02*
Y410750D01*
X789187Y411844*
X788875Y412000*
X788563Y411844*
X788406Y411531*
Y411063*
X788563Y410750*
X807250Y391187D02*
X807406Y390875D01*
X807719Y390719*
X808344*
X808656Y390875*
X808813Y391187*
X808656Y391500*
X808344Y391656*
X807719*
X807406Y391813*
X807250Y392125*
X807406Y392437*
X807719Y392594*
X808344*
X808656Y392437*
X808813Y392125*
X809750Y390719D02*
Y392594D01*
Y391656D02*
X810219D01*
X811313Y392594*
X810219Y391656D02*
X811313Y390719D01*
X813500D02*
X812250D01*
X813344Y391813*
X813500Y392125*
X813344Y392437*
X813031Y392594*
X812563*
X812250Y392437*
X810750Y625219D02*
Y627094D01*
X811687*
X812000Y626937*
X812156Y626781*
X812313Y626469*
Y625844*
X812156Y625531*
X812000Y625375*
X811687Y625219*
X810750*
X814031D02*
Y627094D01*
X813250Y625844*
X814500*
X815737Y638150D02*
Y635650D01*
X814487Y636900D02*
X816987D01*
X828801Y420117D02*
Y421991D01*
X829895*
X830207Y421835*
X830364Y421523*
X830207Y421210*
X829895Y421054*
X828801*
X829895D02*
X830364Y420117D01*
X831301Y421991D02*
Y420117D01*
X832864*
X835051D02*
X833801D01*
X834895Y421210*
X835051Y421523*
X834895Y421835*
X834582Y421991*
X834114*
X833801Y421835*
X852750Y575219D02*
Y577094D01*
X853687*
X854000Y576937*
X854156Y576781*
X854313Y576469*
Y575844*
X854156Y575531*
X854000Y575375*
X853687Y575219*
X852750*
X855406Y575375D02*
X855719Y575219D01*
X856031*
X856344Y575375*
X856500Y575687*
X856344Y576000*
X856031Y576156*
X855719*
X856031D02*
X856344Y576313D01*
X856500Y576625*
X856344Y576937*
X856031Y577094*
X855719*
X855406Y576937*
X862781Y423750D02*
X860906D01*
Y424687*
X861063Y425000*
X861219Y425156*
X861531Y425313*
X862156*
X862469Y425156*
X862625Y425000*
X862781Y424687*
Y423750*
Y426563D02*
Y427187D01*
Y426875D02*
X860906D01*
X861219Y426563*
X862781Y429219D02*
X862625Y429531D01*
X862313Y429844*
X861844Y430000*
X861375*
X861063Y429844*
X860906Y429531*
Y429219*
X861063Y428906*
X861375Y428750*
X861687Y428906*
X861844Y429219*
Y429531*
X861687Y429844*
X861375Y430000*
X867906Y402750D02*
X869781D01*
Y404313*
Y405250D02*
X867906D01*
Y406813*
X868844Y406500D02*
Y405250D01*
X869781D02*
Y406813D01*
Y407750D02*
X867906D01*
Y408687*
X868063Y409000*
X868219Y409156*
X868531Y409313*
X869156*
X869469Y409156*
X869625Y409000*
X869781Y408687*
Y407750*
Y410563D02*
Y411187D01*
Y410875D02*
X867906D01*
X868219Y410563*
X884250Y391187D02*
X884406Y390875D01*
X884719Y390719*
X885344*
X885656Y390875*
X885813Y391187*
X885656Y391500*
X885344Y391656*
X884719*
X884406Y391813*
X884250Y392125*
X884406Y392437*
X884719Y392594*
X885344*
X885656Y392437*
X885813Y392125*
X886750Y390719D02*
Y392594D01*
Y391656D02*
X887219D01*
X888313Y392594*
X887219Y391656D02*
X888313Y390719D01*
X889406Y390875D02*
X889719Y390719D01*
X890031*
X890344Y390875*
X890500Y391187*
X890344Y391500*
X890031Y391656*
X889719*
X890031D02*
X890344Y391813D01*
X890500Y392125*
X890344Y392437*
X890031Y392594*
X889719*
X889406Y392437*
X886883Y492801D02*
X885009D01*
Y493895*
X885165Y494207*
X885477Y494364*
X885790Y494207*
X885946Y493895*
Y492801*
Y493895D02*
X886883Y494364D01*
X885009Y495301D02*
X886883D01*
Y496864*
Y498582D02*
X885009D01*
X886259Y497801*
Y499051*
X888750Y443219D02*
Y445094D01*
X889687*
X890000Y444937*
X890156Y444781*
X890313Y444469*
Y443844*
X890156Y443531*
X890000Y443375*
X889687Y443219*
X888750*
X892500D02*
X891250D01*
X892344Y444313*
X892500Y444625*
X892344Y444937*
X892031Y445094*
X891563*
X891250Y444937*
X893906Y443375D02*
X894219Y443219D01*
X894531*
X894844Y443375*
X895000Y443687*
X894844Y444000*
X894531Y444156*
X894219*
X894531D02*
X894844Y444313D01*
X895000Y444625*
X894844Y444937*
X894531Y445094*
X894219*
X893906Y444937*
X897750Y453594D02*
Y451719D01*
X899313*
X900250D02*
Y453594D01*
X901813*
X901500Y452656D02*
X900250D01*
Y451719D02*
X901813D01*
X902750D02*
Y453594D01*
X903687*
X904000Y453437*
X904156Y453281*
X904313Y452969*
Y452344*
X904156Y452031*
X904000Y451875*
X903687Y451719*
X902750*
X906031D02*
Y453594D01*
X905250Y452344*
X906500*
X908801Y420117D02*
Y421991D01*
X909895*
X910207Y421835*
X910364Y421523*
X910207Y421210*
X909895Y421054*
X908801*
X909895D02*
X910364Y420117D01*
X911301Y421991D02*
Y420117D01*
X912864*
X914114D02*
X914739D01*
X914426D02*
Y421991D01*
X914114Y421679*
X921750Y526187D02*
X921906Y525875D01*
X922219Y525719*
X922844*
X923156Y525875*
X923313Y526187*
X923156Y526500*
X922844Y526656*
X922219*
X921906Y526813*
X921750Y527125*
X921906Y527437*
X922219Y527594*
X922844*
X923156Y527437*
X923313Y527125*
X924250Y525719D02*
Y527594D01*
Y526656D02*
X924719D01*
X925813Y527594*
X924719Y526656D02*
X925813Y525719D01*
X926750Y526187D02*
X926906Y526500D01*
X927219Y526656*
X927531*
X927844Y526500*
X928000Y526187*
X927844Y525875*
X927531Y525719*
X927219*
X926906Y525875*
X926750Y526187*
Y526656*
X926906Y527125*
X927219Y527437*
X927531Y527594*
X938719Y595281D02*
Y594656D01*
Y594969D02*
X940594D01*
Y595281D02*
Y594656D01*
X939031Y591687D02*
X938875Y591844D01*
X938719Y592156*
Y592625*
X938875Y592937*
X939031Y593094*
X939344Y593250*
X939969*
X940281Y593094*
X940437Y592937*
X940594Y592625*
Y592156*
X940437Y591844*
X940281Y591687*
X938719Y590437D02*
Y589813D01*
Y590125D02*
X940594D01*
X940281Y590437*
X943781Y428750D02*
X941906D01*
Y429687*
X942063Y430000*
X942219Y430156*
X942531Y430313*
X943156*
X943469Y430156*
X943625Y430000*
X943781Y429687*
Y428750*
Y432500D02*
Y431250D01*
X942687Y432344*
X942375Y432500*
X942063Y432344*
X941906Y432031*
Y431563*
X942063Y431250*
X943781Y434531D02*
X941906D01*
X943156Y433750*
Y435000*
X947406Y403250D02*
X949281D01*
Y404813*
Y405750D02*
X947406D01*
Y407313*
X948344Y407000D02*
Y405750D01*
X949281D02*
Y407313D01*
Y408250D02*
X947406D01*
Y409187*
X947563Y409500*
X947719Y409656*
X948031Y409813*
X948656*
X948969Y409656*
X949125Y409500*
X949281Y409187*
Y408250*
Y411063D02*
Y411687D01*
Y411375D02*
X947406D01*
X947719Y411063*
X949281Y414031D02*
X947406D01*
X948656Y413250*
Y414500*
X978344Y486250D02*
X976469D01*
Y487344*
X976626Y487656*
X976938Y487813*
X977250Y487656*
X977407Y487344*
Y486250*
Y487344D02*
X978344Y487813D01*
X976469Y488750D02*
X978344D01*
Y490313*
X978188Y491250D02*
X978344Y491563D01*
Y492031*
X978188Y492344*
X977876Y492500*
X977719*
X977407Y492344*
X977250Y492031*
Y491250*
X976469*
Y492500*
X980537Y418656D02*
Y420531D01*
X981631*
X981944Y420374*
X982100Y420062*
X981944Y419750*
X981631Y419593*
X980537*
X981631D02*
X982100Y418656D01*
X983037Y420531D02*
Y418656D01*
X984600*
X986006D02*
X986319Y418812D01*
X986631Y419124*
X986787Y419593*
Y420062*
X986631Y420374*
X986319Y420531*
X986006*
X985694Y420374*
X985537Y420062*
X985694Y419750*
X986006Y419593*
X986319*
X986631Y419750*
X986787Y420062*
X982128Y363097D02*
X981972Y363409D01*
X981659Y363566*
X981034*
X980722Y363409*
X980565Y363097*
X980722Y362785*
X981034Y362628*
X981659*
X981972Y362472*
X982128Y362159*
X981972Y361847*
X981659Y361691*
X981034*
X980722Y361847*
X980565Y362159*
X979628Y363566D02*
Y361691D01*
Y362628D02*
X979159D01*
X978065Y361691*
X979159Y362628D02*
X978065Y363566D01*
X976815D02*
X976191D01*
X976503D02*
Y361691D01*
X976815Y362004*
X973378Y363566D02*
X974628D01*
X973534Y362472*
X973378Y362159*
X973534Y361847*
X973847Y361691*
X974315*
X974628Y361847*
X985250Y451594D02*
Y449719D01*
X986813*
X987750D02*
Y451594D01*
X989313*
X989000Y450656D02*
X987750D01*
Y449719D02*
X989313D01*
X990250D02*
Y451594D01*
X991187*
X991500Y451437*
X991656Y451281*
X991813Y450969*
Y450344*
X991656Y450031*
X991500Y449875*
X991187Y449719*
X990250*
X993063D02*
X993687D01*
X993375D02*
Y451594D01*
X993063Y451281*
X995406Y449875D02*
X995719Y449719D01*
X996031*
X996344Y449875*
X996500Y450187*
X996344Y450500*
X996031Y450656*
X995719*
X996031D02*
X996344Y450813D01*
X996500Y451125*
X996344Y451437*
X996031Y451594*
X995719*
X995406Y451437*
X985750Y442219D02*
Y444094D01*
X986687*
X987000Y443937*
X987156Y443781*
X987313Y443469*
Y442844*
X987156Y442531*
X987000Y442375*
X986687Y442219*
X985750*
X989500D02*
X988250D01*
X989344Y443313*
X989500Y443625*
X989344Y443937*
X989031Y444094*
X988563*
X988250Y443937*
X992000Y442219D02*
X990750D01*
X991844Y443313*
X992000Y443625*
X991844Y443937*
X991531Y444094*
X991063*
X990750Y443937*
X1011281Y421750D02*
X1009406D01*
Y422687*
X1009563Y423000*
X1009719Y423156*
X1010031Y423313*
X1010656*
X1010969Y423156*
X1011125Y423000*
X1011281Y422687*
Y421750*
Y425500D02*
Y424250D01*
X1010187Y425344*
X1009875Y425500*
X1009563Y425344*
X1009406Y425031*
Y424563*
X1009563Y424250*
X1011125Y426750D02*
X1011281Y427063D01*
Y427531*
X1011125Y427844*
X1010813Y428000*
X1010656*
X1010344Y427844*
X1010187Y427531*
Y426750*
X1009406*
Y428000*
X1013719Y595281D02*
Y594656D01*
Y594969D02*
X1015594D01*
Y595281D02*
Y594656D01*
X1014031Y591687D02*
X1013875Y591844D01*
X1013719Y592156*
Y592625*
X1013875Y592937*
X1014031Y593094*
X1014344Y593250*
X1014969*
X1015281Y593094*
X1015437Y592937*
X1015594Y592625*
Y592156*
X1015437Y591844*
X1015281Y591687*
X1013719Y589500D02*
Y590750D01*
X1014813Y589656*
X1015125Y589500*
X1015437Y589656*
X1015594Y589969*
Y590437*
X1015437Y590750*
X1020250Y404594D02*
Y402719D01*
X1021813*
X1022750D02*
Y404594D01*
X1024313*
X1024000Y403656D02*
X1022750D01*
Y402719D02*
X1024313D01*
X1025250D02*
Y404594D01*
X1026187*
X1026500Y404437*
X1026656Y404281*
X1026813Y403969*
Y403344*
X1026656Y403031*
X1026500Y402875*
X1026187Y402719*
X1025250*
X1028063D02*
X1028687D01*
X1028375D02*
Y404594D01*
X1028063Y404281*
X1030250Y402875D02*
X1030563Y402719D01*
X1031031*
X1031344Y402875*
X1031500Y403187*
Y403344*
X1031344Y403656*
X1031031Y403813*
X1030250*
Y404594*
X1031500*
X1022750Y446219D02*
Y448094D01*
X1023687*
X1024000Y447937*
X1024156Y447781*
X1024313Y447469*
Y446844*
X1024156Y446531*
X1024000Y446375*
X1023687Y446219*
X1022750*
X1025406Y446375D02*
X1025719Y446219D01*
X1026031*
X1026344Y446375*
X1026500Y446687*
X1026344Y447000*
X1026031Y447156*
X1025719*
X1026031D02*
X1026344Y447313D01*
X1026500Y447625*
X1026344Y447937*
X1026031Y448094*
X1025719*
X1025406Y447937*
X1027906Y446375D02*
X1028219Y446219D01*
X1028531*
X1028844Y446375*
X1029000Y446687*
X1028844Y447000*
X1028531Y447156*
X1028219*
X1028531D02*
X1028844Y447313D01*
X1029000Y447625*
X1028844Y447937*
X1028531Y448094*
X1028219*
X1027906Y447937*
X1038344Y482037D02*
X1036469D01*
Y483131*
X1036626Y483444*
X1036938Y483600*
X1037250Y483444*
X1037407Y483131*
Y482037*
Y483131D02*
X1038344Y483600D01*
X1036469Y484537D02*
X1038344D01*
Y486100*
Y487350D02*
Y487975D01*
Y487663D02*
X1036469D01*
X1036782Y487350*
X1037407Y490006D02*
Y490319D01*
X1037250Y490631*
X1036938Y490787*
X1036626Y490631*
X1036469Y490319*
Y490006*
X1036626Y489694*
X1036938Y489537*
X1037250Y489694*
X1037407Y490006*
X1037563Y489694*
X1037876Y489537*
X1038188Y489694*
X1038344Y490006*
Y490319*
X1038188Y490631*
X1037876Y490787*
X1037563Y490631*
X1037407Y490319*
X1045250Y450594D02*
Y448719D01*
X1046813*
X1047750D02*
Y450594D01*
X1049313*
X1049000Y449656D02*
X1047750D01*
Y448719D02*
X1049313D01*
X1050250D02*
Y450594D01*
X1051187*
X1051500Y450437*
X1051656Y450281*
X1051813Y449969*
Y449344*
X1051656Y449031*
X1051500Y448875*
X1051187Y448719*
X1050250*
X1054000D02*
X1052750D01*
X1053844Y449813*
X1054000Y450125*
X1053844Y450437*
X1053531Y450594*
X1053063*
X1052750Y450437*
X1055406Y448875D02*
X1055719Y448719D01*
X1056031*
X1056344Y448875*
X1056500Y449187*
X1056344Y449500*
X1056031Y449656*
X1055719*
X1056031D02*
X1056344Y449813D01*
X1056500Y450125*
X1056344Y450437*
X1056031Y450594*
X1055719*
X1055406Y450437*
X1053037Y418656D02*
Y420531D01*
X1054131*
X1054444Y420374*
X1054600Y420062*
X1054444Y419750*
X1054131Y419593*
X1053037*
X1054131D02*
X1054600Y418656D01*
X1055537Y420531D02*
Y418656D01*
X1057100*
X1058350D02*
X1058975D01*
X1058663D02*
Y420531D01*
X1058350Y420218*
X1060537Y418812D02*
X1060850Y418656D01*
X1061319*
X1061631Y418812*
X1061787Y419124*
Y419281*
X1061631Y419593*
X1061319Y419750*
X1060537*
Y420531*
X1061787*
X1057128Y363097D02*
X1056972Y363409D01*
X1056659Y363566*
X1056034*
X1055722Y363409*
X1055565Y363097*
X1055722Y362785*
X1056034Y362628*
X1056659*
X1056972Y362472*
X1057128Y362159*
X1056972Y361847*
X1056659Y361691*
X1056034*
X1055722Y361847*
X1055565Y362159*
X1054628Y363566D02*
Y361691D01*
Y362628D02*
X1054159D01*
X1053065Y361691*
X1054159Y362628D02*
X1053065Y363566D01*
X1051815D02*
X1051191D01*
X1051503D02*
Y361691D01*
X1051815Y362004*
X1049315Y363566D02*
X1048691D01*
X1049003D02*
Y361691D01*
X1049315Y362004*
X1072250Y442719D02*
Y444594D01*
X1073187*
X1073500Y444437*
X1073656Y444281*
X1073813Y443969*
Y443344*
X1073656Y443031*
X1073500Y442875*
X1073187Y442719*
X1072250*
X1074906Y442875D02*
X1075219Y442719D01*
X1075531*
X1075844Y442875*
X1076000Y443187*
X1075844Y443500*
X1075531Y443656*
X1075219*
X1075531D02*
X1075844Y443813D01*
X1076000Y444125*
X1075844Y444437*
X1075531Y444594*
X1075219*
X1074906Y444437*
X1077406Y442875D02*
X1077719Y442719D01*
X1078031*
X1078344Y442875*
X1078500Y443187*
Y444125*
X1078344Y444437*
X1078031Y444594*
X1077719*
X1077406Y444437*
X1077250Y444125*
Y443187*
X1077406Y442875*
X1078344Y444437*
X1085844Y482037D02*
X1083969D01*
Y483131*
X1084126Y483444*
X1084438Y483600*
X1084750Y483444*
X1084907Y483131*
Y482037*
Y483131D02*
X1085844Y483600D01*
X1083969Y484537D02*
X1085844D01*
Y486100*
X1084907Y487506D02*
Y487819D01*
X1084750Y488131*
X1084438Y488287*
X1084126Y488131*
X1083969Y487819*
Y487506*
X1084126Y487194*
X1084438Y487037*
X1084750Y487194*
X1084907Y487506*
X1085063Y487194*
X1085376Y487037*
X1085688Y487194*
X1085844Y487506*
Y487819*
X1085688Y488131*
X1085376Y488287*
X1085063Y488131*
X1084907Y487819*
X1088719Y595281D02*
Y594656D01*
Y594969D02*
X1090594D01*
Y595281D02*
Y594656D01*
X1089031Y591687D02*
X1088875Y591844D01*
X1088719Y592156*
Y592625*
X1088875Y592937*
X1089031Y593094*
X1089344Y593250*
X1089969*
X1090281Y593094*
X1090437Y592937*
X1090594Y592625*
Y592156*
X1090437Y591844*
X1090281Y591687*
X1088719Y589969D02*
X1090594D01*
X1089344Y590750*
Y589500*
X1088281Y412250D02*
X1086406D01*
Y413187*
X1086563Y413500*
X1086719Y413656*
X1087031Y413813*
X1087656*
X1087969Y413656*
X1088125Y413500*
X1088281Y413187*
Y412250*
Y416000D02*
Y414750D01*
X1087187Y415844*
X1086875Y416000*
X1086563Y415844*
X1086406Y415531*
Y415063*
X1086563Y414750*
X1087813Y417250D02*
X1087500Y417406D01*
X1087344Y417719*
Y418031*
X1087500Y418344*
X1087813Y418500*
X1088125Y418344*
X1088281Y418031*
Y417719*
X1088125Y417406*
X1087813Y417250*
X1087344*
X1086875Y417406*
X1086563Y417719*
X1086406Y418031*
X1089750Y450594D02*
Y448719D01*
X1091313*
X1092250D02*
Y450594D01*
X1093813*
X1093500Y449656D02*
X1092250D01*
Y448719D02*
X1093813D01*
X1094750D02*
Y450594D01*
X1095687*
X1096000Y450437*
X1096156Y450281*
X1096313Y449969*
Y449344*
X1096156Y449031*
X1096000Y448875*
X1095687Y448719*
X1094750*
X1098500D02*
X1097250D01*
X1098344Y449813*
X1098500Y450125*
X1098344Y450437*
X1098031Y450594*
X1097563*
X1097250Y450437*
X1099906Y448875D02*
X1100219Y448719D01*
X1100531*
X1100844Y448875*
X1101000Y449187*
Y450125*
X1100844Y450437*
X1100531Y450594*
X1100219*
X1099906Y450437*
X1099750Y450125*
Y449187*
X1099906Y448875*
X1100844Y450437*
X1095406Y402250D02*
X1097281D01*
Y403813*
Y404750D02*
X1095406D01*
Y406313*
X1096344Y406000D02*
Y404750D01*
X1097281D02*
Y406313D01*
Y407250D02*
X1095406D01*
Y408187*
X1095563Y408500*
X1095719Y408656*
X1096031Y408813*
X1096656*
X1096969Y408656*
X1097125Y408500*
X1097281Y408187*
Y407250*
Y410063D02*
Y410687D01*
Y410375D02*
X1095406D01*
X1095719Y410063*
X1096813Y412250D02*
X1096500Y412406D01*
X1096344Y412719*
Y413031*
X1096500Y413344*
X1096813Y413500*
X1097125Y413344*
X1097281Y413031*
Y412719*
X1097125Y412406*
X1096813Y412250*
X1096344*
X1095875Y412406*
X1095563Y412719*
X1095406Y413031*
X1130537Y418656D02*
Y420531D01*
X1131631*
X1131944Y420374*
X1132100Y420062*
X1131944Y419750*
X1131631Y419593*
X1130537*
X1131631D02*
X1132100Y418656D01*
X1133037Y420531D02*
Y418656D01*
X1134600*
X1135850D02*
X1136475D01*
X1136163D02*
Y420531D01*
X1135850Y420218*
X1138037Y419124D02*
X1138194Y419437D01*
X1138506Y419593*
X1138819*
X1139131Y419437*
X1139287Y419124*
X1139131Y418812*
X1138819Y418656*
X1138506*
X1138194Y418812*
X1138037Y419124*
Y419593*
X1138194Y420062*
X1138506Y420374*
X1138819Y420531*
X1132128Y363097D02*
X1131972Y363409D01*
X1131659Y363566*
X1131034*
X1130722Y363409*
X1130565Y363097*
X1130722Y362785*
X1131034Y362628*
X1131659*
X1131972Y362472*
X1132128Y362159*
X1131972Y361847*
X1131659Y361691*
X1131034*
X1130722Y361847*
X1130565Y362159*
X1129628Y363566D02*
Y361691D01*
Y362628D02*
X1129159D01*
X1128065Y361691*
X1129159Y362628D02*
X1128065Y363566D01*
X1126815D02*
X1126191D01*
X1126503D02*
Y361691D01*
X1126815Y362004*
X1124472Y363409D02*
X1124159Y363566D01*
X1123847*
X1123534Y363409*
X1123378Y363097*
Y362159*
X1123534Y361847*
X1123847Y361691*
X1124159*
X1124472Y361847*
X1124628Y362159*
Y363097*
X1124472Y363409*
X1123534Y361847*
X1132250Y440719D02*
Y442594D01*
X1133187*
X1133500Y442437*
X1133656Y442281*
X1133813Y441969*
Y441344*
X1133656Y441031*
X1133500Y440875*
X1133187Y440719*
X1132250*
X1134906Y440875D02*
X1135219Y440719D01*
X1135531*
X1135844Y440875*
X1136000Y441187*
X1135844Y441500*
X1135531Y441656*
X1135219*
X1135531D02*
X1135844Y441813D01*
X1136000Y442125*
X1135844Y442437*
X1135531Y442594*
X1135219*
X1134906Y442437*
X1137563Y440719D02*
X1138187D01*
X1137875D02*
Y442594D01*
X1137563Y442281*
X1135844Y482037D02*
X1133969D01*
Y483131*
X1134126Y483444*
X1134438Y483600*
X1134750Y483444*
X1134907Y483131*
Y482037*
Y483131D02*
X1135844Y483600D01*
X1133969Y484537D02*
X1135844D01*
Y486100*
Y487350D02*
Y487975D01*
Y487663D02*
X1133969D01*
X1134282Y487350*
X1135688Y489694D02*
X1135844Y490006D01*
Y490319*
X1135688Y490631*
X1135376Y490787*
X1134438*
X1134126Y490631*
X1133969Y490319*
Y490006*
X1134126Y489694*
X1134438Y489537*
X1135376*
X1135688Y489694*
X1134126Y490631*
X1143250Y451594D02*
Y449719D01*
X1144813*
X1145750D02*
Y451594D01*
X1147313*
X1147000Y450656D02*
X1145750D01*
Y449719D02*
X1147313D01*
X1148250D02*
Y451594D01*
X1149187*
X1149500Y451437*
X1149656Y451281*
X1149813Y450969*
Y450344*
X1149656Y450031*
X1149500Y449875*
X1149187Y449719*
X1148250*
X1152000D02*
X1150750D01*
X1151844Y450813*
X1152000Y451125*
X1151844Y451437*
X1151531Y451594*
X1151063*
X1150750Y451437*
X1153563Y449719D02*
X1154187D01*
X1153875D02*
Y451594D01*
X1153563Y451281*
X1166219Y595281D02*
Y594656D01*
Y594969D02*
X1168094D01*
Y595281D02*
Y594656D01*
X1166531Y591687D02*
X1166375Y591844D01*
X1166219Y592156*
Y592625*
X1166375Y592937*
X1166531Y593094*
X1166844Y593250*
X1167469*
X1167781Y593094*
X1167937Y592937*
X1168094Y592625*
Y592156*
X1167937Y591844*
X1167781Y591687*
X1166375Y590750D02*
X1166219Y590437D01*
Y589969*
X1166375Y589656*
X1166687Y589500*
X1166844*
X1167156Y589656*
X1167313Y589969*
Y590750*
X1168094*
Y589500*
X1165781Y419750D02*
X1163906D01*
Y420687*
X1164063Y421000*
X1164219Y421156*
X1164531Y421313*
X1165156*
X1165469Y421156*
X1165625Y421000*
X1165781Y420687*
Y419750*
Y423500D02*
Y422250D01*
X1164687Y423344*
X1164375Y423500*
X1164063Y423344*
X1163906Y423031*
Y422563*
X1164063Y422250*
X1165781Y424750D02*
X1163906Y426000D01*
Y424750*
X1168750Y497187D02*
X1168906Y496875D01*
X1169219Y496719*
X1169844*
X1170156Y496875*
X1170313Y497187*
X1170156Y497500*
X1169844Y497656*
X1169219*
X1168906Y497813*
X1168750Y498125*
X1168906Y498437*
X1169219Y498594*
X1169844*
X1170156Y498437*
X1170313Y498125*
X1171250Y496719D02*
Y498594D01*
Y497656D02*
X1171719D01*
X1172813Y498594*
X1171719Y497656D02*
X1172813Y496719D01*
X1174219Y497656D02*
X1174531D01*
X1174844Y497813*
X1175000Y498125*
X1174844Y498437*
X1174531Y498594*
X1174219*
X1173906Y498437*
X1173750Y498125*
X1173906Y497813*
X1174219Y497656*
X1173906Y497500*
X1173750Y497187*
X1173906Y496875*
X1174219Y496719*
X1174531*
X1174844Y496875*
X1175000Y497187*
X1174844Y497500*
X1174531Y497656*
X1174750Y402094D02*
Y400219D01*
X1176313*
X1177250D02*
Y402094D01*
X1178813*
X1178500Y401156D02*
X1177250D01*
Y400219D02*
X1178813D01*
X1179750D02*
Y402094D01*
X1180687*
X1181000Y401937*
X1181156Y401781*
X1181313Y401469*
Y400844*
X1181156Y400531*
X1181000Y400375*
X1180687Y400219*
X1179750*
X1182563D02*
X1183187D01*
X1182875D02*
Y402094D01*
X1182563Y401781*
X1184750Y400219D02*
X1186000Y402094D01*
X1184750*
X1179150Y663763D02*
X1176650D01*
X1177900Y665013D02*
Y662513D01*
X1200737Y500650D02*
Y498150D01*
X1199487Y499400D02*
X1201987D01*
X1200750Y454594D02*
Y452719D01*
X1202313*
X1203250D02*
Y454594D01*
X1204813*
X1204500Y453656D02*
X1203250D01*
Y452719D02*
X1204813D01*
X1205750D02*
Y454594D01*
X1206687*
X1207000Y454437*
X1207156Y454281*
X1207313Y453969*
Y453344*
X1207156Y453031*
X1207000Y452875*
X1206687Y452719*
X1205750*
X1208563D02*
X1209187D01*
X1208875D02*
Y454594D01*
X1208563Y454281*
X1211219Y453656D02*
X1211531D01*
X1211844Y453813*
X1212000Y454125*
X1211844Y454437*
X1211531Y454594*
X1211219*
X1210906Y454437*
X1210750Y454125*
X1210906Y453813*
X1211219Y453656*
X1210906Y453500*
X1210750Y453187*
X1210906Y452875*
X1211219Y452719*
X1211531*
X1211844Y452875*
X1212000Y453187*
X1211844Y453500*
X1211531Y453656*
X1200781Y569250D02*
X1198906D01*
Y570187*
X1199063Y570500*
X1199219Y570656*
X1199531Y570813*
X1200156*
X1200469Y570656*
X1200625Y570500*
X1200781Y570187*
Y569250*
X1200625Y571906D02*
X1200781Y572219D01*
Y572531*
X1200625Y572844*
X1200313Y573000*
X1200000Y572844*
X1199844Y572531*
Y572219*
Y572531D02*
X1199687Y572844D01*
X1199375Y573000*
X1199063Y572844*
X1198906Y572531*
Y572219*
X1199063Y571906*
X1200781Y575500D02*
Y574250D01*
X1199687Y575344*
X1199375Y575500*
X1199063Y575344*
X1198906Y575031*
Y574563*
X1199063Y574250*
X1203781Y513750D02*
X1201906D01*
Y514687*
X1202063Y515000*
X1202219Y515156*
X1202531Y515313*
X1203156*
X1203469Y515156*
X1203625Y515000*
X1203781Y514687*
Y513750*
Y517500D02*
Y516250D01*
X1202687Y517344*
X1202375Y517500*
X1202063Y517344*
X1201906Y517031*
Y516563*
X1202063Y516250*
X1203781Y519219D02*
X1203625Y519531D01*
X1203313Y519844*
X1202844Y520000*
X1202375*
X1202063Y519844*
X1201906Y519531*
Y519219*
X1202063Y518906*
X1202375Y518750*
X1202687Y518906*
X1202844Y519219*
Y519531*
X1202687Y519844*
X1202375Y520000*
X1205537Y418656D02*
Y420531D01*
X1206631*
X1206944Y420374*
X1207100Y420062*
X1206944Y419750*
X1206631Y419593*
X1205537*
X1206631D02*
X1207100Y418656D01*
X1208037Y420531D02*
Y418656D01*
X1209600*
X1210850D02*
X1211475D01*
X1211163D02*
Y420531D01*
X1210850Y420218*
X1213037Y418656D02*
X1214287Y420531D01*
X1213037*
X1206281Y460250D02*
X1204406D01*
Y461187*
X1204563Y461500*
X1204719Y461656*
X1205031Y461813*
X1205656*
X1205969Y461656*
X1206125Y461500*
X1206281Y461187*
Y460250*
Y464000D02*
Y462750D01*
X1205187Y463844*
X1204875Y464000*
X1204563Y463844*
X1204406Y463531*
Y463063*
X1204563Y462750*
X1205344Y465719D02*
Y466031D01*
X1205187Y466344*
X1204875Y466500*
X1204563Y466344*
X1204406Y466031*
Y465719*
X1204563Y465406*
X1204875Y465250*
X1205187Y465406*
X1205344Y465719*
X1205500Y465406*
X1205813Y465250*
X1206125Y465406*
X1206281Y465719*
Y466031*
X1206125Y466344*
X1205813Y466500*
X1205500Y466344*
X1205344Y466031*
X1207128Y363097D02*
X1206972Y363409D01*
X1206659Y363566*
X1206034*
X1205722Y363409*
X1205565Y363097*
X1205722Y362785*
X1206034Y362628*
X1206659*
X1206972Y362472*
X1207128Y362159*
X1206972Y361847*
X1206659Y361691*
X1206034*
X1205722Y361847*
X1205565Y362159*
X1204628Y363566D02*
Y361691D01*
Y362628D02*
X1204159D01*
X1203065Y361691*
X1204159Y362628D02*
X1203065Y363566D01*
X1201659D02*
X1201347Y363409D01*
X1201034Y363097*
X1200878Y362628*
Y362159*
X1201034Y361847*
X1201347Y361691*
X1201659*
X1201972Y361847*
X1202128Y362159*
X1201972Y362472*
X1201659Y362628*
X1201347*
X1201034Y362472*
X1200878Y362159*
X1208486Y630187D02*
X1208643Y629875D01*
X1208955Y629719*
X1209580*
X1209893Y629875*
X1210049Y630187*
X1209893Y630500*
X1209580Y630656*
X1208955*
X1208643Y630813*
X1208486Y631125*
X1208643Y631437*
X1208955Y631594*
X1209580*
X1209893Y631437*
X1210049Y631125*
X1210986Y629719D02*
Y631594D01*
Y630656D02*
X1211455D01*
X1212549Y631594*
X1211455Y630656D02*
X1212549Y629719D01*
X1213486D02*
X1214736Y631594D01*
X1213486*
X1209906Y497250D02*
X1211781D01*
Y498813*
Y499750D02*
X1209906D01*
Y501313*
X1210844Y501000D02*
Y499750D01*
X1211781D02*
Y501313D01*
Y502250D02*
X1209906D01*
Y503187*
X1210063Y503500*
X1210219Y503656*
X1210531Y503813*
X1211156*
X1211469Y503656*
X1211625Y503500*
X1211781Y503187*
Y502250*
Y505063D02*
Y505687D01*
Y505375D02*
X1209906D01*
X1210219Y505063*
X1211781Y507719D02*
X1211625Y508031D01*
X1211313Y508344*
X1210844Y508500*
X1210375*
X1210063Y508344*
X1209906Y508031*
Y507719*
X1210063Y507406*
X1210375Y507250*
X1210687Y507406*
X1210844Y507719*
Y508031*
X1210687Y508344*
X1210375Y508500*
X1210406Y553250D02*
X1212281D01*
Y554813*
Y555750D02*
X1210406D01*
Y557313*
X1211344Y557000D02*
Y555750D01*
X1212281D02*
Y557313D01*
Y558250D02*
X1210406D01*
Y559187*
X1210563Y559500*
X1210719Y559656*
X1211031Y559813*
X1211656*
X1211969Y559656*
X1212125Y559500*
X1212281Y559187*
Y558250*
Y562000D02*
Y560750D01*
X1211187Y561844*
X1210875Y562000*
X1210563Y561844*
X1210406Y561531*
Y561063*
X1210563Y560750*
X1212281Y564500D02*
Y563250D01*
X1211187Y564344*
X1210875Y564500*
X1210563Y564344*
X1210406Y564031*
Y563563*
X1210563Y563250*
X1243037Y458656D02*
Y460531D01*
X1244131*
X1244444Y460374*
X1244600Y460062*
X1244444Y459750*
X1244131Y459593*
X1243037*
X1244131D02*
X1244600Y458656D01*
X1245537Y460531D02*
Y458656D01*
X1247100*
X1248037Y459124D02*
X1248194Y459437D01*
X1248506Y459593*
X1248819*
X1249131Y459437*
X1249287Y459124*
X1249131Y458812*
X1248819Y458656*
X1248506*
X1248194Y458812*
X1248037Y459124*
Y459593*
X1248194Y460062*
X1248506Y460374*
X1248819Y460531*
X1243037Y513656D02*
Y515531D01*
X1244131*
X1244444Y515374*
X1244600Y515062*
X1244444Y514750*
X1244131Y514593*
X1243037*
X1244131D02*
X1244600Y513656D01*
X1245537Y515531D02*
Y513656D01*
X1247100*
X1248037D02*
X1249287Y515531D01*
X1248037*
X1243037Y568656D02*
Y570531D01*
X1244131*
X1244444Y570374*
X1244600Y570062*
X1244444Y569750*
X1244131Y569593*
X1243037*
X1244131D02*
X1244600Y568656D01*
X1245537Y570531D02*
Y568656D01*
X1247100*
X1248350D02*
X1248975D01*
X1248663D02*
Y570531D01*
X1248350Y570218*
X1250850Y568656D02*
X1251475D01*
X1251163D02*
Y570531D01*
X1250850Y570218*
X1245250Y630187D02*
X1245406Y629875D01*
X1245719Y629719*
X1246344*
X1246656Y629875*
X1246813Y630187*
X1246656Y630500*
X1246344Y630656*
X1245719*
X1245406Y630813*
X1245250Y631125*
X1245406Y631437*
X1245719Y631594*
X1246344*
X1246656Y631437*
X1246813Y631125*
X1247750Y629719D02*
Y631594D01*
Y630656D02*
X1248219D01*
X1249313Y631594*
X1248219Y630656D02*
X1249313Y629719D01*
X1250563D02*
X1251187D01*
X1250875D02*
Y631594D01*
X1250563Y631281*
X1252906Y629875D02*
X1253219Y629719D01*
X1253531*
X1253844Y629875*
X1254000Y630187*
X1253844Y630500*
X1253531Y630656*
X1253219*
X1253531D02*
X1253844Y630813D01*
X1254000Y631125*
X1253844Y631437*
X1253531Y631594*
X1253219*
X1252906Y631437*
D02*
D142*
X763342Y539450D02*
X777158D01*
X769050Y559050D02*
G75*
G03X771450I1200D01*
G01*
X777158D02*
X763342D01*
X825842Y536950D02*
X839658D01*
X831550Y556550D02*
G75*
G03X833950I1200D01*
G01*
X839658D02*
X825842D01*
X885350Y591750D02*
X884650D01*
Y561750*
X885350*
X932750Y601150D02*
G75*
G02Y602750J800D01*
G01*
G75*
G02Y601150J-800*
G01*
X935150Y561750D02*
X935850D01*
Y591750*
X935150*
X960350D02*
X959650D01*
Y561750*
X960350*
X1007750Y601150D02*
G75*
G02Y602750J800D01*
G01*
G75*
G02Y601150J-800*
G01*
X1010150Y561750D02*
X1010850D01*
Y591750*
X1010150*
X1035350D02*
X1034650D01*
Y561750*
X1035350*
X1082750Y601150D02*
G75*
G02Y602750J800D01*
G01*
G75*
G02Y601150J-800*
G01*
X1085150Y561750D02*
X1085850D01*
Y591750*
X1085150*
X1112850D02*
X1112150D01*
Y561750*
X1112850*
X1160250Y601150D02*
G75*
G02Y602750J800D01*
G01*
G75*
G02Y601150J-800*
G01*
X1162650Y561750D02*
X1163350D01*
Y591750*
X1162650*
X1199750Y681810D02*
Y684750D01*
X1220750*
Y681810*
Y661690D02*
Y658750D01*
X1199750*
Y661690*
D02*
D143*
X758800Y563487D02*
X761300D01*
X759425Y562237D02*
X760675Y564737D01*
X759425D02*
X760675Y562237D01*
X821300Y560987D02*
X823800D01*
X821925Y559737D02*
X823175Y562237D01*
X821925D02*
X823175Y559737D01*
X1203687Y666687D02*
X1204937D01*
X1204313D02*
Y670437D01*
X1203687D02*
X1204937D01*
X1210875Y667313D02*
X1210563Y667000D01*
X1209937Y666687*
X1209000*
X1208375Y667000*
X1208063Y667313*
X1207750Y667937*
Y669187*
X1208063Y669813*
X1208375Y670125*
X1209000Y670437*
X1209937*
X1210563Y670125*
X1210875Y669813*
X1213063Y667000D02*
X1213687Y666687D01*
X1214313*
X1214937Y667000*
X1215250Y667625*
X1214937Y668250*
X1214313Y668563*
X1213687*
X1214313D02*
X1214937Y668875D01*
X1215250Y669500*
X1214937Y670125*
X1214313Y670437*
X1213687*
X1213063Y670125*
X1203687Y687187D02*
X1204937D01*
X1204313D02*
Y690937D01*
X1203687D02*
X1204937D01*
X1210875Y687813D02*
X1210563Y687500D01*
X1209937Y687187*
X1209000*
X1208375Y687500*
X1208063Y687813*
X1207750Y688437*
Y689687*
X1208063Y690313*
X1208375Y690625*
X1209000Y690937*
X1209937*
X1210563Y690625*
X1210875Y690313*
X1213063Y687500D02*
X1213687Y687187D01*
X1214313*
X1214937Y687500*
X1215250Y688125*
X1214937Y688750*
X1214313Y689063*
X1213687*
X1214313D02*
X1214937Y689375D01*
X1215250Y690000*
X1214937Y690625*
X1214313Y690937*
X1213687*
X1213063Y690625*
X0Y0D02*
M02*
