G04 EasyPC Gerber Version 20.0.2 Build 4112 *
G04 #@! TF.Part,Single*
G04 #@! TF.FileFunction,Copper,L1,Top *
%FSLAX35Y35*%
%MOIN*%
G04 #@! TA.AperFunction,SMDPad*
%ADD96R,0.01811X0.03937*%
%ADD104R,0.01969X0.04232*%
%ADD100R,0.02200X0.07800*%
%ADD99R,0.03150X0.07087*%
%ADD76R,0.03543X0.05512*%
%ADD93R,0.03937X0.08661*%
%ADD101R,0.04000X0.04800*%
%ADD21R,0.05500X0.06000*%
%ADD105R,0.08000X0.09500*%
G04 #@! TA.AperFunction,ComponentPad*
%ADD18R,0.06000X0.06000*%
G04 #@! TA.AperFunction,SMDPad*
%ADD95R,0.06300X0.06300*%
%ADD103R,0.09000X0.09000*%
G04 #@! TD.AperFunction*
%ADD12C,0.01000*%
%ADD10C,0.01200*%
%ADD23C,0.02000*%
G04 #@! TA.AperFunction,ViaPad*
%ADD22C,0.04000*%
G04 #@! TD.AperFunction*
%ADD81C,0.05000*%
G04 #@! TA.AperFunction,ComponentPad*
%ADD92C,0.05472*%
%ADD19C,0.05500*%
%ADD75C,0.06000*%
%ADD77C,0.06299*%
G04 #@! TA.AperFunction,SMDPad*
%ADD106O,0.07200X0.02500*%
%ADD89R,0.03937X0.01811*%
%ADD102R,0.06300X0.02100*%
%ADD20R,0.08000X0.02500*%
%ADD97R,0.07087X0.03150*%
%ADD94R,0.05512X0.03543*%
%ADD98R,0.08661X0.03937*%
%ADD71R,0.06000X0.05500*%
%ADD107R,0.09500X0.08000*%
G04 #@! TA.AperFunction,ComponentPad*
%ADD78C,0.09449*%
%ADD79C,0.10039*%
%ADD91C,0.11850*%
G04 #@! TA.AperFunction,WasherPad*
%ADD17C,0.17000*%
X0Y0D02*
D02*
D10*
X680250Y344250D02*
X1280250D01*
Y694250*
X680250*
Y344250*
X764549Y558150D02*
Y555348D01*
X775951*
Y558150*
X764549*
G36*
Y555348*
X775951*
Y558150*
X764549*
G37*
X827049Y555650D02*
Y552848D01*
X838451*
Y555650*
X827049*
G36*
Y552848*
X838451*
Y555650*
X827049*
G37*
X1278050Y624250D02*
X1266869D01*
G75*
G02X1253631I-6619J98*
G01*
X1246869*
G75*
G02X1233631I-6619J98*
G01*
X1226869*
G75*
G02X1213631I-6619J98*
G01*
X1206869*
G75*
G02X1197750Y618219I-6619J99*
G01*
Y610478*
G75*
G02X1206870Y604348I2500J-6130*
G01*
G75*
G02X1197750Y598219I-6620J0*
G01*
Y558600*
X1202650*
Y565116*
G75*
G02X1202746Y565744I2100*
G01*
Y568683*
X1207754*
Y561549*
X1206850*
Y558600*
X1209348*
Y556350*
X1213396*
Y558880*
X1215830*
G75*
G02X1216379Y559620I1920J-850*
G01*
X1213396*
Y566360*
X1215650*
Y567652*
X1213400*
Y577150*
X1207350*
Y576951*
X1207754*
Y569817*
X1202746*
Y576951*
X1203150*
Y579250*
G75*
G02X1205250Y581350I2100*
G01*
X1213400*
Y585848*
X1222100*
Y583350*
X1224616*
Y585612*
X1230963*
Y575329*
X1229889*
Y573850*
X1237748*
G75*
G02X1239235Y573235I3J-2100*
G01*
X1246735Y565735*
G75*
G02X1247350Y564250I-1485J-1485*
G01*
Y563171*
X1250650*
Y575329*
X1245876*
Y585612*
X1250650*
Y585880*
X1246880Y589650*
X1240252*
G75*
G02X1238765Y590265I-3J2100*
G01*
X1228765Y600265*
G75*
G02X1228150Y601750I1485J1485*
G01*
Y612248*
X1216216*
G75*
G02X1203926Y614348I-5966J2100*
G01*
G75*
G02X1216216Y616448I6324*
G01*
X1230250*
G75*
G02X1232350Y614348J-2100*
G01*
Y602620*
X1241120Y593850*
X1247748*
G75*
G02X1249235Y593235I3J-2100*
G01*
X1254235Y588235*
G75*
G02X1254850Y586750I-1485J-1485*
G01*
Y585612*
X1260884*
Y575329*
X1254850*
Y563171*
X1260884*
Y560130*
X1263150*
Y585880*
X1248765Y600265*
G75*
G02X1248150Y601750I1485J1485*
G01*
Y608383*
G75*
G02X1250250Y620673I2100J5966*
G01*
G75*
G02X1252350Y608383J-6324*
G01*
Y602620*
X1266735Y588235*
G75*
G02X1267350Y586750I-1485J-1485*
G01*
Y558030*
G75*
G02X1265250Y555930I-2100*
G01*
X1260884*
Y552888*
X1254537*
Y556927*
G75*
G02X1252750Y555930I-1787J1102*
G01*
X1252222*
Y552888*
X1247350*
Y550120*
X1254235Y543235*
G75*
G02X1254850Y541750I-1485J-1485*
G01*
Y541500*
X1263301*
Y532000*
X1259811*
Y530612*
X1260884*
Y523050*
X1265500*
Y525699*
X1275000*
Y516199*
X1265500*
Y518850*
X1257711*
G75*
G02X1255705Y520329J2100*
G01*
X1254850*
Y508171*
X1255705*
G75*
G02X1257711Y509650I2006J-621*
G01*
X1265500*
Y512301*
X1275000*
Y502801*
X1265500*
Y505450*
X1260884*
Y497888*
X1259811*
Y496500*
X1263301*
Y487000*
X1254850*
Y486500*
X1263301*
Y477000*
X1259811*
Y475612*
X1260884*
Y468050*
X1265500*
Y470699*
X1275000*
Y461199*
X1265500*
Y463850*
X1257711*
G75*
G02X1255705Y465329J2100*
G01*
X1254850*
Y453171*
X1255705*
G75*
G02X1257711Y454650I2006J-621*
G01*
X1265500*
Y457301*
X1275000*
Y447801*
X1265500*
Y450450*
X1260884*
Y442888*
X1259811*
Y441500*
X1263301*
Y432000*
X1254850*
Y397174*
G75*
G02X1256350Y394250I-2100J-2924*
G01*
G75*
G02X1249150I-3600*
G01*
G75*
G02X1250650Y397174I3600*
G01*
Y432970*
G75*
G02X1250534Y432844I-1604J1358*
G01*
X1224235Y406544*
G75*
G02X1223384Y406028I-1485J1485*
G01*
Y402888*
X1222468*
Y402085*
G75*
G02X1223850Y399250I-2218J-2835*
G01*
G75*
G02X1216650I-3600*
G01*
G75*
G02X1217953Y402022I3600*
G01*
Y402888*
X1217037*
Y413171*
X1223384*
Y411633*
X1246949Y435198*
Y442888*
X1245876*
Y453171*
X1250650*
Y465329*
X1245876*
Y475612*
X1246949*
Y497888*
X1245876*
Y508171*
X1250650*
Y520329*
X1245876*
Y530612*
X1246949*
Y538380*
X1238903Y546426*
G75*
G02X1238288Y547911I1485J1485*
G01*
Y552888*
X1237215*
Y563171*
X1243150*
Y563380*
X1236880Y569650*
X1227789*
G75*
G02X1225689Y571750J2100*
G01*
Y575329*
X1224616*
Y579150*
X1222100*
Y567652*
X1219850*
Y566360*
X1222104*
Y560130*
X1224616*
Y563171*
X1230963*
Y552888*
X1230389*
Y540544*
X1234706Y536194*
G75*
G02X1235507Y534250I-1956J-1944*
G01*
Y516754*
G75*
G02Y516751I-840J-1*
G01*
G75*
G02Y516750I-740J0*
G01*
G75*
G02X1234700Y514800I-2757J0*
G01*
X1230507Y510608*
Y508171*
X1230963*
Y497888*
X1230389*
Y490287*
X1232828Y487849*
G75*
G02X1235350Y481760I-78J-3599*
G01*
Y455750*
G75*
G02X1234586Y453909I-2600*
G01*
X1230963Y450286*
Y442888*
X1224616*
Y443410*
X1222104*
Y442140*
X1213396*
Y443410*
X1211848*
Y442400*
X1193652*
Y451100*
X1208150*
Y459049*
X1207746*
Y466183*
X1212754*
Y459049*
X1212350*
Y447610*
X1213396*
Y448880*
X1222104*
Y447610*
X1224616*
Y453171*
X1225612*
G75*
G02X1227670Y454347I2177J-1422*
G01*
X1230150Y456827*
Y465329*
X1224616*
Y469150*
X1222100*
Y457652*
X1219850*
Y456360*
X1222104*
Y449620*
X1213396*
Y456360*
X1215650*
Y457652*
X1213400*
Y469150*
X1212754*
Y467317*
X1207746*
Y468290*
G75*
G02X1201650Y470884I-2496J2594*
G01*
G75*
G02X1207746Y473478I3600*
G01*
Y474451*
X1212754*
Y473350*
X1213400*
Y475848*
X1222100*
Y473350*
X1224616*
Y475612*
X1230150*
Y481760*
G75*
G02X1229151Y484172I2600J2490*
G01*
X1225953Y487370*
G75*
G02X1225189Y489211I1836J1841*
G01*
Y497888*
X1224616*
Y498410*
X1222104*
Y497140*
X1213396*
Y498410*
X1207750*
G75*
G02X1205650Y500510J2100*
G01*
Y506549*
X1205246*
Y508016*
X1202549*
Y500400*
X1191348*
Y513100*
X1202549*
Y512216*
X1205246*
Y513683*
X1210254*
Y506549*
X1209850*
Y502610*
X1213396*
Y503880*
X1222104*
Y502610*
X1224616*
Y508171*
X1224993*
Y511746*
G75*
G02Y511749I840J2*
G01*
G75*
G02Y511750I740J0*
G01*
G75*
G02X1225800Y513700I2757J0*
G01*
X1229993Y517892*
Y520329*
X1224616*
Y524150*
X1222100*
Y512652*
X1219850*
Y511360*
X1222104*
Y504620*
X1213396*
Y511360*
X1215650*
Y512652*
X1213400*
Y524150*
X1210674*
G75*
G02X1209850Y523326I-2924J2100*
G01*
Y521951*
X1210254*
Y514817*
X1205246*
Y521951*
X1205650*
Y523326*
G75*
G02X1204150Y526250I2100J2924*
G01*
G75*
G02X1210674Y528350I3600*
G01*
X1213400*
Y530848*
X1222100*
Y528350*
X1224616*
Y530612*
X1229993*
Y533114*
X1226485Y536650*
X1222348*
Y534652*
X1213152*
Y543848*
X1222348*
Y541850*
X1225189*
Y552888*
X1224616*
Y555930*
X1222104*
Y552140*
X1213396*
Y552150*
X1209348*
Y549900*
X1197750*
Y519250*
X1160000*
Y516199*
X1150500*
Y519250*
X1120000*
Y516199*
X1110500*
Y519250*
X1110000*
Y516199*
X1100500*
Y519250*
X1075000*
Y516199*
X1065500*
Y519250*
X951869*
G75*
G02X938631I-6619J98*
G01*
X931869*
G75*
G02X928252Y513448I-6619J98*
G01*
X930435*
G75*
G02X941574Y509348I4815J-4100*
G01*
G75*
G02X930435Y505248I-6324*
G01*
X928252*
G75*
G02X925250Y492729I-3002J-5900*
G01*
G75*
G02X922248Y505248J6620*
G01*
X904391*
G75*
G02X903498Y505150I-893J4002*
G01*
X872002*
G75*
G02X869980Y505683J4100*
G01*
X866073*
Y512817*
X869980*
G75*
G02X872002Y513350I2022J-3567*
G01*
X902605*
G75*
G02X903498Y513448I893J-4002*
G01*
X922248*
G75*
G02X918631Y519250I3002J5900*
G01*
X862750*
Y692050*
X765019*
G75*
G02X764350Y686826I-2769J-2300*
G01*
Y686100*
X766848*
Y677400*
X748652*
Y679650*
X747360*
Y677396*
X740620*
Y686104*
X747360*
Y683850*
X748652*
Y686100*
X760150*
Y686826*
G75*
G02X759481Y692050I2100J2924*
G01*
X682450*
Y346450*
X1278050*
Y624250*
X1233630Y604348D02*
G75*
G02X1246870I6620D01*
G01*
G75*
G02X1233630I-6620*
G01*
X1237215Y585612D02*
X1243561D01*
Y575329*
X1237215*
Y585612*
X1213630Y604348D02*
G75*
G02X1226870I6620D01*
G01*
G75*
G02X1213630I-6620*
G01*
X1253630D02*
G75*
G02X1266870I6620D01*
G01*
G75*
G02X1253630I-6620*
G01*
X1267199Y541500D02*
X1276699D01*
Y532000*
X1267199*
Y541500*
Y486500D02*
X1276699D01*
Y477000*
X1267199*
Y486500*
Y496500D02*
X1276699D01*
Y487000*
X1267199*
Y496500*
Y441500D02*
X1276699D01*
Y432000*
X1267199*
Y441500*
X1250150Y364250D02*
G75*
G02X1270350I10100D01*
G01*
G75*
G02X1250150I-10100*
G01*
X1237215Y475612D02*
X1243561D01*
Y465329*
X1242488*
Y453171*
X1243561*
Y442888*
X1237215*
Y453171*
X1238288*
Y465329*
X1237215*
Y475612*
Y530612D02*
X1243561D01*
Y520329*
X1242488*
Y508171*
X1243561*
Y497888*
X1237215*
Y508171*
X1238288*
Y520329*
X1237215*
Y530612*
X1217037Y435612D02*
X1223384D01*
Y425329*
X1217037*
Y435612*
X1208376Y413171D02*
X1214722D01*
Y402888*
X1213649*
Y397049*
G75*
G02X1213034Y395564I-2100*
G01*
X1207850Y390380*
Y387720*
G75*
G02X1205250Y379914I-2600J-3470*
G01*
G75*
G02X1201191Y385775J4336*
G01*
G75*
G02X1197993Y392054I-941J3475*
G01*
Y398250*
G75*
G02X1198697Y399889I2257*
G01*
X1200630Y401721*
Y402888*
X1199715*
Y413171*
X1206061*
Y402888*
X1205145*
Y400750*
G75*
G02X1204441Y399111I-2257*
G01*
X1202507Y397279*
Y392054*
G75*
G02X1203650Y390433I-2258J-2804*
G01*
Y391250*
G75*
G02X1204265Y392735I2100*
G01*
X1209449Y397919*
Y402888*
X1208376*
Y413171*
X1210914Y384250D02*
G75*
G02X1219586I4336D01*
G01*
G75*
G02X1210914I-4336*
G01*
X1217725Y364250D02*
G75*
G02X1232775I7525D01*
G01*
G75*
G02X1217725I-7525*
G01*
X1208376Y435612D02*
X1214722D01*
Y425329*
X1208376*
Y435612*
X1199715D02*
X1206061D01*
Y425329*
X1199715*
Y435612*
X1203152Y543848D02*
X1212348D01*
Y534652*
X1203152*
Y543848*
X1166130Y489348D02*
G75*
G02X1179370I6620D01*
G01*
G75*
G02X1166130I-6620*
G01*
X1177951Y513100D02*
X1189152D01*
Y500400*
X1177951*
Y513100*
X1186130Y489348D02*
G75*
G02X1199370I6620D01*
G01*
G75*
G02X1186130I-6620*
G01*
X1150500Y512301D02*
X1160000D01*
Y502801*
X1150500*
Y505450*
X1146699*
Y502000*
X1144050*
Y499884*
X1151612*
Y493537*
X1141329*
Y494705*
G75*
G02X1139850Y496711I621J2006*
G01*
Y502000*
X1137199*
Y511500*
X1146699*
Y509650*
X1150500*
Y512301*
X1176784Y481448D02*
G75*
G02X1189074Y479348I5966J-2100D01*
G01*
G75*
G02X1176784Y477248I-6324*
G01*
X1160250*
G75*
G02X1158150Y479348J2100*
G01*
Y479680*
X1151880Y485949*
X1151612*
Y484876*
X1141329*
Y491222*
X1151612*
Y490149*
X1152748*
G75*
G02X1154235Y489534I3J-2100*
G01*
X1161735Y482034*
G75*
G02X1162148Y481448I-1485J-1484*
G01*
X1176784*
X1186130Y469348D02*
G75*
G02X1199370I6620D01*
G01*
G75*
G02X1186130I-6620*
G01*
X1166130D02*
G75*
G02X1179370I6620D01*
G01*
G75*
G02X1166130I-6620*
G01*
X1186689Y419250D02*
G75*
G02X1193889I3600D01*
G01*
G75*
G02X1192389Y416326I-3600*
G01*
Y413171*
X1193463*
Y402888*
X1187116*
Y405930*
X1184604*
Y402140*
X1175896*
Y403410*
X1174348*
Y402400*
X1156152*
Y411100*
X1167650*
Y419068*
G75*
G02X1167746Y419904I2100J182*
G01*
Y421183*
X1168909*
G75*
G02X1170591I841J-1933*
G01*
X1172754*
Y414049*
X1171850*
Y411100*
X1174348*
Y407610*
X1175896*
Y408880*
X1178330*
G75*
G02X1178879Y409620I1920J-850*
G01*
X1175896*
Y416360*
X1178150*
Y417652*
X1175900*
Y429650*
X1173475*
G75*
G02X1172754Y428663I-3225J1600*
G01*
Y422317*
X1167746*
Y428663*
G75*
G02X1172740Y433850I2504J2587*
G01*
X1175900*
Y435848*
X1184600*
Y433350*
X1187116*
Y435612*
X1193463*
Y425329*
X1187116*
Y429150*
X1184600*
Y417652*
X1182350*
Y416360*
X1184604*
Y410130*
X1187116*
Y413171*
X1188189*
Y416326*
G75*
G02X1186689Y419250I2100J2924*
G01*
X1177725Y364250D02*
G75*
G02X1192775I7525D01*
G01*
G75*
G02X1177725I-7525*
G01*
X1123801Y511500D02*
X1133301D01*
Y502000*
X1126130*
Y499884*
X1129171*
Y493537*
X1118888*
Y499884*
X1121930*
Y505450*
X1120000*
Y502801*
X1110500*
Y512301*
X1120000*
Y509650*
X1123801*
Y511500*
X1100500Y512301D02*
X1110000D01*
Y502801*
X1100500*
Y505450*
X1099199*
Y502000*
X1098570*
Y499884*
X1101612*
Y493537*
X1091329*
Y499884*
X1094370*
Y502000*
X1089699*
Y511500*
X1099199*
Y509650*
X1100500*
Y512301*
X1118888Y491222D02*
X1129171D01*
Y484876*
X1118888*
Y485949*
X1101612*
Y484876*
X1091329*
Y491222*
X1101612*
Y490149*
X1118888*
Y491222*
X1141329Y482561D02*
X1151612D01*
Y476215*
X1141329*
Y477288*
X1129171*
Y476215*
X1118888*
Y482561*
X1129171*
Y481488*
X1141329*
Y482561*
X961388Y499884D02*
X971671D01*
Y493537*
X961388*
Y499884*
X1021388Y482561D02*
X1031671D01*
Y476215*
X1021388*
Y477288*
X1002615*
G75*
G02X1001127Y477903I-3J2100*
G01*
X994112Y484918*
Y484876*
X983829*
Y491222*
X994112*
Y490143*
G75*
G02X995436Y489534I-161J-2094*
G01*
X1003482Y481488*
X1021388*
Y482561*
X1034189Y419250D02*
G75*
G02X1041389I3600D01*
G01*
G75*
G02X1039889Y416326I-3600*
G01*
Y413171*
X1040963*
Y402888*
X1034616*
Y405772*
X1029604*
Y404640*
X1020896*
Y405910*
X1019348*
Y402400*
X1002350*
Y392174*
G75*
G02X1003850Y389250I-2100J-2924*
G01*
G75*
G02X996650I-3600*
G01*
G75*
G02X998150Y392174I3600*
G01*
Y402888*
X997311*
Y399211*
G75*
G02X996696Y397726I-2100*
G01*
X984418Y385448*
G75*
G02X980250Y379914I-4168J-1198*
G01*
G75*
G02Y388586J4336*
G01*
G75*
G02X981448Y388418I0J-4336*
G01*
X993111Y400080*
Y402888*
X992037*
Y406927*
G75*
G02X990250Y405930I-1787J1102*
G01*
X989722*
Y402888*
X983376*
Y413171*
X988150*
Y425329*
X983376*
Y435612*
X988150*
Y437150*
X980674*
G75*
G02X974850Y437117I-2924J2100*
G01*
Y435612*
X981061*
Y425329*
X974850*
Y419250*
G75*
G02X974235Y417765I-2100*
G01*
X972350Y415880*
Y397174*
G75*
G02X973850Y394250I-2100J-2924*
G01*
G75*
G02X966650I-3600*
G01*
G75*
G02X968150Y397174I3600*
G01*
Y402888*
X962116*
Y405930*
X959604*
Y402140*
X950896*
Y403410*
X950252*
G75*
G02X948765Y404025I-3J2100*
G01*
X943765Y409025*
G75*
G02X943150Y410510I1485J1485*
G01*
Y414049*
X942746*
Y421183*
X947754*
Y414049*
X947350*
Y411380*
X950896Y407834*
Y408880*
X953330*
G75*
G02X953879Y409620I1920J-850*
G01*
X950896*
Y416360*
X953150*
Y417652*
X950900*
Y429150*
X948620*
X947754Y428284*
Y422317*
X942746*
Y429451*
X943270*
G75*
G02X943765Y430235I1980J-700*
G01*
X946265Y432735*
G75*
G02X947752Y433350I1485J-1485*
G01*
X950900*
Y435848*
X953150*
Y436326*
G75*
G02X951650Y439250I2100J2924*
G01*
G75*
G02X958850I3600*
G01*
G75*
G02X957350Y436326I-3600*
G01*
Y435848*
X959600*
Y433350*
X962116*
Y435612*
X968463*
Y425329*
X962116*
Y429150*
X959600*
Y417652*
X957350*
Y416360*
X959604*
Y410130*
X962116*
Y413171*
X963189*
Y416326*
G75*
G02X961689Y419250I2100J2924*
G01*
G75*
G02X968889I3600*
G01*
G75*
G02X968734Y418203I-3600J0*
G01*
G75*
G02X968765Y418235I1529J-1442*
G01*
X970650Y420120*
Y440880*
X968765Y442765*
G75*
G02X968150Y444250I1485J1485*
G01*
Y444650*
X923174*
G75*
G02X916650Y446750I-2924J2100*
G01*
G75*
G02X923174Y448850I3600*
G01*
X961150*
Y452400*
X958652*
Y461100*
X961150*
Y466789*
G75*
G02X961388Y467760I2100*
G01*
Y469963*
X971671*
Y463616*
X965350*
Y461100*
X976848*
Y458850*
X978140*
Y461104*
X984880*
Y452396*
X978140*
Y454650*
X976848*
Y452400*
X965350*
Y448850*
X970049*
Y449254*
X977183*
Y444246*
X973224*
X974235Y443235*
G75*
G02X974850Y441750I-1485J-1485*
G01*
Y441383*
G75*
G02X980674Y441350I2900J-2133*
G01*
X990250*
G75*
G02X992350Y439250J-2100*
G01*
Y435612*
X998384*
Y425329*
X992350*
Y413171*
X998384*
Y412713*
G75*
G02X998765Y413235I1867J-963*
G01*
X1008150Y422620*
Y436326*
G75*
G02X1006650Y439250I2100J2924*
G01*
G75*
G02X1013850I3600*
G01*
G75*
G02X1013230Y437230I-3600*
G01*
G75*
G02X1018475Y435850I2020J-2980*
G01*
X1020900*
Y438348*
X1029600*
Y435850*
X1029826*
G75*
G02X1035674I2924J-2100*
G01*
X1037789*
G75*
G02X1038760Y435612J-2100*
G01*
X1040963*
Y425329*
X1034616*
Y430671*
G75*
G02X1029826Y431650I-1866J3079*
G01*
X1029600*
Y420152*
X1027350*
Y418860*
X1029604*
Y412120*
X1020896*
Y418860*
X1023150*
Y420152*
X1020900*
Y431650*
X1017740*
G75*
G02X1017350Y431326I-2490J2602*
G01*
Y429451*
X1017754*
Y422317*
X1012746*
Y429451*
X1013150*
Y431326*
G75*
G02X1012350Y432117I2100J2924*
G01*
Y421750*
G75*
G02X1011735Y420265I-2100*
G01*
X1002570Y411100*
X1012650*
Y417616*
G75*
G02X1012746Y418244I2100*
G01*
Y421183*
X1017754*
Y414049*
X1016850*
Y411100*
X1019348*
Y410110*
X1020896*
Y411380*
X1029604*
Y410287*
X1034616*
Y413171*
X1035689*
Y416326*
G75*
G02X1034189Y419250I2100J2924*
G01*
X1027725Y364250D02*
G75*
G02X1042775I7525D01*
G01*
G75*
G02X1027725I-7525*
G01*
X985914Y384250D02*
G75*
G02X994586I4336D01*
G01*
G75*
G02X985914I-4336*
G01*
X992725Y364250D02*
G75*
G02X1007775I7525D01*
G01*
G75*
G02X992725I-7525*
G01*
X979988Y402174D02*
G75*
G02X981488Y399250I-2100J-2924D01*
G01*
G75*
G02X974288I-3600*
G01*
G75*
G02X975788Y402174I3600*
G01*
Y402888*
X974715*
Y413171*
X981061*
Y402888*
X979988*
Y402174*
X952725Y364250D02*
G75*
G02X967775I7525D01*
G01*
G75*
G02X952725I-7525*
G01*
X928817Y437020D02*
G75*
G02X929350Y434998I-3567J-2022D01*
G01*
Y391750*
G75*
G02X921150I-4100*
G01*
Y434998*
G75*
G02X921683Y437020I4100*
G01*
Y440927*
X928817*
Y437020*
X997326Y448850D02*
G75*
G02X1003850Y446750I2924J-2100D01*
G01*
G75*
G02X997326Y444650I-3600*
G01*
X985451*
Y444246*
X978317*
Y449254*
X985451*
Y448850*
X986890*
Y452396*
X985620*
Y461104*
X986733*
Y463616*
X983829*
Y469963*
X994112*
Y463616*
X991248*
Y461104*
X992360*
Y452396*
X991090*
Y448850*
X997326*
X1148570Y461104D02*
X1152360D01*
Y452396*
X1151004*
G75*
G02X1150475Y451505I-2015J594*
G01*
X1144235Y445265*
G75*
G02X1142951Y444659I-1485J1485*
G01*
Y444246*
X1135817*
Y449254*
X1142284*
X1145620Y452590*
Y454830*
G75*
G02X1144880Y455379I850J1920*
G01*
Y452396*
X1138140*
Y454650*
X1136848*
Y452400*
X1125570*
X1128716Y449254*
X1134683*
Y444246*
X1127549*
Y444770*
G75*
G02X1126765Y445265I700J1980*
G01*
X1121765Y450265*
G75*
G02X1121150Y451750I1485J1485*
G01*
Y452400*
X1118652*
Y461100*
X1121150*
Y463616*
X1118950*
G75*
G02X1113650Y466789I-1700J3173*
G01*
G75*
G02X1118950Y469963I3600*
G01*
X1129171*
Y463616*
X1125350*
Y461100*
X1136848*
Y458850*
X1138140*
Y461104*
X1144370*
Y463616*
X1141329*
Y464493*
X1139750*
G75*
G02X1138153Y465154J2257*
G01*
X1131815Y471493*
X1112146*
X1105847Y465194*
G75*
G02X1104250Y464532I-1597J1596*
G01*
X1101612*
Y463616*
X1101090*
Y461104*
X1102360*
Y452396*
X1101090*
Y450490*
G75*
G02X1100475Y449005I-2100*
G01*
X1096735Y445265*
G75*
G02X1095248Y444650I-1485J1485*
G01*
X1090451*
Y444246*
X1083317*
Y449254*
X1090451*
Y448850*
X1094380*
X1096890Y451360*
Y452396*
X1095620*
Y461104*
X1096890*
Y463616*
X1091329*
Y464689*
X1090250*
G75*
G02X1088150Y466789J2100*
G01*
Y468380*
X1086880Y469650*
X1084935*
G75*
G02X1086350Y466789I-2185J-2861*
G01*
G75*
G02X1079826Y464689I-3600*
G01*
X1079171*
Y463616*
X1072850*
Y461100*
X1084348*
Y458850*
X1088140*
Y461104*
X1094880*
Y452396*
X1088140*
Y454650*
X1084348*
Y452400*
X1072850*
Y450120*
X1074120Y448850*
X1075049*
Y449254*
X1082183*
Y444246*
X1075049*
Y444650*
X1073252*
G75*
G02X1071765Y445265I-3J2100*
G01*
X1069265Y447765*
G75*
G02X1068650Y449250I1485J1485*
G01*
Y452400*
X1066152*
Y461100*
X1068650*
Y466789*
G75*
G02X1068888Y467760I2100*
G01*
Y469650*
X1068620*
X1064735Y465765*
G75*
G02X1064600Y465642I-1484J1487*
G01*
Y462652*
X1055900*
Y464689*
X1054112*
Y463616*
X1051070*
Y461104*
X1054860*
Y452396*
X1053590*
Y447990*
G75*
G02X1052975Y446505I-2100*
G01*
X1049235Y442765*
G75*
G02X1048210Y442201I-1485J1485*
G01*
G75*
G02X1042663Y441746I-2960J2049*
G01*
X1035817*
Y446754*
X1042663*
G75*
G02X1047550Y447020I2587J-2504*
G01*
X1049390Y448860*
Y452396*
X1048120*
Y454830*
G75*
G02X1047380Y455379I850J1920*
G01*
Y452396*
X1040640*
Y454650*
X1039348*
Y452400*
X1027850*
Y447620*
X1028716Y446754*
X1034683*
Y441746*
X1027549*
Y442270*
G75*
G02X1026765Y442765I700J1980*
G01*
X1024265Y445265*
G75*
G02X1023650Y446750I1485J1485*
G01*
Y452400*
X1021152*
Y461100*
X1023650*
Y463616*
X1021388*
Y469963*
X1031671*
Y468889*
X1032326*
G75*
G02X1038850Y466789I2924J-2100*
G01*
G75*
G02X1032326Y464689I-3600*
G01*
X1031671*
Y463616*
X1027850*
Y461100*
X1039348*
Y458850*
X1040640*
Y461104*
X1046870*
Y463616*
X1043829*
Y469963*
X1054112*
Y468889*
X1055900*
Y480848*
X1064600*
Y471570*
X1066265Y473235*
G75*
G02X1067752Y473850I1485J-1485*
G01*
X1087748*
G75*
G02X1089235Y473235I3J-2100*
G01*
X1091735Y470735*
G75*
G02X1092226Y469963I-1485J-1485*
G01*
X1101612*
Y469047*
X1103315*
X1109614Y475346*
G75*
G02X1111211Y476007I1597J-1596*
G01*
X1132750*
G75*
G02X1134347Y475346J-2257*
G01*
X1140685Y469007*
X1141329*
Y469963*
X1151612*
Y463616*
X1148570*
Y461104*
X1147311Y402174D02*
G75*
G02X1148811Y399250I-2100J-2924D01*
G01*
G75*
G02X1141611I-3600*
G01*
G75*
G02X1143111Y402174I3600*
G01*
Y402888*
X1142037*
Y413171*
X1148384*
Y402888*
X1147311*
Y402174*
X1142037Y435612D02*
X1148384D01*
Y425329*
X1142037*
Y435612*
X1133376Y413171D02*
X1139722D01*
Y402888*
X1138649*
Y396750*
G75*
G02X1137235Y394765I-2100*
G01*
X1132350Y389880*
Y388044*
G75*
G02X1130250Y379914I-2100J-3794*
G01*
G75*
G02X1128150Y388044J4336*
G01*
Y390750*
G75*
G02X1128765Y392235I2100*
G01*
X1134449Y397919*
Y402888*
X1133376*
Y413171*
X1135914Y384250D02*
G75*
G02X1144586I4336D01*
G01*
G75*
G02X1135914I-4336*
G01*
X1142725Y364250D02*
G75*
G02X1157775I7525D01*
G01*
G75*
G02X1142725I-7525*
G01*
X1133376Y435612D02*
X1139722D01*
Y425329*
X1133376*
Y435612*
X1124715Y413171D02*
X1131061D01*
Y402888*
X1124715*
Y413171*
Y435612D02*
X1131061D01*
Y425329*
X1124715*
Y435612*
X1111689Y419250D02*
G75*
G02X1118889I3600D01*
G01*
G75*
G02X1117389Y416326I-3600*
G01*
Y413171*
X1118463*
Y402888*
X1112116*
Y405930*
X1107104*
Y402140*
X1098396*
Y403410*
X1097752*
G75*
G02X1096265Y404025I-3J2100*
G01*
X1091265Y409025*
G75*
G02X1090650Y410510I1485J1485*
G01*
Y414049*
X1090246*
Y421183*
X1095254*
Y414049*
X1094850*
Y411380*
X1098396Y407834*
Y408880*
X1100830*
G75*
G02X1101379Y409620I1920J-850*
G01*
X1098396*
Y416360*
X1100650*
Y420152*
X1098400*
Y431430*
X1095254Y428284*
Y422317*
X1090246*
Y423290*
G75*
G02X1084150Y425884I-2496J2594*
G01*
G75*
G02X1090246Y428478I3600*
G01*
Y429451*
X1090770*
G75*
G02X1091265Y430235I1980J-700*
G01*
X1096265Y435235*
G75*
G02X1097752Y435850I1485J-1485*
G01*
X1098400*
Y438348*
X1107100*
Y435850*
X1115289*
G75*
G02X1116260Y435612J-2100*
G01*
X1118463*
Y425329*
X1112116*
Y431650*
X1107100*
Y420152*
X1104850*
Y416360*
X1107104*
Y410130*
X1112116*
Y413171*
X1113189*
Y416326*
G75*
G02X1111689Y419250I2100J2924*
G01*
X1102725Y364250D02*
G75*
G02X1117775I7525D01*
G01*
G75*
G02X1102725I-7525*
G01*
X1069811Y402174D02*
G75*
G02X1071311Y399250I-2100J-2924D01*
G01*
G75*
G02X1064111I-3600*
G01*
G75*
G02X1065611Y402174I3600*
G01*
Y402888*
X1064537*
Y413171*
X1070884*
Y402888*
X1069811*
Y402174*
X1064537Y435612D02*
X1070884D01*
Y425329*
X1064537*
Y435612*
X1055876Y413171D02*
X1062222D01*
Y402888*
X1061149*
Y389250*
G75*
G02X1059049Y387150I-2100*
G01*
X1058474*
G75*
G02X1055250Y379914I-3224J-2900*
G01*
G75*
G02X1053150Y388044J4336*
G01*
Y389250*
G75*
G02X1055250Y391350I2100*
G01*
X1056949*
Y402888*
X1055876*
Y413171*
X1060914Y384250D02*
G75*
G02X1069586I4336D01*
G01*
G75*
G02X1060914I-4336*
G01*
X1067725Y364250D02*
G75*
G02X1082775I7525D01*
G01*
G75*
G02X1067725I-7525*
G01*
X1055876Y435612D02*
X1062222D01*
Y425329*
X1055876*
Y435612*
X1047215Y413171D02*
X1053561D01*
Y402888*
X1047215*
Y413171*
Y435612D02*
X1053561D01*
Y425329*
X1047215*
Y435612*
X983829Y499884D02*
X994112D01*
Y493537*
X983829*
Y499884*
X1021388D02*
X1031671D01*
Y493537*
X1021388*
Y494611*
X1016080*
X1013802Y492333*
G75*
G02X1013850Y491750I-3553J-584*
G01*
G75*
G02X1006650I-3600*
G01*
G75*
G02X1010833Y495302I3600*
G01*
X1013726Y498196*
G75*
G02X1015213Y498811I1485J-1485*
G01*
X1021388*
Y499884*
X1068888Y491222D02*
X1079171D01*
Y484876*
X1068888*
Y484918*
X1066735Y482765*
G75*
G02X1065248Y482150I-1485J1485*
G01*
X1054112*
Y476215*
X1043829*
Y482150*
X1040250*
G75*
G02X1038150Y484250J2100*
G01*
Y484680*
X1036880Y485949*
X1031671*
Y484876*
X1021388*
Y491222*
X1031671*
Y490149*
X1037748*
G75*
G02X1039235Y489534I3J-2100*
G01*
X1041735Y487034*
G75*
G02X1042191Y486350I-1485J-1485*
G01*
X1043829*
Y491222*
X1054112*
Y486350*
X1064380*
X1067564Y489534*
G75*
G02X1068888Y490143I1485J-1485*
G01*
Y491222*
X1091329Y482561D02*
X1101612D01*
Y476215*
X1091329*
Y477288*
X1079171*
Y476215*
X1068888*
Y482561*
X1079171*
Y481488*
X1091329*
Y482561*
X1043829Y499884D02*
X1054112D01*
Y493537*
X1043829*
Y499884*
X1076301Y511500D02*
X1085801D01*
Y502000*
X1076301*
Y504650*
X1075000*
Y502801*
X1072350*
Y499884*
X1079171*
Y493537*
X1068888*
Y495112*
G75*
G02X1068150Y496711I1363J1598*
G01*
Y502801*
X1065500*
Y512301*
X1075000*
Y508850*
X1076301*
Y511500*
X938630Y499348D02*
G75*
G02X951870I6620D01*
G01*
G75*
G02X938630I-6620*
G01*
X768900Y684049D02*
X781600D01*
Y672848*
X768900*
Y684049*
X788152Y683848D02*
X797348D01*
Y674652*
X788152*
Y683848*
X798152Y663848D02*
X807348D01*
Y654652*
X798152*
Y663848*
X830652D02*
X839848D01*
Y654652*
X830652*
Y656650*
X817348*
Y654652*
X816050*
Y650600*
X817549*
Y643850*
X818652*
Y646100*
X836848*
Y637400*
X818652*
Y639650*
X817549*
Y637900*
X806348*
Y650600*
X807850*
Y659250*
G75*
G02X808152Y660793I4100*
G01*
Y663848*
X817348*
Y661850*
X830652*
Y663848*
X849152Y636348D02*
X856348D01*
Y628348*
X849152*
Y630250*
X845674*
G75*
G02X839150Y632350I-2924J2100*
G01*
G75*
G02X845674Y634450I3600*
G01*
X849152*
Y636348*
X798152Y683848D02*
X807348D01*
Y674652*
X798152*
Y683848*
X808152D02*
X817348D01*
Y674652*
X808152*
Y683848*
X859350Y675174D02*
G75*
G02X858898Y669049I-2100J-2924D01*
G01*
X860348*
Y661049*
X858850*
Y645049*
X860348*
Y637049*
X853152*
Y645049*
X854650*
Y652348*
X849152*
Y654250*
X848152*
G75*
G02X846665Y654865I-3J2100*
G01*
X841265Y660265*
G75*
G02X840650Y661750I1485J1485*
G01*
Y663380*
X839379Y664652*
X830652*
Y673848*
X839848*
Y670121*
X844235Y665735*
G75*
G02X844850Y664250I-1485J-1485*
G01*
Y662620*
X845152Y662318*
Y669049*
X852348*
Y661049*
X846420*
X849020Y658450*
X849152*
Y660348*
X854650*
Y661049*
X853152*
Y669049*
X854650*
Y669760*
G75*
G02X854813Y674900I2600J2490*
G01*
X841152*
Y683600*
X859348*
Y679331*
G75*
G02X859350Y679250I-2103J-81*
G01*
Y675174*
X845152Y645049D02*
X852348D01*
Y637049*
X845152*
Y645049*
X830652Y683848D02*
X839848D01*
Y674652*
X830652*
Y683848*
X690650Y531500D02*
X693301D01*
Y522000*
X690873*
G75*
G02X692150Y519250I-2323J-2750*
G01*
G75*
G02X684950I-3600*
G01*
G75*
G02X686227Y522000I3600*
G01*
X683801*
Y531500*
X686450*
Y532801*
X683000*
Y542301*
X692500*
Y532801*
X690650*
Y531500*
X688630Y451848D02*
G75*
G02X701870I6620D01*
G01*
G75*
G02X688630I-6620*
G01*
X716650Y419250D02*
G75*
G02X723850I3600D01*
G01*
G75*
G02X722350Y416326I-3600*
G01*
Y409431*
X723817*
Y397573*
X716683*
Y401402*
X711250*
G75*
G02X709652Y402140J2100*
G01*
X706896*
Y403591*
G75*
G02X706265Y404025I854J1919*
G01*
X700765Y409525*
G75*
G02X700201Y410549I1485J1485*
G01*
X699746*
Y417683*
X704754*
Y411476*
X707350Y408880*
X715604*
Y405602*
X716683*
Y409431*
X718150*
Y416326*
G75*
G02X716650Y419250I2100J2924*
G01*
X738755Y440927D02*
X743817D01*
Y429069*
X736683*
Y438448*
G75*
G02X732326Y439650I-1433J3302*
G01*
X727620*
X723817Y435847*
Y429069*
X716683*
Y431650*
X715600*
Y420152*
X713350*
Y416360*
X715604*
Y409620*
X706896*
Y416360*
X709150*
Y420152*
X706900*
Y427430*
X704754Y425284*
Y418817*
X699746*
Y425951*
X700159*
G75*
G02X700765Y427235I2091J-201*
G01*
X706900Y433369*
Y438348*
X715600*
Y435850*
X716683*
Y440927*
X722957*
X725265Y443235*
G75*
G02X726752Y443850I1485J-1485*
G01*
X732326*
G75*
G02X738755Y440927I2924J-2100*
G01*
X736683Y409431D02*
X743817D01*
Y397573*
X736683*
Y409431*
X727725Y364250D02*
G75*
G02X742775I7525D01*
G01*
G75*
G02X727725I-7525*
G01*
X690150D02*
G75*
G02X710350I10100D01*
G01*
G75*
G02X690150I-10100*
G01*
X688630Y471848D02*
G75*
G02X701870I6620D01*
G01*
G75*
G02X688630I-6620*
G01*
X698926Y461848D02*
G75*
G02X711574I6324D01*
G01*
G75*
G02X698926I-6324*
G01*
X708630Y451848D02*
G75*
G02X721870I6620D01*
G01*
G75*
G02X708630I-6620*
G01*
X683000Y555699D02*
X692500D01*
Y546199*
X683000*
Y555699*
X820900Y625848D02*
X829600D01*
Y607652*
X820900*
Y609918*
X817833*
Y608459*
X813419*
G75*
G02X813850Y606750I-3169J-1709*
G01*
G75*
G02X806650I-3600*
G01*
G75*
G02X806698Y607333I3600J-1*
G01*
X804380Y609650*
X804348*
Y608900*
X793152*
Y619182*
X792350Y618380*
Y607174*
G75*
G02X793850Y604250I-2100J-2924*
G01*
G75*
G02X787350Y602117I-3600*
G01*
Y598825*
G75*
G02X786735Y597340I-2100*
G01*
X784235Y594840*
G75*
G02X782748Y594225I-1485J1485*
G01*
X780333*
Y592608*
X775167*
Y593993*
X772100*
Y582652*
X763400*
Y594150*
X762100*
Y582652*
X753400*
Y600848*
X762100*
Y598350*
X763400*
Y600848*
X772100*
Y598507*
X775167*
Y600041*
X780333*
Y598425*
X781880*
X783150Y599694*
Y602117*
G75*
G02X777326Y602150I-2900J2133*
G01*
X734350*
Y573600*
X736848*
Y564900*
X718652*
Y567150*
X717100*
Y562652*
X708400*
Y565150*
X707100*
Y562652*
X698400*
Y565150*
X690250*
G75*
G02X688150Y567250J2100*
G01*
Y572152*
X685652*
Y581348*
X694848*
Y572152*
X692350*
Y569350*
X698400*
Y580848*
X707100*
Y569350*
X708400*
Y580848*
X717100*
Y571350*
X718652*
Y573600*
X730150*
Y609900*
X718652*
Y612150*
X717100*
Y610152*
X708400*
Y612650*
X707100*
Y610152*
X698400*
Y612650*
X690250*
G75*
G02X688152Y614652J2100*
G01*
X685652*
Y623848*
X694848*
Y616850*
X698400*
Y628348*
X707100*
Y616850*
X708400*
Y628348*
X717100*
Y616350*
X718652*
Y618600*
X736848*
Y609900*
X734350*
Y606350*
X777326*
G75*
G02X783150Y606383I2924J-2100*
G01*
Y613380*
X782348Y614182*
Y608900*
X771152*
Y620075*
X765333*
Y618459*
X760167*
Y622150*
X756848*
Y619900*
X738652*
Y628600*
X756848*
Y626350*
X762750*
G75*
G02X764059Y625892J-2100*
G01*
X765333*
Y624275*
X771152*
Y629225*
X765333*
Y627608*
X760167*
Y629225*
X752250*
G75*
G02X750150Y631325J2100*
G01*
Y632400*
X738652*
Y634650*
X725252*
G75*
G02X723765Y635265I-3J2100*
G01*
X717380Y641650*
X717100*
Y630152*
X708400*
Y641650*
X707100*
Y630152*
X698400*
Y641650*
X694848*
Y634652*
X685652*
Y643848*
X688152*
G75*
G02X690250Y645850I2098J-98*
G01*
X698400*
Y648348*
X707100*
Y645850*
X708400*
Y648348*
X717100*
Y645850*
X718248*
G75*
G02X719735Y645235I3J-2100*
G01*
X726120Y638850*
X738652*
Y641100*
X750150*
Y642400*
X738652*
Y644650*
X728174*
G75*
G02X721650Y646750I-2924J2100*
G01*
G75*
G02X728174Y648850I3600*
G01*
X738652*
Y651100*
X756848*
Y642400*
X754350*
Y641100*
X756848*
Y633425*
X760167*
Y635041*
X765333*
Y633425*
X775248*
G75*
G02X776735Y632810I3J-2100*
G01*
X778235Y631310*
G75*
G02X778850Y629825I-1485J-1485*
G01*
Y629600*
X782348*
Y618850*
X782748*
G75*
G02X784235Y618235I3J-2100*
G01*
X786735Y615735*
G75*
G02X787350Y614250I-1485J-1485*
G01*
Y606383*
G75*
G02X788150Y607174I2900J-2133*
G01*
Y619250*
G75*
G02X788765Y620735I2100*
G01*
X791265Y623235*
G75*
G02X792752Y623850I1485J-1485*
G01*
X793152*
Y629600*
X796650*
Y631750*
G75*
G02X803850I3600*
G01*
G75*
G02X803138Y629600I-3600*
G01*
X804348*
Y623425*
X812667*
Y625041*
X817833*
Y617608*
X812667*
Y619225*
X804348*
Y618850*
X810248*
G75*
G02X811735Y618235I3J-2100*
G01*
X814078Y615892*
X817833*
Y614433*
X820900*
Y625848*
X855987Y575041D02*
X857833D01*
Y567608*
X852667*
Y572422*
X839379Y585711*
X830900*
Y588209*
X829600*
Y585711*
X820900*
Y588209*
X813174*
G75*
G02X806650Y590309I-2924J2100*
G01*
G75*
G02X813174Y592409I3600*
G01*
X820900*
Y603907*
X829600*
Y592409*
X830900*
Y603907*
X839600*
Y591428*
X855987Y575041*
X857850Y548348D02*
X860100D01*
Y530152*
X851400*
Y541650*
X850250*
G75*
G02X848890Y542150J2100*
G01*
X847951*
Y536600*
X838451*
Y540652*
X835350*
Y539250*
G75*
G02X833250Y537150I-2100*
G01*
X827049*
Y536600*
X823070*
X819329Y532859*
G75*
G02X818187Y530600I-3579J391*
G01*
X829348*
Y521900*
X817850*
Y520600*
X829348*
Y511900*
X811152*
Y520600*
X813650*
Y521900*
X811152*
Y530600*
X813313*
G75*
G02X817112Y536582I2437J2650*
G01*
X817549Y537019*
Y541080*
X804211Y527741*
G75*
G02X804350Y526750I-3461J-991*
G01*
G75*
G02X797150I-3600*
G01*
G75*
G02X800878Y530348I3600*
G01*
X815682Y545152*
X808900*
Y557150*
X803174*
G75*
G02X797326I-2924J2100*
G01*
X790350*
Y554750*
G75*
G02X789735Y553265I-2100*
G01*
X787818Y551348*
X792100*
Y548850*
X792326*
G75*
G02X798850Y546750I2924J-2100*
G01*
G75*
G02X792326Y544650I-3600*
G01*
X792100*
Y533152*
X783400*
Y539100*
X775951*
Y543152*
X771850*
Y539120*
X772735Y538235*
G75*
G02X773350Y536750I-1485J-1485*
G01*
Y534674*
G75*
G02Y528826I-2100J-2924*
G01*
Y528600*
X784848*
Y519900*
X773350*
Y518600*
X784848*
Y509900*
X766652*
Y518600*
X769150*
Y519900*
X766652*
Y528600*
X769150*
Y528826*
G75*
G02Y534674I2100J2924*
G01*
Y535880*
X768265Y536765*
G75*
G02X767650Y538250I1485J1485*
G01*
Y539650*
X764549*
Y539100*
X755049*
Y543580*
X746735Y535265*
G75*
G02X745248Y534650I-1485J1485*
G01*
X738174*
G75*
G02X732500Y534427I-2924J2100*
G01*
Y532801*
X729050*
Y531500*
X731699*
Y522000*
X722350*
Y521100*
X731848*
Y518850*
X739826*
G75*
G02X746350Y516750I2924J-2100*
G01*
G75*
G02X739826Y514650I-3600*
G01*
X731848*
Y512400*
X713652*
Y514650*
X711848*
Y512400*
X700350*
Y512120*
X703620Y508850*
X732326*
G75*
G02X738850Y506750I2924J-2100*
G01*
G75*
G02X732326Y504650I-3600*
G01*
X724050*
Y504000*
X726699*
Y494500*
X724050*
Y494000*
X726699*
Y490770*
G75*
G02X726735Y490735I-1441J-1526*
G01*
X731735Y485735*
G75*
G02X732350Y484250I-1485J-1485*
G01*
Y480120*
X737135Y475335*
G75*
G02X744747Y470222I3115J-3585*
G01*
X746120Y468850*
X756489*
G75*
G02X760250Y476500I3761J2900*
G01*
G75*
G02X764011Y468850J-4750*
G01*
X793490*
G75*
G02X802500Y466750I4260J-2100*
G01*
G75*
G02X793490Y464650I-4750*
G01*
X764011*
G75*
G02X760250Y457000I-3761J-2900*
G01*
G75*
G02X756489Y464650J4750*
G01*
X745252*
G75*
G02X743765Y465265I-3J2100*
G01*
X741778Y467253*
G75*
G02X735566Y470964I-1528J4497*
G01*
X728765Y477765*
G75*
G02X728150Y479250I1485J1485*
G01*
Y483380*
X726699Y484831*
Y484500*
X717199*
Y494000*
X719850*
Y494500*
X717199*
Y504000*
X719850*
Y504650*
X702752*
G75*
G02X701265Y505265I-3J2100*
G01*
X696765Y509765*
G75*
G02X696150Y511250I1485J1485*
G01*
Y512400*
X693652*
Y521100*
X711848*
Y518850*
X713652*
Y521100*
X718150*
Y522000*
X708801*
Y531500*
X711450*
Y532801*
X708000*
Y535450*
X707500*
Y532801*
X704050*
Y531500*
X706699*
Y522000*
X697199*
Y531500*
X699850*
Y532801*
X698000*
Y542301*
X707500*
Y539650*
X708000*
Y542301*
X717500*
Y532801*
X715650*
Y531500*
X718301*
Y527532*
G75*
G02X720250Y528850I1949J-782*
G01*
X722199*
Y531500*
X724850*
Y532801*
X723000*
Y542301*
X732500*
Y539073*
G75*
G02X738174Y538850I2750J-2323*
G01*
X744380*
X750737Y545207*
G75*
G02X750248Y545150I-488J2042*
G01*
X747100*
Y542652*
X738400*
Y560848*
X747100*
Y558350*
X755049*
Y559400*
X755650*
Y562400*
X743652*
Y571100*
X755150*
Y572400*
X743652*
Y581100*
X761848*
Y572400*
X759350*
Y571100*
X761848*
Y562400*
X759850*
Y562350*
X788250*
G75*
G02X789735Y561735J-2100*
G01*
X790120Y561350*
X797326*
G75*
G02X803174I2924J-2100*
G01*
X808900*
Y563348*
X811150*
Y564900*
X808652*
Y573600*
X811150*
Y574900*
X808652*
Y583600*
X826848*
Y574900*
X815350*
Y573600*
X826848*
Y564900*
X815350*
Y563348*
X817600*
Y559850*
X847748*
G75*
G02X849235Y559235I3J-2100*
G01*
X851735Y556735*
G75*
G02X852350Y555250I-1485J-1485*
G01*
Y549250*
G75*
G02X852146Y548348I-2100J0*
G01*
X853650*
Y558459*
X852667*
Y565892*
X857833*
Y562444*
G75*
G02X857850Y562175I-2084J-269*
G01*
Y548348*
X905520Y502817D02*
X909427D01*
Y495683*
X905520*
G75*
G02X903498Y495150I-2022J3567*
G01*
X860250*
G75*
G02Y503350J4100*
G01*
X903498*
G75*
G02X905520Y502817J-4100*
G01*
X983829Y482561D02*
X994112D01*
Y476215*
X990184*
X986735Y472765*
G75*
G02X985248Y472150I-1485J1485*
G01*
X938620*
X907397Y440927*
X908817*
Y429069*
X907350*
Y409431*
X908817*
Y397573*
X901683*
Y409431*
X903150*
Y417117*
G75*
G02X896650Y419250I-2900J2133*
G01*
G75*
G02X898150Y422174I3600*
G01*
Y442117*
G75*
G02X892326Y442150I-2900J2133*
G01*
X886752*
G75*
G02X885265Y442765I-3J2100*
G01*
X882131Y445899*
G75*
G02X881615Y446746I1485J1485*
G01*
X880049*
Y447150*
X873250*
G75*
G02X871150Y449250J2100*
G01*
Y454900*
X868652*
Y463600*
X871150*
Y465683*
X866073*
Y467150*
X845674*
G75*
G02X839150Y469250I-2924J2100*
G01*
G75*
G02X841567Y472650I3600*
G01*
X800148*
G75*
G02X793253Y478278I-2398J4100*
G01*
X791880Y479650*
X781511*
G75*
G02X777750Y472000I-3761J-2900*
G01*
G75*
G02X773989Y479650J4750*
G01*
X744510*
G75*
G02X735500Y481750I-4260J2100*
G01*
G75*
G02X744510Y483850I4750*
G01*
X773989*
G75*
G02X777750Y491500I3761J2900*
G01*
G75*
G02X781511Y483850J-4750*
G01*
X792748*
G75*
G02X794235Y483235I3J-2100*
G01*
X796222Y481247*
G75*
G02X800148Y480850I1528J-4497*
G01*
X860250*
G75*
G02Y472650J-4100*
G01*
X843933*
G75*
G02X845674Y471350I-1183J-3400*
G01*
X866073*
Y472817*
X877931*
Y465683*
X875350*
Y463600*
X886848*
Y461350*
X890640*
Y463604*
X897380*
Y454896*
X890640*
Y457150*
X886848*
Y454900*
X875350*
Y451350*
X880049*
Y451754*
X887183*
Y446787*
X887620Y446350*
X892326*
G75*
G02X892656Y446746I2924J-2100*
G01*
X888317*
Y451754*
X895451*
Y451350*
X899390*
Y454896*
X898120*
Y463604*
X899390*
Y465683*
X897569*
Y472817*
X909427*
Y465683*
X903590*
Y463604*
X904860*
Y454896*
X903590*
Y450250*
G75*
G02X902975Y448765I-2100*
G01*
X902350Y448140*
Y440927*
X903150*
Y441750*
G75*
G02X903765Y443235I2100*
G01*
X936265Y475735*
G75*
G02X937752Y476350I1485J-1485*
G01*
X961388*
Y482150*
X903498*
G75*
G02X901398Y484250J2100*
G01*
Y485683*
X897569*
Y487150*
X877931*
Y485683*
X866073*
Y492817*
X877931*
Y491350*
X897569*
Y492817*
X909427*
Y486350*
X961388*
Y491222*
X971671*
Y486350*
X972326*
G75*
G02X978850Y484250I2924J-2100*
G01*
G75*
G02X972326Y482150I-3600*
G01*
X971671*
Y476350*
X983829*
Y482561*
X911683Y440927D02*
X918817D01*
Y429069*
X917350*
Y409431*
X918817*
Y397573*
X917350*
Y394250*
G75*
G02X916735Y392765I-2100*
G01*
X909418Y385448*
G75*
G02X905250Y379914I-4168J-1198*
G01*
G75*
G02Y388586J4336*
G01*
G75*
G02X906448Y388418I0J-4336*
G01*
X913150Y395120*
Y397573*
X911683*
Y409431*
X913150*
Y429069*
X911683*
Y440927*
X910914Y384250D02*
G75*
G02X919586I4336D01*
G01*
G75*
G02X910914I-4336*
G01*
X917725Y364250D02*
G75*
G02X932775I7525D01*
G01*
G75*
G02X917725I-7525*
G01*
X881650Y419250D02*
G75*
G02X888850I3600D01*
G01*
G75*
G02X887350Y416326I-3600*
G01*
Y409431*
X888817*
Y397573*
X881683*
Y403410*
X879604*
Y402140*
X877350*
Y391750*
G75*
G02X876735Y390265I-2100*
G01*
X872100Y385631*
Y372652*
X863400*
Y390848*
X871379*
X873150Y392620*
Y402140*
X870896*
Y404394*
X863765Y411525*
G75*
G02X863741Y411549I1494J1469*
G01*
X862746*
Y418683*
X867754*
Y413476*
X870896Y410334*
Y416360*
X874150*
Y419652*
X871900*
Y429430*
X867754Y425284*
Y419817*
X862746*
Y426951*
X863527*
G75*
G02X863765Y427235I1724J-1200*
G01*
X871265Y434735*
G75*
G02X871900Y435170I1485J-1485*
G01*
Y437848*
X880600*
Y435350*
X881683*
Y437347*
X880050Y438980*
G75*
G02X874150Y441750I-2300J2770*
G01*
G75*
G02X880710Y443799I3600*
G01*
G75*
G02X881735Y443235I-459J-2049*
G01*
X884043Y440927*
X888817*
Y429069*
X881683*
Y431150*
X880600*
Y419652*
X878350*
Y416360*
X879604*
Y409620*
X871609*
X872350Y408880*
X879604*
Y407610*
X881683*
Y409431*
X883150*
Y416326*
G75*
G02X881650Y419250I2100J2924*
G01*
X877725Y364250D02*
G75*
G02X892775I7525D01*
G01*
G75*
G02X877725I-7525*
G01*
X848817Y437020D02*
G75*
G02X849350Y434998I-3567J-2022D01*
G01*
Y391750*
G75*
G02X841150I-4100*
G01*
Y434998*
G75*
G02X841683Y437020I4100*
G01*
Y440927*
X848817*
Y437020*
X821683Y409431D02*
X828817D01*
Y397573*
X821683*
Y409431*
X831683Y440927D02*
X838817D01*
Y429069*
X837350*
Y409431*
X838817*
Y397573*
X837350*
Y394250*
G75*
G02X836735Y392765I-2100*
G01*
X832350Y388380*
Y388044*
G75*
G02X830250Y379914I-2100J-3794*
G01*
G75*
G02X828150Y388044J4336*
G01*
Y389250*
G75*
G02X828765Y390735I2100*
G01*
X833150Y395120*
Y397573*
X831683*
Y409431*
X833150*
Y429069*
X831683*
Y440927*
X835914Y384250D02*
G75*
G02X844586I4336D01*
G01*
G75*
G02X835914I-4336*
G01*
X842725Y364250D02*
G75*
G02X857775I7525D01*
G01*
G75*
G02X842725I-7525*
G01*
X821683Y440927D02*
X828817D01*
Y429069*
X821683*
Y440927*
X847326Y508850D02*
G75*
G02X853850Y506750I2924J-2100D01*
G01*
G75*
G02X847326Y504650I-3600*
G01*
X835674*
G75*
G02X829150Y506750I-2924J2100*
G01*
G75*
G02X835674Y508850I3600*
G01*
X847326*
X813000Y508199D02*
X822500D01*
Y498699*
X813000*
Y501350*
X812500*
Y498699*
X803000*
Y501127*
G75*
G02X796650Y503450I-2750J2323*
G01*
G75*
G02X803000Y505773I3600*
G01*
Y508199*
X812500*
Y505550*
X813000*
Y508199*
Y494801D02*
X822500D01*
Y485301*
X813000*
Y494801*
X803000D02*
X812500D01*
Y485301*
X803000*
Y494801*
X801650Y446750D02*
G75*
G02X808850I3600D01*
G01*
G75*
G02X807350Y443826I-3600*
G01*
Y440927*
X808817*
Y429069*
X801683*
Y431650*
X800600*
Y420152*
X798350*
Y416360*
X800604*
Y409620*
X794109*
X794850Y408880*
X800604*
Y407610*
X801683*
Y409431*
X803150*
Y416326*
G75*
G02X801650Y419250I2100J2924*
G01*
G75*
G02X808850I3600*
G01*
G75*
G02X807350Y416326I-3600*
G01*
Y409431*
X808817*
Y397573*
X801683*
Y403410*
X800604*
Y402140*
X791896*
Y405894*
X786265Y411525*
G75*
G02X785650Y413010I1485J1485*
G01*
Y414049*
X785246*
Y421183*
X790254*
Y414049*
X789850*
Y413880*
X791896Y411834*
Y416360*
X794150*
Y420152*
X791900*
Y427430*
X790254Y425784*
Y422317*
X785246*
Y429451*
X787981*
X791900Y433369*
Y438348*
X800600*
Y435850*
X801683*
Y440927*
X803150*
Y443826*
G75*
G02X801650Y446750I2100J2924*
G01*
X802725Y364250D02*
G75*
G02X817775I7525D01*
G01*
G75*
G02X802725I-7525*
G01*
X784826Y461350D02*
G75*
G02X791350Y459250I2924J-2100D01*
G01*
G75*
G02X784826Y457150I-3600*
G01*
X773174*
G75*
G02X766650Y459250I-2924J2100*
G01*
G75*
G02X773174Y461350I3600*
G01*
X784826*
X777750Y439098D02*
G75*
G02Y430898J-4100D01*
G01*
X764350*
Y391750*
G75*
G02X756150I-4100*
G01*
Y434998*
G75*
G02X756683Y437020I4100*
G01*
Y440927*
X763817*
Y439098*
X777750*
X760914Y384250D02*
G75*
G02X769586I4336D01*
G01*
G75*
G02X760914I-4336*
G01*
X767725Y364250D02*
G75*
G02X782775I7525D01*
G01*
G75*
G02X767725I-7525*
G01*
X755250Y388586D02*
G75*
G02Y379914J-4336D01*
G01*
G75*
G02X751398Y386242J4336*
G01*
X748503Y390585*
G75*
G02X748150Y391750I1747J1165*
G01*
Y397573*
X746683*
Y409431*
X748150*
Y429069*
X746683*
Y440927*
X753817*
Y429069*
X752350*
Y409431*
X753817*
Y397573*
X752350*
Y392386*
X754893Y388572*
G75*
G02X755250Y388586I355J-4322*
G01*
X703801Y494000D02*
X713301D01*
Y484500*
X703801*
Y494000*
X708630Y471848D02*
G75*
G02X721870I6620D01*
G01*
G75*
G02X708630I-6620*
G01*
X703801Y504000D02*
X713301D01*
Y494500*
X703801*
Y504000*
X792326Y588850D02*
G75*
G02X798850Y586750I2924J-2100D01*
G01*
G75*
G02X792326Y584650I-3600*
G01*
X780333*
Y583459*
X775167*
Y590892*
X780333*
Y588850*
X792326*
X723000Y555699D02*
X732500D01*
Y546199*
X723000*
Y555699*
X708000D02*
X717500D01*
Y546199*
X708000*
Y555699*
X698000D02*
X707500D01*
Y546199*
X698000*
Y555699*
X685652Y591348D02*
X694848D01*
Y582152*
X685652*
Y591348*
X722326Y598350D02*
G75*
G02X728850Y596250I2924J-2100D01*
G01*
G75*
G02X722326Y594150I-3600*
G01*
X717100*
Y582652*
X708400*
Y594150*
X707100*
Y582652*
X698400*
Y594650*
X694848*
Y592152*
X685652*
Y601348*
X694848*
Y598850*
X698400*
Y600848*
X707100*
Y598350*
X708400*
Y600848*
X717100*
Y598350*
X722326*
X685652Y633848D02*
X694848D01*
Y624652*
X685652*
Y633848*
X690150Y674250D02*
G75*
G02X710350I10100D01*
G01*
G75*
G02X690150I-10100*
G01*
X733140Y676104D02*
X739880D01*
Y667396*
X733140*
Y676104*
Y686104D02*
X739880D01*
Y677396*
X733140*
Y686104*
X795350Y663848D02*
X797348D01*
Y654652*
X788152*
Y662450*
X781600*
Y659451*
X768900*
Y662950*
X766848*
Y657400*
X764494*
G75*
G02X766350Y654250I-1744J-3150*
G01*
G75*
G02X759150I-3600*
G01*
G75*
G02X760150Y656740I3600*
G01*
Y657400*
X748652*
Y666100*
X760150*
Y667400*
X748652*
Y669650*
X747360*
Y667396*
X740620*
Y676104*
X747360*
Y673850*
X748652*
Y676100*
X766848*
Y667400*
X764350*
Y667150*
X768900*
Y670652*
X781600*
Y667650*
X792750*
G75*
G02X795350Y665050J-2600*
G01*
Y663848*
X792951Y650600D02*
X804152D01*
Y637900*
X792951*
Y650600*
X683050Y364250D02*
G36*
Y347050D01*
X1277450*
Y364250*
X1270350*
G75*
G02X1250150I-10100*
G01*
X1232775*
G75*
G02X1217725I-7525*
G01*
X1192775*
G75*
G02X1177725I-7525*
G01*
X1157775*
G75*
G02X1142725I-7525*
G01*
X1117775*
G75*
G02X1102725I-7525*
G01*
X1082775*
G75*
G02X1067725I-7525*
G01*
X1042775*
G75*
G02X1027725I-7525*
G01*
X1007775*
G75*
G02X992725I-7525*
G01*
X967775*
G75*
G02X952725I-7525*
G01*
X932775*
G75*
G02X917725I-7525*
G01*
X892775*
G75*
G02X877725I-7525*
G01*
X857775*
G75*
G02X842725I-7525*
G01*
X817775*
G75*
G02X802725I-7525*
G01*
X782775*
G75*
G02X767725I-7525*
G01*
X742775*
G75*
G02X727725I-7525*
G01*
X710350*
G75*
G02X690150I-10100*
G01*
X683050*
G37*
X1209586Y384250D02*
G36*
G75*
G02X1205250Y379914I-4336D01*
G01*
G75*
G02X1200914Y384250J4336*
G01*
X1144586*
G75*
G02X1135914I-4336*
G01*
X1134586*
G75*
G02X1130250Y379914I-4336*
G01*
G75*
G02X1125914Y384250J4336*
G01*
X1069586*
G75*
G02X1060914I-4336*
G01*
X1059586*
G75*
G02X1055250Y379914I-4336*
G01*
G75*
G02X1050914Y384250J4336*
G01*
X994586*
G75*
G02X985914I-4336*
G01*
X984586*
G75*
G02X980250Y379914I-4336*
G01*
G75*
G02X975914Y384250J4336*
G01*
X919586*
G75*
G02X910914I-4336*
G01*
X909586*
G75*
G02X905250Y379914I-4336*
G01*
G75*
G02X900914Y384250J4336*
G01*
X872100*
Y372652*
X863400*
Y384250*
X844586*
G75*
G02X835914I-4336*
G01*
X834586*
G75*
G02X830250Y379914I-4336*
G01*
G75*
G02X825914Y384250J4336*
G01*
X769586*
G75*
G02X760914I-4336*
G01*
X759586*
G75*
G02X755250Y379914I-4336*
G01*
G75*
G02X750914Y384250J4336*
G01*
X683050*
Y364250*
X690150*
G75*
G02X710350I10100*
G01*
X727725*
G75*
G02X742775I7525*
G01*
X767725*
G75*
G02X782775I7525*
G01*
X802725*
G75*
G02X817775I7525*
G01*
X842725*
G75*
G02X857775I7525*
G01*
X877725*
G75*
G02X892775I7525*
G01*
X917725*
G75*
G02X932775I7525*
G01*
X952725*
G75*
G02X967775I7525*
G01*
X992725*
G75*
G02X1007775I7525*
G01*
X1027725*
G75*
G02X1042775I7525*
G01*
X1067725*
G75*
G02X1082775I7525*
G01*
X1102725*
G75*
G02X1117775I7525*
G01*
X1142725*
G75*
G02X1157775I7525*
G01*
X1177725*
G75*
G02X1192775I7525*
G01*
X1217725*
G75*
G02X1232775I7525*
G01*
X1250150*
G75*
G02X1270350I10100*
G01*
X1277450*
Y384250*
X1219586*
G75*
G02X1210914I-4336*
G01*
X1209586*
G37*
X750914D02*
G36*
G75*
G02X751398Y386242I4336J0D01*
G01*
X748503Y390585*
G75*
G02X748150Y391750I1748J1165*
G01*
Y396543*
X683050*
Y384250*
X750914*
G37*
X833150Y396543D02*
G36*
X764350D01*
Y391750*
G75*
G02X756150I-4100*
G01*
Y396543*
X752350*
Y392386*
X754893Y388572*
G75*
G02X755250Y388586I352J-4251*
G01*
G75*
G02X759586Y384250J-4336*
G01*
X760914*
G75*
G02X769586I4336*
G01*
X825914*
G75*
G02X828150Y388044I4336*
G01*
Y389250*
G75*
G02X828765Y390735I2102J0*
G01*
X833150Y395120*
Y396543*
G37*
X873150D02*
G36*
X849350D01*
Y391750*
G75*
G02X841150I-4100*
G01*
Y396543*
X837350*
Y394250*
G75*
G02X836735Y392765I-2102J0*
G01*
X832350Y388380*
Y388044*
G75*
G02X834586Y384250I-2100J-3794*
G01*
X835914*
G75*
G02X844586I4336*
G01*
X863400*
Y390848*
X871379*
X873150Y392620*
Y396543*
G37*
X913150D02*
G36*
X877350D01*
Y391750*
G75*
G02X876735Y390265I-2102J0*
G01*
X872100Y385631*
Y384250*
X900914*
G75*
G02X905250Y388586I4336*
G01*
G75*
G02X906448Y388418I3J-4320*
G01*
X913150Y395120*
Y396543*
G37*
X989573D02*
G36*
X980261D01*
G75*
G02X975515I-2373J2708*
G01*
X973026*
G75*
G02X973850Y394250I-2775J-2293*
G01*
Y394250*
G75*
G02X966650I-3600*
G01*
Y394250*
G75*
G02X967474Y396543I3599J0*
G01*
X929350*
Y391750*
G75*
G02X921150I-4100*
G01*
Y396543*
X917350*
Y394250*
G75*
G02X916735Y392765I-2102J0*
G01*
X909418Y385448*
G75*
G02X909586Y384250I-4169J-1197*
G01*
X910914*
G75*
G02X919586I4336*
G01*
X975914*
G75*
G02X980250Y388586I4336*
G01*
G75*
G02X981448Y388418I3J-4320*
G01*
X989573Y396543*
G37*
X1056949D02*
G36*
X1002350D01*
Y392174*
G75*
G02X1003850Y389250I-2099J-2924*
G01*
Y389250*
G75*
G02X996650I-3600*
G01*
Y389250*
G75*
G02X998150Y392174I3599*
G01*
Y396543*
X995513*
X984418Y385448*
G75*
G02X984586Y384250I-4169J-1197*
G01*
X985914*
G75*
G02X994586I4336*
G01*
X1050914*
G75*
G02X1053150Y388044I4336*
G01*
Y389250*
Y389250*
G75*
G02X1055250Y391350I2100*
G01*
X1056949*
Y396543*
G37*
X1133073D02*
G36*
X1070083D01*
G75*
G02X1065338I-2373J2708*
G01*
X1061149*
Y389250*
Y389250*
G75*
G02X1059049Y387150I-2100*
G01*
X1058474*
G75*
G02X1059586Y384250I-3224J-2900*
G01*
X1060914*
G75*
G02X1069586I4336*
G01*
X1125914*
G75*
G02X1128150Y388044I4336*
G01*
Y390750*
G75*
G02X1128765Y392235I2102J0*
G01*
X1133073Y396543*
G37*
X1200914Y384250D02*
G36*
G75*
G02X1201191Y385775I4336J0D01*
G01*
G75*
G02X1196650Y389250I-941J3475*
G01*
G75*
G02X1197993Y392054I3600*
G01*
Y396543*
X1147583*
G75*
G02X1142838I-2373J2708*
G01*
X1138639*
G75*
G02X1137235Y394765I-2091J208*
G01*
X1132350Y389880*
Y388044*
G75*
G02X1134586Y384250I-2100J-3794*
G01*
X1135914*
G75*
G02X1144586I4336*
G01*
X1200914*
G37*
X1208073Y396543D02*
G36*
X1202507D01*
Y392054*
G75*
G02X1203650Y390433I-2258J-2804*
G01*
Y391250*
G75*
G02X1204265Y392735I2102J0*
G01*
X1208073Y396543*
G37*
X1255526D02*
G36*
G75*
G02X1256350Y394250I-2775J-2293D01*
G01*
Y394250*
G75*
G02X1249150I-3600*
G01*
Y394250*
G75*
G02X1249974Y396543I3599J0*
G01*
X1222623*
G75*
G02X1217877I-2373J2708*
G01*
X1213587*
G75*
G02X1213034Y395564I-2039J507*
G01*
X1207850Y390380*
Y387720*
G75*
G02X1209586Y384250I-2600J-3470*
G01*
X1210914*
G75*
G02X1219586I4336*
G01*
X1277450*
Y396543*
X1255526*
G37*
X716683Y408030D02*
G36*
X715604D01*
Y405602*
X716683*
Y408030*
G37*
X746683D02*
G36*
X743817D01*
Y397573*
X736683*
Y408030*
X723817*
Y397573*
X716683*
Y401402*
X711250*
G75*
G02X709652Y402140I0J2100*
G01*
X706896*
Y403591*
G75*
G02X706265Y404025I852J1915*
G01*
X702260Y408030*
X683050*
Y396543*
X748150*
Y397573*
X746683*
Y408030*
G37*
X756150D02*
G36*
X753817D01*
Y397573*
X752350*
Y396543*
X756150*
Y408030*
G37*
X801683D02*
G36*
X800604D01*
Y407610*
X801683*
Y408030*
G37*
X831683D02*
G36*
X828817D01*
Y397573*
X821683*
Y408030*
X808817*
Y397573*
X801683*
Y403410*
X800604*
Y402140*
X791896*
Y405894*
X789761Y408030*
X764350*
Y396543*
X833150*
Y397573*
X831683*
Y408030*
G37*
X841150D02*
G36*
X838817D01*
Y397573*
X837350*
Y396543*
X841150*
Y408030*
G37*
X867260D02*
G36*
X849350D01*
Y396543*
X873150*
Y402140*
X870896*
Y404394*
X867260Y408030*
G37*
X881683D02*
G36*
X879604D01*
Y407610*
X881683*
Y408030*
G37*
X911683D02*
G36*
X908817D01*
Y397573*
X901683*
Y408030*
X888817*
Y397573*
X881683*
Y403410*
X879604*
Y402140*
X877350*
Y396543*
X913150*
Y397573*
X911683*
Y408030*
G37*
X921150D02*
G36*
X918817D01*
Y397573*
X917350*
Y396543*
X921150*
Y408030*
G37*
X950896D02*
G36*
X950700D01*
X950896Y407834*
Y408030*
G37*
X967474Y396543D02*
G36*
G75*
G02X968150Y397174I2775J-2292D01*
G01*
Y402888*
X962116*
Y405930*
X959604*
Y402140*
X950896*
Y403410*
X950252*
G75*
G02X948765Y404025I-2J2101*
G01*
X944760Y408030*
X929350*
Y396543*
X967474*
G37*
X974715Y408030D02*
G36*
X972350D01*
Y397174*
G75*
G02X973026Y396543I-2099J-2923*
G01*
X975515*
G75*
G02X974288Y399250I2373J2707*
G01*
Y399250*
G75*
G02X975788Y402174I3599*
G01*
Y402888*
X974715*
Y408030*
G37*
X998150Y396543D02*
G36*
Y402888D01*
X997311*
Y399211*
G75*
G02X996696Y397726I-2102J0*
G01*
X995513Y396543*
X998150*
G37*
X983376Y408030D02*
G36*
X981061D01*
Y402888*
X979988*
Y402174*
G75*
G02X981488Y399250I-2099J-2924*
G01*
Y399250*
G75*
G02X980261Y396543I-3600*
G01*
X989573*
X993111Y400080*
Y402888*
X992037*
Y406927*
G75*
G02X990250Y405930I-1787J1101*
G01*
X989722*
Y402888*
X983376*
Y408030*
G37*
X1055876D02*
G36*
X1053561D01*
Y402888*
X1047215*
Y408030*
X1040963*
Y402888*
X1034616*
Y405772*
X1029604*
Y404640*
X1020896*
Y405910*
X1019348*
Y402400*
X1002350*
Y396543*
X1056949*
Y402888*
X1055876*
Y408030*
G37*
X1064537D02*
G36*
X1062222D01*
Y402888*
X1061149*
Y396543*
X1065338*
G75*
G02X1064111Y399250I2373J2707*
G01*
Y399250*
G75*
G02X1065611Y402174I3599*
G01*
Y402888*
X1064537*
Y408030*
G37*
X1098396D02*
G36*
X1098200D01*
X1098396Y407834*
Y408030*
G37*
X1133376D02*
G36*
X1131061D01*
Y402888*
X1124715*
Y408030*
X1118463*
Y402888*
X1112116*
Y405930*
X1107104*
Y402140*
X1098396*
Y403410*
X1097752*
G75*
G02X1096265Y404025I-2J2101*
G01*
X1092260Y408030*
X1070884*
Y402888*
X1069811*
Y402174*
G75*
G02X1071311Y399250I-2099J-2924*
G01*
Y399250*
G75*
G02X1070083Y396543I-3600*
G01*
X1133073*
X1134449Y397919*
Y402888*
X1133376*
Y408030*
G37*
X1142037D02*
G36*
X1139722D01*
Y402888*
X1138649*
Y396750*
G75*
G02X1138639Y396543I-2101J0*
G01*
X1142838*
G75*
G02X1141611Y399250I2373J2707*
G01*
Y399250*
G75*
G02X1143111Y402174I3599*
G01*
Y402888*
X1142037*
Y408030*
G37*
X1175896D02*
G36*
X1174348D01*
Y407610*
X1175896*
Y408030*
G37*
X1199715D02*
G36*
X1193463D01*
Y402888*
X1187116*
Y405930*
X1184604*
Y402140*
X1175896*
Y403410*
X1174348*
Y402400*
X1156152*
Y408030*
X1148384*
Y402888*
X1147311*
Y402174*
G75*
G02X1148811Y399250I-2099J-2924*
G01*
Y399250*
G75*
G02X1147583Y396543I-3600*
G01*
X1197993*
Y398250*
G75*
G02X1198697Y399889I2260J-1*
G01*
X1200630Y401721*
Y402888*
X1199715*
Y408030*
G37*
X1208376D02*
G36*
X1206061D01*
Y402888*
X1205145*
Y400750*
G75*
G02X1204441Y399111I-2260J1*
G01*
X1202507Y397279*
Y396543*
X1208073*
X1209449Y397919*
Y402888*
X1208376*
Y408030*
G37*
X1217037D02*
G36*
X1214722D01*
Y402888*
X1213649*
Y397049*
G75*
G02X1213587Y396543I-2102J1*
G01*
X1217877*
G75*
G02X1216650Y399250I2373J2707*
G01*
G75*
G02X1217953Y402022I3601J0*
G01*
Y402888*
X1217037*
Y408030*
G37*
X1249974Y396543D02*
G36*
G75*
G02X1250650Y397174I2775J-2292D01*
G01*
Y408030*
X1225720*
X1224235Y406544*
G75*
G02X1223384Y406028I-1481J1480*
G01*
Y402888*
X1222468*
Y402085*
G75*
G02X1223850Y399250I-2217J-2835*
G01*
Y399250*
G75*
G02X1222623Y396543I-3600*
G01*
X1249974*
G37*
X1255526D02*
G36*
X1277450D01*
Y408030*
X1254850*
Y397174*
G75*
G02X1255526Y396543I-2099J-2923*
G01*
G37*
X746683Y430470D02*
G36*
X743817D01*
Y429069*
X736683*
Y430470*
X723817*
Y429069*
X716683*
Y430470*
X715600*
Y420152*
X713350*
Y416360*
X715604*
Y409620*
X706896*
Y416360*
X709150*
Y420152*
X706900*
Y427430*
X704754Y425284*
Y418817*
X699746*
Y425951*
X700159*
G75*
G02X700765Y427235I2091J-201*
G01*
X704001Y430470*
X683050*
Y408030*
X702260*
X700765Y409525*
G75*
G02X700201Y410549I1482J1483*
G01*
X699746*
Y417683*
X704754*
Y411476*
X707350Y408880*
X715604*
Y408030*
X716683*
Y409431*
X718150*
Y416326*
G75*
G02X716650Y419250I2099J2924*
G01*
Y419250*
G75*
G02X723850I3600*
G01*
Y419250*
G75*
G02X722350Y416326I-3599*
G01*
Y409431*
X723817*
Y408030*
X736683*
Y409431*
X743817*
Y408030*
X746683*
Y409431*
X748150*
Y429069*
X746683*
Y430470*
G37*
X756150D02*
G36*
X753817D01*
Y429069*
X752350*
Y409431*
X753817*
Y408030*
X756150*
Y430470*
G37*
X789761Y408030D02*
G36*
X786265Y411525D01*
G75*
G02X785650Y413010I1487J1485*
G01*
Y414049*
X785246*
Y421183*
X790254*
Y414049*
X789850*
Y413880*
X791896Y411834*
Y416360*
X794150*
Y420152*
X791900*
Y427430*
X790254Y425784*
Y422317*
X785246*
Y429451*
X787981*
X789001Y430470*
X764350*
Y408030*
X789761*
G37*
X831683Y430470D02*
G36*
X828817D01*
Y429069*
X821683*
Y430470*
X808817*
Y429069*
X801683*
Y430470*
X800600*
Y420152*
X798350*
Y416360*
X800604*
Y409620*
X794109*
X794850Y408880*
X800604*
Y408030*
X801683*
Y409431*
X803150*
Y416326*
G75*
G02X801650Y419250I2099J2924*
G01*
Y419250*
G75*
G02X808850I3600*
G01*
Y419250*
G75*
G02X807350Y416326I-3599*
G01*
Y409431*
X808817*
Y408030*
X821683*
Y409431*
X828817*
Y408030*
X831683*
Y409431*
X833150*
Y429069*
X831683*
Y430470*
G37*
X841150D02*
G36*
X838817D01*
Y429069*
X837350*
Y409431*
X838817*
Y408030*
X841150*
Y430470*
G37*
X867000D02*
G36*
X849350D01*
Y408030*
X867260*
X863765Y411525*
X863741Y411549*
X862746*
Y418683*
X867754*
Y413476*
X870896Y410334*
Y416360*
X874150*
Y419652*
X871900*
Y429430*
X867754Y425284*
Y419817*
X862746*
Y426951*
X863527*
G75*
G02X863765Y427235I1739J-1213*
G01*
X867000Y430470*
G37*
X898150D02*
G36*
X888817D01*
Y429069*
X881683*
Y430470*
X880600*
Y419652*
X878350*
Y416360*
X879604*
Y409620*
X871609*
X872350Y408880*
X879604*
Y408030*
X881683*
Y409431*
X883150*
Y416326*
G75*
G02X881650Y419250I2099J2924*
G01*
Y419250*
G75*
G02X888850I3600*
G01*
Y419250*
G75*
G02X887350Y416326I-3599*
G01*
Y409431*
X888817*
Y408030*
X901683*
Y409431*
X903150*
Y417117*
G75*
G02X896650Y419250I-2900J2133*
G01*
Y419250*
G75*
G02X898150Y422174I3599*
G01*
Y430470*
G37*
X911683D02*
G36*
X908817D01*
Y429069*
X907350*
Y409431*
X908817*
Y408030*
X911683*
Y409431*
X913150*
Y429069*
X911683*
Y430470*
G37*
X921150D02*
G36*
X918817D01*
Y429069*
X917350*
Y409431*
X918817*
Y408030*
X921150*
Y430470*
G37*
X950896Y408030D02*
G36*
Y408880D01*
X953330*
G75*
G02X953879Y409620I1927J-856*
G01*
X950896*
Y416360*
X953150*
Y417652*
X950900*
Y429150*
X948620*
X947754Y428284*
Y422317*
X942746*
Y429451*
X943270*
G75*
G02X943765Y430235I1985J-703*
G01*
X944000Y430470*
X929350*
Y408030*
X944760*
X943765Y409025*
G75*
G02X943150Y410510I1487J1485*
G01*
Y414049*
X942746*
Y421183*
X947754*
Y414049*
X947350*
Y411380*
X950700Y408030*
X950896*
G37*
X970650Y430470D02*
G36*
X968463D01*
Y425329*
X962116*
Y429150*
X959600*
Y417652*
X957350*
Y416360*
X959604*
Y410130*
X962116*
Y413171*
X963189*
Y416326*
G75*
G02X961689Y419250I2099J2924*
G01*
Y419250*
G75*
G02X968889I3600*
G01*
G75*
G02Y419248I-3889J-1*
G01*
G75*
G02X968734Y418203I-3591*
G01*
G75*
G02X968765Y418235I1292J-1214*
G01*
X970650Y420120*
Y430470*
G37*
X1008150D02*
G36*
X998384D01*
Y425329*
X992350*
Y413171*
X998384*
Y412713*
G75*
G02X998765Y413235I1881J-973*
G01*
X1008150Y422620*
Y430470*
G37*
X983376Y408030D02*
G36*
Y413171D01*
X988150*
Y425329*
X983376*
Y430470*
X981061*
Y425329*
X974850*
Y419250*
G75*
G02X974235Y417765I-2102J0*
G01*
X972350Y415880*
Y408030*
X974715*
Y413171*
X981061*
Y408030*
X983376*
G37*
X1098396D02*
G36*
Y408880D01*
X1100830*
G75*
G02X1101379Y409620I1927J-856*
G01*
X1098396*
Y416360*
X1100650*
Y420152*
X1098400*
Y430470*
X1097440*
X1095254Y428284*
Y422317*
X1090246*
Y423290*
G75*
G02X1084150Y425884I-2496J2594*
G01*
G75*
G02X1090246Y428478I3600*
G01*
Y429451*
X1090770*
G75*
G02X1091265Y430235I1985J-703*
G01*
X1091500Y430470*
X1070884*
Y425329*
X1064537*
Y430470*
X1062222*
Y425329*
X1055876*
Y430470*
X1053561*
Y425329*
X1047215*
Y430470*
X1040963*
Y425329*
X1034616*
Y430470*
X1034235*
G75*
G02X1031265I-1485J3280*
G01*
X1029600*
Y420152*
X1027350*
Y418860*
X1029604*
Y412120*
X1020896*
Y418860*
X1023150*
Y420152*
X1020900*
Y430470*
X1017350*
Y429451*
X1017754*
Y422317*
X1012746*
Y429451*
X1013150*
Y430470*
X1012350*
Y421750*
G75*
G02X1011735Y420265I-2102J0*
G01*
X1002570Y411100*
X1012650*
Y417616*
G75*
G02Y417618I2128J1*
G01*
G75*
G02X1012746Y418244I2088*
G01*
Y421183*
X1017754*
Y414049*
X1016850*
Y411100*
X1019348*
Y410110*
X1020896*
Y411380*
X1029604*
Y410287*
X1034616*
Y413171*
X1035689*
Y416326*
G75*
G02X1034189Y419250I2099J2924*
G01*
Y419250*
G75*
G02X1041389I3600*
G01*
Y419250*
G75*
G02X1039889Y416326I-3599*
G01*
Y413171*
X1040963*
Y408030*
X1047215*
Y413171*
X1053561*
Y408030*
X1055876*
Y413171*
X1062222*
Y408030*
X1064537*
Y413171*
X1070884*
Y408030*
X1092260*
X1091265Y409025*
G75*
G02X1090650Y410510I1487J1485*
G01*
Y414049*
X1090246*
Y421183*
X1095254*
Y414049*
X1094850*
Y411380*
X1098200Y408030*
X1098396*
G37*
X1166735Y430470D02*
G36*
X1148384D01*
Y425329*
X1142037*
Y430470*
X1139722*
Y425329*
X1133376*
Y430470*
X1131061*
Y425329*
X1124715*
Y430470*
X1118463*
Y425329*
X1112116*
Y430470*
X1107100*
Y420152*
X1104850*
Y416360*
X1107104*
Y410130*
X1112116*
Y413171*
X1113189*
Y416326*
G75*
G02X1111689Y419250I2099J2924*
G01*
Y419250*
G75*
G02X1118889I3600*
G01*
Y419250*
G75*
G02X1117389Y416326I-3599*
G01*
Y413171*
X1118463*
Y408030*
X1124715*
Y413171*
X1131061*
Y408030*
X1133376*
Y413171*
X1139722*
Y408030*
X1142037*
Y413171*
X1148384*
Y408030*
X1156152*
Y411100*
X1167650*
Y419068*
G75*
G02X1167642Y419250I2098J182*
G01*
G75*
G02X1167746Y419904I2107*
G01*
Y421183*
X1168909*
G75*
G02X1170591I841J-1933*
G01*
X1172754*
Y414049*
X1171850*
Y411100*
X1174348*
Y408030*
X1175896*
Y408880*
X1178330*
G75*
G02X1178879Y409620I1927J-856*
G01*
X1175896*
Y416360*
X1178150*
Y417652*
X1175900*
Y429650*
X1173475*
G75*
G02X1172754Y428663I-3221J1597*
G01*
Y422317*
X1167746*
Y428663*
G75*
G02X1166735Y430470I2504J2587*
G01*
G37*
X1242221D02*
G36*
X1223384D01*
Y425329*
X1217037*
Y430470*
X1214722*
Y425329*
X1208376*
Y430470*
X1206061*
Y425329*
X1199715*
Y430470*
X1193463*
Y425329*
X1187116*
Y429150*
X1184600*
Y417652*
X1182350*
Y416360*
X1184604*
Y410130*
X1187116*
Y413171*
X1188189*
Y416326*
G75*
G02X1186689Y419250I2099J2924*
G01*
Y419250*
G75*
G02X1193889I3600*
G01*
Y419250*
G75*
G02X1192389Y416326I-3599*
G01*
Y413171*
X1193463*
Y408030*
X1199715*
Y413171*
X1206061*
Y408030*
X1208376*
Y413171*
X1214722*
Y408030*
X1217037*
Y413171*
X1223384*
Y411633*
X1242221Y430470*
G37*
X1250650D02*
G36*
X1248161D01*
X1225720Y408030*
X1250650*
Y430470*
G37*
X1254850D02*
G36*
Y408030D01*
X1277450*
Y430470*
X1254850*
G37*
X706900Y436750D02*
G36*
X683050D01*
Y430470*
X704001*
X706900Y433369*
Y436750*
G37*
X716683Y430470D02*
G36*
Y431650D01*
X715600*
Y430470*
X716683*
G37*
Y436750D02*
G36*
X715600D01*
Y435850*
X716683*
Y436750*
G37*
X736683D02*
G36*
X724720D01*
X723817Y435847*
Y430470*
X736683*
Y436750*
G37*
X746683D02*
G36*
X743817D01*
Y430470*
X746683*
Y436750*
G37*
X756543D02*
G36*
X753817D01*
Y430470*
X756150*
Y434998*
Y434998*
G75*
G02X756543Y436750I4099J0*
G01*
G37*
X791900D02*
G36*
X781457D01*
G75*
G02X781850Y434998I-3707J-1752*
G01*
G75*
G02X777750Y430898I-4100*
G01*
X764350*
Y430470*
X789001*
X791900Y433369*
Y436750*
G37*
X801683Y430470D02*
G36*
Y431650D01*
X800600*
Y430470*
X801683*
G37*
Y436750D02*
G36*
X800600D01*
Y435850*
X801683*
Y436750*
G37*
X821683D02*
G36*
X808817D01*
Y430470*
X821683*
Y436750*
G37*
X831683D02*
G36*
X828817D01*
Y430470*
X831683*
Y436750*
G37*
X841150Y430470D02*
G36*
Y434998D01*
Y434998*
G75*
G02X841543Y436750I4099J0*
G01*
X838817*
Y430470*
X841150*
G37*
X871900Y436750D02*
G36*
X848957D01*
G75*
G02X849350Y434998I-3706J-1752*
G01*
Y434998*
Y430470*
X867000*
X871265Y434735*
G75*
G02X871900Y435170I1485J-1485*
G01*
Y436750*
G37*
X881683Y430470D02*
G36*
Y431150D01*
X880600*
Y430470*
X881683*
G37*
Y436750D02*
G36*
X880600D01*
Y435350*
X881683*
Y436750*
G37*
X898150D02*
G36*
X888817D01*
Y430470*
X898150*
Y436750*
G37*
X911683D02*
G36*
X908817D01*
Y430470*
X911683*
Y436750*
G37*
X921150Y430470D02*
G36*
Y434998D01*
Y434998*
G75*
G02X921543Y436750I4099J0*
G01*
X918817*
Y430470*
X921150*
G37*
X944000D02*
G36*
X946265Y432735D01*
G75*
G02X947752Y433350I1485J-1486*
G01*
X950900*
Y435848*
X953150*
Y436326*
G75*
G02X952659Y436750I2099J2924*
G01*
X928957*
G75*
G02X929350Y434998I-3706J-1752*
G01*
Y434998*
Y430470*
X944000*
G37*
X970650D02*
G36*
Y436750D01*
X957841*
G75*
G02X957350Y436326I-2590J2500*
G01*
Y435848*
X959600*
Y433350*
X962116*
Y435612*
X968463*
Y430470*
X970650*
G37*
X983376D02*
G36*
Y435612D01*
X988150*
Y436750*
X980341*
G75*
G02X975159I-2591J2500*
G01*
X974850*
Y435612*
X981061*
Y430470*
X983376*
G37*
X1013150D02*
G36*
Y431326D01*
G75*
G02X1012350Y432117I2105J2930*
G01*
Y430470*
X1013150*
G37*
X1007659Y436750D02*
G36*
X992350D01*
Y435612*
X998384*
Y430470*
X1008150*
Y436326*
G75*
G02X1007659Y436750I2099J2924*
G01*
G37*
X1020900Y430470D02*
G36*
Y431650D01*
X1017740*
G75*
G02X1017350Y431326I-2488J2599*
G01*
Y430470*
X1020900*
G37*
Y436750D02*
G36*
X1017840D01*
G75*
G02X1018475Y435850I-2590J-2500*
G01*
X1020900*
Y436750*
G37*
X1031265Y430470D02*
G36*
G75*
G02X1029826Y431650I1485J3280D01*
G01*
X1029600*
Y430470*
X1031265*
G37*
X1030760Y436750D02*
G36*
X1029600D01*
Y435850*
X1029826*
G75*
G02X1030760Y436750I2924J-2100*
G01*
G37*
X1034616Y430470D02*
G36*
Y430671D01*
G75*
G02X1034235Y430470I-1866J3080*
G01*
X1034616*
G37*
X1098400D02*
G36*
Y431430D01*
X1097440Y430470*
X1098400*
G37*
Y436750D02*
G36*
X1034740D01*
G75*
G02X1035674Y435850I-1990J-3000*
G01*
X1037789*
G75*
G02X1038760Y435612I0J-2100*
G01*
X1040963*
Y430470*
X1047215*
Y435612*
X1053561*
Y430470*
X1055876*
Y435612*
X1062222*
Y430470*
X1064537*
Y435612*
X1070884*
Y430470*
X1091500*
X1096265Y435235*
G75*
G02X1097752Y435850I1485J-1486*
G01*
X1098400*
Y436750*
G37*
X1112116Y430470D02*
G36*
Y431650D01*
X1107100*
Y430470*
X1112116*
G37*
X1246949Y436750D02*
G36*
X1107100D01*
Y435850*
X1115289*
G75*
G02X1116260Y435612I0J-2100*
G01*
X1118463*
Y430470*
X1124715*
Y435612*
X1131061*
Y430470*
X1133376*
Y435612*
X1139722*
Y430470*
X1142037*
Y435612*
X1148384*
Y430470*
X1166735*
G75*
G02X1166650Y431250I3514J780*
G01*
G75*
G02X1172740Y433850I3600*
G01*
X1175900*
Y435848*
X1184600*
Y433350*
X1187116*
Y435612*
X1193463*
Y430470*
X1199715*
Y435612*
X1206061*
Y430470*
X1208376*
Y435612*
X1214722*
Y430470*
X1217037*
Y435612*
X1223384*
Y430470*
X1242221*
X1246949Y435198*
Y436750*
G37*
X1250650Y430470D02*
G36*
Y432970D01*
G75*
G02X1250534Y432844I-1672J1420*
G01*
X1248161Y430470*
X1250650*
G37*
X1276699Y436750D02*
G36*
Y432000D01*
X1267199*
Y436750*
X1263301*
Y432000*
X1254850*
Y430470*
X1277450*
Y436750*
X1276699*
G37*
X736683D02*
G36*
Y438448D01*
G75*
G02X732326Y439650I-1433J3303*
G01*
X727620*
X724720Y436750*
X736683*
G37*
X899390Y451848D02*
G36*
X875350D01*
Y451350*
X880049*
Y451754*
X887183*
Y446787*
X887620Y446350*
X892326*
G75*
G02X892656Y446746I2928J-2104*
G01*
X888317*
Y451754*
X895451*
Y451350*
X899390*
Y451848*
G37*
X898150Y436750D02*
G36*
Y442117D01*
G75*
G02X892326Y442150I-2900J2133*
G01*
X886752*
G75*
G02X885265Y442765I-2J2101*
G01*
X882131Y445899*
G75*
G02X881615Y446746I1487J1486*
G01*
X880049*
Y447150*
X873250*
G75*
G02X871150Y449250J2100*
G01*
Y449250*
Y451848*
X721870*
G75*
G02X708630I-6620*
G01*
X701870*
G75*
G02X688630I-6620*
G01*
X683050*
Y436750*
X706900*
Y438348*
X715600*
Y436750*
X716683*
Y440927*
X722957*
X725265Y443235*
G75*
G02X726752Y443850I1485J-1486*
G01*
X732326*
G75*
G02X738850Y441750I2924J-2100*
G01*
G75*
G02X738755Y440927I-3600*
G01*
X743817*
Y436750*
X746683*
Y440927*
X753817*
Y436750*
X756543*
G75*
G02X756683Y437020I3706J-1749*
G01*
Y440927*
X763817*
Y439098*
X777750*
G75*
G02X781457Y436750J-4100*
G01*
X791900*
Y438348*
X800600*
Y436750*
X801683*
Y440927*
X803150*
Y443826*
G75*
G02X801650Y446750I2099J2924*
G01*
Y446750*
G75*
G02X808850I3600*
G01*
Y446750*
G75*
G02X807350Y443826I-3599*
G01*
Y440927*
X808817*
Y436750*
X821683*
Y440927*
X828817*
Y436750*
X831683*
Y440927*
X838817*
Y436750*
X841543*
G75*
G02X841683Y437020I3706J-1749*
G01*
Y440927*
X848817*
Y437020*
G75*
G02X848957Y436750I-3566J-2019*
G01*
X871900*
Y437848*
X880600*
Y436750*
X881683*
Y437347*
X880050Y438980*
G75*
G02X874150Y441750I-2300J2770*
G01*
G75*
G02X880710Y443799I3600*
G01*
G75*
G02X881735Y443235I-459J-2048*
G01*
X884043Y440927*
X888817*
Y436750*
X898150*
G37*
X912378Y451848D02*
G36*
X903590D01*
Y450250*
G75*
G02X902975Y448765I-2102J0*
G01*
X902350Y448140*
Y440927*
X903150*
Y441750*
G75*
G02X903765Y443235I2102J0*
G01*
X912378Y451848*
G37*
X970650Y436750D02*
G36*
Y440880D01*
X968765Y442765*
G75*
G02X968150Y444250I1487J1485*
G01*
Y444650*
X923174*
G75*
G02X916650Y446750I-2924J2100*
G01*
G75*
G02X923174Y448850I3600*
G01*
X961150*
Y451848*
X918318*
X907397Y440927*
X908817*
Y436750*
X911683*
Y440927*
X918817*
Y436750*
X921543*
G75*
G02X921683Y437020I3706J-1749*
G01*
Y440927*
X928817*
Y437020*
G75*
G02X928957Y436750I-3566J-2019*
G01*
X952659*
G75*
G02X951650Y439250I2590J2500*
G01*
Y439250*
G75*
G02X958850I3600*
G01*
Y439250*
G75*
G02X957841Y436750I-3599*
G01*
X970650*
G37*
X975159D02*
G36*
G75*
G02X974850Y437117I2591J2499D01*
G01*
Y436750*
X975159*
G37*
X988150D02*
G36*
Y437150D01*
X980674*
G75*
G02X980341Y436750I-2924J2099*
G01*
X988150*
G37*
X1245876Y451848D02*
G36*
X1243561D01*
Y442888*
X1237215*
Y451848*
X1232525*
X1230963Y450286*
Y442888*
X1224616*
Y443410*
X1222104*
Y442140*
X1213396*
Y443410*
X1211848*
Y442400*
X1193652*
Y451100*
X1208150*
Y451848*
X1150753*
G75*
G02X1150475Y451505I-1761J1139*
G01*
X1144235Y445265*
G75*
G02X1142951Y444659I-1485J1485*
G01*
Y444246*
X1135817*
Y449254*
X1142284*
X1144879Y451848*
X1126121*
X1128716Y449254*
X1134683*
Y444246*
X1127549*
Y444770*
G75*
G02X1126765Y445265I703J1985*
G01*
X1121765Y450265*
G75*
G02X1121150Y451750I1487J1485*
G01*
Y451848*
X1101090*
Y450490*
G75*
G02X1100475Y449005I-2102J0*
G01*
X1096735Y445265*
G75*
G02X1095248Y444650I-1485J1486*
G01*
X1090451*
Y444246*
X1083317*
Y449254*
X1090451*
Y448850*
X1094380*
X1096890Y451360*
Y451848*
X1072850*
Y450120*
X1074120Y448850*
X1075049*
Y449254*
X1082183*
Y444246*
X1075049*
Y444650*
X1073252*
G75*
G02X1071765Y445265I-2J2101*
G01*
X1069265Y447765*
G75*
G02X1068650Y449250I1487J1485*
G01*
Y451848*
X1053590*
Y447990*
G75*
G02X1052975Y446505I-2102J0*
G01*
X1049235Y442765*
G75*
G02X1048210Y442201I-1484J1484*
G01*
G75*
G02X1042663Y441746I-2960J2049*
G01*
X1035817*
Y446754*
X1042663*
G75*
G02X1047550Y447020I2587J-2505*
G01*
X1049390Y448860*
Y451848*
X1027850*
Y447620*
X1028716Y446754*
X1034683*
Y441746*
X1027549*
Y442270*
G75*
G02X1026765Y442765I703J1985*
G01*
X1024265Y445265*
G75*
G02X1023650Y446750I1487J1485*
G01*
Y451848*
X991090*
Y448850*
X997326*
G75*
G02X1003850Y446750I2924J-2100*
G01*
G75*
G02X997326Y444650I-3600*
G01*
X985451*
Y444246*
X978317*
Y449254*
X985451*
Y448850*
X986890*
Y451848*
X965350*
Y448850*
X970049*
Y449254*
X977183*
Y444246*
X973224*
X974235Y443235*
G75*
G02X974850Y441750I-1487J-1485*
G01*
Y441383*
G75*
G02X980674Y441350I2900J-2133*
G01*
X990250*
G75*
G02X992350Y439250J-2100*
G01*
Y439250*
Y436750*
X1007659*
G75*
G02X1006650Y439250I2590J2500*
G01*
Y439250*
G75*
G02X1013850I3600*
G01*
G75*
G02X1013230Y437230I-3602J0*
G01*
G75*
G02X1017840Y436750I2020J-2980*
G01*
X1020900*
Y438348*
X1029600*
Y436750*
X1030760*
G75*
G02X1034740I1990J-3000*
G01*
X1098400*
Y438348*
X1107100*
Y436750*
X1246949*
Y442888*
X1245876*
Y451848*
G37*
X1224616D02*
G36*
X1222104D01*
Y449620*
X1213396*
Y451848*
X1212350*
Y447610*
X1213396*
Y448880*
X1222104*
Y447610*
X1224616*
Y451848*
G37*
X1275000D02*
G36*
Y447801D01*
X1265500*
Y450450*
X1260884*
Y442888*
X1259811*
Y441500*
X1263301*
Y436750*
X1267199*
Y441500*
X1276699*
Y436750*
X1277450*
Y451848*
X1275000*
G37*
X868652Y459250D02*
G36*
X791350D01*
G75*
G02X784826Y457150I-3600*
G01*
X773174*
G75*
G02X766650Y459250I-2924J2100*
G01*
X764288*
G75*
G02X760250Y457000I-4038J2500*
G01*
G75*
G02X756212Y459250J4750*
G01*
X711016*
G75*
G02X699484I-5766J2598*
G01*
X683050*
Y451848*
X688630*
G75*
G02X701870I6620*
G01*
X708630*
G75*
G02X721870I6620*
G01*
X871150*
Y454900*
X868652*
Y459250*
G37*
X898120D02*
G36*
X897380D01*
Y454896*
X890640*
Y457150*
X886848*
Y454900*
X875350*
Y451848*
X899390*
Y454896*
X898120*
Y459250*
G37*
X919780D02*
G36*
X904860D01*
Y454896*
X903590*
Y451848*
X912378*
X919780Y459250*
G37*
X958652D02*
G36*
X925720D01*
X918318Y451848*
X961150*
Y452400*
X958652*
Y459250*
G37*
X978140D02*
G36*
X976848D01*
Y458850*
X978140*
Y459250*
G37*
X985620D02*
G36*
X984880D01*
Y452396*
X978140*
Y454650*
X976848*
Y452400*
X965350*
Y451848*
X986890*
Y452396*
X985620*
Y459250*
G37*
X1021152D02*
G36*
X992360D01*
Y452396*
X991090*
Y451848*
X1023650*
Y452400*
X1021152*
Y459250*
G37*
X1049390Y451848D02*
G36*
Y452396D01*
X1048120*
Y454830*
G75*
G02X1047380Y455379I856J1927*
G01*
Y452396*
X1040640*
Y454650*
X1039348*
Y452400*
X1027850*
Y451848*
X1049390*
G37*
X1040640Y459250D02*
G36*
X1039348D01*
Y458850*
X1040640*
Y459250*
G37*
X1066152D02*
G36*
X1054860D01*
Y452396*
X1053590*
Y451848*
X1068650*
Y452400*
X1066152*
Y459250*
G37*
X1088140D02*
G36*
X1084348D01*
Y458850*
X1088140*
Y459250*
G37*
X1095620D02*
G36*
X1094880D01*
Y452396*
X1088140*
Y454650*
X1084348*
Y452400*
X1072850*
Y451848*
X1096890*
Y452396*
X1095620*
Y459250*
G37*
X1118652D02*
G36*
X1102360D01*
Y452396*
X1101090*
Y451848*
X1121150*
Y452400*
X1118652*
Y459250*
G37*
X1144879Y451848D02*
G36*
X1145620Y452590D01*
Y454830*
G75*
G02X1144880Y455379I856J1927*
G01*
Y452396*
X1138140*
Y454650*
X1136848*
Y452400*
X1125570*
X1126121Y451848*
X1144879*
G37*
X1138140Y459250D02*
G36*
X1136848D01*
Y458850*
X1138140*
Y459250*
G37*
X1207746D02*
G36*
X1152360D01*
Y452396*
X1151004*
G75*
G02X1150753Y451848I-2012J594*
G01*
X1208150*
Y459049*
X1207746*
Y459250*
G37*
X1213396Y451848D02*
G36*
Y456360D01*
X1215650*
Y457652*
X1213400*
Y459250*
X1212754*
Y459049*
X1212350*
Y451848*
X1213396*
G37*
X1230150Y459250D02*
G36*
X1222100D01*
Y457652*
X1219850*
Y456360*
X1222104*
Y451848*
X1224616*
Y453171*
X1225612*
G75*
G02X1227670Y454347I2177J-1422*
G01*
X1230150Y456827*
Y459250*
G37*
X1237215Y451848D02*
G36*
Y453171D01*
X1238288*
Y459250*
X1235350*
Y455750*
G75*
G02Y455749I-3222J0*
G01*
G75*
G02X1234586Y453909I-2598*
G01*
X1232525Y451848*
X1237215*
G37*
X1245876D02*
G36*
Y453171D01*
X1250650*
Y459250*
X1242488*
Y453171*
X1243561*
Y451848*
X1245876*
G37*
X1275000D02*
G36*
X1277450D01*
Y459250*
X1254850*
Y453171*
X1255705*
G75*
G02X1257711Y454650I2006J-622*
G01*
X1265500*
Y457301*
X1275000*
Y451848*
G37*
X756212Y459250D02*
G36*
G75*
G02X755500Y461750I4039J2500D01*
G01*
G75*
G02X756489Y464650I4750*
G01*
X745252*
G75*
G02X743765Y465265I-2J2101*
G01*
X741778Y467253*
G75*
G02X736152Y469348I-1528J4498*
G01*
X721380*
G75*
G02X709120I-6130J2500*
G01*
X701380*
G75*
G02X689120I-6130J2500*
G01*
X683050*
Y459250*
X699484*
G75*
G02X698926Y461848I5766J2598*
G01*
G75*
G02X711574I6324*
G01*
G75*
G02X711016Y459250I-6324J0*
G01*
X756212*
G37*
X756152Y469348D02*
G36*
X745621D01*
X746120Y468850*
X756489*
G75*
G02X756152Y469348I3762J2900*
G01*
G37*
X793774D02*
G36*
X764348D01*
G75*
G02X764011Y468850I-4098J2402*
G01*
X793490*
G75*
G02X793774Y469348I4260J-2100*
G01*
G37*
X868652Y459250D02*
G36*
Y463600D01*
X871150*
Y465683*
X866073*
Y467150*
X845674*
G75*
G02X839150Y469250I-2924J2100*
G01*
Y469250*
G75*
G02X839151Y469348I3596J6*
G01*
X801726*
G75*
G02X802500Y466750I-3976J-2599*
G01*
G75*
G02X793490Y464650I-4750*
G01*
X764011*
G75*
G02X765000Y461750I-3761J-2900*
G01*
G75*
G02X764288Y459250I-4750J0*
G01*
X766650*
G75*
G02X773174Y461350I3600*
G01*
X784826*
G75*
G02X791350Y459250I2924J-2100*
G01*
X868652*
G37*
X897569Y469348D02*
G36*
X877931D01*
Y465683*
X875350*
Y463600*
X886848*
Y461350*
X890640*
Y463604*
X897380*
Y459250*
X898120*
Y463604*
X899390*
Y465683*
X897569*
Y469348*
G37*
X929878D02*
G36*
X909427D01*
Y465683*
X903590*
Y463604*
X904860*
Y459250*
X919780*
X929878Y469348*
G37*
X958652Y459250D02*
G36*
Y461100D01*
X961150*
Y466789*
Y466790*
G75*
G02X961388Y467760I2100*
G01*
Y469348*
X935818*
X925720Y459250*
X958652*
G37*
X983829Y469348D02*
G36*
X971671D01*
Y463616*
X965350*
Y461100*
X976848*
Y459250*
X978140*
Y461104*
X984880*
Y459250*
X985620*
Y461104*
X986733*
Y463616*
X983829*
Y469348*
G37*
X1032718D02*
G36*
X1031671D01*
Y468889*
X1032326*
G75*
G02X1032718Y469348I2924J-2101*
G01*
G37*
X1021152Y459250D02*
G36*
Y461100D01*
X1023650*
Y463616*
X1021388*
Y469348*
X994112*
Y463616*
X991248*
Y461104*
X992360*
Y459250*
X1021152*
G37*
X1040640D02*
G36*
Y461104D01*
X1046870*
Y463616*
X1043829*
Y469348*
X1037782*
G75*
G02X1038850Y466789I-2532J-2559*
G01*
G75*
G02X1032326Y464689I-3600*
G01*
X1031671*
Y463616*
X1027850*
Y461100*
X1039348*
Y459250*
X1040640*
G37*
X1055900Y469348D02*
G36*
X1054112D01*
Y468889*
X1055900*
Y469348*
G37*
X1068888D02*
G36*
X1068318D01*
X1064735Y465765*
G75*
G02X1064600Y465642I-1617J1631*
G01*
Y462652*
X1055900*
Y464689*
X1054112*
Y463616*
X1051070*
Y461104*
X1054860*
Y459250*
X1066152*
Y461100*
X1068650*
Y466789*
Y466790*
G75*
G02X1068888Y467760I2100*
G01*
Y469348*
G37*
X1095620Y459250D02*
G36*
Y461104D01*
X1096890*
Y463616*
X1091329*
Y464689*
X1090250*
G75*
G02X1088150Y466789J2100*
G01*
Y466789*
Y468380*
X1087182Y469348*
X1085282*
G75*
G02X1086350Y466790I-2531J-2559*
G01*
Y466789*
G75*
G02X1079826Y464689I-3600*
G01*
X1079171*
Y463616*
X1072850*
Y461100*
X1084348*
Y459250*
X1088140*
Y461104*
X1094880*
Y459250*
X1095620*
G37*
X1103617Y469348D02*
G36*
X1101612D01*
Y469047*
X1103315*
X1103617Y469348*
G37*
X1118652Y459250D02*
G36*
Y461100D01*
X1121150*
Y463616*
X1118950*
G75*
G02X1113650Y466789I-1700J3174*
G01*
G75*
G02X1114718Y469348I3600*
G01*
X1110002*
X1105847Y465194*
G75*
G02X1104250Y464532I-1597J1596*
G01*
X1101612*
Y463616*
X1101090*
Y461104*
X1102360*
Y459250*
X1118652*
G37*
X1141329Y469348D02*
G36*
X1140344D01*
X1140685Y469007*
X1141329*
Y469348*
G37*
X1138140Y459250D02*
G36*
Y461104D01*
X1144370*
Y463616*
X1141329*
Y464493*
X1139750*
G75*
G02X1138153Y465154I0J2258*
G01*
X1133959Y469348*
X1129171*
Y463616*
X1125350*
Y461100*
X1136848*
Y459250*
X1138140*
G37*
X1201994Y469348D02*
G36*
X1199370D01*
G75*
G02X1186130I-6620*
G01*
X1179370*
G75*
G02X1166130I-6620*
G01*
X1151612*
Y463616*
X1148570*
Y461104*
X1152360*
Y459250*
X1207746*
Y466183*
X1212754*
Y459250*
X1213400*
Y469150*
X1212754*
Y467317*
X1207746*
Y468290*
G75*
G02X1201994Y469348I-2496J2594*
G01*
G37*
X1230150Y459250D02*
G36*
Y465329D01*
X1224616*
Y469150*
X1222100*
Y459250*
X1230150*
G37*
X1237215Y469348D02*
G36*
X1235350D01*
Y459250*
X1238288*
Y465329*
X1237215*
Y469348*
G37*
X1245876D02*
G36*
X1243561D01*
Y465329*
X1242488*
Y459250*
X1250650*
Y465329*
X1245876*
Y469348*
G37*
X1275000D02*
G36*
Y461199D01*
X1265500*
Y463850*
X1257711*
G75*
G02X1255705Y465329I0J2100*
G01*
X1254850*
Y459250*
X1277450*
Y469348*
X1275000*
G37*
X1265500D02*
G36*
X1260884D01*
Y468050*
X1265500*
Y469348*
G37*
X736152D02*
G36*
G75*
G02X735566Y470964I4098J2402D01*
G01*
X728765Y477765*
G75*
G02X728150Y479250I1487J1485*
G01*
Y481750*
X683050*
Y469348*
X689120*
G75*
G02X688630Y471848I6130J2500*
G01*
G75*
G02X701870I6620*
G01*
G75*
G02X701380Y469348I-6620*
G01*
X709120*
G75*
G02X708630Y471848I6130J2500*
G01*
G75*
G02X721870I6620*
G01*
G75*
G02X721380Y469348I-6620*
G01*
X736152*
G37*
X839151D02*
G36*
G75*
G02X841567Y472650I3598J-98D01*
G01*
X800148*
G75*
G02X793000Y476750I-2398J4100*
G01*
G75*
G02X793253Y478278I4750*
G01*
X791880Y479650*
X781511*
G75*
G02X782500Y476750I-3761J-2900*
G01*
G75*
G02X777750Y472000I-4750*
G01*
G75*
G02X773000Y476750J4750*
G01*
G75*
G02X773989Y479650I4750*
G01*
X744510*
G75*
G02X735500Y481750I-4260J2100*
G01*
X732350*
Y480120*
X737135Y475335*
G75*
G02X745000Y471750I3115J-3585*
G01*
G75*
G02X744747Y470222I-4750J0*
G01*
X745621Y469348*
X756152*
G75*
G02X755500Y471750I4098J2402*
G01*
G75*
G02X760250Y476500I4750*
G01*
G75*
G02X765000Y471750J-4750*
G01*
G75*
G02X764348Y469348I-4750*
G01*
X793774*
G75*
G02X801726I3976J-2598*
G01*
X839151*
G37*
X961388Y481750D02*
G36*
X795720D01*
X796222Y481247*
G75*
G02X800148Y480850I1528J-4496*
G01*
X860250*
G75*
G02X864350Y476750J-4100*
G01*
G75*
G02X860250Y472650I-4100*
G01*
X843933*
G75*
G02X845674Y471350I-1181J-3398*
G01*
X866073*
Y472817*
X877931*
Y469348*
X897569*
Y472817*
X909427*
Y469348*
X929878*
X936265Y475735*
G75*
G02X937752Y476350I1485J-1486*
G01*
X961388*
Y481750*
G37*
X983829D02*
G36*
X977840D01*
G75*
G02X972660I-2590J2500*
G01*
X971671*
Y476350*
X983829*
Y481750*
G37*
X1021388D02*
G36*
X1003220D01*
X1003482Y481488*
X1021388*
Y481750*
G37*
X1068888Y469348D02*
G36*
Y469650D01*
X1068620*
X1068318Y469348*
X1068888*
G37*
X1087182D02*
G36*
X1086880Y469650D01*
X1084935*
G75*
G02X1085282Y469348I-2184J-2859*
G01*
X1087182*
G37*
X1091329Y481750D02*
G36*
X1079171D01*
Y481488*
X1091329*
Y481750*
G37*
X1133959Y469348D02*
G36*
X1131815Y471493D01*
X1112146*
X1110002Y469348*
X1114718*
G75*
G02X1118950Y469963I2532J-2559*
G01*
X1129171*
Y469348*
X1133959*
G37*
X1141329Y481750D02*
G36*
X1129171D01*
Y481488*
X1141329*
Y481750*
G37*
X1176899D02*
G36*
X1161973D01*
G75*
G02X1162148Y481448I-1722J-1200*
G01*
X1176784*
G75*
G02X1176899Y481750I5968J-2102*
G01*
G37*
X1230150D02*
G36*
X1188601D01*
G75*
G02X1189074Y479348I-5851J-2402*
G01*
G75*
G02X1176784Y477248I-6324*
G01*
X1160250*
G75*
G02X1158150Y479348J2100*
G01*
Y479348*
Y479680*
X1156080Y481750*
X1151612*
Y476215*
X1141329*
Y477288*
X1129171*
Y476215*
X1118888*
Y481750*
X1101612*
Y476215*
X1091329*
Y477288*
X1079171*
Y476215*
X1068888*
Y481750*
X1054112*
Y476215*
X1043829*
Y481750*
X1031671*
Y476215*
X1021388*
Y477288*
X1002615*
G75*
G02X1001127Y477903I-2J2101*
G01*
X997280Y481750*
X994112*
Y476215*
X990184*
X986735Y472765*
G75*
G02X985248Y472150I-1485J1486*
G01*
X938620*
X935818Y469348*
X961388*
Y469963*
X971671*
Y469348*
X983829*
Y469963*
X994112*
Y469348*
X1021388*
Y469963*
X1031671*
Y469348*
X1032718*
G75*
G02X1037782I2532J-2559*
G01*
X1043829*
Y469963*
X1054112*
Y469348*
X1055900*
Y480848*
X1064600*
Y471570*
X1066265Y473235*
G75*
G02X1067752Y473850I1485J-1486*
G01*
X1087748*
G75*
G02X1089235Y473235I2J-2101*
G01*
X1091735Y470735*
G75*
G02X1092226Y469963I-1485J-1485*
G01*
X1101612*
Y469348*
X1103617*
X1109614Y475346*
G75*
G02X1111211Y476007I1597J-1596*
G01*
X1132750*
G75*
G02X1134347Y475346I0J-2258*
G01*
X1140344Y469348*
X1141329*
Y469963*
X1151612*
Y469348*
X1166130*
G75*
G02X1179370I6620*
G01*
X1186130*
G75*
G02X1199370I6620*
G01*
X1201994*
G75*
G02X1201650Y470884I3256J1535*
G01*
G75*
G02X1207746Y473478I3600*
G01*
Y474451*
X1212754*
Y473350*
X1213400*
Y475848*
X1222100*
Y473350*
X1224616*
Y475612*
X1230150*
Y481750*
G37*
X1246949D02*
G36*
X1235350D01*
Y469348*
X1237215*
Y475612*
X1243561*
Y469348*
X1245876*
Y475612*
X1246949*
Y481750*
G37*
X1276699D02*
G36*
Y477000D01*
X1267199*
Y481750*
X1263301*
Y477000*
X1259811*
Y475612*
X1260884*
Y469348*
X1265500*
Y470699*
X1275000*
Y469348*
X1277450*
Y481750*
X1276699*
G37*
X728150D02*
G36*
Y483380D01*
X726699Y484831*
Y484500*
X717199*
Y488049*
X713301*
Y484500*
X703801*
Y488049*
X683050*
Y481750*
X728150*
G37*
X735500D02*
G36*
G75*
G02X744510Y483850I4750D01*
G01*
X773989*
G75*
G02X773000Y486750I3761J2900*
G01*
G75*
G02X773181Y488049I4750*
G01*
X729421*
X731735Y485735*
G75*
G02X732350Y484250I-1487J-1485*
G01*
Y481750*
X735500*
G37*
X961388D02*
G36*
Y482150D01*
X903498*
G75*
G02X901398Y484250J2100*
G01*
Y484250*
Y485683*
X897569*
Y487150*
X877931*
Y485683*
X866073*
Y488049*
X822500*
Y485301*
X813000*
Y488049*
X812500*
Y485301*
X803000*
Y488049*
X782319*
G75*
G02X782500Y486750I-4569J-1299*
G01*
G75*
G02X781511Y483850I-4750*
G01*
X792748*
G75*
G02X794235Y483235I2J-2101*
G01*
X795720Y481750*
X961388*
G37*
Y488049D02*
G36*
X909427D01*
Y486350*
X961388*
Y488049*
G37*
X972660Y481750D02*
G36*
G75*
G02X972326Y482150I2591J2502D01*
G01*
X971671*
Y481750*
X972660*
G37*
X997280D02*
G36*
X994112Y484918D01*
Y484876*
X983829*
Y488049*
X971671*
Y486350*
X972326*
G75*
G02X978850Y484250I2924J-2100*
G01*
G75*
G02X977840Y481750I-3600J0*
G01*
X983829*
Y482561*
X994112*
Y481750*
X997280*
G37*
X1043829D02*
G36*
Y482150D01*
X1040250*
G75*
G02X1038150Y484250J2100*
G01*
Y484250*
Y484680*
X1036880Y485949*
X1031671*
Y484876*
X1021388*
Y488049*
X996921*
X1003220Y481750*
X1021388*
Y482561*
X1031671*
Y481750*
X1043829*
G37*
Y488049D02*
G36*
X1040720D01*
X1041735Y487034*
G75*
G02X1042191Y486350I-1494J-1491*
G01*
X1043829*
Y488049*
G37*
X1066079D02*
G36*
X1054112D01*
Y486350*
X1064380*
X1066079Y488049*
G37*
X1156080Y481750D02*
G36*
X1151880Y485949D01*
X1151612*
Y484876*
X1141329*
Y488049*
X1129171*
Y484876*
X1118888*
Y485949*
X1101612*
Y484876*
X1091329*
Y488049*
X1079171*
Y484876*
X1068888*
Y484918*
X1066735Y482765*
G75*
G02X1065248Y482150I-1485J1486*
G01*
X1054112*
Y481750*
X1068888*
Y482561*
X1079171*
Y481750*
X1091329*
Y482561*
X1101612*
Y481750*
X1118888*
Y482561*
X1129171*
Y481750*
X1141329*
Y482561*
X1151612*
Y481750*
X1156080*
G37*
X1230150D02*
G36*
Y481760D01*
G75*
G02X1229151Y484172I2600J2490*
G01*
X1225953Y487370*
G75*
G02X1225463Y488049I1834J1840*
G01*
X1199241*
G75*
G02X1186259I-6491J1299*
G01*
X1179241*
G75*
G02X1166259I-6491J1299*
G01*
X1155720*
X1161735Y482034*
G75*
G02X1161973Y481750I-1485J-1483*
G01*
X1176899*
G75*
G02X1188601I5851J-2402*
G01*
X1230150*
G37*
X1246949Y488049D02*
G36*
X1232628D01*
X1232828Y487849*
G75*
G02X1236350Y484250I-78J-3599*
G01*
G75*
G02X1235350Y481760I-3600*
G01*
Y481750*
X1246949*
Y488049*
G37*
X1276699D02*
G36*
Y487000D01*
X1267199*
Y488049*
X1263301*
Y487000*
X1254850*
Y486500*
X1263301*
Y481750*
X1267199*
Y486500*
X1276699*
Y481750*
X1277450*
Y488049*
X1276699*
G37*
X703801Y491750D02*
G36*
X683050D01*
Y488049*
X703801*
Y491750*
G37*
X717199Y488049D02*
G36*
Y491750D01*
X713301*
Y488049*
X717199*
G37*
X803000Y491750D02*
G36*
X726699D01*
Y490770*
G75*
G02X726735Y490735I-1543J-1631*
G01*
X729421Y488049*
X773181*
G75*
G02X777750Y491500I4569J-1299*
G01*
G75*
G02X782319Y488049J-4750*
G01*
X803000*
Y491750*
G37*
X813000D02*
G36*
X812500D01*
Y488049*
X813000*
Y491750*
G37*
X866073Y488049D02*
G36*
Y491750D01*
X822500*
Y488049*
X866073*
G37*
X897569Y491750D02*
G36*
X877931D01*
Y491350*
X897569*
Y491750*
G37*
X1166259Y488049D02*
G36*
G75*
G02X1166130Y489348I6491J1299D01*
G01*
G75*
G02X1166581Y491750I6620J0*
G01*
X1013850*
G75*
G02X1006650I-3600*
G01*
X909427*
Y488049*
X961388*
Y491222*
X971671*
Y488049*
X983829*
Y491222*
X994112*
Y490143*
G75*
G02X995436Y489534I-161J-2094*
G01*
X996921Y488049*
X1021388*
Y491222*
X1031671*
Y490149*
X1037748*
G75*
G02X1039235Y489534I2J-2101*
G01*
X1040720Y488049*
X1043829*
Y491222*
X1054112*
Y488049*
X1066079*
X1067564Y489534*
G75*
G02X1068888Y490143I1485J-1485*
G01*
Y491222*
X1079171*
Y488049*
X1091329*
Y491222*
X1101612*
Y490149*
X1118888*
Y491222*
X1129171*
Y488049*
X1141329*
Y491222*
X1151612*
Y490149*
X1152748*
G75*
G02X1154235Y489534I2J-2101*
G01*
X1155720Y488049*
X1166259*
G37*
X1186259D02*
G36*
G75*
G02X1186130Y489348I6491J1299D01*
G01*
G75*
G02X1186581Y491750I6620J0*
G01*
X1178919*
G75*
G02X1179370Y489348I-6169J-2402*
G01*
G75*
G02X1179241Y488049I-6620*
G01*
X1186259*
G37*
X1225463D02*
G36*
G75*
G02X1225189Y489210I2324J1161D01*
G01*
G75*
G02Y489211I3222J0*
G01*
Y491750*
X1198919*
G75*
G02X1199370Y489348I-6169J-2402*
G01*
G75*
G02X1199241Y488049I-6620*
G01*
X1225463*
G37*
X1246949Y491750D02*
G36*
X1230389D01*
Y490287*
X1232628Y488049*
X1246949*
Y491750*
G37*
X1267199D02*
G36*
X1263301D01*
Y488049*
X1267199*
Y491750*
G37*
X1276699D02*
G36*
Y488049D01*
X1277450*
Y491750*
X1276699*
G37*
X717199Y496711D02*
G36*
X713301D01*
Y494500*
X703801*
Y496711*
X683050*
Y491750*
X703801*
Y494000*
X713301*
Y491750*
X717199*
Y494000*
X719850*
Y494500*
X717199*
Y496711*
G37*
X1012241D02*
G36*
X994112D01*
Y493537*
X983829*
Y496711*
X971671*
Y493537*
X961388*
Y496711*
X951321*
G75*
G02X939179I-6071J2638*
G01*
X931322*
G75*
G02X925250Y492729I-6071J2638*
G01*
G75*
G02X919178Y496711I0J6620*
G01*
X909427*
Y495683*
X905520*
G75*
G02X903498Y495150I-2021J3566*
G01*
X860250*
G75*
G02X857031Y496711J4100*
G01*
X726699*
Y494500*
X724050*
Y494000*
X726699*
Y491750*
X803000*
Y494801*
X812500*
Y491750*
X813000*
Y494801*
X822500*
Y491750*
X866073*
Y492817*
X877931*
Y491750*
X897569*
Y492817*
X909427*
Y491750*
X1006650*
G75*
G02X1010833Y495302I3600J0*
G01*
X1012241Y496711*
G37*
X1225189D02*
G36*
X1151612D01*
Y493537*
X1141329*
Y494705*
G75*
G02X1139850Y496711I622J2006*
G01*
X1129171*
Y493537*
X1118888*
Y496711*
X1101612*
Y493537*
X1091329*
Y496711*
X1079171*
Y493537*
X1068888*
Y495112*
G75*
G02X1068150Y496710I1362J1598*
G01*
Y496711*
X1054112*
Y493537*
X1043829*
Y496711*
X1031671*
Y493537*
X1021388*
Y494611*
X1016080*
X1013802Y492333*
G75*
G02X1013850Y491752I-3510J-580*
G01*
G75*
G02Y491750I-3383J-1*
G01*
X1166581*
G75*
G02X1178919I6169J-2402*
G01*
X1186581*
G75*
G02X1198919I6169J-2402*
G01*
X1225189*
Y496711*
G37*
X1246949Y491750D02*
G36*
Y496711D01*
X1230389*
Y491750*
X1246949*
G37*
X1263301D02*
G36*
X1267199D01*
Y496500*
X1276699*
Y491750*
X1277450*
Y496711*
X1259811*
Y496500*
X1263301*
Y491750*
G37*
X699780Y506750D02*
G36*
X683050D01*
Y496711*
X703801*
Y504000*
X713301*
Y496711*
X717199*
Y504000*
X719850*
Y504650*
X702752*
G75*
G02X701265Y505265I-2J2101*
G01*
X699780Y506750*
G37*
X803000D02*
G36*
X801689D01*
G75*
G02X803000Y505773I-1439J-3300*
G01*
Y506750*
G37*
X813000D02*
G36*
X812500D01*
Y505550*
X813000*
Y506750*
G37*
X866073D02*
G36*
X853850D01*
G75*
G02X847326Y504650I-3600*
G01*
X835674*
G75*
G02X829150Y506750I-2924J2100*
G01*
X822500*
Y498699*
X813000*
Y501350*
X812500*
Y498699*
X803000*
Y501127*
G75*
G02X796650Y503450I-2750J2323*
G01*
G75*
G02X798811Y506750I3600*
G01*
X738850*
G75*
G02X732326Y504650I-3600*
G01*
X724050*
Y504000*
X726699*
Y496711*
X857031*
G75*
G02X856150Y499250I3219J2539*
G01*
G75*
G02X860250Y503350I4100*
G01*
X903498*
G75*
G02X905520Y502817I0J-4099*
G01*
X909427*
Y496711*
X919178*
G75*
G02X918630Y499348I6072J2637*
G01*
G75*
G02X922248Y505248I6620*
G01*
X904391*
G75*
G02X903498Y505150I-895J4020*
G01*
X872002*
G75*
G02X869980Y505683I0J4099*
G01*
X866073*
Y506750*
G37*
X1065500D02*
G36*
X941016D01*
G75*
G02X930435Y505248I-5766J2598*
G01*
X928252*
G75*
G02X931870Y499348I-3002J-5900*
G01*
G75*
G02X931322Y496711I-6620J0*
G01*
X939179*
G75*
G02X938630Y499348I6071J2638*
G01*
G75*
G02X951870I6620*
G01*
G75*
G02X951321Y496711I-6620J0*
G01*
X961388*
Y499884*
X971671*
Y496711*
X983829*
Y499884*
X994112*
Y496711*
X1012241*
X1013726Y498196*
G75*
G02X1015213Y498811I1485J-1486*
G01*
X1021388*
Y499884*
X1031671*
Y496711*
X1043829*
Y499884*
X1054112*
Y496711*
X1068150*
Y502801*
X1065500*
Y506750*
G37*
X1089699D02*
G36*
X1085801D01*
Y502000*
X1076301*
Y504650*
X1075000*
Y502801*
X1072350*
Y499884*
X1079171*
Y496711*
X1091329*
Y499884*
X1094370*
Y502000*
X1089699*
Y506750*
G37*
X1110500D02*
G36*
X1110000D01*
Y502801*
X1100500*
Y505450*
X1099199*
Y502000*
X1098570*
Y499884*
X1101612*
Y496711*
X1118888*
Y499884*
X1121930*
Y505450*
X1120000*
Y502801*
X1110500*
Y506750*
G37*
X1137199D02*
G36*
X1133301D01*
Y502000*
X1126130*
Y499884*
X1129171*
Y496711*
X1139850*
Y502000*
X1137199*
Y506750*
G37*
X1225189Y496711D02*
G36*
Y497888D01*
X1224616*
Y498410*
X1222104*
Y497140*
X1213396*
Y498410*
X1207750*
G75*
G02X1205650Y500509J2100*
G01*
Y500510*
Y506549*
X1205246*
Y506750*
X1202549*
Y500400*
X1191348*
Y506750*
X1189152*
Y500400*
X1177951*
Y506750*
X1160000*
Y502801*
X1150500*
Y505450*
X1146699*
Y502000*
X1144050*
Y499884*
X1151612*
Y496711*
X1225189*
G37*
X1224616Y506750D02*
G36*
X1222104D01*
Y504620*
X1213396*
Y506750*
X1210254*
Y506549*
X1209850*
Y502610*
X1213396*
Y503880*
X1222104*
Y502610*
X1224616*
Y506750*
G37*
X1245876D02*
G36*
X1243561D01*
Y497888*
X1237215*
Y506750*
X1230963*
Y497888*
X1230389*
Y496711*
X1246949*
Y497888*
X1245876*
Y506750*
G37*
X1275000D02*
G36*
Y502801D01*
X1265500*
Y505450*
X1260884*
Y497888*
X1259811*
Y496711*
X1277450*
Y506750*
X1275000*
G37*
X699780D02*
G36*
X696765Y509765D01*
G75*
G02X696150Y511250I1487J1485*
G01*
Y512400*
X693652*
Y514250*
X683050*
Y506750*
X699780*
G37*
X931254Y514250D02*
G36*
X929472D01*
G75*
G02X928252Y513448I-4222J5098*
G01*
X930435*
G75*
G02X931254Y514250I4815J-4100*
G01*
G37*
X866073Y506750D02*
G36*
Y512817D01*
X869980*
G75*
G02X872002Y513350I2021J-3566*
G01*
X902605*
G75*
G02X903498Y513448I895J-4020*
G01*
X922248*
G75*
G02X921028Y514250I3001J5900*
G01*
X829348*
Y511900*
X811152*
Y514250*
X784848*
Y509900*
X766652*
Y514250*
X745340*
G75*
G02X740160I-2590J2500*
G01*
X731848*
Y512400*
X713652*
Y514250*
X711848*
Y512400*
X700350*
Y512120*
X703620Y508850*
X732326*
G75*
G02X738850Y506750I2924J-2100*
G01*
X798811*
G75*
G02X801689I1439J-3300*
G01*
X803000*
Y508199*
X812500*
Y506750*
X813000*
Y508199*
X822500*
Y506750*
X829150*
G75*
G02X835674Y508850I3600*
G01*
X847326*
G75*
G02X853850Y506750I2924J-2100*
G01*
X866073*
G37*
X1213396D02*
G36*
Y511360D01*
X1215650*
Y512652*
X1213400*
Y514250*
X949472*
G75*
G02X941028I-4222J5098*
G01*
X939246*
G75*
G02X941574Y509348I-3996J-4902*
G01*
G75*
G02X941016Y506750I-6325J0*
G01*
X1065500*
Y512301*
X1075000*
Y508850*
X1076301*
Y511500*
X1085801*
Y506750*
X1089699*
Y511500*
X1099199*
Y509650*
X1100500*
Y512301*
X1110000*
Y506750*
X1110500*
Y512301*
X1120000*
Y509650*
X1123801*
Y511500*
X1133301*
Y506750*
X1137199*
Y511500*
X1146699*
Y509650*
X1150500*
Y512301*
X1160000*
Y506750*
X1177951*
Y513100*
X1189152*
Y506750*
X1191348*
Y513100*
X1202549*
Y512216*
X1205246*
Y513683*
X1210254*
Y506750*
X1213396*
G37*
X1205246D02*
G36*
Y508016D01*
X1202549*
Y506750*
X1205246*
G37*
X1226350Y514250D02*
G36*
X1222100D01*
Y512652*
X1219850*
Y511360*
X1222104*
Y506750*
X1224616*
Y508171*
X1224993*
Y511746*
Y511749*
Y511750*
G75*
G02X1225800Y513700I2759J0*
G01*
X1226350Y514250*
G37*
X1237215Y506750D02*
G36*
Y508171D01*
X1238288*
Y514250*
X1234150*
X1230507Y510608*
Y508171*
X1230963*
Y506750*
X1237215*
G37*
X1245876D02*
G36*
Y508171D01*
X1250650*
Y514250*
X1242488*
Y508171*
X1243561*
Y506750*
X1245876*
G37*
X1275000D02*
G36*
X1277450D01*
Y514250*
X1254850*
Y508171*
X1255705*
G75*
G02X1257711Y509650I2006J-622*
G01*
X1265500*
Y512301*
X1275000*
Y506750*
G37*
X698000Y536750D02*
G36*
X692500D01*
Y532801*
X690650*
Y531500*
X693301*
Y522000*
X690873*
G75*
G02X692150Y519251I-2322J-2749*
G01*
G75*
G02Y519250I-3759J0*
G01*
G75*
G02X684950I-3600*
G01*
G75*
G02Y519251I3759J0*
G01*
G75*
G02X686227Y522000I3598*
G01*
X683801*
Y531500*
X686450*
Y532801*
X683050*
Y514250*
X693652*
Y521100*
X711848*
Y518850*
X713652*
Y521100*
X718150*
Y522000*
X708801*
Y531500*
X711450*
Y532801*
X708000*
Y535450*
X707500*
Y532801*
X704050*
Y531500*
X706699*
Y522000*
X697199*
Y531500*
X699850*
Y532801*
X698000*
Y536750*
G37*
X713652Y514250D02*
G36*
Y514650D01*
X711848*
Y514250*
X713652*
G37*
X740160D02*
G36*
G75*
G02X739826Y514650I2591J2502D01*
G01*
X731848*
Y514250*
X740160*
G37*
X723000Y536750D02*
G36*
X717500D01*
Y532801*
X715650*
Y531500*
X718301*
Y527532*
G75*
G02X720250Y528850I1948J-781*
G01*
X722199*
Y531500*
X724850*
Y532801*
X723000*
Y536750*
G37*
X766652Y514250D02*
G36*
Y518600D01*
X769150*
Y519900*
X766652*
Y528600*
X769150*
Y528826*
G75*
G02X767650Y531750I2100J2924*
G01*
G75*
G02X769150Y534674I3600*
G01*
Y535880*
X768280Y536750*
X748220*
X746735Y535265*
G75*
G02X745248Y534650I-1485J1486*
G01*
X738174*
G75*
G02X732500Y534427I-2924J2100*
G01*
Y532801*
X729050*
Y531500*
X731699*
Y522000*
X722350*
Y521100*
X731848*
Y518850*
X739826*
G75*
G02X746350Y516750I2924J-2100*
G01*
G75*
G02X745340Y514250I-3600J0*
G01*
X766652*
G37*
X817280Y536750D02*
G36*
X816593D01*
G75*
G02X817112Y536582I-843J-3500*
G01*
X817280Y536750*
G37*
X811152Y514250D02*
G36*
Y520600D01*
X813650*
Y521900*
X811152*
Y530600*
X813313*
G75*
G02X812150Y533250I2437J2650*
G01*
G75*
G02X814907Y536750I3600*
G01*
X813220*
X804211Y527741*
G75*
G02X804350Y526750I-3475J-993*
G01*
G75*
G02X797150I-3600*
G01*
G75*
G02X800878Y530348I3600J0*
G01*
X807280Y536750*
X792100*
Y533152*
X783400*
Y536750*
X773350*
Y534674*
G75*
G02X774850Y531750I-2100J-2924*
G01*
G75*
G02X773350Y528826I-3600*
G01*
Y528600*
X784848*
Y519900*
X773350*
Y518600*
X784848*
Y514250*
X811152*
G37*
X941028D02*
G36*
G75*
G02X938631Y519250I4222J5098D01*
G01*
X931869*
G75*
G02X929472Y514250I-6619J98*
G01*
X931254*
G75*
G02X939246I3996J-4902*
G01*
X941028*
G37*
X862750Y536750D02*
G36*
X860100D01*
Y530152*
X851400*
Y536750*
X847951*
Y536600*
X838451*
Y536750*
X827049*
Y536600*
X823070*
X819329Y532859*
G75*
G02X818187Y530600I-3577J391*
G01*
X829348*
Y521900*
X817850*
Y520600*
X829348*
Y514250*
X921028*
G75*
G02X918631Y519250I4222J5098*
G01*
X862750*
Y536750*
G37*
X1213152D02*
G36*
X1212348D01*
Y534652*
X1203152*
Y536750*
X1197750*
Y519250*
X1160000*
Y516199*
X1150500*
Y519250*
X1120000*
Y516199*
X1110500*
Y519250*
X1110000*
Y516199*
X1100500*
Y519250*
X1075000*
Y516199*
X1065500*
Y519250*
X951869*
G75*
G02X949472Y514250I-6619J98*
G01*
X1213400*
Y524150*
X1210674*
G75*
G02X1209850Y523326I-2917J2093*
G01*
Y521951*
X1210254*
Y514817*
X1205246*
Y521951*
X1205650*
Y523326*
G75*
G02X1204150Y526250I2099J2924*
G01*
Y526250*
G75*
G02X1210674Y528350I3600*
G01*
X1213400*
Y530848*
X1222100*
Y528350*
X1224616*
Y530612*
X1229993*
Y533114*
X1226485Y536650*
X1222348*
Y534652*
X1213152*
Y536750*
G37*
X1226350Y514250D02*
G36*
X1229993Y517892D01*
Y520329*
X1224616*
Y524150*
X1222100*
Y514250*
X1226350*
G37*
X1246949Y536750D02*
G36*
X1234154D01*
X1234706Y536194*
G75*
G02X1235507Y534250I-1954J-1944*
G01*
Y534250*
Y516754*
Y516751*
Y516750*
G75*
G02X1234700Y514800I-2759J0*
G01*
X1234150Y514250*
X1238288*
Y520329*
X1237215*
Y530612*
X1243561*
Y520329*
X1242488*
Y514250*
X1250650*
Y520329*
X1245876*
Y530612*
X1246949*
Y536750*
G37*
X1276699D02*
G36*
Y532000D01*
X1267199*
Y536750*
X1263301*
Y532000*
X1259811*
Y530612*
X1260884*
Y523050*
X1265500*
Y525699*
X1275000*
Y516199*
X1265500*
Y518850*
X1257711*
G75*
G02X1255705Y520329I0J2100*
G01*
X1254850*
Y514250*
X1277450*
Y536750*
X1276699*
G37*
X768280D02*
G36*
X768265Y536765D01*
G75*
G02X767650Y538250I1487J1485*
G01*
Y539650*
X764549*
Y539100*
X755049*
Y543580*
X748220Y536750*
X768280*
G37*
X783400D02*
G36*
Y539100D01*
X775951*
Y543152*
X771850*
Y539120*
X772735Y538235*
G75*
G02X773350Y536750I-1487J-1485*
G01*
X783400*
G37*
X738400Y550949D02*
G36*
X732500D01*
Y546199*
X723000*
Y550949*
X717500*
Y546199*
X708000*
Y550949*
X707500*
Y546199*
X698000*
Y550949*
X692500*
Y546199*
X683050*
Y542301*
X692500*
Y536750*
X698000*
Y542301*
X707500*
Y539650*
X708000*
Y542301*
X717500*
Y536750*
X723000*
Y542301*
X732500*
Y539073*
G75*
G02X738174Y538850I2750J-2323*
G01*
X744380*
X750737Y545207*
G75*
G02X750248Y545150I-486J2024*
G01*
X747100*
Y542652*
X738400*
Y550949*
G37*
X817280Y536750D02*
G36*
X817549Y537019D01*
Y541080*
X813220Y536750*
X814907*
G75*
G02X816593I843J-3500*
G01*
X817280*
G37*
X838451D02*
G36*
Y540652D01*
X835350*
Y539250*
Y539250*
G75*
G02X833250Y537150I-2100*
G01*
X827049*
Y536750*
X838451*
G37*
X808900Y550949D02*
G36*
X792100D01*
Y548850*
X792326*
G75*
G02X798850Y546750I2924J-2100*
G01*
G75*
G02X792326Y544650I-3600*
G01*
X792100*
Y536750*
X807280*
X815682Y545152*
X808900*
Y550949*
G37*
X853650D02*
G36*
X852350D01*
Y549250*
G75*
G02X852146Y548348I-2100J0*
G01*
X853650*
Y550949*
G37*
X851400Y536750D02*
G36*
Y541650D01*
X850250*
G75*
G02X848890Y542150I1J2104*
G01*
X847951*
Y536750*
X851400*
G37*
X862750Y550949D02*
G36*
X857850D01*
Y548348*
X860100*
Y536750*
X862750*
Y550949*
G37*
X1213152Y536750D02*
G36*
Y543848D01*
X1222348*
Y541850*
X1225189*
Y550949*
X1209348*
Y549900*
X1197750*
Y536750*
X1203152*
Y543848*
X1212348*
Y536750*
X1213152*
G37*
X1246949D02*
G36*
Y538380D01*
X1238903Y546426*
G75*
G02X1238288Y547911I1487J1485*
G01*
Y550949*
X1230389*
Y540544*
X1234154Y536750*
X1246949*
G37*
X1263301D02*
G36*
X1267199D01*
Y541500*
X1276699*
Y536750*
X1277450*
Y550949*
X1247350*
Y550120*
X1254235Y543235*
G75*
G02X1254850Y541750I-1487J-1485*
G01*
Y541500*
X1263301*
Y536750*
G37*
X698400Y580470D02*
G36*
X694848D01*
Y572152*
X692350*
Y569350*
X698400*
Y580470*
G37*
X708400D02*
G36*
X707100D01*
Y569350*
X708400*
Y580470*
G37*
X730150D02*
G36*
X717100D01*
Y571350*
X718652*
Y573600*
X730150*
Y580470*
G37*
X738400Y550949D02*
G36*
Y560848D01*
X747100*
Y558350*
X755049*
Y559400*
X755650*
Y562400*
X743652*
Y571100*
X755150*
Y572400*
X743652*
Y580470*
X734350*
Y573600*
X736848*
Y564900*
X718652*
Y567150*
X717100*
Y562652*
X708400*
Y565150*
X707100*
Y562652*
X698400*
Y565150*
X690250*
G75*
G02X688150Y567250J2100*
G01*
Y567250*
Y572152*
X685652*
Y580470*
X683050*
Y555699*
X692500*
Y550949*
X698000*
Y555699*
X707500*
Y550949*
X708000*
Y555699*
X717500*
Y550949*
X723000*
Y555699*
X732500*
Y550949*
X738400*
G37*
X808652Y580470D02*
G36*
X761848D01*
Y572400*
X759350*
Y571100*
X761848*
Y562400*
X759850*
Y562350*
X788250*
G75*
G02X789735Y561735I0J-2102*
G01*
X790120Y561350*
X797326*
G75*
G02X803174I2924J-2100*
G01*
X808900*
Y563348*
X811150*
Y564900*
X808652*
Y573600*
X811150*
Y574900*
X808652*
Y580470*
G37*
X808900Y550949D02*
G36*
Y557150D01*
X803174*
G75*
G02X797326I-2924J2100*
G01*
X790350*
Y554750*
G75*
G02X789735Y553265I-2102J0*
G01*
X787818Y551348*
X792100*
Y550949*
X808900*
G37*
X862750D02*
G36*
Y580470D01*
X850558*
X855987Y575041*
X857833*
Y567608*
X852667*
Y572422*
X844619Y580470*
X826848*
Y574900*
X815350*
Y573600*
X826848*
Y564900*
X815350*
Y563348*
X817600*
Y559850*
X847748*
G75*
G02X849235Y559235I2J-2101*
G01*
X851735Y556735*
G75*
G02X852350Y555250I-1487J-1485*
G01*
Y550949*
X853650*
Y558459*
X852667*
Y565892*
X857833*
Y562444*
G75*
G02X857850Y562176I-2079J-269*
G01*
Y562175*
Y550949*
X862750*
G37*
X1203541Y580470D02*
G36*
X1197750D01*
Y558600*
X1202650*
Y565116*
G75*
G02Y565118I2128J1*
G01*
G75*
G02X1202746Y565744I2088*
G01*
Y568683*
X1207754*
Y561549*
X1206850*
Y558600*
X1209348*
Y556350*
X1213396*
Y558880*
X1215830*
G75*
G02X1216379Y559620I1927J-856*
G01*
X1213396*
Y566360*
X1215650*
Y567652*
X1213400*
Y577150*
X1207350*
Y576951*
X1207754*
Y569817*
X1202746*
Y576951*
X1203150*
Y579250*
Y579250*
G75*
G02X1203541Y580470I2100*
G01*
G37*
X1225189Y550949D02*
G36*
Y552888D01*
X1224616*
Y555930*
X1222104*
Y552140*
X1213396*
Y552150*
X1209348*
Y550949*
X1225189*
G37*
X1238288D02*
G36*
Y552888D01*
X1237215*
Y563171*
X1243150*
Y563380*
X1236880Y569650*
X1227789*
G75*
G02X1225689Y571750J2100*
G01*
Y571750*
Y575329*
X1224616*
Y579150*
X1222100*
Y567652*
X1219850*
Y566360*
X1222104*
Y560130*
X1224616*
Y563171*
X1230963*
Y552888*
X1230389*
Y550949*
X1238288*
G37*
X1245876Y580470D02*
G36*
X1243561D01*
Y575329*
X1237215*
Y580470*
X1230963*
Y575329*
X1229889*
Y573850*
X1237748*
G75*
G02X1239235Y573235I2J-2101*
G01*
X1246735Y565735*
G75*
G02X1247350Y564250I-1487J-1485*
G01*
Y563171*
X1250650*
Y575329*
X1245876*
Y580470*
G37*
X1267350D02*
G36*
Y558030D01*
Y558029*
G75*
G02X1265250Y555930I-2100*
G01*
X1260884*
Y552888*
X1254537*
Y556927*
G75*
G02X1252750Y555930I-1787J1101*
G01*
X1252222*
Y552888*
X1247350*
Y550949*
X1277450*
Y580470*
X1267350*
G37*
X1263150D02*
G36*
X1260884D01*
Y575329*
X1254850*
Y563171*
X1260884*
Y560130*
X1263150*
Y580470*
G37*
X730150Y587021D02*
G36*
X717100D01*
Y582652*
X708400*
Y587021*
X707100*
Y582652*
X698400*
Y587021*
X694848*
Y582152*
X685652*
Y587021*
X683050*
Y580470*
X685652*
Y581348*
X694848*
Y580470*
X698400*
Y580848*
X707100*
Y580470*
X708400*
Y580848*
X717100*
Y580470*
X730150*
Y587021*
G37*
X844619Y580470D02*
G36*
X839379Y585711D01*
X830900*
Y587021*
X829600*
Y585711*
X820900*
Y587021*
X811715*
G75*
G02X808785I-1465J3288*
G01*
X798840*
G75*
G02X798850Y586750I-3590J-271*
G01*
G75*
G02X792326Y584650I-3600*
G01*
X780333*
Y583459*
X775167*
Y587021*
X772100*
Y582652*
X763400*
Y587021*
X762100*
Y582652*
X753400*
Y587021*
X734350*
Y580470*
X743652*
Y581100*
X761848*
Y580470*
X808652*
Y583600*
X826848*
Y580470*
X844619*
G37*
X862750Y587021D02*
G36*
X844008D01*
X850558Y580470*
X862750*
Y587021*
G37*
X1245876Y580470D02*
G36*
Y585612D01*
X1250650*
Y585880*
X1249509Y587021*
X1197750*
Y580470*
X1203541*
G75*
G02X1205250Y581350I1709J-1220*
G01*
X1213400*
Y585848*
X1222100*
Y583350*
X1224616*
Y585612*
X1230963*
Y580470*
X1237215*
Y585612*
X1243561*
Y580470*
X1245876*
G37*
X1263150D02*
G36*
Y585880D01*
X1262009Y587021*
X1254832*
G75*
G02X1254850Y586750I-2084J-272*
G01*
Y585612*
X1260884*
Y580470*
X1263150*
G37*
X1267350D02*
G36*
X1277450D01*
Y587021*
X1267332*
G75*
G02X1267350Y586750I-2084J-272*
G01*
Y580470*
G37*
X708400Y587021D02*
G36*
Y594150D01*
X707100*
Y587021*
X708400*
G37*
X753400D02*
G36*
Y600848D01*
X762100*
Y598350*
X763400*
Y600848*
X772100*
Y598507*
X775167*
Y600041*
X780333*
Y598425*
X781880*
X783150Y599694*
Y602117*
G75*
G02X777326Y602150I-2900J2133*
G01*
X734350*
Y587021*
X753400*
G37*
X763400D02*
G36*
Y594150D01*
X762100*
Y587021*
X763400*
G37*
X730150Y604348D02*
G36*
X683050D01*
Y587021*
X685652*
Y591348*
X694848*
Y587021*
X698400*
Y594650*
X694848*
Y592152*
X685652*
Y601348*
X694848*
Y598850*
X698400*
Y600848*
X707100*
Y598350*
X708400*
Y600848*
X717100*
Y598350*
X722326*
G75*
G02X728850Y596250I2924J-2100*
G01*
G75*
G02X722326Y594150I-3600*
G01*
X717100*
Y587021*
X730150*
Y604348*
G37*
X820900Y587021D02*
G36*
Y588209D01*
X813174*
G75*
G02X811715Y587021I-2924J2100*
G01*
X820900*
G37*
X830900D02*
G36*
Y588209D01*
X829600*
Y587021*
X830900*
G37*
X862750Y604348D02*
G36*
X812932D01*
G75*
G02X807568I-2682J2402*
G01*
X793849*
G75*
G02X793850Y604250I-3600J-93*
G01*
Y604250*
G75*
G02X787350Y602117I-3600*
G01*
Y598825*
G75*
G02X786735Y597340I-2102J0*
G01*
X784235Y594840*
G75*
G02X782748Y594225I-1485J1486*
G01*
X780333*
Y592608*
X775167*
Y593993*
X772100*
Y587021*
X775167*
Y590892*
X780333*
Y588850*
X792326*
G75*
G02X798840Y587021I2924J-2100*
G01*
X808785*
G75*
G02X806650Y590309I1465J3288*
G01*
G75*
G02X813174Y592409I3600*
G01*
X820900*
Y603907*
X829600*
Y592409*
X830900*
Y603907*
X839600*
Y591428*
X844008Y587021*
X862750*
Y604348*
G37*
X1249509Y587021D02*
G36*
X1246880Y589650D01*
X1240252*
G75*
G02X1238765Y590265I-2J2101*
G01*
X1228765Y600265*
G75*
G02X1228150Y601750I1487J1485*
G01*
Y604348*
X1226870*
G75*
G02X1213630I-6620*
G01*
X1206870*
G75*
G02X1197750Y598219I-6620*
G01*
Y587021*
X1249509*
G37*
X1262009D02*
G36*
X1248765Y600265D01*
G75*
G02X1248150Y601750I1487J1485*
G01*
Y604348*
X1246870*
G75*
G02X1233630I-6620*
G01*
X1232350*
Y602620*
X1241120Y593850*
X1247748*
G75*
G02X1249235Y593235I2J-2101*
G01*
X1254235Y588235*
G75*
G02X1254832Y587021I-1487J-1485*
G01*
X1262009*
G37*
X1267332D02*
G36*
X1277450D01*
Y604348*
X1266870*
G75*
G02X1253630I-6620*
G01*
X1252350*
Y602620*
X1266735Y588235*
G75*
G02X1267332Y587021I-1487J-1485*
G01*
G37*
X1277450Y624250D02*
G36*
X1266869D01*
G75*
G02X1253631I-6619J98*
G01*
X1246869*
G75*
G02X1233631I-6619J98*
G01*
X1226869*
G75*
G02X1213631I-6619J98*
G01*
X1206869*
G75*
G02X1197750Y618219I-6619J99*
G01*
Y610478*
G75*
G02X1206870Y604348I2500J-6130*
G01*
X1213630*
G75*
G02X1226870I6620*
G01*
X1228150*
Y612248*
X1216216*
G75*
G02X1203926Y614348I-5966J2100*
G01*
G75*
G02X1216216Y616448I6324*
G01*
X1230250*
G75*
G02X1232350Y614349J-2100*
G01*
Y614348*
Y604348*
X1233630*
G75*
G02X1246870I6620*
G01*
X1248150*
Y608383*
G75*
G02X1243926Y614348I2100J5966*
G01*
G75*
G02X1250250Y620673I6324*
G01*
G75*
G02X1256575Y614348J-6324*
G01*
G75*
G02X1252350Y608383I-6325*
G01*
Y604348*
X1253630*
G75*
G02X1266870I6620*
G01*
X1277450*
Y624250*
G37*
X730150Y604348D02*
G36*
Y609900D01*
X718652*
Y612150*
X717100*
Y610152*
X708400*
Y612650*
X707100*
Y610152*
X698400*
Y612650*
X690250*
G75*
G02X688152Y614652I0J2100*
G01*
X685652*
Y623848*
X694848*
Y616850*
X698400*
Y628348*
X707100*
Y616850*
X708400*
Y628348*
X717100*
Y616350*
X718652*
Y618600*
X736848*
Y609900*
X734350*
Y606350*
X777326*
G75*
G02X783150Y606383I2924J-2100*
G01*
Y613380*
X782348Y614182*
Y608900*
X771152*
Y620075*
X765333*
Y618459*
X760167*
Y622150*
X756848*
Y619900*
X738652*
Y628600*
X756848*
Y626350*
X762750*
G75*
G02X764059Y625892I1J-2097*
G01*
X765333*
Y624275*
X771152*
Y629225*
X765333*
Y627608*
X760167*
Y629225*
X752250*
G75*
G02X750150Y631324J2100*
G01*
Y631325*
Y632348*
X717100*
Y630152*
X708400*
Y632348*
X707100*
Y630152*
X698400*
Y632348*
X694848*
Y624652*
X685652*
Y632348*
X683050*
Y604348*
X730150*
G37*
X796700Y632348D02*
G36*
X777196D01*
X778235Y631310*
G75*
G02X778850Y629825I-1487J-1485*
G01*
Y629600*
X782348*
Y618850*
X782748*
G75*
G02X784235Y618235I2J-2101*
G01*
X786735Y615735*
G75*
G02X787350Y614250I-1487J-1485*
G01*
Y606383*
G75*
G02X788150Y607174I2905J-2139*
G01*
Y619250*
G75*
G02X788765Y620735I2102J0*
G01*
X791265Y623235*
G75*
G02X792752Y623850I1485J-1486*
G01*
X793152*
Y629600*
X796650*
Y631750*
G75*
G02X796700Y632348I3600J0*
G01*
G37*
X807568Y604348D02*
G36*
G75*
G02X806650Y606750I2682J2402D01*
G01*
G75*
G02Y606752I3383J1*
G01*
G75*
G02X806698Y607333I3557*
G01*
X804380Y609650*
X804348*
Y608900*
X793152*
Y619182*
X792350Y618380*
Y607174*
G75*
G02X793849Y604348I-2099J-2924*
G01*
X807568*
G37*
X862750Y632348D02*
G36*
X856348D01*
Y628348*
X849152*
Y630250*
X845674*
G75*
G02X839150Y632348I-2924J2100*
G01*
X803800*
G75*
G02X803850Y631750I-3550J-598*
G01*
G75*
G02X803138Y629600I-3600*
G01*
X804348*
Y623425*
X812667*
Y625041*
X817833*
Y617608*
X812667*
Y619225*
X804348*
Y618850*
X810248*
G75*
G02X811735Y618235I2J-2101*
G01*
X814078Y615892*
X817833*
Y614433*
X820900*
Y625848*
X829600*
Y607652*
X820900*
Y609918*
X817833*
Y608459*
X813419*
G75*
G02X813850Y606751I-3165J-1708*
G01*
G75*
G02Y606750I-5013J0*
G01*
G75*
G02X812932Y604348I-3600*
G01*
X862750*
Y632348*
G37*
X698400Y641049D02*
G36*
X694848D01*
Y634652*
X685652*
Y641049*
X683050*
Y632348*
X685652*
Y633848*
X694848*
Y632348*
X698400*
Y641049*
G37*
X708400D02*
G36*
X707100D01*
Y632348*
X708400*
Y641049*
G37*
X738652D02*
G36*
X723920D01*
X726120Y638850*
X738652*
Y641049*
G37*
X750150Y632348D02*
G36*
Y632400D01*
X738652*
Y634650*
X725252*
G75*
G02X723765Y635265I-2J2101*
G01*
X717981Y641049*
X717100*
Y632348*
X750150*
G37*
X862750Y641049D02*
G36*
X860348D01*
Y637049*
X853152*
Y641049*
X852348*
Y637049*
X845152*
Y641049*
X836848*
Y637400*
X818652*
Y639650*
X817549*
Y637900*
X806348*
Y641049*
X804152*
Y637900*
X792951*
Y641049*
X756848*
Y633425*
X760167*
Y635041*
X765333*
Y633425*
X775248*
G75*
G02X776735Y632810I2J-2101*
G01*
X777196Y632348*
X796700*
G75*
G02X803800I3550J-598*
G01*
X839150*
G75*
G02Y632350I3609J1*
G01*
G75*
G02X845674Y634450I3600*
G01*
X849152*
Y636348*
X856348*
Y632348*
X862750*
Y641049*
G37*
X698400D02*
G36*
Y641650D01*
X694848*
Y641049*
X698400*
G37*
X708400D02*
G36*
Y641650D01*
X707100*
Y641049*
X708400*
G37*
X717981D02*
G36*
X717380Y641650D01*
X717100*
Y641049*
X717981*
G37*
X807850Y659250D02*
G36*
X807348D01*
Y654652*
X798152*
Y659250*
X797348*
Y654652*
X788152*
Y659250*
X766848*
Y657400*
X764494*
G75*
G02X766350Y654250I-1743J-3149*
G01*
Y654250*
G75*
G02X759150I-3600*
G01*
G75*
G02X760150Y656740I3602J0*
G01*
Y657400*
X748652*
Y659250*
X683050*
Y641049*
X685652*
Y643848*
X688152*
G75*
G02X690250Y645850I2098J-98*
G01*
X698400*
Y648348*
X707100*
Y645850*
X708400*
Y648348*
X717100*
Y645850*
X718248*
G75*
G02X719735Y645235I2J-2101*
G01*
X723920Y641049*
X738652*
Y641100*
X750150*
Y642400*
X738652*
Y644650*
X728174*
G75*
G02X721650Y646750I-2924J2100*
G01*
G75*
G02X728174Y648850I3600*
G01*
X738652*
Y651100*
X756848*
Y642400*
X754350*
Y641100*
X756848*
Y641049*
X792951*
Y650600*
X804152*
Y641049*
X806348*
Y650600*
X807850*
Y659250*
G37*
X849152D02*
G36*
X848220D01*
X849020Y658450*
X849152*
Y659250*
G37*
X853152Y641049D02*
G36*
Y645049D01*
X854650*
Y652348*
X849152*
Y654250*
X848152*
G75*
G02X846665Y654865I-2J2101*
G01*
X842280Y659250*
X839848*
Y654652*
X830652*
Y656650*
X817348*
Y654652*
X816050*
Y650600*
X817549*
Y643850*
X818652*
Y646100*
X836848*
Y641049*
X845152*
Y645049*
X852348*
Y641049*
X853152*
G37*
X862750Y659250D02*
G36*
X858850D01*
Y645049*
X860348*
Y641049*
X862750*
Y659250*
G37*
X740620Y671750D02*
G36*
X739880D01*
Y667396*
X733140*
Y671750*
X710036*
G75*
G02X690464I-9786J2500*
G01*
X683050*
Y659250*
X748652*
Y666100*
X760150*
Y667400*
X748652*
Y669650*
X747360*
Y667396*
X740620*
Y671750*
G37*
X788152Y659250D02*
G36*
Y662450D01*
X781600*
Y659451*
X768900*
Y662950*
X766848*
Y659250*
X788152*
G37*
X842280D02*
G36*
X841265Y660265D01*
G75*
G02X840650Y661750I1487J1485*
G01*
Y663380*
X839379Y664652*
X830652*
Y671750*
X766848*
Y667400*
X764350*
Y667150*
X768900*
Y670652*
X781600*
Y667650*
X792750*
G75*
G02X795350Y665050J-2600*
G01*
Y665050*
Y663848*
X797348*
Y659250*
X798152*
Y663848*
X807348*
Y659250*
X807850*
G75*
G02Y659251I4511J1*
G01*
G75*
G02X808152Y660793I4094*
G01*
Y663848*
X817348*
Y661850*
X830652*
Y663848*
X839848*
Y659250*
X842280*
G37*
X853685Y671750D02*
G36*
X839848D01*
Y670121*
X844235Y665735*
G75*
G02X844850Y664250I-1487J-1485*
G01*
Y662620*
X845152Y662318*
Y669049*
X852348*
Y661049*
X846420*
X848220Y659250*
X849152*
Y660348*
X854650*
Y661049*
X853152*
Y669049*
X854650*
Y669760*
G75*
G02X853685Y671750I2599J2490*
G01*
G37*
X862750D02*
G36*
X860815D01*
G75*
G02X858898Y669049I-3565J500*
G01*
X860348*
Y661049*
X858850*
Y659250*
X862750*
Y671750*
G37*
X690464D02*
G36*
G75*
G02X690150Y674250I9786J2500D01*
G01*
G75*
G02X691064Y678449I10100*
G01*
X683050*
Y671750*
X690464*
G37*
X853685D02*
G36*
G75*
G02X853650Y672250I3566J501D01*
G01*
G75*
G02X854813Y674900I3600J0*
G01*
X841152*
Y678449*
X839848*
Y674652*
X830652*
Y678449*
X817348*
Y674652*
X808152*
Y678449*
X807348*
Y674652*
X798152*
Y678449*
X797348*
Y674652*
X788152*
Y678449*
X781600*
Y672848*
X768900*
Y678449*
X766848*
Y677400*
X748652*
Y678449*
X747360*
Y677396*
X740620*
Y678449*
X739880*
Y677396*
X733140*
Y678449*
X709436*
G75*
G02X710350Y674250I-9186J-4199*
G01*
G75*
G02X710036Y671750I-10100J0*
G01*
X733140*
Y676104*
X739880*
Y671750*
X740620*
Y676104*
X747360*
Y673850*
X748652*
Y676100*
X766848*
Y671750*
X830652*
Y673848*
X839848*
Y671750*
X853685*
G37*
X862750Y678449D02*
G36*
X859350D01*
Y675174*
G75*
G02X860850Y672250I-2100J-2924*
G01*
G75*
G02X860815Y671750I-3600J1*
G01*
X862750*
Y678449*
G37*
X759077Y691450D02*
G36*
X683050D01*
Y678449*
X691064*
G75*
G02X709436I9186J-4199*
G01*
X733140*
Y686104*
X739880*
Y678449*
X740620*
Y686104*
X747360*
Y683850*
X748652*
Y686100*
X760150*
Y686826*
G75*
G02X758650Y689750I2100J2924*
G01*
G75*
G02X759077Y691450I3599*
G01*
G37*
X748652Y678449D02*
G36*
Y679650D01*
X747360*
Y678449*
X748652*
G37*
X862750Y691450D02*
G36*
X765423D01*
G75*
G02X765850Y689750I-3172J-1700*
G01*
G75*
G02X764350Y686826I-3600*
G01*
Y686100*
X766848*
Y678449*
X768900*
Y684049*
X781600*
Y678449*
X788152*
Y683848*
X797348*
Y678449*
X798152*
Y683848*
X807348*
Y678449*
X808152*
Y683848*
X817348*
Y678449*
X830652*
Y683848*
X839848*
Y678449*
X841152*
Y683600*
X859348*
Y679331*
G75*
G02X859350Y679250I-2088J-81*
G01*
Y679250*
Y678449*
X862750*
Y691450*
G37*
D02*
D12*
X685100Y550950D02*
X683000D01*
X687750Y537550D02*
X688550D01*
Y526750*
X687750Y548300D02*
Y546199D01*
Y553600D02*
Y555699D01*
Y586750D02*
X685652D01*
X687750Y629250D02*
X685652D01*
X688550Y526750D02*
Y519250D01*
X690250Y567250D02*
Y576750D01*
Y567250D02*
X702750D01*
X690250Y584250D02*
Y582152D01*
Y589250D02*
Y591348D01*
Y626750D02*
Y624652D01*
Y631750D02*
Y633848D01*
X690400Y550950D02*
X692500D01*
X690730Y451848D02*
X688630D01*
X690730Y471848D02*
X688630D01*
X692750Y586750D02*
X694848D01*
X692750Y629250D02*
X694848D01*
X695250Y447329D02*
Y445229D01*
Y456368D02*
Y458468D01*
Y467329D02*
Y465229D01*
Y476368D02*
Y478468D01*
X699770Y451848D02*
X701870D01*
X699770Y471848D02*
X701870D01*
X700100Y550950D02*
X698000D01*
X700500Y576250D02*
X698400D01*
X700500Y587250D02*
X698400D01*
X700500Y623750D02*
X698400D01*
X700500Y634750D02*
X698400D01*
X702250Y414116D02*
Y411010D01*
X707750Y405510*
X711250*
X702250Y422384D02*
Y425750D01*
X710250Y433750*
X711250*
X702750Y537550D02*
X712750D01*
X702750D02*
X701950D01*
Y526750*
X702750Y548300D02*
Y546199D01*
Y553600D02*
Y555699D01*
Y567250D02*
X712750D01*
X702750Y578750D02*
Y580848D01*
Y584750D02*
Y582652D01*
Y596250D02*
Y596750D01*
X690250*
X702750Y596250D02*
X712750D01*
X702750Y614750D02*
X690250D01*
Y619250*
X702750Y626250D02*
Y628348D01*
Y632250D02*
Y630152D01*
Y643750D02*
X690250D01*
Y639250*
X705000Y576250D02*
X707100D01*
X705000Y587250D02*
X707100D01*
X705000Y623750D02*
X707100D01*
X705000Y634750D02*
X707100D01*
X705400Y550950D02*
X707500D01*
X705900Y489250D02*
X703801D01*
X705900Y499250D02*
X703801D01*
X707250Y516750D02*
X718250D01*
X708550Y486600D02*
Y484500D01*
Y491900D02*
Y494000D01*
Y496600D02*
Y494500D01*
Y501900D02*
Y504000D01*
X710100Y550950D02*
X708000D01*
X710500Y576250D02*
X708400D01*
X710500Y587250D02*
X708400D01*
X710500Y623750D02*
X708400D01*
X710500Y634750D02*
X708400D01*
X710730Y451848D02*
X708630D01*
X710730Y471848D02*
X708630D01*
X711200Y489250D02*
X713301D01*
X711200Y499250D02*
X713301D01*
X711250Y405510D02*
Y403502D01*
X720250*
X711250Y424750D02*
Y412990D01*
X712750Y537550D02*
X713550D01*
Y526750*
X712750Y548300D02*
Y546199D01*
Y553600D02*
Y555699D01*
Y567250D02*
Y569250D01*
X723250*
X712750Y578750D02*
Y580848D01*
Y584750D02*
Y582652D01*
Y614750D02*
X702750D01*
X712750D02*
Y614250D01*
X723250*
X712750Y626250D02*
Y628348D01*
Y632250D02*
Y630152D01*
Y643750D02*
X702750D01*
X712750D02*
X718250D01*
X725250Y636750*
X743250*
X715000Y576250D02*
X717100D01*
X715000Y587250D02*
X717100D01*
X715000Y623750D02*
X717100D01*
X715000Y634750D02*
X717100D01*
X715250Y447329D02*
Y445229D01*
Y456368D02*
Y458468D01*
Y467329D02*
Y465229D01*
Y476368D02*
Y478468D01*
X715400Y550950D02*
X717500D01*
X718250Y516750D02*
X720250D01*
Y526750*
X726950*
X719770Y451848D02*
X721870D01*
X719770Y471848D02*
X721870D01*
X720250Y403502D02*
Y419250D01*
Y434998D02*
Y435250D01*
X726750Y441750*
X735250*
X720250Y434998D02*
Y433750D01*
X711250*
X721950Y489250D02*
Y499250D01*
Y506750*
X735250*
X721950D02*
X702750D01*
X698250Y511250*
Y516750*
X725100Y550950D02*
X723000D01*
X725250Y596250D02*
X712750D01*
X726950Y526750D02*
Y537550D01*
X727750*
X727250Y516750D02*
X742750D01*
X727750Y548300D02*
Y546199D01*
Y553600D02*
Y555699D01*
X730400Y550950D02*
X732500D01*
X732250Y604250D02*
Y569250D01*
Y614250D02*
Y606750D01*
Y604250*
X735238Y671750D02*
X733140D01*
X735238Y681750D02*
X733140D01*
X735250Y536750D02*
X745250D01*
X755250Y546750*
X759800*
X736510Y669494D02*
Y667396D01*
Y674006D02*
Y676104D01*
Y679494D02*
Y677396D01*
Y684006D02*
Y686104D01*
X737781Y671750D02*
X739880D01*
X737781Y681750D02*
X739880D01*
X740250Y471750D02*
X737750D01*
X730250Y479250*
Y484250*
X725250Y489250*
X721950*
X740250Y481750D02*
X792750D01*
X797750Y476750*
X740750Y624250D02*
X738652D01*
X742750Y547250D02*
X750250D01*
X754750Y551750*
X759800*
X742750Y556250D02*
X759800D01*
Y556750*
X743250Y622000D02*
Y619900D01*
Y626500D02*
Y628600D01*
Y646750D02*
X725250D01*
X743990Y671750D02*
X753250D01*
X743990Y681750D02*
X753250D01*
X745750Y566750D02*
X743652D01*
X745750Y576750D02*
X743652D01*
X748250Y564500D02*
Y562400D01*
Y569000D02*
Y571100D01*
Y574500D02*
Y572400D01*
Y579000D02*
Y581100D01*
X750250Y403502D02*
Y434998D01*
X750750Y661750D02*
X748652D01*
X752250Y636750D02*
Y646750D01*
X753250Y659500D02*
Y657400D01*
Y664000D02*
Y666100D01*
X755250Y384250D02*
X750250Y391750D01*
Y403502*
X755500Y587250D02*
X753400D01*
X757250Y566750D02*
Y576750D01*
X757600Y461750D02*
X755500D01*
X757750Y560250D02*
X788250D01*
X757750D02*
Y564250D01*
X757250*
Y566750*
X757750Y584750D02*
Y582652D01*
Y596250D02*
X767750D01*
X759800Y541750D02*
X769750D01*
X759800Y556750D02*
X757750D01*
Y560250*
X760000Y587250D02*
X762100D01*
X760250Y459100D02*
Y457000D01*
X762250Y661750D02*
Y665050D01*
X775250*
X762250Y671750D02*
Y661750D01*
Y681750D02*
Y689750D01*
X762750Y622175D02*
Y624250D01*
X752250*
X762750Y631325D02*
X752250D01*
Y636750*
X762750Y631325D02*
X775250D01*
X776750Y629825*
Y626750*
X762750Y654250D02*
X762250D01*
Y661750*
X762900Y461750D02*
X765000D01*
X763014Y384250D02*
X760914D01*
X765250Y382014D02*
Y379914D01*
Y386486D02*
Y388586D01*
X765500Y587250D02*
X763400D01*
X767486Y384250D02*
X769586D01*
X767750Y584750D02*
Y582652D01*
Y596250D02*
Y596325D01*
X777750*
X769750Y541750D02*
Y549250D01*
Y541750D02*
Y538250D01*
X771250Y536750*
Y531750*
X770000Y587250D02*
X772100D01*
X771000Y678450D02*
X768900D01*
X771250Y514250D02*
Y524250D01*
Y531750*
X773250Y611750D02*
X771152D01*
X775100Y486750D02*
X773000D01*
X775250Y674950D02*
Y672848D01*
Y681950D02*
Y684049D01*
X776750Y611000D02*
Y608900D01*
Y621750D02*
Y622175D01*
X762750*
X777750Y489400D02*
Y491500D01*
Y596325D02*
X782750D01*
X785250Y598825*
Y614250*
X782750Y616750*
X776750*
X778050Y541750D02*
X775951D01*
X779500Y678450D02*
X781600D01*
X780250Y512000D02*
Y509900D01*
Y516500D02*
Y518600D01*
Y522000D02*
Y519900D01*
Y526500D02*
Y528600D01*
Y604250D02*
X732250D01*
X780250Y611750D02*
X782348D01*
X780400Y486750D02*
X782500D01*
X780700Y541200D02*
Y539100D01*
Y546750D02*
X787750D01*
X780700Y551750D02*
X785250D01*
X788250Y554750*
Y560250*
X782750Y514250D02*
X784848D01*
X782750Y524250D02*
X784848D01*
X785500Y537750D02*
X783400D01*
X787750Y417616D02*
Y413010D01*
X795250Y405510*
X796250*
X787750Y459250D02*
X770250D01*
X787750Y535250D02*
Y533152D01*
Y546750D02*
X795250D01*
X788250Y560250D02*
X789250Y559250D01*
X800250*
X790000Y537750D02*
X792100D01*
X795050Y644250D02*
X792951D01*
X795250Y586750D02*
X777750D01*
Y587175*
X796250Y424750D02*
Y412990D01*
Y433750D02*
X795250D01*
X787750Y426250*
Y425884*
X797750Y466750D02*
X745250D01*
X740250Y471750*
X798550Y640000D02*
Y637900D01*
Y648500D02*
Y650600D01*
X798750Y616750D02*
X810250D01*
X814825Y612175*
X815250*
X798750Y621750D02*
X792750D01*
X790250Y619250*
Y604250*
X798750Y621750D02*
Y621325D01*
X815250*
X800250Y559250D02*
X813250D01*
Y558750*
X800250Y631750D02*
X798750D01*
Y626750*
X800250Y659250D02*
X798152D01*
X800250Y679250D02*
X798152D01*
X800750Y526750D02*
Y527250D01*
X817750Y544250*
X822300*
X802050Y644250D02*
X804152D01*
X802750Y656750D02*
Y654652D01*
Y661750D02*
Y663848D01*
Y676750D02*
Y674652D01*
Y681750D02*
Y683848D01*
X805100Y490050D02*
X803000D01*
X805250Y403502D02*
Y419250D01*
Y403502D02*
Y405510D01*
X796250*
X805250Y434998D02*
Y433750D01*
X796250*
X805250Y446750D02*
Y434998D01*
Y659250D02*
X807348D01*
X805250Y679250D02*
X807348D01*
X807750Y487400D02*
Y485301D01*
Y492700D02*
Y494801D01*
Y503450D02*
X800250D01*
X807750D02*
X817750D01*
X810250Y606750D02*
X805250Y611750D01*
X798750*
X810400Y490050D02*
X812500D01*
X812750Y659250D02*
X811950D01*
X813250Y549750D02*
X822300D01*
Y549250*
X813250Y558750D02*
Y557750D01*
X822750*
X813250Y569250D02*
Y558750D01*
Y579250D02*
Y569250D01*
X815100Y490050D02*
X813000D01*
X815250Y612175D02*
Y612250D01*
X825250*
X815750Y526250D02*
Y516250D01*
Y533250D02*
Y526250D01*
X817750Y487400D02*
Y485301D01*
Y492700D02*
Y494801D01*
X820400Y490050D02*
X822500D01*
X822250Y567000D02*
Y564900D01*
Y571500D02*
Y573600D01*
Y577000D02*
Y574900D01*
Y581500D02*
Y583600D01*
X822300Y539250D02*
Y538800D01*
X816750Y533250*
X815750*
X822300Y539250D02*
X833250D01*
Y546750*
X832750*
X822750Y557750D02*
X847750D01*
X850250Y555250*
Y549250*
X843200*
X822750Y557750D02*
X822300D01*
Y554250*
X823000Y599309D02*
X820900D01*
X823000Y621250D02*
X820900D01*
X823250Y641750D02*
X811950D01*
Y644250*
X824750Y514000D02*
Y511900D01*
Y516250D02*
Y526250D01*
Y518500D02*
Y520600D01*
Y524000D02*
Y521900D01*
Y528500D02*
Y530600D01*
Y569250D02*
X826848D01*
X824750Y579250D02*
X826848D01*
X825250Y590309D02*
X810250D01*
X825250Y601809D02*
Y603907D01*
Y623750D02*
Y625848D01*
X827250Y516250D02*
X829348D01*
X827250Y526250D02*
X829348D01*
X827500Y599309D02*
X829600D01*
X827500Y621250D02*
X829600D01*
X832250Y639500D02*
Y637400D01*
Y644000D02*
Y646100D01*
X832750Y506750D02*
X850250D01*
X832750Y679250D02*
X830652D01*
X833000Y599309D02*
X830900D01*
X834750Y641750D02*
X836848D01*
X835250Y403502D02*
Y434998D01*
Y403502D02*
Y394250D01*
X830250Y389250*
Y384250*
X835250Y590309D02*
X825250D01*
X835250Y601809D02*
Y603907D01*
Y676750D02*
Y674652D01*
Y679250D02*
X845750D01*
X835250D02*
Y689250D01*
Y681750D02*
Y683848D01*
X837500Y599309D02*
X839600D01*
X837750Y679250D02*
X839848D01*
X838014Y384250D02*
X835914D01*
X840250Y382014D02*
Y379914D01*
Y386486D02*
Y388586D01*
X840550Y539250D02*
X838451D01*
X842486Y384250D02*
X844586D01*
X843200Y538700D02*
Y536600D01*
Y544250D02*
X850250D01*
Y543750*
X855750*
X843250Y679250D02*
X841152D01*
X845750Y677000D02*
Y674900D01*
Y679250D02*
Y665050D01*
X848750*
X845750Y681500D02*
Y683600D01*
X845850Y539250D02*
X847951D01*
X847250Y641050D02*
X845152D01*
X847250Y665050D02*
X845152D01*
X848750Y639150D02*
Y637049D01*
Y642950D02*
Y645049D01*
Y663150D02*
Y661049D01*
Y666950D02*
Y669049D01*
X850250Y641050D02*
X852348D01*
X850250Y665050D02*
X852348D01*
X852750Y632350D02*
X842750D01*
X852750Y656350D02*
X848150D01*
X842750Y661750*
Y664250*
X837750Y669250*
X835250*
X853500Y534750D02*
X851400D01*
X855250Y562175D02*
X855750D01*
Y543750*
X855250Y571325D02*
Y572809D01*
X837750Y590309*
X835250*
X855750Y532250D02*
Y530152D01*
X856750Y665050D02*
Y641050D01*
X857250Y672250D02*
Y679250D01*
X854750*
X857250Y672250D02*
X856750D01*
Y665050*
X858000Y534750D02*
X860100D01*
X865250Y415116D02*
Y413010D01*
X872750Y405510*
X875250*
X865500Y377250D02*
X863400D01*
X867750Y374750D02*
Y372652D01*
Y386250D02*
X869750D01*
X875250Y391750*
Y405510*
X870000Y377250D02*
X872100D01*
X872002Y469250D02*
X842750D01*
X872002D02*
X873250D01*
Y459250*
X872750Y561750D02*
Y646750D01*
X873250Y459250D02*
Y449250D01*
X883616*
X875250Y412990D02*
X876250D01*
Y424250*
Y433250D02*
X872750D01*
X865250Y425750*
Y423384*
X877750Y571750D02*
Y666750D01*
X882750Y671750*
Y576750D02*
Y651750D01*
X883616Y449250D02*
Y447384D01*
X886750Y444250*
X895250*
X885250Y403502D02*
Y419250D01*
Y403502D02*
Y405510D01*
X875250*
X885250Y434998D02*
Y436750D01*
X880250Y441750*
X877750*
X885250Y434998D02*
Y433250D01*
X876250*
X887750Y595150D02*
Y558350D01*
Y595150D02*
X892750D01*
X890250Y651750D02*
Y661750D01*
X892750Y664250*
Y671750*
X891884Y449250D02*
X900250D01*
X892750Y558350D02*
Y576750D01*
X894010Y459250D02*
X882250D01*
X897750Y558350D02*
Y571750D01*
Y595150D02*
Y581750D01*
X900250Y449250D02*
Y419250D01*
Y449250D02*
X900490D01*
X901490Y450250*
Y459250*
X900250Y646750D02*
Y659250D01*
X902750Y661750*
Y671750*
Y558350D02*
Y551750D01*
X895250*
X887750Y544250*
X902750Y595150D02*
Y621750D01*
X907750Y626750*
X938250*
Y639250*
X903498Y469250D02*
X901490D01*
Y459250*
X903498Y489250D02*
X872002D01*
X903498Y509250D02*
Y509348D01*
X905250Y403502D02*
Y434998D01*
X907750Y558350D02*
Y551750D01*
X900250Y544250*
X895250*
X907750Y595150D02*
Y619250D01*
X912750Y624250*
X955250*
X957750Y626750*
Y631750*
X912750Y558350D02*
Y549250D01*
X902750Y539250*
X912750Y595150D02*
Y616750D01*
X917750Y621750*
X957750*
X961750Y625750*
Y635250*
X959250Y637750*
X958250*
Y639250*
X913014Y384250D02*
X910914D01*
X915250Y382014D02*
Y379914D01*
Y386486D02*
Y388586D01*
Y403502D02*
Y434998D01*
Y403502D02*
Y394250D01*
X905250Y384250*
X917486D02*
X919586D01*
X917750Y541750D02*
Y558350D01*
Y595150D02*
Y616750D01*
X920250Y619250*
X965250*
X977750Y631750*
X920250Y446750D02*
X963250D01*
X920730Y499348D02*
X918630D01*
X922054Y516152D02*
X920569Y514668D01*
X922750Y558350D02*
Y566750D01*
Y595150D02*
Y614250D01*
X925250Y494829D02*
Y492729D01*
X927750Y558350D02*
Y564250D01*
X930250Y566750*
X962750*
X928446Y516152D02*
X929931Y514668D01*
X929770Y499348D02*
X931870D01*
X938750Y647450D02*
X938250D01*
Y639250*
X940730Y499348D02*
X938630D01*
X942750Y671750D02*
Y656150D01*
X945250Y417616D02*
Y410510D01*
X950250Y405510*
X955250*
X945250Y494829D02*
Y492729D01*
Y503868D02*
Y505968D01*
Y514829D02*
Y512729D01*
X946750Y647450D02*
X947250D01*
Y639250*
X947750*
Y631750*
X949770Y499348D02*
X951870D01*
X955250Y405510D02*
Y408030D01*
X965289*
X955250Y422250D02*
Y412990D01*
Y431250D02*
Y439250D01*
Y431250D02*
X947750D01*
X945250Y428750*
Y425884*
X957750Y594250D02*
X962750D01*
Y595150*
X958750Y647450D02*
X958250D01*
Y639250*
X962750Y566750D02*
Y558350D01*
Y595150D02*
Y566750D01*
Y595150D02*
X967750D01*
X962750Y671750D02*
Y656150D01*
X963250Y446750D02*
X970250D01*
X963250Y456750D02*
Y446750D01*
X965289Y408030D02*
Y419250D01*
Y430470D02*
Y431250D01*
X955250*
X966530Y466789D02*
X963250D01*
Y456750*
X966750Y647450D02*
X967250D01*
Y639250*
X967750*
Y631750*
Y576750D02*
Y558350D01*
X970250Y446750D02*
Y444250D01*
X972750Y441750*
Y419250*
X970250Y416750*
Y394250*
Y446750D02*
X973616D01*
X972250Y456750D02*
X981510D01*
X972750Y571750D02*
Y558350D01*
Y581750D02*
Y595150D01*
X975250Y484250D02*
X903498D01*
Y489250*
X977750Y558350D02*
Y536750D01*
Y595150D02*
X978250D01*
Y614750*
X982750Y619250*
Y634250*
X980250Y636750*
X978250*
Y639250*
X977888Y408030D02*
Y399250D01*
X978750Y647450D02*
X978250D01*
Y639250*
X981884Y446750D02*
X1000250D01*
X982750Y558350D02*
Y539250D01*
Y595150D02*
Y611750D01*
X997750Y626750*
Y631750*
X982750Y671750D02*
Y656150D01*
X985927Y496711D02*
X983829D01*
X986549Y408030D02*
X990250D01*
Y439250*
X977750*
X986750Y647450D02*
Y639250D01*
X987250*
X987750*
Y631750*
Y541750D02*
Y558350D01*
Y595150D02*
Y608250D01*
X1002250Y622750*
Y635750*
X999750Y638250*
X998250*
Y639250*
X988014Y384250D02*
X985914D01*
X988970Y479388D02*
Y477970D01*
X985250Y474250*
X937750*
X905250Y441750*
Y434998*
X988970Y495636D02*
Y493537D01*
Y497785D02*
Y499884D01*
X988990Y456750D02*
X988970D01*
Y466789*
X990250Y382014D02*
Y379914D01*
Y386486D02*
Y388586D01*
X992014Y496711D02*
X994112D01*
X992486Y384250D02*
X994586D01*
X992750Y544250D02*
Y558350D01*
Y566750D02*
Y581750D01*
X997750Y586750*
Y595150*
X992750D02*
Y606750D01*
X1017750Y631750*
X995211Y408030D02*
Y399211D01*
X980250Y384250*
X997750Y558350D02*
Y566750D01*
X998750Y647450D02*
X998250D01*
Y639250*
X1000250Y389250D02*
Y411750D01*
X1010250Y421750*
Y439250*
X1000250Y446750D02*
X988990D01*
Y456750*
X1002750Y558350D02*
Y564250D01*
X1005250Y566750*
X1037750*
X1002750Y671750D02*
Y656150D01*
X1005750Y404500D02*
Y402400D01*
Y409000D02*
Y411100D01*
X1006750Y647450D02*
X1007250D01*
Y639250*
X1007750*
Y631750*
X1010250Y491750D02*
X1015211Y496711D01*
X1026530*
X1014750Y406750D02*
Y408010D01*
X1025250*
X1015250Y417616D02*
X1014750D01*
Y406750*
X1018750Y647450D02*
X1018250D01*
Y639250*
X1022750Y671750D02*
Y656150D01*
X1025250Y424750D02*
Y415490D01*
Y433750D02*
X1015250D01*
Y425884*
X1026530Y466789D02*
X1035250D01*
X1026530D02*
X1025750D01*
Y456750*
X1026530Y479388D02*
X1002612D01*
X993951Y488049*
X988970*
X1026530D02*
X1037750D01*
X1040250Y485549*
Y484250*
X1065250*
X1069049Y488049*
X1074030*
X1026750Y647450D02*
Y639250D01*
X1027250*
X1027750*
Y631750*
X1031116Y444250D02*
X1028250D01*
X1025750Y446750*
Y456750*
X1032750Y433750D02*
X1025250D01*
X1032750Y594250D02*
X1037750D01*
Y595150*
X1034750Y456750D02*
X1044010D01*
X1037750Y566750D02*
Y558350D01*
Y595150D02*
Y566750D01*
Y595150D02*
X1042750D01*
X1037789Y408030D02*
Y419250D01*
Y408030D02*
Y408010D01*
X1025250*
X1037789Y430470D02*
Y433750D01*
X1032750*
X1038750Y647450D02*
X1038250D01*
Y639250*
X1039384Y444250D02*
X1045250D01*
X1039384D02*
X1047750D01*
X1051490Y447990*
Y456750*
X1042750Y558350D02*
Y576750D01*
Y671750D02*
Y656150D01*
X1046750Y647450D02*
Y639250D01*
X1047250*
X1047750*
Y631750*
Y558350D02*
Y571750D01*
Y595150D02*
Y581750D01*
X1048970Y466789D02*
X1060250D01*
Y467250*
X1051490Y456750D02*
X1048970D01*
Y466789*
X1052750Y539250D02*
Y558350D01*
Y595150D02*
Y601750D01*
X1047750Y606750*
X1042750*
X1021750Y627750*
Y635250*
X1019250Y637750*
X1018250*
Y639250*
X1057750Y544250D02*
Y558350D01*
Y595150D02*
Y604250D01*
X1037750Y624250*
Y631750*
X1058000Y476250D02*
X1055900D01*
X1059049Y408030D02*
Y389250D01*
X1055250*
Y384250*
X1060250Y467250D02*
X1063250D01*
X1067750Y471750*
X1087750*
X1090250Y469250*
Y466789*
X1096470*
X1060250Y478750D02*
Y480848D01*
X1062500Y476250D02*
X1064600D01*
X1062750Y544250D02*
Y558350D01*
Y595150D02*
Y606750D01*
X1041750Y627750*
Y636750*
X1039250Y639250*
X1038250*
X1063014Y384250D02*
X1060914D01*
X1065250Y382014D02*
Y379914D01*
Y386486D02*
Y388586D01*
X1067486Y384250D02*
X1069586D01*
X1067711Y408030D02*
Y399250D01*
X1067750Y566750D02*
Y581750D01*
X1072750Y586750*
Y595150*
X1067750D02*
Y609250D01*
X1057750Y619250*
Y631750*
X1070250Y518300D02*
Y516199D01*
X1070750Y456750D02*
Y449250D01*
X1073250Y446750*
X1078616*
X1072750Y558350D02*
Y566750D01*
X1074030Y466789D02*
X1082750D01*
X1074030D02*
X1070750D01*
Y456750*
X1074030Y496711D02*
X1070250D01*
Y507550*
X1077750Y558350D02*
Y566750D01*
X1115250*
X1079750Y456750D02*
X1091510D01*
X1081050Y506750D02*
X1070250D01*
Y507550*
X1086884Y446750D02*
X1095250D01*
X1098990Y450490*
Y456750*
X1091250Y647450D02*
X1090750D01*
Y639250*
X1092750Y417616D02*
Y410510D01*
X1097750Y405510*
X1102750*
X1092750Y425884D02*
X1087750D01*
X1094450Y506750D02*
Y507550D01*
X1105250*
X1095250Y671750D02*
Y656150D01*
X1096470Y466789D02*
X1104250D01*
X1111211Y473750*
X1132750*
X1139750Y466750*
X1146470*
Y466789*
X1096470D02*
X1098990D01*
Y456750*
X1096470Y479388D02*
X1074030D01*
X1096470Y496711D02*
Y506750D01*
X1094450*
X1097750Y539250D02*
X1090250Y546750D01*
X1075250*
X1067750Y554250*
Y558350*
X1099250Y647450D02*
Y639250D01*
X1099750*
X1100250*
Y631750*
X1102750Y405510D02*
Y408030D01*
X1115289*
X1102750Y424750D02*
Y412990D01*
Y433750D02*
X1097750D01*
X1092750Y428750*
Y425884*
X1105250Y518300D02*
Y516199D01*
X1110250Y594250D02*
X1115250D01*
Y595150*
X1111250Y647450D02*
X1110750D01*
Y639250*
X1115250Y507550D02*
X1128550D01*
Y506750*
X1115250Y518300D02*
Y516199D01*
Y566750D02*
Y558350D01*
Y595150D02*
X1120250D01*
X1115250D02*
Y566750D01*
Y671750D02*
Y656150D01*
X1115289Y408030D02*
Y419250D01*
Y430470D02*
Y433750D01*
X1102750*
X1119250Y647450D02*
X1119750D01*
Y639250*
X1120250*
Y631750*
Y558350D02*
Y576750D01*
X1123250Y456750D02*
Y451750D01*
X1128250Y446750*
X1131116*
X1124030Y466789D02*
X1117250D01*
X1124030D02*
X1123250D01*
Y456750*
X1124030Y479388D02*
X1146470D01*
X1124030Y488049D02*
X1096470D01*
X1125250Y558350D02*
Y571750D01*
Y595150D02*
Y581750D01*
X1128550Y506750D02*
X1124030D01*
Y496711*
X1130250Y384250D02*
Y390750D01*
X1136250Y396750*
X1136549*
Y408030*
X1130250Y558350D02*
Y544250D01*
Y595150D02*
Y601750D01*
X1125250Y606750*
X1118250*
X1090750Y634250*
Y639250*
X1131250Y647450D02*
X1130750D01*
Y639250*
X1135250Y558350D02*
Y576750D01*
Y595150D02*
Y601750D01*
X1110250Y626750*
Y631750*
X1135250Y671750D02*
Y656150D01*
X1138014Y384250D02*
X1135914D01*
X1139250Y647450D02*
X1139750D01*
Y639250*
X1139384Y446750D02*
X1142750D01*
X1148990Y452990*
Y456750*
X1139750Y639250D02*
X1140250D01*
Y631750*
Y382014D02*
Y379914D01*
Y386486D02*
Y388586D01*
Y558350D02*
Y571750D01*
Y595150D02*
Y604250D01*
X1114250Y630250*
Y635750*
X1111750Y638250*
X1110750*
Y639250*
X1141510Y456750D02*
X1132250D01*
X1141950Y506750D02*
Y507550D01*
X1155250*
X1142486Y384250D02*
X1144586D01*
X1145211Y399250D02*
Y408030D01*
X1145250Y558350D02*
Y539250D01*
Y566750D02*
Y581750D01*
X1150250Y586750*
Y595150*
X1145250D02*
Y606750D01*
X1142750Y609250*
X1130250Y626750*
Y631750*
X1146470Y488049D02*
X1152750D01*
X1160250Y480549*
Y479348*
X1182750*
X1146470Y496711D02*
X1141950D01*
Y506750*
X1148990Y456750D02*
X1146470D01*
Y466789*
X1150250Y558350D02*
Y549250D01*
X1151250Y647450D02*
X1150750D01*
Y639250*
X1155250Y518300D02*
Y516199D01*
Y558350D02*
Y566750D01*
X1165250Y576750*
Y604250*
X1157750*
X1155250Y671750D02*
Y656150D01*
X1158250Y406750D02*
X1156152D01*
X1159250Y647450D02*
Y650250D01*
X1157750Y651750*
X1142750*
X1140250Y649250*
Y647450*
X1139250*
X1159250D02*
X1159750D01*
Y639250*
X1160750Y404500D02*
Y402400D01*
Y409000D02*
Y411100D01*
X1165250Y671750D02*
Y681750D01*
X1168230Y469348D02*
X1166130D01*
X1168230Y489348D02*
X1166130D01*
X1169750Y406750D02*
Y405510D01*
X1180250*
X1169750Y406750D02*
Y419250D01*
Y417616*
X1170250*
Y425884D02*
Y431250D01*
Y576750D02*
Y619250D01*
X1172750Y464829D02*
Y462729D01*
Y473868D02*
Y475968D01*
Y484829D02*
Y482729D01*
Y493868D02*
Y495968D01*
X1175250Y571750D02*
Y621750D01*
X1172750Y624250*
X1140250*
X1134250Y630250*
Y635750*
X1131750Y638250*
X1130750*
Y639250*
X1175250Y681750D02*
Y659250D01*
X1170750*
Y651750*
X1177270Y469348D02*
X1179370D01*
X1177270Y489348D02*
X1179370D01*
X1180050Y506750D02*
X1177951D01*
X1180250Y405510D02*
Y408030D01*
X1190289*
X1180250Y422250D02*
Y412990D01*
Y431250D02*
Y431750D01*
X1170250*
Y425884*
X1180250Y544250D02*
Y621750D01*
X1170250Y631750*
X1157750*
X1154250Y635250*
Y635750*
X1151750Y638250*
X1150750*
Y639250*
X1183550Y502500D02*
Y500400D01*
Y511000D02*
Y513100D01*
X1185250Y581750D02*
Y651750D01*
X1179750*
X1187050Y506750D02*
X1189152D01*
X1188230Y469348D02*
X1186130D01*
X1188230Y489348D02*
X1186130D01*
X1190250Y651750D02*
X1179750D01*
X1190289Y408030D02*
Y419250D01*
Y430470D02*
Y431250D01*
X1180250*
X1192750Y464829D02*
Y462729D01*
Y473868D02*
Y475968D01*
Y484829D02*
Y482729D01*
Y493868D02*
Y495968D01*
X1195750Y446750D02*
X1193652D01*
X1197270Y469348D02*
X1199370D01*
X1197270Y489348D02*
X1199370D01*
X1198146Y551854D02*
X1200100Y549900D01*
X1198146Y556646D02*
X1200100Y558600D01*
X1198250Y444500D02*
Y442400D01*
Y449000D02*
Y451100D01*
X1200250Y599829D02*
Y597729D01*
Y608868D02*
Y610968D01*
Y619829D02*
Y617729D01*
X1202888Y408030D02*
Y400750D01*
X1202750*
X1200250Y398250*
Y389250*
X1204750Y554250D02*
X1217750D01*
Y555510*
X1204770Y604348D02*
X1206870D01*
X1205250Y384250D02*
X1205750D01*
Y391250*
X1211549Y397049*
Y408030*
X1205250Y565116D02*
X1204750D01*
Y554250*
X1207250Y446750D02*
X1210250D01*
Y462616*
X1207750Y510116D02*
X1196950D01*
Y506750*
X1207750Y510116D02*
Y500510D01*
X1217750*
X1207750Y526250D02*
Y518384D01*
X1210250Y470884D02*
X1205250D01*
X1213014Y384250D02*
X1210914D01*
X1215250Y382014D02*
Y379914D01*
Y386486D02*
Y388586D01*
X1215730Y604348D02*
X1213630D01*
X1217486Y384250D02*
X1219586D01*
X1217750Y445510D02*
X1207250D01*
Y446750*
X1217750Y462250D02*
Y452990D01*
Y471250D02*
X1210250D01*
Y470884*
X1217750Y517250D02*
Y507990D01*
Y526250D02*
X1207750D01*
X1217750Y555510D02*
Y558030D01*
X1227789*
X1217750Y572250D02*
Y562990D01*
Y581250D02*
Y579250D01*
X1205250*
Y573384*
X1220211Y408030D02*
Y399250D01*
X1220250*
Y599829D02*
Y597729D01*
Y608868D02*
Y610968D01*
Y619829D02*
Y617729D01*
Y644750D02*
Y644250D01*
X1224770Y604348D02*
X1226870D01*
X1227789Y448030D02*
Y445510D01*
X1217750*
X1227789Y470470D02*
Y471250D01*
X1217750*
X1227789Y503030D02*
Y500510D01*
X1217750*
X1227789Y525470D02*
Y526250D01*
X1217750*
X1227789Y580470D02*
Y581250D01*
X1217750*
X1235730Y604348D02*
X1233630D01*
X1240250Y599829D02*
Y597729D01*
Y608868D02*
Y610968D01*
Y619829D02*
Y617729D01*
X1240388Y470470D02*
Y448030D01*
Y503030D02*
Y525470D01*
X1244770Y604348D02*
X1246870D01*
X1249049Y448030D02*
Y434329D01*
X1222750Y408030*
X1220211*
X1249049Y470470D02*
Y503030D01*
Y525470D02*
Y539250D01*
X1240388Y547911*
Y558030*
X1249049D02*
X1252750D01*
Y586750*
X1247750Y591750*
X1240250*
X1230250Y601750*
Y614348*
X1210250*
X1252750Y394250D02*
Y541750D01*
X1245250Y549250*
Y564250*
X1237750Y571750*
X1227789*
Y580470*
X1255730Y604348D02*
X1253630D01*
X1257711Y448030D02*
Y436750D01*
X1258550*
X1257711Y448030D02*
Y452550D01*
X1270250*
X1257711Y470470D02*
Y465950D01*
X1270250*
X1257711Y503030D02*
Y507550D01*
X1270250*
X1257711Y525470D02*
Y520950D01*
X1270250*
X1257711Y558030D02*
X1265250D01*
Y586750*
X1250250Y601750*
Y614348*
X1258550Y481750D02*
X1257711D01*
Y470470*
X1258550Y491750D02*
X1257711D01*
Y503030*
X1258550Y536750D02*
X1257711D01*
Y525470*
X1260250Y599829D02*
Y597729D01*
Y608868D02*
Y610968D01*
Y619829D02*
Y617729D01*
X1264770Y604348D02*
X1266870D01*
X1269300Y436750D02*
X1267199D01*
X1269300Y481750D02*
X1267199D01*
X1269300Y491750D02*
X1267199D01*
X1269300Y536750D02*
X1267199D01*
X1271950Y434100D02*
Y432000D01*
Y439400D02*
Y441500D01*
Y479100D02*
Y477000D01*
Y484400D02*
Y486500D01*
Y489100D02*
Y487000D01*
Y494400D02*
Y496500D01*
Y534100D02*
Y532000D01*
Y539400D02*
Y541500D01*
X1274600Y436750D02*
X1276699D01*
X1274600Y481750D02*
X1276699D01*
X1274600Y491750D02*
X1276699D01*
X1274600Y536750D02*
X1276699D01*
D02*
D17*
X700250Y364250D03*
Y674250D03*
X1260250Y364250D03*
Y674250D03*
D02*
D18*
X690250Y576750D03*
Y586750D03*
Y596750D03*
Y619250D03*
Y629250D03*
Y639250D03*
X792750Y659250D03*
Y679250D03*
X802750Y659250D03*
Y679250D03*
X812750Y659250D03*
Y679250D03*
X835250Y659250D03*
Y669250D03*
Y679250D03*
X1207750Y539250D03*
X1217750D03*
D02*
D19*
X872750Y671750D03*
Y681750D03*
X882750Y671750D03*
Y681750D03*
X892750Y671750D03*
Y681750D03*
X902750Y671750D03*
Y681750D03*
X912750Y671750D03*
Y681750D03*
X942750Y671750D03*
Y681750D03*
X952750Y671750D03*
Y681750D03*
X962750Y671750D03*
Y681750D03*
X972750Y671750D03*
Y681750D03*
X982750Y671750D03*
Y681750D03*
X992750Y671750D03*
Y681750D03*
X1002750Y671750D03*
Y681750D03*
X1012750Y671750D03*
Y681750D03*
X1022750Y671750D03*
Y681750D03*
X1032750Y671750D03*
Y681750D03*
X1042750Y671750D03*
Y681750D03*
X1052750Y671750D03*
Y681750D03*
X1062750Y671750D03*
Y681750D03*
X1095250Y671750D03*
Y681750D03*
X1105250Y671750D03*
Y681750D03*
X1115250Y671750D03*
Y681750D03*
X1125250Y671750D03*
Y681750D03*
X1135250Y671750D03*
Y681750D03*
X1145250Y671750D03*
Y681750D03*
X1155250Y671750D03*
Y681750D03*
X1165250Y671750D03*
Y681750D03*
D02*
D71*
X698250Y516750D03*
X707250D03*
X718250D03*
X723250Y569250D03*
Y614250D03*
X727250Y516750D03*
X732250Y569250D03*
Y614250D03*
X743250Y624250D03*
Y636750D03*
Y646750D03*
X748250Y566750D03*
Y576750D03*
X752250Y624250D03*
Y636750D03*
Y646750D03*
X753250Y661750D03*
Y671750D03*
Y681750D03*
X757250Y566750D03*
Y576750D03*
X762250Y661750D03*
Y671750D03*
Y681750D03*
X771250Y514250D03*
Y524250D03*
X780250Y514250D03*
Y524250D03*
X813250Y569250D03*
Y579250D03*
X815750Y516250D03*
Y526250D03*
X822250Y569250D03*
Y579250D03*
X823250Y641750D03*
X824750Y516250D03*
Y526250D03*
X832250Y641750D03*
X845750Y679250D03*
X854750D03*
X873250Y459250D03*
X882250D03*
X938250Y639250D03*
X947250D03*
X958250D03*
X963250Y456750D03*
X967250Y639250D03*
X972250Y456750D03*
X978250Y639250D03*
X987250D03*
X998250D03*
X1005750Y406750D03*
X1007250Y639250D03*
X1014750Y406750D03*
X1018250Y639250D03*
X1025750Y456750D03*
X1027250Y639250D03*
X1034750Y456750D03*
X1038250Y639250D03*
X1047250D03*
X1070750Y456750D03*
X1079750D03*
X1090750Y639250D03*
X1099750D03*
X1110750D03*
X1119750D03*
X1123250Y456750D03*
X1130750Y639250D03*
X1132250Y456750D03*
X1139750Y639250D03*
X1150750D03*
X1159750D03*
X1160750Y406750D03*
X1169750D03*
X1170750Y651750D03*
X1179750D03*
X1195750Y554250D03*
X1198250Y446750D03*
X1204750Y554250D03*
X1207250Y446750D03*
D02*
D20*
X776750Y611750D03*
Y616750D03*
Y621750D03*
Y626750D03*
X798750Y611750D03*
Y616750D03*
Y621750D03*
Y626750D03*
D02*
D21*
X702750Y567250D03*
Y576250D03*
Y587250D03*
Y596250D03*
Y614750D03*
Y623750D03*
Y634750D03*
Y643750D03*
X711250Y424750D03*
Y433750D03*
X712750Y567250D03*
Y576250D03*
Y587250D03*
Y596250D03*
Y614750D03*
Y623750D03*
Y634750D03*
Y643750D03*
X742750Y547250D03*
Y556250D03*
X757750Y587250D03*
Y596250D03*
X767750Y587250D03*
Y596250D03*
X787750Y537750D03*
Y546750D03*
X796250Y424750D03*
Y433750D03*
X813250Y549750D03*
Y558750D03*
X825250Y590309D03*
Y599309D03*
Y612250D03*
Y621250D03*
X835250Y590309D03*
Y599309D03*
X855750Y534750D03*
Y543750D03*
X867750Y377250D03*
Y386250D03*
X876250Y424250D03*
Y433250D03*
X955250Y422250D03*
Y431250D03*
X1025250Y424750D03*
Y433750D03*
X1060250Y467250D03*
Y476250D03*
X1102750Y424750D03*
Y433750D03*
X1180250Y422250D03*
Y431250D03*
X1190250Y642750D03*
Y651750D03*
X1217750Y462250D03*
Y471250D03*
Y517250D03*
Y526250D03*
Y572250D03*
Y581250D03*
X1220250Y644750D03*
Y653750D03*
D02*
D22*
X688550Y519250D03*
X720250Y419250D03*
X725250Y596250D03*
Y646750D03*
X735250Y441750D03*
Y506750D03*
Y536750D03*
X742750Y516750D03*
X760250Y391750D03*
X762250Y689750D03*
X762750Y654250D03*
X770250Y459250D03*
X771250Y531750D03*
X777750Y434998D03*
X780250Y604250D03*
X787750Y459250D03*
X790250Y604250D03*
X795250Y546750D03*
Y586750D03*
X800250Y503450D03*
Y559250D03*
Y631750D03*
X800750Y526750D03*
X805250Y419250D03*
Y446750D03*
X810250Y590309D03*
Y606750D03*
X815750Y533250D03*
X832750Y506750D03*
X842750Y469250D03*
Y632350D03*
X845250Y391750D03*
X850250Y506750D03*
X857250Y672250D03*
X860250Y476750D03*
Y499250D03*
X872750Y561750D03*
Y646750D03*
X877750Y441750D03*
Y571750D03*
X882750Y576750D03*
Y651750D03*
X885250Y419250D03*
X887750Y544250D03*
X890250Y604250D03*
Y651750D03*
X892750Y576750D03*
X895250Y444250D03*
Y544250D03*
X897750Y571750D03*
Y581750D03*
X900250Y419250D03*
Y646750D03*
X902750Y539250D03*
X917750Y541750D03*
X920250Y446750D03*
X922750Y566750D03*
Y614250D03*
X925250Y391750D03*
X927750Y586750D03*
X947750Y631750D03*
X955250Y439250D03*
X957750Y631750D03*
X965289Y419250D03*
X967750Y576750D03*
Y631750D03*
X970250Y394250D03*
X972750Y571750D03*
Y581750D03*
X975250Y484250D03*
X977750Y439250D03*
Y536750D03*
Y631750D03*
X977888Y399250D03*
X982750Y539250D03*
X987750Y541750D03*
Y631750D03*
X992750Y544250D03*
Y566750D03*
X997750D03*
Y631750D03*
X1000250Y389250D03*
Y446750D03*
X1002750Y586750D03*
X1007750Y631750D03*
X1010250Y439250D03*
Y491750D03*
X1015250Y434250D03*
X1017750Y631750D03*
X1027750D03*
X1032750Y433750D03*
X1035250Y466789D03*
X1037750Y631750D03*
X1037789Y419250D03*
X1042750Y576750D03*
X1045250Y444250D03*
X1047750Y571750D03*
Y581750D03*
Y631750D03*
X1052750Y539250D03*
X1057750Y544250D03*
Y631750D03*
X1062750Y544250D03*
X1067711Y399250D03*
X1067750Y566750D03*
X1072750D03*
X1077750Y586750D03*
X1082750Y466789D03*
X1087750Y425884D03*
X1092750Y586750D03*
Y614250D03*
X1097750Y539250D03*
X1100250Y631750D03*
X1110250D03*
X1115289Y419250D03*
X1117250Y466789D03*
X1120250Y576750D03*
Y631750D03*
X1125250Y571750D03*
Y581750D03*
X1130250Y544250D03*
Y631750D03*
X1135250Y576750D03*
X1140250Y571750D03*
Y631750D03*
X1145211Y399250D03*
X1145250Y539250D03*
Y566750D03*
X1150250Y549250D03*
Y631750D03*
X1155250Y586750D03*
X1170250Y431250D03*
Y576750D03*
Y619250D03*
X1175250Y571750D03*
X1180250Y544250D03*
X1185250Y581750D03*
X1190250Y634250D03*
X1190289Y419250D03*
X1200250Y389250D03*
X1205250Y470884D03*
X1207750Y526250D03*
Y664250D03*
X1220250Y399250D03*
X1232750Y484250D03*
X1252750Y394250D03*
D02*
D23*
X775250Y665050D02*
X792750D01*
Y659250*
X835250D02*
X812750D01*
X890250Y604250D02*
X887750Y601750D01*
Y595150*
X927750D02*
Y586750D01*
X1002750Y595150D02*
Y586750D01*
X1077750Y595150D02*
Y586750D01*
X1092750Y614250D02*
Y586750D01*
X1155250Y595150D02*
Y586750D01*
X1185250Y667550D02*
Y659250D01*
X1195250*
X1200250Y654250*
Y653750*
X1207750*
X1190250Y642750D02*
Y634250D01*
X1198850Y664250D02*
X1207750D01*
X1198850Y669250D02*
X1221650D01*
X1198850Y674250D02*
X1192750D01*
X1187750Y679250*
X1185250*
Y680950*
X1198850Y674250D02*
Y669250D01*
X1207750Y653750D02*
Y650250D01*
X1200250Y642750*
X1190250*
X1217750Y539250D02*
X1227789D01*
X1220250Y644250D02*
X1235250D01*
X1220250Y653750D02*
X1207750D01*
X1220250D02*
Y664250D01*
X1221650*
Y674250D02*
Y669250D01*
X1227789Y503030D02*
Y489211D01*
X1232750Y484250*
X1227789Y539250D02*
Y539211D01*
X1232750Y534250*
Y516750*
X1227750Y511750*
Y503030*
X1227789*
Y558030D02*
Y539250D01*
X1232750Y484250D02*
Y455750D01*
X1228750Y451750*
X1227789*
Y448030*
D02*
D75*
X769750Y549250D03*
X832750Y546750D03*
X957750Y594250D03*
X1032750D03*
X1110250D03*
X1157750Y604250D03*
X1175250Y681750D03*
D02*
D76*
X736510Y671750D03*
Y681750D03*
X743990Y671750D03*
Y681750D03*
X894010Y459250D03*
X901490D03*
X981510Y456750D03*
X988990D03*
X1044010D03*
X1051490D03*
X1091510D03*
X1098990D03*
X1141510D03*
X1148990D03*
D02*
D77*
X740250Y471750D03*
Y481750D03*
X760250Y461750D03*
Y471750D03*
X777750Y476750D03*
Y486750D03*
X797750Y466750D03*
Y476750D03*
D02*
D78*
X705250Y461848D03*
X935250Y509348D03*
X1182750Y479348D03*
X1210250Y614348D03*
X1250250D03*
D02*
D79*
X695250Y451848D03*
Y471848D03*
X715250Y451848D03*
Y471848D03*
X925250Y499348D03*
Y519348D03*
X945250Y499348D03*
Y519348D03*
X1172750Y469348D03*
Y489348D03*
X1192750Y469348D03*
Y489348D03*
X1200250Y604348D03*
Y624348D03*
X1220250Y604348D03*
Y624348D03*
X1240250Y604348D03*
Y624348D03*
X1260250Y604348D03*
Y624348D03*
D02*
D81*
X760250Y403502D02*
Y391750D01*
Y403502D02*
Y434998D01*
X777750*
X802750Y679250D02*
Y684250D01*
X807750Y689250*
X835250*
X811950Y659250D02*
Y644250D01*
X835250Y689250D02*
X867750D01*
X872750Y684250*
Y681750*
X845250Y391750D02*
Y403502D01*
Y434998*
X860250Y476750D02*
X797750D01*
X872002Y499250D02*
X860250D01*
X872750Y681750D02*
X882750D01*
X892750*
X902750*
X912750*
X903498Y499250D02*
X872002D01*
X903498Y509250D02*
X872002D01*
X903498Y509348D02*
X935250D01*
X912750Y681750D02*
X942750D01*
X925250Y403502D02*
Y391750D01*
Y403502D02*
Y434998D01*
X942750Y681750D02*
X952750D01*
X962750*
X972750*
X982750*
X992750*
X1002750*
X1012750*
X1022750*
X1032750*
X1042750*
X1052750*
Y686750*
X1055250Y689250*
X1090250*
X1095250Y684250*
Y681750*
X1105250D02*
X1115250D01*
X1105250D02*
X1095250D01*
X1115250D02*
X1125250D01*
X1135250*
X1145250*
X1155250*
Y686750*
X1157750Y689250*
X1175250*
Y680950*
X1185250*
X1235250Y644250D02*
Y679250D01*
X1225250Y689250*
X1175250*
X1240250Y624348D02*
Y639250D01*
X1235250Y644250*
D02*
D89*
X883616Y449250D03*
X891884D03*
X973616Y446750D03*
X981884D03*
X1031116Y444250D03*
X1039384D03*
X1078616Y446750D03*
X1086884D03*
X1131116D03*
X1139384D03*
D02*
D91*
X735250Y364250D03*
X775250D03*
X810250D03*
X850250D03*
X885250D03*
X925250D03*
X960250D03*
X1000250D03*
X1035250D03*
X1075250D03*
X1110250D03*
X1150250D03*
X1185250D03*
X1225250D03*
D02*
D92*
X755250Y384250D03*
X765250D03*
X830250D03*
X840250D03*
X905250D03*
X915250D03*
X980250D03*
X990250D03*
X1055250D03*
X1065250D03*
X1130250D03*
X1140250D03*
X1205250D03*
X1215250D03*
D02*
D93*
X720250Y403502D03*
Y434998D03*
X740250Y403502D03*
Y434998D03*
X750250Y403502D03*
Y434998D03*
X760250Y403502D03*
Y434998D03*
X805250Y403502D03*
Y434998D03*
X825250Y403502D03*
Y434998D03*
X835250Y403502D03*
Y434998D03*
X845250Y403502D03*
Y434998D03*
X885250Y403502D03*
Y434998D03*
X905250Y403502D03*
Y434998D03*
X915250Y403502D03*
Y434998D03*
X925250Y403502D03*
Y434998D03*
D02*
D94*
X711250Y405510D03*
Y412990D03*
X796250Y405510D03*
Y412990D03*
X875250Y405510D03*
Y412990D03*
X955250Y405510D03*
Y412990D03*
X1025250Y408010D03*
Y415490D03*
X1102750Y405510D03*
Y412990D03*
X1180250Y405510D03*
Y412990D03*
X1217750Y445510D03*
Y452990D03*
Y500510D03*
Y507990D03*
Y555510D03*
Y562990D03*
D02*
D95*
X687750Y537550D03*
Y550950D03*
X688550Y526750D03*
X701950D03*
X702750Y537550D03*
Y550950D03*
X708550Y489250D03*
Y499250D03*
X712750Y537550D03*
Y550950D03*
X713550Y526750D03*
X721950Y489250D03*
Y499250D03*
X726950Y526750D03*
X727750Y537550D03*
Y550950D03*
X807750Y490050D03*
Y503450D03*
X817750Y490050D03*
Y503450D03*
X1070250Y507550D03*
Y520950D03*
X1081050Y506750D03*
X1094450D03*
X1105250Y507550D03*
Y520950D03*
X1115250Y507550D03*
Y520950D03*
X1128550Y506750D03*
X1141950D03*
X1155250Y507550D03*
Y520950D03*
X1258550Y436750D03*
Y481750D03*
Y491750D03*
Y536750D03*
X1270250Y452550D03*
Y465950D03*
Y507550D03*
Y520950D03*
X1271950Y436750D03*
Y481750D03*
Y491750D03*
Y536750D03*
D02*
D96*
X702250Y414116D03*
Y422384D03*
X787750Y417616D03*
Y425884D03*
X865250Y415116D03*
Y423384D03*
X945250Y417616D03*
Y425884D03*
X1015250Y417616D03*
Y425884D03*
X1092750Y417616D03*
Y425884D03*
X1170250Y417616D03*
Y425884D03*
X1205250Y565116D03*
Y573384D03*
X1207750Y510116D03*
Y518384D03*
X1210250Y462616D03*
Y470884D03*
D02*
D97*
X966530Y466789D03*
Y479388D03*
Y488049D03*
Y496711D03*
X988970Y466789D03*
Y479388D03*
Y488049D03*
Y496711D03*
X1026530Y466789D03*
Y479388D03*
Y488049D03*
Y496711D03*
X1048970Y466789D03*
Y479388D03*
Y488049D03*
Y496711D03*
X1074030Y466789D03*
Y479388D03*
Y488049D03*
Y496711D03*
X1096470Y466789D03*
Y479388D03*
Y488049D03*
Y496711D03*
X1124030Y466789D03*
Y479388D03*
Y488049D03*
Y496711D03*
X1146470Y466789D03*
Y479388D03*
Y488049D03*
Y496711D03*
D02*
D98*
X872002Y469250D03*
Y489250D03*
Y499250D03*
Y509250D03*
X903498Y469250D03*
Y489250D03*
Y499250D03*
Y509250D03*
D02*
D99*
X965289Y408030D03*
Y430470D03*
X977888Y408030D03*
Y430470D03*
X986549Y408030D03*
Y430470D03*
X995211Y408030D03*
Y430470D03*
X1037789Y408030D03*
Y430470D03*
X1050388Y408030D03*
Y430470D03*
X1059049Y408030D03*
Y430470D03*
X1067711Y408030D03*
Y430470D03*
X1115289Y408030D03*
Y430470D03*
X1127888Y408030D03*
Y430470D03*
X1136549Y408030D03*
Y430470D03*
X1145211Y408030D03*
Y430470D03*
X1190289Y408030D03*
Y430470D03*
X1202888Y408030D03*
Y430470D03*
X1211549Y408030D03*
Y430470D03*
X1220211Y408030D03*
Y430470D03*
X1227789Y448030D03*
Y470470D03*
Y503030D03*
Y525470D03*
Y558030D03*
Y580470D03*
X1240388Y448030D03*
Y470470D03*
Y503030D03*
Y525470D03*
Y558030D03*
Y580470D03*
X1249049Y448030D03*
Y470470D03*
Y503030D03*
Y525470D03*
Y558030D03*
Y580470D03*
X1257711Y448030D03*
Y470470D03*
Y503030D03*
Y525470D03*
Y558030D03*
Y580470D03*
D02*
D100*
X887750Y558350D03*
Y595150D03*
X892750Y558350D03*
Y595150D03*
X897750Y558350D03*
Y595150D03*
X902750Y558350D03*
Y595150D03*
X907750Y558350D03*
Y595150D03*
X912750Y558350D03*
Y595150D03*
X917750Y558350D03*
Y595150D03*
X922750Y558350D03*
Y595150D03*
X927750Y558350D03*
Y595150D03*
X932750Y558350D03*
Y595150D03*
X962750Y558350D03*
Y595150D03*
X967750Y558350D03*
Y595150D03*
X972750Y558350D03*
Y595150D03*
X977750Y558350D03*
Y595150D03*
X982750Y558350D03*
Y595150D03*
X987750Y558350D03*
Y595150D03*
X992750Y558350D03*
Y595150D03*
X997750Y558350D03*
Y595150D03*
X1002750Y558350D03*
Y595150D03*
X1007750Y558350D03*
Y595150D03*
X1037750Y558350D03*
Y595150D03*
X1042750Y558350D03*
Y595150D03*
X1047750Y558350D03*
Y595150D03*
X1052750Y558350D03*
Y595150D03*
X1057750Y558350D03*
Y595150D03*
X1062750Y558350D03*
Y595150D03*
X1067750Y558350D03*
Y595150D03*
X1072750Y558350D03*
Y595150D03*
X1077750Y558350D03*
Y595150D03*
X1082750Y558350D03*
Y595150D03*
X1115250Y558350D03*
Y595150D03*
X1120250Y558350D03*
Y595150D03*
X1125250Y558350D03*
Y595150D03*
X1130250Y558350D03*
Y595150D03*
X1135250Y558350D03*
Y595150D03*
X1140250Y558350D03*
Y595150D03*
X1145250Y558350D03*
Y595150D03*
X1150250Y558350D03*
Y595150D03*
X1155250Y558350D03*
Y595150D03*
X1160250Y558350D03*
Y595150D03*
D02*
D101*
X848750Y641050D03*
Y665050D03*
X852750Y632350D03*
Y656350D03*
X856750Y641050D03*
Y665050D03*
X938750Y647450D03*
X942750Y656150D03*
X946750Y647450D03*
X958750D03*
X962750Y656150D03*
X966750Y647450D03*
X978750D03*
X982750Y656150D03*
X986750Y647450D03*
X998750D03*
X1002750Y656150D03*
X1006750Y647450D03*
X1018750D03*
X1022750Y656150D03*
X1026750Y647450D03*
X1038750D03*
X1042750Y656150D03*
X1046750Y647450D03*
X1091250D03*
X1095250Y656150D03*
X1099250Y647450D03*
X1111250D03*
X1115250Y656150D03*
X1119250Y647450D03*
X1131250D03*
X1135250Y656150D03*
X1139250Y647450D03*
X1151250D03*
X1155250Y656150D03*
X1159250Y647450D03*
D02*
D102*
X759800Y541750D03*
Y546750D03*
Y551750D03*
Y556750D03*
X780700Y541750D03*
Y546750D03*
Y551750D03*
Y556750D03*
X822300Y539250D03*
Y544250D03*
Y549250D03*
Y554250D03*
X843200Y539250D03*
Y544250D03*
Y549250D03*
Y554250D03*
D02*
D103*
X770250Y549250D03*
X832750Y546750D03*
D02*
D104*
X762750Y622175D03*
Y631325D03*
X777750Y587175D03*
Y596325D03*
X815250Y612175D03*
Y621325D03*
X855250Y562175D03*
Y571325D03*
D02*
D105*
X798550Y644250D03*
X811950D03*
X1183550Y506750D03*
X1196950D03*
D02*
D106*
X1198850Y664250D03*
Y669250D03*
Y674250D03*
Y679250D03*
X1221650Y664250D03*
Y669250D03*
Y674250D03*
Y679250D03*
D02*
D107*
X775250Y665050D03*
Y678450D03*
X1185250Y667550D03*
Y680950D03*
X0Y0D02*
M02*
