G04 EasyPC Gerber Version 20.0.2 Build 4112 *
G04 #@! TF.Part,Single*
G04 #@! TF.FileFunction,Paste,Top *
%FSLAX35Y35*%
%MOIN*%
G04 #@! TA.AperFunction,SMDPad*
%ADD129R,0.01211X0.03337*%
%ADD141R,0.01369X0.03632*%
%ADD136R,0.01600X0.07200*%
%ADD135R,0.02550X0.06487*%
%ADD132R,0.02943X0.04912*%
%ADD125R,0.03337X0.08061*%
%ADD137R,0.03400X0.04200*%
%ADD127R,0.04900X0.05400*%
%ADD142R,0.07400X0.08900*%
%ADD128R,0.05700X0.05700*%
%ADD139R,0.08400X0.08400*%
%ADD143O,0.06600X0.01900*%
%ADD133R,0.03337X0.01211*%
%ADD138R,0.05700X0.01500*%
%ADD140R,0.07400X0.01900*%
%ADD130R,0.06487X0.02550*%
%ADD126R,0.04912X0.02943*%
%ADD134R,0.08061X0.03337*%
%ADD131R,0.05400X0.04900*%
%ADD144R,0.08900X0.07400*%
X0Y0D02*
D02*
D125*
X720250Y403502D03*
Y434998D03*
X740250Y403502D03*
Y434998D03*
X750250Y403502D03*
Y434998D03*
X760250Y403502D03*
Y434998D03*
X805250Y403502D03*
Y434998D03*
X825250Y403502D03*
Y434998D03*
X835250Y403502D03*
Y434998D03*
X845250Y403502D03*
Y434998D03*
X885250Y403502D03*
Y434998D03*
X905250Y403502D03*
Y434998D03*
X915250Y403502D03*
Y434998D03*
X925250Y403502D03*
Y434998D03*
D02*
D126*
X711250Y405510D03*
Y412990D03*
X796250Y405510D03*
Y412990D03*
X875250Y405510D03*
Y412990D03*
X955250Y405510D03*
Y412990D03*
X1025250Y408010D03*
Y415490D03*
X1102750Y405510D03*
Y412990D03*
X1180250Y405510D03*
Y412990D03*
X1217750Y445510D03*
Y452990D03*
Y500510D03*
Y507990D03*
Y555510D03*
Y562990D03*
D02*
D127*
X702750Y567250D03*
Y576250D03*
Y587250D03*
Y596250D03*
Y614750D03*
Y623750D03*
Y634750D03*
Y643750D03*
X711250Y424750D03*
Y433750D03*
X712750Y567250D03*
Y576250D03*
Y587250D03*
Y596250D03*
Y614750D03*
Y623750D03*
Y634750D03*
Y643750D03*
X742750Y547250D03*
Y556250D03*
X757750Y587250D03*
Y596250D03*
X767750Y587250D03*
Y596250D03*
X787750Y537750D03*
Y546750D03*
X796250Y424750D03*
Y433750D03*
X813250Y549750D03*
Y558750D03*
X825250Y590309D03*
Y599309D03*
Y612250D03*
Y621250D03*
X835250Y590309D03*
Y599309D03*
X855750Y534750D03*
Y543750D03*
X867750Y377250D03*
Y386250D03*
X876250Y424250D03*
Y433250D03*
X955250Y422250D03*
Y431250D03*
X1025250Y424750D03*
Y433750D03*
X1060250Y467250D03*
Y476250D03*
X1102750Y424750D03*
Y433750D03*
X1180250Y422250D03*
Y431250D03*
X1190250Y642750D03*
Y651750D03*
X1217750Y462250D03*
Y471250D03*
Y517250D03*
Y526250D03*
Y572250D03*
Y581250D03*
X1220250Y644750D03*
Y653750D03*
D02*
D128*
X687750Y537550D03*
Y550950D03*
X688550Y526750D03*
X701950D03*
X702750Y537550D03*
Y550950D03*
X708550Y489250D03*
Y499250D03*
X712750Y537550D03*
Y550950D03*
X713550Y526750D03*
X721950Y489250D03*
Y499250D03*
X726950Y526750D03*
X727750Y537550D03*
Y550950D03*
X807750Y490050D03*
Y503450D03*
X817750Y490050D03*
Y503450D03*
X1070250Y507550D03*
Y520950D03*
X1081050Y506750D03*
X1094450D03*
X1105250Y507550D03*
Y520950D03*
X1115250Y507550D03*
Y520950D03*
X1128550Y506750D03*
X1141950D03*
X1155250Y507550D03*
Y520950D03*
X1258550Y436750D03*
Y481750D03*
Y491750D03*
Y536750D03*
X1270250Y452550D03*
Y465950D03*
Y507550D03*
Y520950D03*
X1271950Y436750D03*
Y481750D03*
Y491750D03*
Y536750D03*
D02*
D129*
X702250Y414116D03*
Y422384D03*
X787750Y417616D03*
Y425884D03*
X865250Y415116D03*
Y423384D03*
X945250Y417616D03*
Y425884D03*
X1015250Y417616D03*
Y425884D03*
X1092750Y417616D03*
Y425884D03*
X1170250Y417616D03*
Y425884D03*
X1205250Y565116D03*
Y573384D03*
X1207750Y510116D03*
Y518384D03*
X1210250Y462616D03*
Y470884D03*
D02*
D130*
X966530Y466789D03*
Y479388D03*
Y488049D03*
Y496711D03*
X988970Y466789D03*
Y479388D03*
Y488049D03*
Y496711D03*
X1026530Y466789D03*
Y479388D03*
Y488049D03*
Y496711D03*
X1048970Y466789D03*
Y479388D03*
Y488049D03*
Y496711D03*
X1074030Y466789D03*
Y479388D03*
Y488049D03*
Y496711D03*
X1096470Y466789D03*
Y479388D03*
Y488049D03*
Y496711D03*
X1124030Y466789D03*
Y479388D03*
Y488049D03*
Y496711D03*
X1146470Y466789D03*
Y479388D03*
Y488049D03*
Y496711D03*
D02*
D131*
X698250Y516750D03*
X707250D03*
X718250D03*
X723250Y569250D03*
Y614250D03*
X727250Y516750D03*
X732250Y569250D03*
Y614250D03*
X743250Y624250D03*
Y636750D03*
Y646750D03*
X748250Y566750D03*
Y576750D03*
X752250Y624250D03*
Y636750D03*
Y646750D03*
X753250Y661750D03*
Y671750D03*
Y681750D03*
X757250Y566750D03*
Y576750D03*
X762250Y661750D03*
Y671750D03*
Y681750D03*
X771250Y514250D03*
Y524250D03*
X780250Y514250D03*
Y524250D03*
X813250Y569250D03*
Y579250D03*
X815750Y516250D03*
Y526250D03*
X822250Y569250D03*
Y579250D03*
X823250Y641750D03*
X824750Y516250D03*
Y526250D03*
X832250Y641750D03*
X845750Y679250D03*
X854750D03*
X873250Y459250D03*
X882250D03*
X938250Y639250D03*
X947250D03*
X958250D03*
X963250Y456750D03*
X967250Y639250D03*
X972250Y456750D03*
X978250Y639250D03*
X987250D03*
X998250D03*
X1005750Y406750D03*
X1007250Y639250D03*
X1014750Y406750D03*
X1018250Y639250D03*
X1025750Y456750D03*
X1027250Y639250D03*
X1034750Y456750D03*
X1038250Y639250D03*
X1047250D03*
X1070750Y456750D03*
X1079750D03*
X1090750Y639250D03*
X1099750D03*
X1110750D03*
X1119750D03*
X1123250Y456750D03*
X1130750Y639250D03*
X1132250Y456750D03*
X1139750Y639250D03*
X1150750D03*
X1159750D03*
X1160750Y406750D03*
X1169750D03*
X1170750Y651750D03*
X1179750D03*
X1195750Y554250D03*
X1198250Y446750D03*
X1204750Y554250D03*
X1207250Y446750D03*
D02*
D132*
X736510Y671750D03*
Y681750D03*
X743990Y671750D03*
Y681750D03*
X894010Y459250D03*
X901490D03*
X981510Y456750D03*
X988990D03*
X1044010D03*
X1051490D03*
X1091510D03*
X1098990D03*
X1141510D03*
X1148990D03*
D02*
D133*
X883616Y449250D03*
X891884D03*
X973616Y446750D03*
X981884D03*
X1031116Y444250D03*
X1039384D03*
X1078616Y446750D03*
X1086884D03*
X1131116D03*
X1139384D03*
D02*
D134*
X872002Y469250D03*
Y489250D03*
Y499250D03*
Y509250D03*
X903498Y469250D03*
Y489250D03*
Y499250D03*
Y509250D03*
D02*
D135*
X965289Y408030D03*
Y430470D03*
X977888Y408030D03*
Y430470D03*
X986549Y408030D03*
Y430470D03*
X995211Y408030D03*
Y430470D03*
X1037789Y408030D03*
Y430470D03*
X1050388Y408030D03*
Y430470D03*
X1059049Y408030D03*
Y430470D03*
X1067711Y408030D03*
Y430470D03*
X1115289Y408030D03*
Y430470D03*
X1127888Y408030D03*
Y430470D03*
X1136549Y408030D03*
Y430470D03*
X1145211Y408030D03*
Y430470D03*
X1190289Y408030D03*
Y430470D03*
X1202888Y408030D03*
Y430470D03*
X1211549Y408030D03*
Y430470D03*
X1220211Y408030D03*
Y430470D03*
X1227789Y448030D03*
Y470470D03*
Y503030D03*
Y525470D03*
Y558030D03*
Y580470D03*
X1240388Y448030D03*
Y470470D03*
Y503030D03*
Y525470D03*
Y558030D03*
Y580470D03*
X1249049Y448030D03*
Y470470D03*
Y503030D03*
Y525470D03*
Y558030D03*
Y580470D03*
X1257711Y448030D03*
Y470470D03*
Y503030D03*
Y525470D03*
Y558030D03*
Y580470D03*
D02*
D136*
X887750Y558350D03*
Y595150D03*
X892750Y558350D03*
Y595150D03*
X897750Y558350D03*
Y595150D03*
X902750Y558350D03*
Y595150D03*
X907750Y558350D03*
Y595150D03*
X912750Y558350D03*
Y595150D03*
X917750Y558350D03*
Y595150D03*
X922750Y558350D03*
Y595150D03*
X927750Y558350D03*
Y595150D03*
X932750Y558350D03*
Y595150D03*
X962750Y558350D03*
Y595150D03*
X967750Y558350D03*
Y595150D03*
X972750Y558350D03*
Y595150D03*
X977750Y558350D03*
Y595150D03*
X982750Y558350D03*
Y595150D03*
X987750Y558350D03*
Y595150D03*
X992750Y558350D03*
Y595150D03*
X997750Y558350D03*
Y595150D03*
X1002750Y558350D03*
Y595150D03*
X1007750Y558350D03*
Y595150D03*
X1037750Y558350D03*
Y595150D03*
X1042750Y558350D03*
Y595150D03*
X1047750Y558350D03*
Y595150D03*
X1052750Y558350D03*
Y595150D03*
X1057750Y558350D03*
Y595150D03*
X1062750Y558350D03*
Y595150D03*
X1067750Y558350D03*
Y595150D03*
X1072750Y558350D03*
Y595150D03*
X1077750Y558350D03*
Y595150D03*
X1082750Y558350D03*
Y595150D03*
X1115250Y558350D03*
Y595150D03*
X1120250Y558350D03*
Y595150D03*
X1125250Y558350D03*
Y595150D03*
X1130250Y558350D03*
Y595150D03*
X1135250Y558350D03*
Y595150D03*
X1140250Y558350D03*
Y595150D03*
X1145250Y558350D03*
Y595150D03*
X1150250Y558350D03*
Y595150D03*
X1155250Y558350D03*
Y595150D03*
X1160250Y558350D03*
Y595150D03*
D02*
D137*
X848750Y641050D03*
Y665050D03*
X852750Y632350D03*
Y656350D03*
X856750Y641050D03*
Y665050D03*
X938750Y647450D03*
X942750Y656150D03*
X946750Y647450D03*
X958750D03*
X962750Y656150D03*
X966750Y647450D03*
X978750D03*
X982750Y656150D03*
X986750Y647450D03*
X998750D03*
X1002750Y656150D03*
X1006750Y647450D03*
X1018750D03*
X1022750Y656150D03*
X1026750Y647450D03*
X1038750D03*
X1042750Y656150D03*
X1046750Y647450D03*
X1091250D03*
X1095250Y656150D03*
X1099250Y647450D03*
X1111250D03*
X1115250Y656150D03*
X1119250Y647450D03*
X1131250D03*
X1135250Y656150D03*
X1139250Y647450D03*
X1151250D03*
X1155250Y656150D03*
X1159250Y647450D03*
D02*
D138*
X759800Y541750D03*
Y546750D03*
Y551750D03*
Y556750D03*
X780700Y541750D03*
Y546750D03*
Y551750D03*
Y556750D03*
X822300Y539250D03*
Y544250D03*
Y549250D03*
Y554250D03*
X843200Y539250D03*
Y544250D03*
Y549250D03*
Y554250D03*
D02*
D139*
X770250Y549250D03*
X832750Y546750D03*
D02*
D140*
X776750Y611750D03*
Y616750D03*
Y621750D03*
Y626750D03*
X798750Y611750D03*
Y616750D03*
Y621750D03*
Y626750D03*
D02*
D141*
X762750Y622175D03*
Y631325D03*
X777750Y587175D03*
Y596325D03*
X815250Y612175D03*
Y621325D03*
X855250Y562175D03*
Y571325D03*
D02*
D142*
X798550Y644250D03*
X811950D03*
X1183550Y506750D03*
X1196950D03*
D02*
D143*
X1198850Y664250D03*
Y669250D03*
Y674250D03*
Y679250D03*
X1221650Y664250D03*
Y669250D03*
Y674250D03*
Y679250D03*
D02*
D144*
X775250Y665050D03*
Y678450D03*
X1185250Y667550D03*
Y680950D03*
X0Y0D02*
M02*
