G04 EasyPC Gerber Version 20.0.2 Build 4112 *
G04 #@! TF.Part,Single*
G04 #@! TF.FileFunction,Soldermask,Bot *
%FSLAX35Y35*%
%MOIN*%
G04 #@! TA.AperFunction,SMDPad*
%ADD103R,0.04600X0.05400*%
%ADD101R,0.06100X0.06600*%
%ADD99R,0.03750X0.03750*%
G04 #@! TA.AperFunction,ComponentPad*
%ADD102R,0.06600X0.06600*%
G04 #@! TD.AperFunction*
%ADD10C,0.01200*%
G04 #@! TA.AperFunction,WasherPad*
%ADD91C,0.04600*%
G04 #@! TA.AperFunction,ComponentPad*
%ADD94C,0.06072*%
%ADD100C,0.06100*%
G04 #@! TA.AperFunction,WasherPad*
%ADD92C,0.06600*%
G04 #@! TA.AperFunction,ComponentPad*
%ADD95C,0.06899*%
%ADD96C,0.10049*%
%ADD97C,0.10639*%
%ADD93C,0.12450*%
G04 #@! TA.AperFunction,SMDPad*
%ADD98R,0.06600X0.06100*%
G04 #@! TA.AperFunction,WasherPad*
%ADD90C,0.17600*%
X0Y0D02*
D02*
D10*
X680250Y344250D02*
X1280250D01*
Y694250*
X680250*
Y344250*
D02*
D90*
X700250Y364250D03*
Y674250D03*
X1260250Y364250D03*
Y674250D03*
D02*
D91*
X927750Y586750D03*
X947750Y631750D03*
X957750D03*
X967750D03*
X977750D03*
X987750D03*
X997750D03*
X1002750Y586750D03*
X1007750Y631750D03*
X1015250Y434250D03*
X1017750Y631750D03*
X1027750D03*
X1037750D03*
X1047750D03*
X1057750D03*
X1077750Y586750D03*
X1100250Y631750D03*
X1110250D03*
X1120250D03*
X1130250D03*
X1140250D03*
X1150250D03*
X1155250Y586750D03*
D02*
D92*
X769750Y549250D03*
X832750Y546750D03*
X957750Y594250D03*
X1032750D03*
X1110250D03*
X1157750Y604250D03*
X1175250Y681750D03*
D02*
D93*
X735250Y364250D03*
X775250D03*
X810250D03*
X850250D03*
X885250D03*
X925250D03*
X960250D03*
X1000250D03*
X1035250D03*
X1075250D03*
X1110250D03*
X1150250D03*
X1185250D03*
X1225250D03*
D02*
D94*
X755250Y384250D03*
X765250D03*
X830250D03*
X840250D03*
X905250D03*
X915250D03*
X980250D03*
X990250D03*
X1055250D03*
X1065250D03*
X1130250D03*
X1140250D03*
X1205250D03*
X1215250D03*
D02*
D95*
X740250Y471750D03*
Y481750D03*
X760250Y461750D03*
Y471750D03*
X777750Y476750D03*
Y486750D03*
X797750Y466750D03*
Y476750D03*
D02*
D96*
X705250Y461848D03*
X935250Y509348D03*
X1182750Y479348D03*
X1210250Y614348D03*
X1250250D03*
D02*
D97*
X695250Y451848D03*
Y471848D03*
X715250Y451848D03*
Y471848D03*
X925250Y499348D03*
Y519348D03*
X945250Y499348D03*
Y519348D03*
X1172750Y469348D03*
Y489348D03*
X1192750Y469348D03*
Y489348D03*
X1200250Y604348D03*
Y624348D03*
X1220250Y604348D03*
Y624348D03*
X1240250Y604348D03*
Y624348D03*
X1260250Y604348D03*
Y624348D03*
D02*
D98*
X755750Y374250D03*
X764750D03*
X830750D03*
X839750D03*
X905750D03*
X914750D03*
X948250Y639250D03*
X957250D03*
X968250D03*
X977250D03*
X988250D03*
X997250D03*
X1008250D03*
X1017250D03*
X1028250D03*
X1037250D03*
X1048250D03*
X1057250D03*
X1100750D03*
X1109750D03*
X1120750D03*
X1129750D03*
X1140750D03*
X1149750D03*
D02*
D99*
X979691Y374667D03*
X988352D03*
X1055919Y374250D03*
X1064581D03*
X1129691Y374667D03*
X1138352D03*
X1205919Y374250D03*
X1214581D03*
D02*
D100*
X872750Y671750D03*
Y681750D03*
X882750Y671750D03*
Y681750D03*
X892750Y671750D03*
Y681750D03*
X902750Y671750D03*
Y681750D03*
X912750Y671750D03*
Y681750D03*
X942750Y671750D03*
Y681750D03*
X952750Y671750D03*
Y681750D03*
X962750Y671750D03*
Y681750D03*
X972750Y671750D03*
Y681750D03*
X982750Y671750D03*
Y681750D03*
X992750Y671750D03*
Y681750D03*
X1002750Y671750D03*
Y681750D03*
X1012750Y671750D03*
Y681750D03*
X1022750Y671750D03*
Y681750D03*
X1032750Y671750D03*
Y681750D03*
X1042750Y671750D03*
Y681750D03*
X1052750Y671750D03*
Y681750D03*
X1062750Y671750D03*
Y681750D03*
X1095250Y671750D03*
Y681750D03*
X1105250Y671750D03*
Y681750D03*
X1115250Y671750D03*
Y681750D03*
X1125250Y671750D03*
Y681750D03*
X1135250Y671750D03*
Y681750D03*
X1145250Y671750D03*
Y681750D03*
X1155250Y671750D03*
Y681750D03*
X1165250Y671750D03*
Y681750D03*
D02*
D101*
X950250Y587250D03*
Y596250D03*
X1025250Y587250D03*
Y596250D03*
X1102750Y587250D03*
Y596250D03*
X1142750Y587250D03*
Y596250D03*
X1185250Y672250D03*
Y681250D03*
D02*
D102*
X690250Y576750D03*
Y586750D03*
Y596750D03*
Y619250D03*
Y629250D03*
Y639250D03*
X792750Y659250D03*
Y679250D03*
X802750Y659250D03*
Y679250D03*
X812750Y659250D03*
Y679250D03*
X835250Y659250D03*
Y669250D03*
Y679250D03*
X1207750Y539250D03*
X1217750D03*
D02*
D103*
X948750Y647450D03*
X952750Y656150D03*
X956750Y647450D03*
X968750D03*
X972750Y656150D03*
X976750Y647450D03*
X988750D03*
X992750Y656150D03*
X996750Y647450D03*
X1008750D03*
X1012750Y656150D03*
X1016750Y647450D03*
X1028750D03*
X1032750Y656150D03*
X1036750Y647450D03*
X1048750D03*
X1052750Y656150D03*
X1056750Y647450D03*
X1101250D03*
X1105250Y656150D03*
X1109250Y647450D03*
X1121250D03*
X1125250Y656150D03*
X1129250Y647450D03*
X1141250D03*
X1145250Y656150D03*
X1149250Y647450D03*
X0Y0D02*
M02*
