G04 EasyPC Gerber Version 20.0.2 Build 4112 *
G04 #@! TF.Part,Single*
G04 #@! TF.FileFunction,Paste,Bot *
%FSLAX35Y35*%
%MOIN*%
G04 #@! TA.AperFunction,SMDPad*
%ADD89R,0.03600X0.04400*%
%ADD88R,0.05100X0.05600*%
%ADD87R,0.02750X0.02750*%
%ADD86R,0.05600X0.05100*%
X0Y0D02*
D02*
D86*
X755750Y374250D03*
X764750D03*
X830750D03*
X839750D03*
X905750D03*
X914750D03*
X948250Y639250D03*
X957250D03*
X968250D03*
X977250D03*
X988250D03*
X997250D03*
X1008250D03*
X1017250D03*
X1028250D03*
X1037250D03*
X1048250D03*
X1057250D03*
X1100750D03*
X1109750D03*
X1120750D03*
X1129750D03*
X1140750D03*
X1149750D03*
D02*
D87*
X979691Y374667D03*
X988352D03*
X1055919Y374250D03*
X1064581D03*
X1129691Y374667D03*
X1138352D03*
X1205919Y374250D03*
X1214581D03*
D02*
D88*
X950250Y587250D03*
Y596250D03*
X1025250Y587250D03*
Y596250D03*
X1102750Y587250D03*
Y596250D03*
X1142750Y587250D03*
Y596250D03*
X1185250Y672250D03*
Y681250D03*
D02*
D89*
X948750Y647450D03*
X952750Y656150D03*
X956750Y647450D03*
X968750D03*
X972750Y656150D03*
X976750Y647450D03*
X988750D03*
X992750Y656150D03*
X996750Y647450D03*
X1008750D03*
X1012750Y656150D03*
X1016750Y647450D03*
X1028750D03*
X1032750Y656150D03*
X1036750Y647450D03*
X1048750D03*
X1052750Y656150D03*
X1056750Y647450D03*
X1101250D03*
X1105250Y656150D03*
X1109250Y647450D03*
X1121250D03*
X1125250Y656150D03*
X1129250Y647450D03*
X1141250D03*
X1145250Y656150D03*
X1149250Y647450D03*
X0Y0D02*
M02*
