G04 EasyPC Gerber Version 20.0.2 Build 4112 *
G04 #@! TF.Part,Single*
G04 #@! TF.FileFunction,Copper,L2,Bot *
%FSLAX35Y35*%
%MOIN*%
G04 #@! TA.AperFunction,SMDPad*
%ADD74R,0.04000X0.04800*%
%ADD70R,0.05500X0.06000*%
%ADD85R,0.03150X0.03150*%
G04 #@! TA.AperFunction,ComponentPad*
%ADD75R,0.06000X0.06000*%
G04 #@! TD.AperFunction*
%ADD11C,0.01000*%
%ADD10C,0.01200*%
%ADD83C,0.02000*%
G04 #@! TA.AperFunction,WasherPad*
%ADD13C,0.04000*%
G04 #@! TD.AperFunction*
%ADD84C,0.05000*%
G04 #@! TA.AperFunction,ComponentPad*
%ADD16C,0.05472*%
%ADD73C,0.05500*%
G04 #@! TA.AperFunction,WasherPad*
%ADD14C,0.06000*%
G04 #@! TA.AperFunction,ComponentPad*
%ADD71C,0.06299*%
%ADD21C,0.09449*%
%ADD22C,0.10039*%
%ADD15C,0.11850*%
G04 #@! TA.AperFunction,WasherPad*
%ADD12C,0.17000*%
G04 #@! TA.AperFunction,SMDPad*
%ADD25R,0.06000X0.05500*%
X0Y0D02*
D02*
D10*
X680250Y344250D02*
X1280250D01*
Y694250*
X680250*
Y344250*
D02*
D11*
X688550Y519250D02*
Y510750D01*
X690050Y509250*
X690250*
X705250Y494250*
Y461848*
X725250Y646750D02*
Y596250D01*
X735250Y506750D02*
Y536750D01*
X742750Y516750D02*
Y515950D01*
X755250Y503450*
X760250*
X755750Y374250D02*
Y384250D01*
X755250*
X760250Y471750D02*
Y503450D01*
X762250Y689750D02*
X812250D01*
Y679250*
X812750*
X762750Y654250D02*
Y584250D01*
X769750Y577250*
Y549250*
X765250Y384250D02*
X764750D01*
Y374250*
X770250Y459250D02*
X752750Y441750D01*
X735250*
X771250Y531750D02*
X793750D01*
Y533250*
X815750*
X790250Y604250D02*
X780250D01*
X795250Y546750D02*
Y586750D01*
X800250Y503450D02*
Y526250D01*
X800750Y526750*
X800250Y503450D02*
X760250D01*
X805250Y446750D02*
X832750D01*
X847750Y461750*
Y496750*
X895250Y544250*
X810250Y590309D02*
Y606750D01*
X830250Y384250D02*
X830750D01*
Y374250*
X832750Y506750D02*
Y491750D01*
X800250Y459250*
X787750*
X840250Y384250D02*
X839750D01*
Y374250*
X842750Y632350D02*
Y469250D01*
X872750Y646750D02*
X900250D01*
X872750Y671750D02*
X887750Y656750D01*
X900250*
X922750Y634250*
Y614250*
X882750Y651750D02*
X890250D01*
X887750Y544250D02*
X850250Y506750D01*
X892750Y576750D02*
X882750D01*
X892750D02*
X967750D01*
X895250Y444250D02*
X907750D01*
X910250Y446750*
X920250*
X897750Y571750D02*
X877750D01*
X897750D02*
X972750D01*
X897750Y581750D02*
X972750D01*
X902750Y539250D02*
X877750Y514250D01*
Y441750*
X905250Y384250D02*
X905750D01*
Y374250*
X912750Y671750D02*
Y676750D01*
X867750*
X863250Y672250*
X857250*
X915250Y384250D02*
X914750D01*
Y374250*
X922750Y566750D02*
X992750D01*
X948250Y639250D02*
X947750D01*
Y631750*
X948750Y647450D02*
Y639250D01*
X948250*
X948750Y647450D02*
X947750D01*
Y689250*
X950250Y586750D02*
Y587250D01*
Y586750*
Y594250D02*
Y596250D01*
X952750Y671750D02*
Y656150D01*
X955250Y439250D02*
X917750Y476750D01*
Y541750*
X956750Y647450D02*
X957250D01*
Y639250*
X957750*
Y631750*
X968250Y639250D02*
X967750D01*
Y631750*
X968750Y647450D02*
X968250D01*
Y639250*
X968750Y647450D02*
X967750D01*
Y689250*
X970250Y394250D02*
X1252750D01*
X972750Y671750D02*
Y656150D01*
X976750Y647450D02*
X977250D01*
Y639250*
X977750*
Y631750*
Y439250D02*
Y461750D01*
X975250*
Y484250*
X977750Y536750D02*
X1032750Y481750D01*
Y476750*
X1035250Y474250*
Y466789*
X977888Y399250D02*
X1067711D01*
X979691Y374667D02*
Y384250D01*
X980250*
X982750Y539250D02*
X1040250Y481750D01*
Y446750*
X1032750Y439250*
Y433750*
X988250Y639250D02*
X987750D01*
Y631750*
X988352Y374667D02*
Y384250D01*
X990250*
X988750Y647450D02*
X988250D01*
Y639250*
X988750Y647450D02*
X987750D01*
Y689250*
X992750Y671750D02*
Y656150D01*
X996750Y647450D02*
X997250D01*
Y639250*
X997750*
Y631750*
Y566750D02*
X1067750D01*
X1000250Y419250D02*
Y446750D01*
X1008250Y639250D02*
X1007750D01*
Y631750*
X1008750Y647450D02*
X1007750D01*
Y689250*
X1008750Y647450D02*
X1008250D01*
Y639250*
X1010250Y439250D02*
Y491750D01*
X1012750Y671750D02*
Y656150D01*
X1016750Y647450D02*
X1017250D01*
Y639250*
X1017750*
Y631750*
X1025250Y586750D02*
Y587250D01*
Y586750*
X1028250Y639250D02*
X1027750D01*
Y631750*
X1028750Y647450D02*
X1028250D01*
Y639250*
X1028750Y647450D02*
Y664250D01*
X1027750*
Y689250*
X1032750Y671750D02*
Y656150D01*
X1036750Y647450D02*
X1037250D01*
Y639250*
X1037750*
Y631750*
X1042750Y576750D02*
X967750D01*
X1045250Y444250D02*
Y419250D01*
X1047750Y571750D02*
X972750D01*
X1047750Y581750D02*
X972750D01*
X1048250Y639250D02*
X1047750D01*
Y631750*
X1048750Y647450D02*
X1048250D01*
Y639250*
X1048750Y647450D02*
X1047750D01*
Y689250*
X1052750Y671750D02*
Y656150D01*
X1055919Y374250D02*
Y384250D01*
X1055250*
X1056750Y647450D02*
X1057250D01*
Y639250*
X1057750*
Y631750*
X1062750Y544250D02*
X1122750D01*
X1132750Y534250*
X1200250*
Y533750*
X1207750Y526250*
X1064581Y374250D02*
Y384250D01*
X1065250*
X1067711Y399250D02*
X1145211D01*
X1072750Y566750D02*
X1145250D01*
X1082750Y466789D02*
Y521750D01*
X1072750Y531750*
X1050250*
X1047750Y534250*
Y541750*
X1050250Y544250*
X1057750*
X1087750Y425884D02*
Y441750D01*
X987750Y541750*
X1100750Y639250D02*
X1100250D01*
Y631750*
X1101250Y647450D02*
Y639250D01*
X1100750*
X1101250Y647450D02*
X1100250D01*
Y689250*
X1102750Y586750D02*
Y587250D01*
Y586750*
X1105250Y671750D02*
Y656150D01*
X1109250Y647450D02*
X1109750D01*
Y639250*
X1110250*
Y631750*
X1117250Y466789D02*
Y466750D01*
X1090250Y506750*
Y529250*
X1080250Y539250*
X1052750*
X1120250Y576750D02*
X1042750D01*
X1120250Y631750D02*
Y639250D01*
X1120750*
X1121250*
Y647450*
X1120250*
Y689250*
X1125250Y571750D02*
X1047750D01*
X1125250Y581750D02*
X1047750D01*
X1125250Y671750D02*
Y656150D01*
X1129691Y374667D02*
Y384250D01*
X1130250*
X1129750Y639250D02*
Y647450D01*
X1129250*
X1130250Y544250D02*
X1180250D01*
X1130250Y631750D02*
Y639250D01*
X1129750*
X1135250Y576750D02*
X1170250D01*
X1138352Y374667D02*
X1140250D01*
Y384250*
Y571750D02*
X1175250D01*
X1140750Y639250D02*
X1140250D01*
Y631750*
X1141250Y647450D02*
X1140750D01*
Y639250*
X1141250Y647450D02*
X1140250D01*
Y689250*
X1145250Y671750D02*
Y656150D01*
X1149250Y647450D02*
X1149750D01*
Y639250*
X1150250*
Y631750*
Y549250D02*
X885250D01*
X872750Y561750*
X1170250Y431250D02*
X1153250D01*
X1140250Y444250*
X1092750*
X992750Y544250*
X1170250Y619250D02*
X1162750D01*
X1150250Y631750*
X1185250Y581750D02*
X1125250D01*
X1185250Y689250D02*
X1180250D01*
X1200250Y389250D02*
X1000250D01*
X1205250Y470884D02*
X1205116D01*
X1202750Y473250*
Y494250*
X1182750Y514250*
X1097750*
Y539250*
X1205919Y374250D02*
Y384250D01*
X1205250*
X1207750Y539250D02*
X1145250D01*
X1214581Y374250D02*
Y384250D01*
X1215250*
X1220250Y399250D02*
X1145211D01*
D02*
D12*
X700250Y364250D03*
Y674250D03*
X1260250Y364250D03*
Y674250D03*
D02*
D13*
X688550Y519250D03*
X720250Y419250D03*
X725250Y596250D03*
Y646750D03*
X735250Y441750D03*
Y506750D03*
Y536750D03*
X742750Y516750D03*
X760250Y391750D03*
X762250Y689750D03*
X762750Y654250D03*
X770250Y459250D03*
X771250Y531750D03*
X777750Y434998D03*
X780250Y604250D03*
X787750Y459250D03*
X790250Y604250D03*
X795250Y546750D03*
Y586750D03*
X800250Y503450D03*
Y559250D03*
Y631750D03*
X800750Y526750D03*
X805250Y419250D03*
Y446750D03*
X810250Y590309D03*
Y606750D03*
X815750Y533250D03*
X832750Y506750D03*
X842750Y469250D03*
Y632350D03*
X845250Y391750D03*
X850250Y506750D03*
X857250Y672250D03*
X860250Y476750D03*
Y499250D03*
X872750Y561750D03*
Y646750D03*
X877750Y441750D03*
Y571750D03*
X882750Y576750D03*
Y651750D03*
X885250Y419250D03*
X887750Y544250D03*
X890250Y604250D03*
Y651750D03*
X892750Y576750D03*
X895250Y444250D03*
Y544250D03*
X897750Y571750D03*
Y581750D03*
X900250Y419250D03*
Y646750D03*
X902750Y539250D03*
X917750Y541750D03*
X920250Y446750D03*
X922750Y566750D03*
Y614250D03*
X925250Y391750D03*
X927750Y586750D03*
X947750Y631750D03*
X955250Y439250D03*
X957750Y631750D03*
X965289Y419250D03*
X967750Y576750D03*
Y631750D03*
X970250Y394250D03*
X972750Y571750D03*
Y581750D03*
X975250Y484250D03*
X977750Y439250D03*
Y536750D03*
Y631750D03*
X977888Y399250D03*
X982750Y539250D03*
X987750Y541750D03*
Y631750D03*
X992750Y544250D03*
Y566750D03*
X997750D03*
Y631750D03*
X1000250Y389250D03*
Y446750D03*
X1002750Y586750D03*
X1007750Y631750D03*
X1010250Y439250D03*
Y491750D03*
X1015250Y434250D03*
X1017750Y631750D03*
X1027750D03*
X1032750Y433750D03*
X1035250Y466789D03*
X1037750Y631750D03*
X1037789Y419250D03*
X1042750Y576750D03*
X1045250Y444250D03*
X1047750Y571750D03*
Y581750D03*
Y631750D03*
X1052750Y539250D03*
X1057750Y544250D03*
Y631750D03*
X1062750Y544250D03*
X1067711Y399250D03*
X1067750Y566750D03*
X1072750D03*
X1077750Y586750D03*
X1082750Y466789D03*
X1087750Y425884D03*
X1092750Y586750D03*
Y614250D03*
X1097750Y539250D03*
X1100250Y631750D03*
X1110250D03*
X1115289Y419250D03*
X1117250Y466789D03*
X1120250Y576750D03*
Y631750D03*
X1125250Y571750D03*
Y581750D03*
X1130250Y544250D03*
Y631750D03*
X1135250Y576750D03*
X1140250Y571750D03*
Y631750D03*
X1145211Y399250D03*
X1145250Y539250D03*
Y566750D03*
X1150250Y549250D03*
Y631750D03*
X1155250Y586750D03*
X1170250Y431250D03*
Y576750D03*
Y619250D03*
X1175250Y571750D03*
X1180250Y544250D03*
X1185250Y581750D03*
X1190250Y634250D03*
X1190289Y419250D03*
X1200250Y389250D03*
X1205250Y470884D03*
X1207750Y526250D03*
Y664250D03*
X1220250Y399250D03*
X1232750Y484250D03*
X1252750Y394250D03*
D02*
D14*
X769750Y549250D03*
X832750Y546750D03*
X957750Y594250D03*
X1032750D03*
X1110250D03*
X1157750Y604250D03*
X1175250Y681750D03*
D02*
D15*
X735250Y364250D03*
X775250D03*
X810250D03*
X850250D03*
X885250D03*
X925250D03*
X960250D03*
X1000250D03*
X1035250D03*
X1075250D03*
X1110250D03*
X1150250D03*
X1185250D03*
X1225250D03*
D02*
D16*
X755250Y384250D03*
X765250D03*
X830250D03*
X840250D03*
X905250D03*
X915250D03*
X980250D03*
X990250D03*
X1055250D03*
X1065250D03*
X1130250D03*
X1140250D03*
X1205250D03*
X1215250D03*
D02*
D70*
X950250Y587250D03*
Y596250D03*
X1025250Y587250D03*
Y596250D03*
X1102750Y587250D03*
Y596250D03*
X1142750Y587250D03*
Y596250D03*
X1185250Y672250D03*
Y681250D03*
D02*
D71*
X740250Y471750D03*
Y481750D03*
X760250Y461750D03*
Y471750D03*
X777750Y476750D03*
Y486750D03*
X797750Y466750D03*
Y476750D03*
D02*
D21*
X705250Y461848D03*
X935250Y509348D03*
X1182750Y479348D03*
X1210250Y614348D03*
X1250250D03*
D02*
D22*
X695250Y451848D03*
Y471848D03*
X715250Y451848D03*
Y471848D03*
X925250Y499348D03*
Y519348D03*
X945250Y499348D03*
Y519348D03*
X1172750Y469348D03*
Y489348D03*
X1192750Y469348D03*
Y489348D03*
X1200250Y604348D03*
Y624348D03*
X1220250Y604348D03*
Y624348D03*
X1240250Y604348D03*
Y624348D03*
X1260250Y604348D03*
Y624348D03*
D02*
D25*
X755750Y374250D03*
X764750D03*
X830750D03*
X839750D03*
X905750D03*
X914750D03*
X948250Y639250D03*
X957250D03*
X968250D03*
X977250D03*
X988250D03*
X997250D03*
X1008250D03*
X1017250D03*
X1028250D03*
X1037250D03*
X1048250D03*
X1057250D03*
X1100750D03*
X1109750D03*
X1120750D03*
X1129750D03*
X1140750D03*
X1149750D03*
D02*
D73*
X872750Y671750D03*
Y681750D03*
X882750Y671750D03*
Y681750D03*
X892750Y671750D03*
Y681750D03*
X902750Y671750D03*
Y681750D03*
X912750Y671750D03*
Y681750D03*
X942750Y671750D03*
Y681750D03*
X952750Y671750D03*
Y681750D03*
X962750Y671750D03*
Y681750D03*
X972750Y671750D03*
Y681750D03*
X982750Y671750D03*
Y681750D03*
X992750Y671750D03*
Y681750D03*
X1002750Y671750D03*
Y681750D03*
X1012750Y671750D03*
Y681750D03*
X1022750Y671750D03*
Y681750D03*
X1032750Y671750D03*
Y681750D03*
X1042750Y671750D03*
Y681750D03*
X1052750Y671750D03*
Y681750D03*
X1062750Y671750D03*
Y681750D03*
X1095250Y671750D03*
Y681750D03*
X1105250Y671750D03*
Y681750D03*
X1115250Y671750D03*
Y681750D03*
X1125250Y671750D03*
Y681750D03*
X1135250Y671750D03*
Y681750D03*
X1145250Y671750D03*
Y681750D03*
X1155250Y671750D03*
Y681750D03*
X1165250Y671750D03*
Y681750D03*
D02*
D74*
X948750Y647450D03*
X952750Y656150D03*
X956750Y647450D03*
X968750D03*
X972750Y656150D03*
X976750Y647450D03*
X988750D03*
X992750Y656150D03*
X996750Y647450D03*
X1008750D03*
X1012750Y656150D03*
X1016750Y647450D03*
X1028750D03*
X1032750Y656150D03*
X1036750Y647450D03*
X1048750D03*
X1052750Y656150D03*
X1056750Y647450D03*
X1101250D03*
X1105250Y656150D03*
X1109250Y647450D03*
X1121250D03*
X1125250Y656150D03*
X1129250Y647450D03*
X1141250D03*
X1145250Y656150D03*
X1149250Y647450D03*
D02*
D75*
X690250Y576750D03*
Y586750D03*
Y596750D03*
Y619250D03*
Y629250D03*
Y639250D03*
X792750Y659250D03*
Y679250D03*
X802750Y659250D03*
Y679250D03*
X812750Y659250D03*
Y679250D03*
X835250Y659250D03*
Y669250D03*
Y679250D03*
X1207750Y539250D03*
X1217750D03*
D02*
D83*
X800250Y631750D02*
Y559250D01*
X812750Y659250D02*
Y644250D01*
X800250Y631750*
X927750Y586750D02*
X950250D01*
X1002750*
X1025250*
X1077750*
X1092750*
X1102750*
X1155250*
X1190250Y634250D02*
Y629250D01*
X1175250Y614250*
X1092750*
X1207750Y664250D02*
Y659250D01*
X1237750*
X1275250Y484250D02*
X1232750D01*
D02*
D84*
X760250Y391750D02*
X845250D01*
X777750Y476750D02*
Y434998D01*
X792750Y659250D02*
Y679250D01*
X805250Y419250D02*
X720250D01*
X812750Y659250D02*
Y679250D01*
Y689250*
X947750*
X860250Y499250D02*
Y476750D01*
X885250Y419250D02*
X805250D01*
X900250D02*
X885250D01*
X925250Y391750D02*
X845250D01*
X947750Y689250D02*
X967750D01*
X950250Y596250D02*
X890250D01*
Y604250*
X957750Y594250D02*
X950250D01*
X957750D02*
X1032750D01*
X965289Y419250D02*
X900250D01*
X967750Y689250D02*
X987750D01*
X1007750*
X1000250Y419250D02*
X965289D01*
X1007750Y689250D02*
X1027750D01*
X1047750*
X1032750Y594250D02*
X1110250D01*
X1037789Y419250D02*
X1000250D01*
X1045250D02*
X1037789D01*
X1047750Y689250D02*
X1062750D01*
Y671750D02*
Y681750D01*
Y689250*
X1100250D02*
X1062750D01*
X1100250D02*
X1120250D01*
X1110250Y594250D02*
X1147750D01*
X1157750Y604250*
Y604348*
X1200250*
X1115289Y419250D02*
X1045250D01*
X1120250Y689250D02*
X1140250D01*
X1165250*
Y681750D02*
Y689250D01*
X1180250*
X1207750*
X1237750Y659250*
X1185250Y672250D02*
X1175250D01*
Y681750*
X1185250Y681250D02*
Y689250D01*
X1190289Y419250D02*
X1115289D01*
X1237750Y659250D02*
X1247750Y649250D01*
X1255250*
X1275250Y629250*
Y484250*
Y419250*
X1190289*
D02*
D85*
X979691Y374667D03*
X988352D03*
X1055919Y374250D03*
X1064581D03*
X1129691Y374667D03*
X1138352D03*
X1205919Y374250D03*
X1214581D03*
X0Y0D02*
M02*
